<?xml version="1.0" standalone="no"?>
<!DOCTYPE svg PUBLIC "-//W3C//DTD SVG 1.1//EN" "http://www.w3.org/Graphics/SVG/1.1/DTD/svg11.dtd" >
<svg>
<metadata>
Created by FontForge 20090914 at Mon Feb 27 14:38:56 2012
 By www-data
Data copyright &#194;&#169; URW Software &#38; Type GbmH., additional data copyright The Font Bureau, Inc. Copyright 1994 Microsoft Corporation. All rights reserved.
</metadata>
<defs>
<font id="CopperplateGothic-Light" horiz-adv-x="1024" >
  <font-face 
    font-family="Copperplate Gothic Light"
    font-weight="400"
    font-stretch="normal"
    units-per-em="2048"
    panose-1="2 14 5 7 2 2 6 2 4 4"
    ascent="1638"
    descent="-410"
    x-height="1120"
    cap-height="1365"
    bbox="-205 -512 2620.01 1786"
    underline-thickness="103"
    underline-position="-148"
    unicode-range="U+0020-U+F002"
  />
<missing-glyph horiz-adv-x="512" 
d="M51 0v1365h410v-1365h-410zM410 51v1263h-308v-1263h308z" />
    <glyph glyph-name=".notdef" horiz-adv-x="512" 
d="M51 0v1365h410v-1365h-410zM410 51v1263h-308v-1263h308z" />
    <glyph glyph-name="space" unicode=" " horiz-adv-x="512" 
 />
    <glyph glyph-name="space" unicode="&#xa0;" horiz-adv-x="512" 
 />
    <glyph glyph-name="exclam" unicode="!" horiz-adv-x="699" 
d="M436 382l-172.999 0.000976562v27l16 4c26 6 38.667 16.333 38 31l-1 10v15l-53 822c-1.33301 18 -5 29.5 -11 34.5s-21.667 9.16699 -47 12.5v27h289v-27c-8.66699 -1.33301 -14.334 -2.33301 -17.001 -3c-25.333 -2.66699 -39 -17.334 -41 -44.001l-53 -822v-15l-1 -10
c0 -10 2.5 -16.667 7.5 -20s20.5 -8.33301 46.5 -15v-27zM349.001 194.001c30.667 0 56.5 -10.668 77.5 -32.001s31.5 -47.333 31.5 -78c0 -29.333 -10.833 -54.666 -32.5 -75.999s-47.167 -32 -76.5 -32c-30 0 -55.667 10.667 -77 32s-32 47 -32 77s10.5 55.5 31.5 76.5
s46.833 31.833 77.5 32.5z" />
    <glyph glyph-name="quotedbl" unicode="&#x22;" horiz-adv-x="1070" 
d="M354 843l-173 -0.000976562v28c8 1.33301 13.333 2 16 2c25.333 2.66699 38 9.33398 38 20.001c0 2 -0.333008 5.33301 -1 10l-51 396c-2 16.667 -5.66699 26.667 -11 30s-21.666 6 -48.999 8v28h289v-28c-8.66699 -0.666992 -14.334 -1 -17.001 -1
c-17.333 -1.33301 -28.333 -4 -33 -8s-8 -13.667 -10 -29l-51 -396c-1.33301 -11.333 0.5 -18.5 5.5 -21.5s20.833 -6.5 47.5 -10.5v-28zM889 842.999h-172.999v28c8 1.33301 13.333 2 16 2c25.333 2.66699 38 9.33398 38 20.001c0 1.33301 -0.333008 4.66602 -1 9.99902
l-51 396c-2.66699 16.667 -6.5 26.667 -11.5 30s-21.167 6 -48.5 8v28h289v-28c-8.66699 -0.666992 -14.334 -1 -17.001 -1c-17.333 -1.33301 -28.333 -4 -33 -8s-8 -13.667 -10 -29l-51 -396c-1.33301 -11.333 0.5 -18.5 5.5 -21.5s20.833 -6.5 47.5 -10.5v-28z" />
    <glyph glyph-name="numbersign" unicode="#" horiz-adv-x="1570" 
d="M381 345l-177.999 -0.00195312c-21.333 0 -38.333 -4.66699 -51 -14s-24.667 -26 -36 -50h-33l50 258h33c2 -24 7.5 -40.667 16.5 -50s24.167 -14 45.5 -14h178l81 416h-178c-21.333 0 -38.333 -4.66699 -51 -14s-24.667 -26 -36 -50h-33l50 258h33
c2 -24 7.5 -40.667 16.5 -50s24.167 -14 45.5 -14h179l45 235c0.666992 3.33301 1 8.66602 1 15.999c0 16 -3.33301 27.667 -10 35s-20.334 14.333 -41.001 21l7 37h258l-7 -37c-26 -7.33301 -44.5 -16.166 -55.5 -26.499s-18.5 -25.5 -22.5 -45.5l-46 -235h417l45 235
c0.666992 3.33301 1 8.66602 1 15.999c0 16 -3.33301 27.667 -10 35s-20.334 14.333 -41.001 21l8 37h257l-7 -37c-26 -7.33301 -44.5 -16.166 -55.5 -26.499s-18.5 -25.5 -22.5 -45.5l-46 -235h179c20.667 0 37.5 4.66699 50.5 14s25.167 26 36.5 50h33l-51 -258h-33
c-2 24 -7.5 40.667 -16.5 50s-24.167 14 -45.5 14h-178l-81 -416h178c21.333 0 38.333 4.66699 51 14s24.667 26 36 50h33l-50 -258h-33c-2 24 -7.5 40.667 -16.5 50s-24.167 14 -45.5 14h-178l-46 -236c-0.666992 -4.66699 -1 -10.667 -1 -18
c0 -15.333 3.33301 -26.666 10 -33.999s20.334 -14 41.001 -20l-7 -37h-258l7 37c26 6.66699 44.5 15.167 55.5 25.5s18.5 25.833 22.5 46.5l46 236h-416l-46 -236c-0.666992 -4.66699 -1 -10.667 -1 -18c0 -15.333 3.33301 -26.666 10 -33.999s20.334 -14 41.001 -20
l-8 -37h-257l7 37c25.333 6.66699 43.666 15.167 54.999 25.5s19 25.833 23 46.5zM536.001 474.998h416l81 416h-416z" />
    <glyph glyph-name="dollar" unicode="$" horiz-adv-x="1475" 
d="M802 1234l-0.00195312 -463.003l72 -8c101.333 -11.333 172.833 -21.666 214.5 -30.999s78.834 -22.666 111.501 -39.999c101.333 -55.333 152 -148 152 -278c0 -124.667 -49.167 -224.334 -147.5 -299.001s-232.5 -114 -402.5 -118v-125c0 -20 4.66699 -35.333 14 -46
s26 -19.334 50 -26.001v-32h-243v32c24 6.66699 40.667 15.334 50 26.001s14 26 14 46v128c-137.333 10 -267.666 45.667 -390.999 107c-61.333 30.667 -97 46 -107 46c-8.66699 0 -22.334 -11.333 -41.001 -34l-25 16l134 241l24 -14c-11.333 -24 -17 -40.333 -17 -49
c0 -25.333 56 -62.333 168 -111c86 -38 171 -61 255 -69v496c-133.333 16.667 -230.666 36.334 -291.999 59.001c-71.333 27.333 -124 67 -158 119c-32.667 50 -49 105.667 -49 167c0 110 43.833 199.333 131.5 268s210.167 110 367.5 124v126
c0 20.667 -4.66699 36.334 -14 47.001s-26 19.334 -50 26.001v32h243v-32c-24 -6.66699 -40.667 -15.334 -50 -26.001s-14 -26.334 -14 -47.001v-124c139.333 -5.33301 277.666 -36.666 414.999 -93.999c20 -8 32 -12 36 -12c10.667 0 25.334 12 44.001 36l25 -12l-127 -246
l-25 14c9.33301 26 14 42.333 14 49c0 22.667 -44.333 49.667 -133 81c-72 26 -155 42.667 -249 50zM686.998 1234c-72.667 -6 -134.333 -20.667 -185 -44c-107.333 -49.333 -161 -118 -161 -206s55.333 -146 166 -174c24 -6 84 -14.667 180 -26v450zM801.999 129.997
c116.667 5.33301 206 26.999 268 64.999c86 54 129 123 129 207c0 84.667 -44.333 142.334 -133 173.001c-30.667 10.667 -118.667 24 -264 40v-485z" />
    <glyph glyph-name="percent" unicode="%" horiz-adv-x="1842" 
d="M422 1377c93.333 0 173.335 -29.998 240.002 -89.998c77.333 -69.333 116 -159.333 116 -270c0 -48 -10.333 -95.333 -31 -142s-49 -86 -85 -118c-66.667 -60 -146.334 -90 -239.001 -90s-172.334 30 -239.001 90c-77.333 69.333 -116 157.666 -116 264.999
c0 50.667 10.333 99.667 31 147s49 86.666 85 117.999c66.667 58.667 146 88.667 238 90zM422.002 1296c-70 0 -128.999 -25 -176.999 -75c-50 -52 -75 -118.333 -75 -199c0 -79.333 23.833 -144.833 71.5 -196.5s108.167 -77.5 181.5 -77.5c71.333 0 130.666 25 177.999 75
c50 52 75 117 75 195c0 82 -23.5 148.667 -70.5 200s-108.167 77.333 -183.5 78zM567.003 28.002v-27.999h-281v28c46 2.66699 101.333 44 166 124l821 1061c38 49.333 57 79.666 57 90.999c0 17.333 -15.667 28.333 -47 33v28h272v-28
c-46 -2.66699 -101.333 -43.667 -166 -123l-812 -1062c-38.667 -50.667 -58 -81 -58 -91c0 -16.667 16 -27.667 48 -33zM1417 698.003c93.333 0 173.335 -29.998 240.002 -89.998c77.333 -69.333 116 -159.333 116 -270c0 -48 -10.333 -95.333 -31 -142s-49 -86 -85 -118
c-66.667 -60 -146.334 -90 -239.001 -90s-172.334 30 -239.001 90c-77.333 69.333 -116 157.666 -116 264.999c0 50.667 10.5 99.667 31.5 147s49.167 86.666 84.5 117.999c66.667 58.667 146 88.667 238 90zM1417 617.005c-70 0 -128.999 -25 -176.999 -75
c-50 -52 -75 -118.333 -75 -199c0 -79.333 23.833 -144.833 71.5 -196.5s108.167 -77.5 181.5 -77.5c71.333 0 130.666 25 177.999 75c50 52 75 117 75 195c0 82 -23.5 148.667 -70.5 200s-108.167 77.333 -183.5 78z" />
    <glyph glyph-name="ampersand" unicode="&#x26;" horiz-adv-x="1528" 
d="M1473 883l0.000976562 -243.999h-27c-2 32.667 -10 49 -24 49c-28 0 -65.667 -28.667 -113 -86c-34.667 -42 -80.334 -116 -137.001 -222c36.667 -86.667 79.667 -147.667 129 -183c40.667 -30 77.667 -45 111 -45c12 0 19.5 2.16699 22.5 6.5
s6.83301 19.166 11.5 44.499h27v-203c-108 2 -193 21.167 -255 57.5s-110 95.5 -144 177.5c-105.333 -172.667 -266.333 -259 -483 -259c-154.667 0 -278 44 -370 132c-85.333 82.667 -128 179.667 -128 291c0 58.667 13.833 114.667 41.5 168s66.5 98.666 116.5 135.999
c47.333 35.333 111.666 65.333 192.999 90c-116 58 -174 142.667 -174 254c0 103.333 40.333 187.333 121 252c73.333 60 169.333 90 288 90c140.667 0 249.334 -40 326.001 -120c60.667 -62.667 91 -137.667 91 -225c0 -65.333 -18.5 -122.166 -55.5 -170.499
s-90.167 -85.5 -159.5 -111.5c108 -50 182.333 -132 223 -246c96.667 226 219.667 348.333 369 367zM673.001 1266c-69.333 0 -126.669 -16.001 -172.002 -48.001c-54 -39.333 -81 -95.333 -81 -168c0 -63.333 24.333 -114 73 -152c54.667 -42.667 122.334 -64 203.001 -64
c76 0 137.333 20.333 184 61c44 38 66 85.667 66 143c0 60 -20.667 110.333 -62 151c-51.333 50.667 -121.666 76.334 -210.999 77.001zM608.998 702c-105.333 0 -194.666 -31.001 -267.999 -93.001c-60.667 -51.333 -91 -117 -91 -197s25.667 -145.333 77 -196
c69.333 -69.333 160.666 -104 273.999 -104c107.333 0 202.333 36.333 285 109c64.667 56 97 110.333 97 163c0 32 -10.5 68.833 -31.5 110.5s-47.5 77.834 -79.5 108.501c-67.333 64.667 -155 97.667 -263 99z" />
    <glyph glyph-name="quotesingle" unicode="'" horiz-adv-x="535" 
d="M354 843l-173 -0.000976562v28c8 1.33301 13.333 2 16 2c25.333 2.66699 38 9.33398 38 20.001c0 2 -0.333008 5.33301 -1 10l-51 396c-2 16.667 -5.66699 26.667 -11 30s-21.666 6 -48.999 8v28h289v-28c-8.66699 -0.666992 -14.334 -1 -17.001 -1
c-17.333 -1.33301 -28.333 -4 -33 -8s-8 -13.667 -10 -29l-51 -396c-1.33301 -11.333 0.5 -18.5 5.5 -21.5s20.833 -6.5 47.5 -10.5v-28z" />
    <glyph glyph-name="parenleft" unicode="(" horiz-adv-x="649" 
d="M595 1529l53.999 -58.999c-74 -59.333 -145 -148.333 -213 -267c-92.667 -161.333 -139 -335 -139 -521c0 -196.667 52.667 -381 158 -553c62.667 -103.333 127.334 -181.333 194.001 -234l-54 -59c-305.333 240.667 -458 522.667 -458 846s152.667 605.666 458 846.999z
" />
    <glyph glyph-name="parenright" unicode=")" horiz-adv-x="649" 
d="M54 1529c305.333 -241.333 458 -523.668 458 -847.001s-152.667 -605.333 -458 -846l-54 59c74.667 59.333 145.667 148 213 266c92.667 161.333 139 335 139 521c0 196.667 -52.667 381.334 -158 554.001c-63.333 103.333 -128 181.333 -194 234z" />
    <glyph glyph-name="asterisk" unicode="*" horiz-adv-x="858" 
d="M319 1502l221.001 0.000976562v-27c-24.667 -6.66699 -41 -22.5 -49 -47.5s-12.333 -73.167 -13 -144.5c66 23.333 109.833 42 131.5 56s32.5 31 32.5 51c0 2.66699 -0.333008 6.33398 -1 11.001l27 9l68 -210l-27 -8c-12.667 20.667 -30.667 31 -54 31
c-29.333 0 -78.333 -10.667 -147 -32c38.667 -50.667 67 -84.334 85 -101.001s34.667 -25 50 -25c6.66699 0 16 2.33301 28 7l16 -22l-178 -130l-16 23c11.333 14 17 26.333 17 37c0 26 -26.667 77.333 -80 154c-54 -78 -81 -129.333 -81 -154
c0 -10.667 6 -23.334 18 -38.001l-16 -22l-179 130l17 22c11.333 -4.66699 20.666 -7 27.999 -7c27.333 0 72 42 134 126c-70.667 21.333 -119.667 32 -147 32c-22 0 -40.333 -10.667 -55 -32l-26 8l69 210l26 -8c-0.666992 -5.33301 -1 -9.33301 -1 -12
c0 -19.333 11.5 -36.5 34.5 -51.5s66.167 -33.167 129.5 -54.5c-0.666992 71.333 -5.16699 119.5 -13.5 144.5s-24.5 40.833 -48.5 47.5v27z" />
    <glyph glyph-name="plus" unicode="+" horiz-adv-x="1570" 
d="M238 554l-0.00195312 257.996h34c14.667 -24.667 32.834 -41.5 54.501 -50.5s53.834 -13.5 96.501 -13.5h298v295c0 42.667 -4.83301 75 -14.5 97s-26.5 40 -50.5 54v36h258v-36c-24 -14.667 -40.5 -32.667 -49.5 -54s-13.5 -53.666 -13.5 -96.999v-295h294
c43.333 0 76.166 4.66699 98.499 14s40.166 26 53.499 50h36v-258h-36c-14.667 24.667 -32.667 41.5 -54 50.5s-53.666 13.5 -96.999 13.5h-295v-298c0 -42.667 4.5 -74.667 13.5 -96s25.5 -39.666 49.5 -54.999v-33h-258v34c24.667 14.667 41.667 32.834 51 54.501
s14 53.834 14 96.501v297h-299c-42.667 0 -74.667 -4.5 -96 -13.5s-39.666 -25.833 -54.999 -50.5h-33z" />
    <glyph glyph-name="comma" unicode="," horiz-adv-x="573" 
d="M215 -232l-30.001 35.002c44 27.333 76 54.166 96 80.499s33.333 59.166 40 98.499c-18 -4 -32 -6 -42 -6c-30.667 0 -55.334 9.83301 -74.001 29.5s-28 45.5 -28 77.5c0 32.667 9.83301 59.5 29.5 80.5s44.834 31.5 75.501 31.5c34.667 0 62.334 -14.333 83.001 -43
s31 -67 31 -115c0 -59.333 -14.167 -110 -42.5 -152s-74.5 -81 -138.5 -117z" />
    <glyph glyph-name="hyphen" unicode="-" horiz-adv-x="407" 
d="M407 689l-0.00195312 -258h-24c-5.33301 24.667 -11.666 41.5 -18.999 50.5s-18.666 13.5 -33.999 13.5h-254c-14.667 0 -25.834 -4.5 -33.501 -13.5s-14.167 -25.833 -19.5 -50.5h-23v258h23c5.33301 -24.667 11.833 -41.5 19.5 -50.5s18.834 -13.5 33.501 -13.5h254
c14.667 0 26 4.66699 34 14s14.333 26 19 50h24z" />
    <glyph glyph-name="period" unicode="." horiz-adv-x="573" 
d="M286 194c30.667 0 56.5 -10.668 77.5 -32.001s31.5 -47.333 31.5 -78c0 -29.333 -10.833 -54.666 -32.5 -75.999s-47.167 -32 -76.5 -32c-30 0 -55.667 10.833 -77 32.5s-32 47.167 -32 76.5c0 30 10.5 55.5 31.5 76.5s46.833 31.833 77.5 32.5z" />
    <glyph glyph-name="slash" unicode="/" horiz-adv-x="1460" 
d="M411 28v-28.001h-315v28c46 2.66699 100.333 44 163 124l794 1061c36 48.667 54 78.667 54 90c0 18 -16 29.667 -48 35v27h307v-27c-46 -2.66699 -100.333 -44 -163 -124l-785 -1062c-36.667 -49.333 -55 -79.333 -55 -90c0 -17.333 16 -28.666 48 -33.999z" />
    <glyph glyph-name="zero" unicode="0" horiz-adv-x="1475" 
d="M736 1389c169.333 0 314.669 -59.667 436.002 -179c63.333 -62 113.666 -138 150.999 -228c40 -96 60 -199 60 -309c0 -137.333 -36.333 -266.666 -109 -387.999c-66 -109.333 -154 -191 -264 -245c-86.667 -42.667 -177.667 -64 -273 -64
c-112.667 0 -218.334 29.333 -317.001 88c-105.333 62 -187.333 151.667 -246 269c-55.333 109.333 -83 226 -83 350c0 144 36.333 276.333 109 397c65.333 109.333 153.333 191 264 245c84 41.333 174.667 62.666 272 63.999zM736.003 1252
c-141.333 0 -260 -51.6689 -356 -155.002c-100.667 -108 -151 -246 -151 -414s50.333 -306.333 151 -415c95.333 -103.333 214.333 -155 357 -155s261.667 51.667 357 155c100.667 108.667 151 244.334 151 407.001c0 174.667 -50.333 315.334 -151 422.001
c-96 102 -215.333 153.667 -358 155z" />
    <glyph glyph-name="one" unicode="1" horiz-adv-x="1475" 
d="M710 1119c-56 -34.667 -104.997 -54.998 -146.997 -60.998c-18.667 -2.66699 -30.334 -6.5 -35.001 -11.5s-9.33398 -18.5 -14.001 -40.5h-32v256h32c4 -30 7.66699 -47.667 11 -53s11.666 -8 24.999 -8c31.333 0 66.333 11.667 105 35s58 44.666 58 63.999
c0 13.333 -18.667 23.666 -56 30.999v34h267v-34c-25.333 -6 -42.333 -14.667 -51 -26s-13 -30.666 -13 -57.999v-1129c0 -27.333 4.33301 -46.5 13 -57.5s25.667 -19.833 51 -26.5v-34h-278v34c25.333 6 42.333 14.667 51 26s13 30.666 13 57.999v1001z" />
    <glyph glyph-name="two" unicode="2" horiz-adv-x="1475" 
d="M345 942l-205 200.001l23 22c26 -17.333 45.667 -26 59 -26c7.33301 0 17 6.33301 29 19c145.333 154.667 324 232 536 232c142 0 258.667 -36.667 350 -110c94.667 -75.333 142 -171.666 142 -288.999c0 -116 -45 -212.333 -135 -289
c-62 -52.667 -164.667 -114.334 -308 -185.001c-109.333 -54 -184.5 -93.333 -225.5 -118s-81.833 -56 -122.5 -94c-56.667 -52.667 -96.667 -110.667 -120 -174h849c28 0 47.833 4.33301 59.5 13s20.5 25.667 26.5 51h32v-258h-32c-6 25.333 -14.833 42.333 -26.5 51
s-31.5 13 -59.5 13h-938c-28 0 -47.833 -4.33301 -59.5 -13s-20.5 -25.667 -26.5 -51h-32c0.666992 71.333 11 134.166 31 188.499s53.333 110.833 100 169.5c51.333 65.333 113.333 123.333 186 174s174.667 107 306 169c78.667 38 136.167 68.333 172.5 91
s68.5 49 96.5 79c46 49.333 69 106.666 69 171.999c0 72.667 -26.667 132.667 -80 180c-70 62.667 -161.667 94 -275 94c-128 0 -241.667 -42 -341 -126c-57.333 -49.333 -86 -84.666 -86 -105.999c0 -15.333 9 -34 27 -56z" />
    <glyph glyph-name="three" unicode="3" horiz-adv-x="1475" 
d="M296 966l-181.001 206.001l23 22c22 -16.667 38 -25 48 -25c7.33301 0 31.333 14.667 72 44c85.333 62.667 167 107.667 245 135s162.667 41 254 41c155.333 0 283 -38.333 383 -115c42.667 -32.667 76.167 -72 100.5 -118s36.5 -93.667 36.5 -143
c0 -130 -75.333 -221.667 -226 -275c74 -18.667 132.667 -46.334 176 -83.001c74 -64 111 -147.333 111 -250c0 -125.333 -51.667 -226.666 -155 -303.999c-112 -83.333 -256.667 -125 -434 -125c-95.333 0 -185.833 12 -271.5 36s-176.5 62.667 -272.5 116
c-16 9.33301 -26.667 14 -32 14c-12.667 0 -29.334 -10.333 -50.001 -31l-27 17l146 242l27 -16c-7.33301 -17.333 -11 -30.333 -11 -39c0 -13.333 11 -29.666 33 -48.999c54.667 -48 123.334 -85.5 206.001 -112.5s170 -40.5 262 -40.5c140.667 0 250 31.667 328 95
c28.667 23.333 51.5 53 68.5 89s25.5 72.333 25.5 109c0 76 -29.333 137.333 -88 184c-64 50.667 -163.333 76 -298 76h-128c-28 0 -47.833 -4.33301 -59.5 -13s-20.5 -25.667 -26.5 -51h-32v258h32c6 -25.333 14.833 -42.333 26.5 -51s31.5 -13 59.5 -13h106
c68.667 0 122.334 4 161.001 12s73.334 22.667 104.001 44c54.667 37.333 82 88.666 82 153.999s-29 119.666 -87 162.999c-74 56 -170.333 84 -289 84c-140.667 0 -264.334 -43.333 -371.001 -130c-48 -39.333 -72 -69.333 -72 -90c0 -8 6 -23 18 -45z" />
    <glyph glyph-name="four" unicode="4" horiz-adv-x="1475" 
d="M1123 417l135 -0.000976562c28 0 47.833 4.33301 59.5 13s20.5 25.667 26.5 51h32v-258h-32c-6 25.333 -14.833 42.333 -26.5 51s-31.5 13 -59.5 13h-135v-169c0 -26.667 4.33301 -45.667 13 -57s25.667 -20.333 51 -27v-34h-278v34c25.333 6.66699 42.333 15.5 51 26.5
s13 30.167 13 57.5v169h-756c-28 0 -47.833 -4.33301 -59.5 -13s-20.5 -25.667 -26.5 -51h-32v165l768 892c8 9.33301 12 17 12 23c0 10.667 -16.333 20 -49 28v34h357v-34c-25.333 -6 -42.333 -14.667 -51 -26s-13 -30.666 -13 -57.999v-830zM973 416.999v795l-673 -795
h673z" />
    <glyph glyph-name="five" unicode="5" horiz-adv-x="1475" 
d="M377 1235v-424.004c120.667 84.667 261.334 127 422.001 127c164 0 297 -40 399 -120c110 -86 165 -200.667 165 -344s-59 -263.666 -177 -360.999c-109.333 -91.333 -247.666 -137 -414.999 -137c-102.667 0 -195 14 -277 42s-169.667 75.667 -263 143
c-14.667 10.667 -26.334 16 -35.001 16c-10.667 0 -25.667 -7.33301 -45 -22l-26 17l166 218l25 -20c-11.333 -20.667 -17 -37 -17 -49c0 -18 29 -47.667 87 -89c110 -79.333 238.333 -119 385 -119c152 0 268.667 43.667 350 131c56.667 60.667 85 136.334 85 227.001
c0 94.667 -33.333 172.667 -100 234c-79.333 73.333 -183 110 -311 110c-120.667 0 -225.334 -28.333 -314.001 -85c-48 -30.667 -72 -54 -72 -70c0 -13.333 6.66699 -28 20 -44l-19 -25l-270 209l22 23h9c24 0 39.333 5.83301 46 17.5s10 37.834 10 78.501v328
c0 28 -4.33301 47.833 -13 59.5s-25.667 20.5 -51 26.5v32h997c28 0 47.833 4.33301 59.5 13s20.5 26 26.5 52h32v-258h-32c-6 24.667 -14.833 41.334 -26.5 50.001s-31.5 13 -59.5 13h-783z" />
    <glyph glyph-name="six" unicode="6" horiz-adv-x="1475" 
d="M1318 1286l-129.001 -243l-27 17c4.66699 18.667 7 32.667 7 42c0 22 -21.333 47 -64 75c-83.333 54.667 -178.333 82 -285 82c-135.333 0 -250.666 -45 -345.999 -135c-115.333 -108.667 -173 -255.334 -173 -440.001c0 -14 0.666992 -35 2 -63
c124.667 186.667 296 280 514 280c152 0 277.333 -42.333 376 -127c100 -86 150 -194.667 150 -326s-50 -241.666 -150 -330.999c-105.333 -94 -241.333 -141 -408 -141c-195.333 0 -351.333 64.667 -468 194c-57.333 63.333 -101 140 -131 230
c-26.667 80.667 -40 164.667 -40 252c0 136 31 263.333 93 382c64 122 153.333 214.333 268 277c96 52 198.667 78 308 78c62.667 0 117 -6 163 -18s112.667 -37.667 200 -77c34 -15.333 56.667 -23 68 -23c12 0 26.667 10.333 44 31zM787.999 765
c-108.667 0 -203 -31.001 -283 -93.001c-41.333 -32 -74 -68.833 -98 -110.5s-36 -82.834 -36 -123.501c0 -35.333 9.66699 -73 29 -113s45 -75 77 -105c76 -71.333 176 -107 300 -107c126 0 230.333 36 313 108c64 55.333 96 125.333 96 210
c0 98.667 -36 178.334 -108 239.001c-74 62.667 -170.667 94.334 -290 95.001z" />
    <glyph glyph-name="seven" unicode="7" horiz-adv-x="1475" 
d="M1131 1228l-920 -0.000976562c-28 0 -47.833 -4.16699 -59.5 -12.5s-20.5 -25.166 -26.5 -50.499h-32v265h32c6 -26 14.833 -43.333 26.5 -52s31.5 -13 59.5 -13h971c28 0 47.833 4.33301 59.5 13s20.5 26 26.5 52h32v-187l-646 -1151c-8 -14 -12 -24.667 -12 -32
c0 -15.333 20.333 -24 61 -26v-34h-307v34c24 2.66699 42.333 7.5 55 14.5s23.667 18.5 33 34.5z" />
    <glyph glyph-name="eight" unicode="8" horiz-adv-x="1475" 
d="M385 730c-62 21.333 -109.667 48 -143 80c-60.667 57.333 -91 127.666 -91 210.999c0 79.333 28 149 84 209c98 106 265.333 159 502 159c172.667 0 311.667 -30.333 417 -91c54.667 -32 97.667 -74 129 -126c26.667 -45.333 40 -95.666 40 -150.999
c0 -69.333 -19.667 -128.5 -59 -177.5s-97.666 -86.833 -174.999 -113.5c58.667 -19.333 106.667 -44 144 -74c88 -70 132 -157.333 132 -262c0 -70.667 -22 -138.667 -66 -204c-96.667 -142.667 -284 -214 -562 -214c-210.667 0 -372.334 44 -485.001 132
c-44 34 -78.833 76.833 -104.5 128.5s-38.5 104.167 -38.5 157.5c0 77.333 24 145.333 72 204s116 102.667 204 132zM734 1252c-140.667 0 -251.001 -23.335 -331.001 -70.002c-68 -39.333 -102 -93.333 -102 -162c0 -67.333 34 -121 102 -161
c80 -46.667 191.333 -70 334 -70s254.334 23.333 335.001 70c67.333 39.333 101 92 101 158c0 74.667 -38.333 132.334 -115 173.001s-184.667 61.334 -324 62.001zM733.999 665.998c-152.667 0 -272.001 -27.999 -358.001 -83.999c-73.333 -47.333 -110 -111.333 -110 -192
s36.667 -145 110 -193c86 -56 206.333 -84 361 -84s275 28 361 84c34 22 60.833 50 80.5 84s29.5 69 29.5 105c0 83.333 -36.667 148.666 -110 195.999c-85.333 55.333 -206.666 83.333 -363.999 84z" />
    <glyph glyph-name="nine" unicode="9" horiz-adv-x="1475" 
d="M117 121l150 228.003l26 -18c-8 -18.667 -12 -33.334 -12 -44.001c0 -14.667 12 -31 36 -49c116.667 -84 237.667 -126 363 -126c130.667 0 241.667 41.667 333 125c114 105.333 171 256.666 171 453.999c0 14.667 -0.333008 32 -1 52
c-104 -180.667 -271.667 -271 -503 -271c-154 0 -280.333 43.667 -379 131c-99.333 86.667 -149 194 -149 322c0 96.667 29.667 183 89 259c55.333 71.333 132.333 125.333 231 162c76 28.667 157.333 43 244 43c135.333 0 254.666 -34.667 357.999 -104
c97.333 -64.667 169 -156 215 -274c36.667 -94 55 -194.667 55 -302c0 -130 -26 -252 -78 -366c-58.667 -128.667 -147.667 -225.334 -267 -290.001c-95.333 -51.333 -201.666 -77 -318.999 -77c-74.667 0 -143.834 9.66699 -207.501 29s-137.834 53.333 -222.501 102
c-31.333 18 -49.666 27 -54.999 27c-15.333 0 -32.666 -10.667 -51.999 -32zM709 1252c-122.667 0 -224.332 -37.668 -304.999 -113.001c-64 -60.667 -96 -134 -96 -220s34.333 -157.667 103 -215c75.333 -64 171.666 -96 288.999 -96c129.333 0 236.333 35.667 321 107
c66.667 56.667 100 125.334 100 206.001c0 75.333 -26.333 141 -79 197c-82 88 -193 132.667 -333 134z" />
    <glyph glyph-name="colon" unicode=":" horiz-adv-x="573" 
d="M286 194c30.667 0 56.5 -10.668 77.5 -32.001s31.5 -47.333 31.5 -78c0 -29.333 -10.833 -54.666 -32.5 -75.999s-47.167 -32 -76.5 -32c-30 0 -55.667 10.833 -77 32.5s-32 47.167 -32 76.5c0 30 10.5 55.5 31.5 76.5s46.833 31.833 77.5 32.5zM286 1143
c30.667 0 56.5 -10.668 77.5 -32.001s31.5 -47.333 31.5 -78c0 -29.333 -10.833 -54.666 -32.5 -75.999s-47.167 -32 -76.5 -32c-30 0 -55.667 10.833 -77 32.5s-32 47.167 -32 76.5c0 30 10.5 55.5 31.5 76.5s46.833 31.833 77.5 32.5z" />
    <glyph glyph-name="semicolon" unicode=";" horiz-adv-x="573" 
d="M215 -232l-30.001 35.002c44 27.333 76 54.166 96 80.499s33.333 59.166 40 98.499c-18 -4 -32 -6 -42 -6c-30.667 0 -55.334 9.83301 -74.001 29.5s-28 45.5 -28 77.5c0 32.667 9.83301 59.5 29.5 80.5s44.834 31.5 75.501 31.5c34.667 0 62.334 -14.333 83.001 -43
s31 -67 31 -115c0 -59.333 -14.167 -110 -42.5 -152s-74.5 -81 -138.5 -117zM285.999 1143c30.667 0 56.5 -10.668 77.5 -32.001s31.5 -47.333 31.5 -78c0 -29.333 -10.833 -54.666 -32.5 -75.999s-47.167 -32 -76.5 -32c-30 0 -55.667 10.833 -77 32.5s-32 47.167 -32 76.5
c0 30 10.5 55.5 31.5 76.5s46.833 31.833 77.5 32.5z" />
    <glyph glyph-name="less" unicode="&#x3c;" 
d="M955 1167v-154l-721 -330l721 -330v-155l-887 418v134z" />
    <glyph glyph-name="equal" unicode="=" horiz-adv-x="1570" 
d="M238 758l-0.00195312 258h34c14.667 -24.667 32.667 -41.5 54 -50.5s53.666 -13.5 96.999 -13.5h722c43.333 0 76 4.66699 98 14s40 26 54 50h36v-258h-36c-14.667 24.667 -32.667 41.5 -54 50.5s-53.666 13.5 -96.999 13.5h-723c-43.333 0 -75.666 -4.5 -96.999 -13.5
s-39.666 -25.833 -54.999 -50.5h-33zM237.998 349v258h34c14.667 -24.667 32.834 -41.5 54.501 -50.5s53.834 -13.5 96.501 -13.5h722c43.333 0 76.166 4.66699 98.499 14s40.166 26 53.499 50h36v-258h-36c-14.667 24.667 -32.667 41.5 -54 50.5s-53.666 13.5 -96.999 13.5
h-723c-43.333 0 -75.833 -4.5 -97.5 -13.5s-39.834 -25.833 -54.501 -50.5h-33z" />
    <glyph glyph-name="greater" unicode="&#x3e;" 
d="M69 1167l887 -417v-134l-887 -418v155l721 330l-721 330v154z" />
    <glyph glyph-name="question" unicode="?" horiz-adv-x="1051" 
d="M641 390l-242.001 -0.00195312v27c23.333 1.33301 38.666 5.83301 45.999 13.5s11.666 24.167 12.999 49.5c2.66699 72.667 17 135.334 43 188.001c14.667 29.333 28.834 53.166 42.501 71.499s55.834 69.833 126.501 154.5c49.333 59.333 74 114.666 74 165.999
c0 48.667 -13 89.334 -39 122.001c-44 56 -105 84 -183 84c-80 0 -151.667 -29.667 -215 -89c-34.667 -32.667 -52 -62.334 -52 -89.001c0 -10 7 -25 21 -45l-23 -22l-185 199l23 22l25 -15c8.66699 -5.33301 15.334 -8 20.001 -8c6.66699 0 18 6.33301 34 19
c118.667 100.667 243 151 373 151c108.667 0 197.667 -33.667 267 -101c60.667 -59.333 91 -132.666 91 -219.999c0 -64.667 -19 -123.334 -57 -176.001c-19.333 -26.667 -64.666 -76 -135.999 -148c-36.667 -37.333 -66.334 -81.666 -89.001 -132.999
s-34 -99.666 -34 -144.999c0 -16.667 3.66699 -28.167 11 -34.5s22.333 -11.166 45 -14.499v-27zM526.999 190.998c30.667 0 56.332 -10.5 76.999 -31.5s31 -46.833 31 -77.5c0 -28.667 -10.667 -53.5 -32 -74.5s-46.666 -31.5 -75.999 -31.5s-54.5 10.667 -75.5 32
s-31.5 46.666 -31.5 75.999s10.333 54.333 31 75s46 31.334 76 32.001z" />
    <glyph glyph-name="at" unicode="@" horiz-adv-x="1696" 
d="M1281 968l-115.001 -458.997c-1.33301 -6 -2 -13 -2 -21c0 -29.333 21 -44 63 -44c40.667 0 85.667 16.333 135 49c32 20.667 57.333 55.667 76 105s28 105 28 167c0 131.333 -46.667 242.666 -140 333.999c-62.667 60.667 -136 107 -220 139
c-75.333 28 -151.666 42 -228.999 42c-116.667 0 -229 -30.333 -337 -91c-113.333 -63.333 -197.666 -145.333 -252.999 -246c-43.333 -79.333 -65 -168.666 -65 -267.999c0 -167.333 56.333 -307 169 -419c58.667 -58.667 125.667 -101.667 201 -129
s163.666 -41 264.999 -41c56 0 115.5 6.16699 178.5 18.5s115.167 27.833 156.5 46.5c16 8 24 22 24 42c0 3.33301 -0.333008 8.66602 -1 15.999l20 6l66 -219l-23 -6c-16.667 32 -34.667 48 -54 48c-8 0 -51 -10.667 -129 -32c-74.667 -20 -162.334 -30 -263.001 -30
c-208.667 0 -378 56 -508 168c-81.333 70.667 -143.666 160.667 -186.999 270c-34 87.333 -51 175.666 -51 264.999c0 139.333 39 266.333 117 381c83.333 122.667 202 212.667 356 270c106 39.333 216.333 59 331 59c206.667 0 380 -60 520 -180
c128.667 -110.667 193 -253 193 -427c0 -158 -46.333 -274 -139 -348c-56.667 -45.333 -119.667 -68 -189 -68c-52 0 -92.5 7.66699 -121.5 23s-57.833 44.666 -86.5 87.999c-43.333 -32.667 -96.166 -58.667 -158.499 -78s-126.166 -29 -191.499 -29
c-82.667 0 -149.334 20 -200.001 60c-56 45.333 -84 106.333 -84 183c0 86.667 31.333 164.667 94 234c41.333 46 93.166 82 155.499 108s127.833 39 196.5 39c94 0 175.667 -32.667 245 -98l20 72h137zM862.999 893.003c-74 0 -137.999 -21 -191.999 -63
c-64.667 -49.333 -98.667 -113 -102 -191c-2 -50 14.167 -90.5 48.5 -121.5s80.166 -46.5 137.499 -46.5c93.333 0 170 23.333 230 70s90 101 90 163c0 60.667 -18.167 107.167 -54.5 139.5s-88.833 48.833 -157.5 49.5z" />
    <glyph glyph-name="A" unicode="A" horiz-adv-x="1510" 
d="M1119 383l-730.997 -0.000976562l-120 -259c-11.333 -24.667 -17 -42 -17 -52c0 -20 19.667 -33.333 59 -40v-32h-304v32c27.333 4.66699 48.166 14.667 62.499 30s33.166 48.666 56.499 99.999l500 1079c12 26 18 43.667 18 53c0 17.333 -16.333 30.333 -49 39v32h332
v-32c-32.667 -10.667 -49 -24.667 -49 -42c0 -7.33301 6 -24 18 -50l479 -1040c35.333 -76.667 58.666 -121.667 69.999 -135s36 -24.666 74 -33.999v-32h-324v32c38.667 5.33301 58 20 58 44c0 10.667 -7.33301 31.334 -22 62.001zM1060 512.999l-307 674l-306 -674h613z
" />
    <glyph glyph-name="B" unicode="B" horiz-adv-x="1594" 
d="M1246 709c158.667 -53.333 238 -163.333 238 -330c0 -80.667 -21.333 -151.667 -64 -213c-42 -60.667 -98.667 -103.5 -170 -128.5s-173 -37.5 -305 -37.5h-795v32c25.333 6.66699 42.333 15.667 51 27s13 31 13 59v1129c0 28 -4.33301 47.833 -13 59.5
s-25.667 20.5 -51 26.5v32h814c80 0 146.167 -6.33301 198.5 -19s98.5 -33.667 138.5 -63c92 -66 138 -160.667 138 -284c0 -131.333 -64.333 -228 -193 -290zM371 776l526 -0.000976562c74.667 0 130.5 2.33301 167.5 7s71.167 13.334 102.5 26.001
c38.667 16 68.667 40.667 90 74s32 72 32 116c0 58.667 -19 108.667 -57 150c-30.667 32.667 -70.5 55.167 -119.5 67.5s-124.167 18.5 -225.5 18.5h-516v-459zM371 129.999l548.001 0.000976562c78.667 0 137 2.5 175 7.5s73.333 14.833 106 29.5
c40 18.667 71.167 46.667 93.5 84s33.5 80.666 33.5 129.999c0 65.333 -19.667 121 -59 167c-32.667 38 -74.334 63.833 -125.001 77.5s-128.667 20.5 -234 20.5h-538v-516z" />
    <glyph glyph-name="C" unicode="C" horiz-adv-x="1735" 
d="M1589 1247l-148.003 -247l-27 16c6 20 9 35.667 9 47c0 27.333 -42.667 61.666 -128 102.999c-117.333 57.333 -245.333 86 -384 86c-186.667 0 -338 -51.667 -454 -155c-118 -105.333 -177 -241.666 -177 -408.999c0 -166.667 61.333 -305 184 -415
c118.667 -107.333 265 -161 439 -161c170 0 320 49.667 450 149c58.667 44.667 88 76.334 88 95.001c0 9.33301 -5.66699 24.666 -17 45.999l24 19l178 -216l-25 -20c-18.667 16.667 -34 25 -46 25c-7.33301 0 -20 -7 -38 -21c-61.333 -46 -112.166 -80.5 -152.499 -103.5
s-84.5 -42.5 -132.5 -58.5c-99.333 -34 -208.666 -51 -327.999 -51c-230 0 -417 64 -561 192c-151.333 134 -227 305 -227 513c0 164 47.333 306 142 426c148 188 369.667 282 665 282c195.333 0 384.333 -51.667 567 -155c12 -6.66699 20.333 -10 25 -10
c8.66699 0 24.334 12.667 47.001 38z" />
    <glyph glyph-name="D" unicode="D" horiz-adv-x="1686" 
d="M214 104l0.000976562 1157c0 20 -4.66699 35.333 -14 46s-26 19.334 -50 26.001v32h720c163.333 0 288.333 -22.667 375 -68c109.333 -56.667 192.666 -144 249.999 -262c50 -103.333 75 -220.666 75 -351.999c0 -155.333 -33.667 -289.333 -101 -402
c-60.667 -100 -137.5 -171.833 -230.5 -215.5s-215.833 -65.5 -368.5 -65.5h-720v32c24 6.66699 40.667 15.334 50 26.001s14 26 14 46zM371.001 129.997l492.999 0.000976562c144.667 0 252 22.333 322 67c82.667 53.333 143.334 135 182.001 245
c25.333 73.333 38 153.666 38 240.999c0 158.667 -40.333 290 -121 394c-44.667 57.333 -99 98 -163 122s-150 36 -258 36h-493v-1105z" />
    <glyph glyph-name="E" unicode="E" horiz-adv-x="1474" 
d="M371 637l0.000976562 -507.001h875c28 0 47.833 4.33301 59.5 13s20.5 25.667 26.5 51h32v-258h-31c-6.66699 25.333 -15.834 42.333 -27.501 51s-31.5 13 -59.5 13h-1096v32c26 6.66699 43.167 15.667 51.5 27s12.5 31 12.5 59v1129c0 28 -4.33301 47.667 -13 59
s-25.667 20.333 -51 27v32h1083c28 0 47.667 4.33301 59 13s20.333 26 27 52h32v-258h-32c-6 24.667 -14.833 41.334 -26.5 50.001s-31.5 13 -59.5 13h-862v-468h565c28 0 47.833 4.33301 59.5 13s20.5 25.667 26.5 51h32v-258h-32c-6 25.333 -14.833 42.333 -26.5 51
s-31.5 13 -59.5 13h-565z" />
    <glyph glyph-name="F" unicode="F" horiz-adv-x="1460" 
d="M371 1235v-465.999h592c28 0 47.833 4.33301 59.5 13s20.5 25.667 26.5 51h32v-258h-32c-6 25.333 -14.833 42.333 -26.5 51s-31.5 13 -59.5 13h-592v-521c0 -28 4.16699 -47.667 12.5 -59s25.5 -20.333 51.5 -27v-32h-285v32c25.333 6.66699 42.333 15.667 51 27
s13 31 13 59v1129c0 28 -4.33301 47.833 -13 59.5s-25.667 20.5 -51 26.5v32h1110c28 0 47.833 4.33301 59.5 13s20.5 26 26.5 52h32v-258h-32c-6 25.333 -14.833 42.166 -26.5 50.499s-31.5 12.5 -59.5 12.5h-889z" />
    <glyph glyph-name="G" unicode="G" horiz-adv-x="1720" 
d="M1590 1234l-153.002 -244.001l-26 18c12 20 18 35 18 45c0 20.667 -35.667 50 -107 88c-137.333 74.667 -278 112 -422 112c-167.333 0 -308.333 -47 -423 -141c-131.333 -106.667 -197 -250.667 -197 -432c0 -176.667 62.667 -317.334 188 -422.001
c115.333 -96.667 262.666 -145 441.999 -145c94.667 0 184.834 14.833 270.501 44.5s157.834 71.167 216.501 124.5v252h-323c-28 0 -47.833 -4.33301 -59.5 -13s-20.5 -25.667 -26.5 -51h-32v258h32c6 -25.333 14.833 -42.333 26.5 -51s31.5 -13 59.5 -13h537v-32
c-25.333 -6.66699 -42.333 -15.667 -51 -27s-13 -31 -13 -59v-177c0 -28 4.33301 -47.667 13 -59s25.667 -20.333 51 -27v-28c-75.333 -67.333 -146.333 -119.666 -213 -156.999c-144.667 -81.333 -309.667 -122 -495 -122c-228 0 -412.333 61.667 -553 185
c-69.333 60.667 -124.333 133.334 -165 218.001c-46 96.667 -69 198.667 -69 306c0 154 45 290.667 135 410c83.333 110 195.333 190.333 336 241c99.333 35.333 206 53 320 53c100 0 192.667 -12 278 -36s177.333 -63.667 276 -119c28.667 -16 46.334 -24 53.001 -24
c10.667 0 27 14 49 42z" />
    <glyph glyph-name="H" unicode="H" horiz-adv-x="1677" 
d="M1306 637l-935 0.000976562v-519c0 -28 4.16699 -47.667 12.5 -59s25.5 -20.333 51.5 -27v-32h-285v32c26 6.66699 43.167 15.667 51.5 27s12.5 31 12.5 59v1129c0 28 -4.33301 47.833 -13 59.5s-25.667 20.5 -51 26.5v32h285v-32
c-25.333 -6.66699 -42.333 -15.667 -51 -27s-13 -31 -13 -59v-480h935v480c0 28 -4.33301 47.833 -13 59.5s-25.667 20.5 -51 26.5v32h285v-32c-25.333 -6.66699 -42.333 -15.667 -51 -27s-13 -31 -13 -59v-1129c0 -27.333 4.33301 -46.833 13 -58.5
s25.667 -20.834 51 -27.501v-32h-285v32c25.333 6.66699 42.333 15.667 51 27s13 31 13 59v519z" />
    <glyph glyph-name="I" unicode="I" horiz-adv-x="586" 
d="M214 118v1129c0 28 -4.33301 47.833 -13 59.5s-25.667 20.5 -51 26.5v32h285v-32c-25.333 -6.66699 -42.333 -15.667 -51 -27s-13 -31 -13 -59v-1129c0 -28 4.16699 -47.667 12.5 -59s25.5 -20.333 51.5 -27v-32h-285v32c26 6.66699 43.167 15.667 51.5 27
s12.5 31 12.5 59z" />
    <glyph glyph-name="J" unicode="J" horiz-adv-x="1192" 
d="M7 61l117.997 254.001l29 -14c-7.33301 -21.333 -11 -36.333 -11 -45c0 -19.333 26 -42.333 78 -69c98 -50 200 -75 306 -75c80.667 0 148.334 15.167 203.001 45.5s89.667 72.5 105 126.5c8.66699 30 13 104.333 13 223v740c0 28 -4.33301 47.833 -13 59.5
s-25.667 20.5 -51 26.5v32h285v-32c-25.333 -6.66699 -42.333 -15.834 -51 -27.501s-13 -31.167 -13 -58.5v-775c0 -87.333 -2.66699 -149 -8 -185s-17.333 -71.333 -36 -106c-37.333 -69.333 -98.666 -122 -183.999 -158c-73.333 -31.333 -156.666 -47 -249.999 -47
c-70 0 -129.833 5.83301 -179.5 17.5s-122.167 37.167 -217.5 76.5c-22 9.33301 -37.333 14 -46 14c-10.667 0 -26.667 -12.333 -48 -37z" />
    <glyph glyph-name="K" unicode="K" horiz-adv-x="1527" 
d="M371 524l-0.000976562 -406.001c0 -27.333 4.33301 -46.833 13 -58.5s25.667 -20.834 51 -27.501v-32h-285v32c25.333 6.66699 42.333 15.667 51 27s13 31 13 59v1129c0 28 -4.33301 47.833 -13 59.5s-25.667 20.5 -51 26.5v32h285v-32
c-25.333 -6.66699 -42.333 -15.667 -51 -27s-13 -31 -13 -59v-567l736 576c26 20 39 36.333 39 49c0 14.667 -12.667 24 -38 28v32h361v-32c-40 -2.66699 -79.333 -19 -118 -49l-554 -431l610 -772c14.667 -18.667 28.334 -31.167 41.001 -37.5s32 -10.166 58 -11.499v-32
h-333v32c28.667 6.66699 43 16.334 43 29.001c0 8 -14.667 31 -44 69l-493 631z" />
    <glyph glyph-name="L" unicode="L" horiz-adv-x="1389" 
d="M371 130h872c28 0 47.833 4.33301 59.5 13s20.5 25.667 26.5 51h32v-258h-32c-6 25.333 -14.833 42.333 -26.5 51s-31.5 13 -59.5 13h-1093v32c26 6.66699 43.167 15.667 51.5 27s12.5 31 12.5 59v1129c0 28 -4.33301 47.667 -13 59s-25.667 20.333 -51 27v32h285v-32
c-25.333 -6.66699 -42.333 -15.667 -51 -27s-13 -31 -13 -59v-1117z" />
    <glyph glyph-name="M" unicode="M" horiz-adv-x="1880" 
d="M930 0l-573 1147v-1029c0 -27.333 4.33301 -46.833 13 -58.5s25.667 -20.834 51 -27.501v-32h-271v32c25.333 6.66699 42.333 15.667 51 27s13 31 13 59v1129c0 28 -4.33301 47.833 -13 59.5s-25.667 20.5 -51 26.5v32h354v-32c-32.667 -11.333 -49 -25.333 -49 -42
c0 -8 11 -33.667 33 -77l454 -901l456 909c16 32 24 54.667 24 68c0 17.333 -16.333 31.666 -49 42.999v32h357v-32c-25.333 -6.66699 -42.333 -15.667 -51 -27s-13 -31 -13 -59v-1129c0 -27.333 4.33301 -46.833 13 -58.5s25.667 -20.834 51 -27.501v-32h-285v32
c26 6.66699 43.167 15.667 51.5 27s12.5 31 12.5 59v1029z" />
    <glyph glyph-name="N" unicode="N" horiz-adv-x="1722" 
d="M357 1192v-1074c0 -27.333 4.33301 -46.833 13 -58.5s25.667 -20.834 51 -27.501v-32h-271v32c26 6.66699 43.167 15.667 51.5 27s12.5 31 12.5 59v1129c0 28 -4.33301 47.833 -13 59.5s-25.667 20.5 -51 26.5v32h392v-32c-31.333 -10.667 -47 -25.667 -47 -45
c0 -13.333 15.667 -38.333 47 -75l822 -962v996c0 28 -4.33301 47.833 -13 59.5s-25.667 20.5 -51 26.5v32h271v-32c-25.333 -6 -42.333 -14.833 -51 -26.5s-13 -31.5 -13 -59.5v-1129c0 -28 4.33301 -47.667 13 -59s25.667 -20.333 51 -27v-32h-315v32
c30.667 8 46 21.667 46 41c0 14.667 -14 38.667 -42 72z" />
    <glyph glyph-name="O" unicode="O" horiz-adv-x="1865" 
d="M930 1389c240.667 0 434.667 -63.002 582 -189.002c82.667 -70 144.667 -155.667 186 -257c34 -83.333 51 -173 51 -269c0 -130 -37 -251.667 -111 -365c-81.333 -125.333 -194.333 -215.666 -339 -270.999c-108 -41.333 -230.333 -62 -367 -62
c-239.333 0 -432.333 63 -579 189c-82 70.667 -144 156.334 -186 257.001c-34 82.667 -51 169.667 -51 261c0 135.333 36.667 260 110 374c80 123.333 193.333 213.333 340 270c102.667 39.333 224 60 364 62zM930 1252c-204.667 0 -366.667 -57.334 -486 -172.001
c-109.333 -105.333 -164 -237.666 -164 -396.999c0 -160 54.667 -292.667 164 -398c118.667 -114.667 281.334 -172 488.001 -172c207.333 0 370.666 57.333 489.999 172c108.667 105.333 163 235.333 163 390c0 167.333 -54.333 302.333 -163 405
c-65.333 61.333 -135.333 104.333 -210 129c-82.667 28 -176.667 42.333 -282 43z" />
    <glyph glyph-name="P" unicode="P" horiz-adv-x="1479" 
d="M371 614v-509.002c0 -20.667 4.66699 -36.334 14 -47.001s26 -19.334 50 -26.001v-32h-285v32c24 6.66699 40.667 15.334 50 26.001s14 26.334 14 47.001v1156c0 20 -4.66699 35.333 -14 46s-26 19.334 -50 26.001v32h718c100.667 0 179 -5.33301 235 -16
s106 -30 150 -58c46 -28 83 -66.333 111 -115c31.333 -54.667 47 -116 47 -184c0 -93.333 -28.667 -173.333 -86 -240c-44 -51.333 -99.833 -87.166 -167.5 -107.499s-164.167 -30.5 -289.5 -30.5h-497zM371 743.998h512.001c76 0 132.5 3 169.5 9s70.167 17.667 99.5 35
c68 40 102 107 102 201c0 94.667 -34 162 -102 202c-29.333 17.333 -62.333 29 -99 35s-93.334 9 -170.001 9h-512v-491z" />
    <glyph glyph-name="Q" unicode="Q" horiz-adv-x="1865" 
d="M1282 32c-110 -37.333 -227.334 -55.9971 -352.001 -55.9971c-237.333 0 -429.666 63 -576.999 189c-82.667 70.667 -144.667 156.334 -186 257.001c-34 83.333 -51 170.333 -51 261c0 136 37 260.333 111 373c82 125.333 195 215.666 339 270.999
c108 41.333 230.333 62 367 62c239.333 0 432.333 -63 579 -189c82.667 -70.667 144.667 -156.334 186 -257.001c34 -82.667 51 -169.667 51 -261c0 -120 -28.833 -231.167 -86.5 -333.5s-138.167 -185.5 -241.5 -249.5l143 -107c12 -9.33301 23.333 -14 34 -14
c8 0 23.333 10.667 46 32l26 -20l-178 -222l-24 27c15.333 25.333 23 42.666 23 51.999c0 13.333 -6.33301 24.666 -19 33.999zM1149 137.003l-52.999 39.999c-25.333 19.333 -53.333 35.5 -84 48.5s-56.334 19.5 -77.001 19.5c-30 0 -60 -10 -90 -30l-18 27
c63.333 41.333 128 62 194 62c86 0 178 -37 276 -111c192 111.333 288 274.333 288 489c0 160 -54.333 292.667 -163 398c-119.333 114.667 -282.333 172 -489 172c-207.333 0 -370.333 -57.333 -489 -172c-109.333 -105.333 -164 -237.666 -164 -396.999
c0 -160 54.667 -292.667 164 -398c118.667 -114.667 279.667 -172 483 -172c72.667 0 146.667 8 222 24z" />
    <glyph glyph-name="R" unicode="R" horiz-adv-x="1574" 
d="M371 615l-0.000976562 -497c0 -27.333 4.33301 -46.833 13 -58.5s25.667 -20.834 51 -27.501v-32h-285v32c25.333 6.66699 42.333 15.667 51 27s13 31 13 59v1129c0 28 -4.33301 47.833 -13 59.5s-25.667 20.5 -51 26.5v32h749c102.667 0 183.834 -5.5 243.501 -16.5
s111.5 -30.167 155.5 -57.5c45.333 -28 82 -66.333 110 -115c32 -55.333 48 -117.666 48 -186.999c0 -104 -34.5 -188.833 -103.5 -254.5s-163.833 -103.167 -284.5 -112.5l347 -540c20.667 -33.333 50.667 -50 90 -50v-32h-316v32c32.667 5.33301 49 14.666 49 27.999
c0 6.66699 -11.667 28.334 -35 65.001l-310 490h-522zM370.999 744h553.001c75.333 0 132.166 3.16699 170.499 9.5s72.166 17.833 101.499 34.5c68.667 40 103 107 103 201c0 94.667 -35.333 162 -106 202c-31.333 17.333 -66.166 29 -104.499 35s-97.833 9 -178.5 9h-539
v-491z" />
    <glyph glyph-name="S" unicode="S" horiz-adv-x="1532" 
d="M1431 1281l-143 -258.002l-28 15c11.333 30 17 48.667 17 56c0 20 -24.667 41.667 -74 65c-134 62.667 -276 94 -426 94c-123.333 0 -230.666 -23 -321.999 -69c-44 -22.667 -78.833 -52 -104.5 -88s-38.5 -74 -38.5 -114c0 -33.333 10 -64.833 30 -94.5
s46.333 -51.834 79 -66.501c36 -16.667 78.5 -28.167 127.5 -34.5s128.833 -11.166 239.5 -14.499c153.333 -4.66699 263 -11.834 329 -21.501s120.333 -26.5 163 -50.5c113.333 -63.333 170 -159.666 170 -288.999c0 -123.333 -51.333 -224.333 -154 -303
c-114 -88 -271 -132 -471 -132c-115.333 0 -216 11.667 -302 35s-188.667 66.333 -308 129c-33.333 15.333 -53 23 -59 23c-10 0 -25.667 -12 -47 -36l-27 17l150 251l28 -16c-12.667 -26.667 -19 -44.667 -19 -54c0 -21.333 42.667 -54.333 128 -99
c76.667 -40 150.5 -68.833 221.5 -86.5s148.167 -26.5 231.5 -26.5c168.667 0 296.667 37 384 111c58 49.333 87 108 87 176c0 89.333 -49.667 151 -149 185c-32 11.333 -65.167 18.5 -99.5 21.5s-131.833 7.5 -292.5 13.5c-114.667 4.66699 -204.5 13.334 -269.5 26.001
s-122.833 33.334 -173.5 62.001c-47.333 26.667 -84.833 64 -112.5 112s-41.5 100.333 -41.5 157c0 96.667 36 179.667 108 249c53.333 50.667 127 90.5 221 119.5s197 43.5 309 43.5c91.333 0 176.166 -9 254.499 -27s166.833 -49 265.5 -93c22 -9.33301 35.667 -14 41 -14
c12 0 28.333 13.333 49 40z" />
    <glyph glyph-name="T" unicode="T" horiz-adv-x="1358" 
d="M757 1235v-1117c0 -27.333 4.33301 -46.833 13 -58.5s25.667 -20.834 51 -27.501v-32h-285v32c25.333 6.66699 42.333 15.667 51 27s13 31 13 59v1117h-462c-28 0 -47.833 -4.16699 -59.5 -12.5s-20.5 -25.166 -26.5 -50.499h-32v258h32c6 -26 14.833 -43.333 26.5 -52
s31.5 -13 59.5 -13h1081c28 0 47.833 4.33301 59.5 13s20.5 26 26.5 52h32v-258h-32c-6 25.333 -14.833 42.166 -26.5 50.499s-31.5 12.5 -59.5 12.5h-462z" />
    <glyph glyph-name="U" unicode="U" horiz-adv-x="1617" 
d="M344 1247l0.000976562 -754.997c0 -89.333 4.66699 -152.166 14 -188.499s28.666 -67.833 57.999 -94.5c71.333 -64 204.333 -96 399 -96c212 0 351 37.667 417 113c22 25.333 36.667 55.5 44 90.5s11 93.5 11 175.5v755c0 27.333 -4.33301 46.833 -13 58.5
s-25.667 20.834 -51 27.501v32h271v-32c-25.333 -6 -42.333 -14.833 -51 -26.5s-13 -31.5 -13 -59.5v-786c0 -96.667 -9.33301 -170.334 -28 -221.001c-34.667 -90.667 -99.834 -157.334 -195.501 -200.001s-228.167 -64 -397.5 -64c-253.333 0 -426.666 49 -519.999 147
c-38 39.333 -64.5 84.166 -79.5 134.499s-22.5 118.166 -22.5 203.499v786c0 28 -4.33301 47.833 -13 59.5s-25.667 20.5 -51 26.5v32h285v-32c-25.333 -6.66699 -42.333 -15.834 -51 -27.501s-13 -31.167 -13 -58.5z" />
    <glyph glyph-name="V" unicode="V" horiz-adv-x="1467" 
d="M739 178l442 1011c18.667 41.333 28 72 28 92c0 25.333 -19.333 42.666 -58 51.999v32h309v-32c-31.333 -9.33301 -52.833 -21.666 -64.5 -36.999s-33.5 -59.666 -65.5 -132.999l-440 -992c-16.667 -39.333 -25 -67.666 -25 -84.999c0 -28 19 -46 57 -54v-32h-380v32
c38 8 57 26.667 57 56c0 16 -8.66699 43.667 -26 83l-448 1022c-24.667 55.333 -43 90.333 -55 105s-33 26.334 -63 35.001v32h326v-32c-39.333 -9.33301 -59 -26.666 -59 -51.999c0 -22.667 8.66699 -53.334 26 -92.001z" />
    <glyph glyph-name="W" unicode="W" horiz-adv-x="2168" 
d="M1090 1160l-346 -997.001c-13.333 -39.333 -20 -66.666 -20 -81.999c0 -22 19 -38.333 57 -49v-32h-331v32c38 7.33301 57 23.666 57 48.999c0 14 -7.33301 41.333 -22 82l-365 1005c-25.333 68.667 -44.833 111.834 -58.5 129.501s-36.5 29.5 -68.5 35.5v32h320v-32
c-40 -4.66699 -60 -21.667 -60 -51c0 -10.667 9 -41.667 27 -93l340 -964l337 964c19.333 56.667 29 89.334 29 98.001c0 24 -19 39.333 -57 46v32h348v-32c-38 -9.33301 -57 -26.333 -57 -51c0 -10 9 -41 27 -93l331 -964l328 964c16 48 24 79.667 24 95
c0 25.333 -18.667 41.666 -56 48.999v32h301v-32c-32.667 -6.66699 -56.5 -19.5 -71.5 -38.5s-33.5 -61.167 -55.5 -126.5l-349 -1005c-13.333 -38.667 -20 -64.334 -20 -77.001c0 -26.667 19 -44.667 57 -54v-32h-326v32c38 8.66699 57 27 57 55
c0 8.66699 -6.66699 31.334 -20 68.001z" />
    <glyph glyph-name="X" unicode="X" horiz-adv-x="1407" 
d="M789 730l449 -575c62 -78.667 116.333 -119.667 163 -123v-32h-350v32c32 5.33301 48 16.666 48 33.999c0 12.667 -18.333 42.334 -55 89.001l-351 451l-349 -451c-37.333 -48 -56 -77 -56 -87c0 -16 16 -28 48 -36v-32h-329v32c27.333 4 53.833 15.5 79.5 34.5
s53.834 48.5 84.501 88.5l434 564l-340 435c-62.667 82.667 -102.334 131.834 -119.001 147.501s-39 26.167 -67 31.5v32h348v-32c-32.667 -10 -49 -24.667 -49 -44c0 -18.667 13.667 -45.667 41 -81l283 -366l283 366c32 41.333 48 71.333 48 90c0 18 -16 29.667 -48 35v32
h325v-32c-27.333 -5.33301 -55 -20.833 -83 -46.5s-66 -69.834 -114 -132.501z" />
    <glyph glyph-name="Y" unicode="Y" horiz-adv-x="1333" 
d="M751 604l-0.000976562 -486c0 -27.333 4.33301 -46.833 13 -58.5s25.667 -20.834 51 -27.501v-32h-285v32c25.333 6.66699 42.333 15.667 51 27s13 31 13 59v486l-441 578c-48 62.667 -81.167 102.334 -99.5 119.001s-41.166 27.334 -68.499 32.001v32h346v-32
c-31.333 -8 -47 -21 -47 -39c0 -22 15.667 -54.333 47 -97l347 -472l346 488c29.333 41.333 44 69.333 44 84c0 16.667 -14.667 28.667 -44 36v32h322v-32c-32.667 -6 -60.667 -20.667 -84 -44c-48 -50.667 -79 -86.334 -93 -107.001z" />
    <glyph glyph-name="Z" unicode="Z" horiz-adv-x="1324" 
d="M1263 1365v-27.999l-938 -1207h827c28 0 47.833 4.33301 59.5 13s20.5 25.667 26.5 51h32v-258h-32c-6 25.333 -14.833 42.333 -26.5 51s-31.5 13 -59.5 13h-1097v29l941 1206h-812c-28 0 -47.833 -4.33301 -59.5 -13s-20.5 -25.334 -26.5 -50.001h-32v258h32
c6 -26 14.833 -43.333 26.5 -52s31.5 -13 59.5 -13h1079z" />
    <glyph glyph-name="bracketleft" unicode="[" horiz-adv-x="649" 
d="M344 1420l-0.00195312 -1475h192c27.333 0 46.833 4.5 58.5 13.5s20.834 26.167 27.501 51.5h27v-238h-27c-6 25.333 -15 42.333 -27 51s-31.667 13 -59 13h-399v34c25.333 6 42.333 14.667 51 26s13 30.666 13 57.999v1457c0 27.333 -4.33301 46.666 -13 57.999
s-25.667 20 -51 26v34h399c27.333 0 46.833 4.33301 58.5 13s20.834 25.667 27.501 51h27v-238h-27c-6 25.333 -14.833 42.5 -26.5 51.5s-31.5 13.5 -59.5 13.5h-192z" />
    <glyph glyph-name="backslash" unicode="\" horiz-adv-x="1460" 
d="M403 1365v-26.999c-32 -5.33301 -48 -17 -48 -35c0 -11.333 18 -41.333 54 -90l793 -1061c62.667 -80 117 -121.333 163 -124v-28h-315v28c32 5.33301 48 16.666 48 33.999c0 10 -18.333 40 -55 90l-784 1062c-62.667 80 -117 121.333 -163 124v27h307z" />
    <glyph glyph-name="bracketright" unicode="]" horiz-adv-x="649" 
d="M305 1420l-192.002 -0.00195312c-28 0 -47.833 -4.5 -59.5 -13.5s-20.5 -26.167 -26.5 -51.5h-27v238h27c6.66699 -25.333 15.834 -42.333 27.501 -51s31.167 -13 58.5 -13h399v-34c-25.333 -6 -42.333 -14.667 -51 -26s-13 -30.666 -13 -57.999v-1457
c0 -27.333 4.33301 -46.666 13 -57.999s25.667 -20 51 -26v-34h-399c-27.333 0 -47 -4.33301 -59 -13s-21 -25.667 -27 -51h-27v238h27c6.66699 -25.333 15.834 -42.5 27.501 -51.5s31.167 -13.5 58.5 -13.5h192v1475z" />
    <glyph glyph-name="asciicircum" unicode="^" 
d="M211 768h-146l358 601h177l358 -601h-148l-300 494z" />
    <glyph glyph-name="underscore" unicode="_" 
d="M0 -147h1024v-103h-1024v103z" />
    <glyph glyph-name="grave" unicode="`" 
d="M277 1533h232.001v-27c-18 -2 -27 -9.33301 -27 -22c0 -4 1 -8 3 -12l77 -163c7.33301 -16 13.666 -26 18.999 -30s15.333 -6 30 -6v-27h-173v27h5c13.333 0 20 5 20 15c0 6 -2 12 -6 18l-129 173c-11.333 16 -28.333 25 -51 27v27z" />
    <glyph glyph-name="a" unicode="a" horiz-adv-x="1267" 
d="M917 315l-587 -0.00195312l-85 -188c-10.667 -23.333 -16 -40.666 -16 -51.999c0 -22.667 17.333 -38.667 52 -48v-27h-276v27c26.667 4.66699 47.5 15.167 62.5 31.5s32.833 47.5 53.5 93.5l371 806c20.667 44.667 31 75.334 31 92.001
c0 23.333 -16.667 37.666 -50 42.999v27h325v-27c-33.333 -7.33301 -50 -21.666 -50 -42.999c0 -12.667 13.333 -48.334 40 -107.001l356 -775c24 -51.333 44.667 -86.666 62 -105.999s39.333 -31 66 -35v-27h-292v27c31.333 6.66699 47 18 47 34c0 8 -8 30 -24 66z
M870 423.998l-245 548l-247 -548h492z" />
    <glyph glyph-name="b" unicode="b" horiz-adv-x="1325" 
d="M1040 587c131.333 -53.333 197 -145 197 -275c0 -94.667 -33.333 -170.334 -100 -227.001c-37.333 -31.333 -80.333 -53.333 -129 -66s-113.667 -19 -195 -19h-693v27c25.333 6.66699 42.333 15.834 51 27.501s13 31.167 13 58.5v894c0 28 -4.33301 47.667 -13 59
s-25.667 20.333 -51 27v27h672c70 0 126.667 -4.5 170 -13.5s81 -24.167 113 -45.5c38.667 -24.667 69.167 -58.667 91.5 -102s33.5 -89.333 33.5 -138c0 -102.667 -53.333 -180.667 -160 -234zM327 640h424.999c67.333 0 116.833 2.5 148.5 7.5s60.167 14.833 85.5 29.5
c51.333 28.667 77 75 77 139c0 71.333 -29.667 124 -89 158c-26 14.667 -55.167 24.5 -87.5 29.5s-81.166 7.5 -146.499 7.5h-413v-371zM326.999 109l446 -0.000976562c70.667 0 122.667 2.83301 156 8.5s63.333 16.834 90 33.501c54 34 81 87 81 159
c0 80.667 -31.333 140 -94 178c-26.667 16.667 -57.167 28 -91.5 34s-85.833 9 -154.5 9h-433v-422z" />
    <glyph glyph-name="c" unicode="c" horiz-adv-x="1443" 
d="M1317 1037l-125.002 -215l-23 15c4.66699 17.333 7 30.666 7 39.999c0 14 -13.333 29.667 -40 47c-107.333 69.333 -233.333 104 -378 104c-141.333 0 -259.666 -39 -354.999 -117c-106.667 -87.333 -160 -201.666 -160 -342.999c0 -153.333 59 -275.666 177 -366.999
c92.667 -72.667 203.334 -109 332.001 -109c145.333 0 271.666 42.333 378.999 127c42 33.333 63 57.666 63 72.999c0 11.333 -5.66699 28.333 -17 51l23 15l156 -200l-21 -18c-23.333 20.667 -40 31 -50 31c-5.33301 0 -13.333 -4.33301 -24 -13
c-82 -64 -164.167 -110.333 -246.5 -139s-174.5 -43 -276.5 -43c-178 0 -324.667 48 -440 144c-58 48 -104.333 105 -139 171c-44 84 -66 174.333 -66 271c0 183.333 71.667 331 215 443c119.333 92.667 269.333 139 450 139c160 0 313 -39.333 459 -118
c12.667 -6.66699 22.334 -10 29.001 -10c14 0 29.667 11.333 47 34z" />
    <glyph glyph-name="d" unicode="d" horiz-adv-x="1401" 
d="M184 113v893.998c0 27.333 -4.16699 46.833 -12.5 58.5s-25.5 20.834 -51.5 27.501v27h566c151.333 0 264 -17.667 338 -53c92 -44.667 164 -118.667 216 -222c45.333 -89.333 68 -184.333 68 -285c0 -118 -30 -226.333 -90 -325c-52 -86 -117.833 -146.667 -197.5 -182
s-191.167 -53 -334.5 -53h-566v27c26 6.66699 43.167 15.834 51.5 27.501s12.5 31.167 12.5 58.5zM327 108.998l351 -0.000976562c132.667 0 229.667 18 291 54c68 39.333 118.667 101.333 152 186c24.667 64 37 134.333 37 211c0 136.667 -35 246 -105 328
c-38.667 44.667 -86.5 76.334 -143.5 95.001s-134.167 28 -231.5 28h-351v-902z" />
    <glyph glyph-name="e" unicode="e" horiz-adv-x="1221" 
d="M327 524l0.000976562 -415.001h692c28 0 47.833 4.33301 59.5 13s20.5 26 26.5 52h28v-238h-28c-6 25.333 -14.667 42.333 -26 51s-31 13 -59 13h-900v27c26 6.66699 43.167 15.834 51.5 27.501s12.5 31.167 12.5 58.5v894c0 28 -4.33301 47.667 -13 59
s-25.667 20.333 -51 27v27h893c28 0 47.667 4.33301 59 13s20.333 25.667 27 51h27v-238h-27c-6.66699 26 -15.667 43.333 -27 52s-31 13 -59 13h-686v-378h437c28 0 47.667 4.33301 59 13s20.333 25.667 27 51h27v-238h-27c-6.66699 26 -15.834 43.333 -27.501 52
s-31.167 13 -58.5 13h-437z" />
    <glyph glyph-name="f" unicode="f" horiz-adv-x="1208" 
d="M327 525v-412c0 -27.333 4.33301 -46.833 13 -58.5s25.667 -20.834 51 -27.501v-27h-271v27c25.333 6.66699 42.333 15.834 51 27.501s13 31.167 13 58.5v894c0 28 -4.33301 47.667 -13 59s-25.667 20.333 -51 27v27h910c27.333 0 46.833 4.33301 58.5 13
s20.834 25.667 27.501 51h27v-238h-27c-6.66699 26 -15.834 43.333 -27.501 52s-31.167 13 -58.5 13h-703v-377h457c28 0 47.667 4.33301 59 13s20.333 26 27 52h27v-238h-27c-6.66699 25.333 -15.667 42.333 -27 51s-31 13 -59 13h-457z" />
    <glyph glyph-name="g" unicode="g" horiz-adv-x="1434" 
d="M1323 1015l-137 -220.001l-23 14c6.66699 23.333 10 39 10 47c0 17.333 -31.667 44.333 -95 81c-102.667 58 -211.667 87 -327 87c-141.333 0 -258.666 -40.667 -351.999 -122c-104 -90 -156 -206.333 -156 -349c0 -135.333 47.667 -246 143 -332
c94 -86 218 -129 372 -129c77.333 0 151 11.5 221 34.5s129.333 54.833 178 95.5v206h-252c-28 0 -47.833 -4.33301 -59.5 -13s-20.5 -25.667 -26.5 -51h-27v238h27c6 -26 14.833 -43.333 26.5 -52s31.5 -13 59.5 -13h442v-27c-26 -6 -43.333 -14.833 -52 -26.5
s-13 -31.5 -13 -59.5v-116c0 -28 4.33301 -47.833 13 -59.5s26 -20.5 52 -26.5v-23c-173.333 -148.667 -375 -223 -605 -223c-181.333 0 -330 48.667 -446 146c-62 52.667 -110.667 116 -146 190c-38 78.667 -57 160.334 -57 245.001c0 125.333 38 238.333 114 339
c68 89.333 158.333 155 271 197c84 31.333 174 47 270 47c82.667 0 158.167 -10 226.5 -30s150.166 -55.667 245.499 -107c15.333 -8 26.333 -12 33 -12c8 0 23.667 13.333 47 40z" />
    <glyph glyph-name="h" unicode="h" horiz-adv-x="1393" 
d="M1065 522l-738 0.000976562v-409c0 -27.333 4.33301 -46.833 13 -58.5s25.667 -20.834 51 -27.501v-27h-271v27c25.333 6.66699 42.333 15.834 51 27.501s13 31.167 13 58.5v894c0 28 -4.33301 47.667 -13 59s-25.667 20.333 -51 27v27h271v-27
c-25.333 -6.66699 -42.333 -15.667 -51 -27s-13 -31 -13 -59v-376h738v376c0 28 -4.33301 47.667 -13 59s-25.667 20.333 -51 27v27h271v-27c-25.333 -6.66699 -42.333 -15.834 -51 -27.501s-13 -31.167 -13 -58.5v-894c0 -27.333 4.33301 -46.833 13 -58.5
s25.667 -20.834 51 -27.501v-27h-271v27c25.333 6.66699 42.333 15.834 51 27.501s13 31.167 13 58.5v409z" />
    <glyph glyph-name="i" unicode="i" horiz-adv-x="512" 
d="M184 113v894c0 28 -4.33301 47.667 -13 59s-25.667 20.333 -51 27v27h271v-27c-25.333 -6.66699 -42.333 -15.667 -51 -27s-13 -31 -13 -59v-894c0 -27.333 4.33301 -46.833 13 -58.5s25.667 -20.834 51 -27.501v-27h-271v27c25.333 6.66699 42.333 15.834 51 27.501
s13 31.167 13 58.5z" />
    <glyph glyph-name="j" unicode="j" horiz-adv-x="1005" 
d="M5 36l111.997 236.998l26 -11c-5.33301 -22 -8 -37.667 -8 -47c0 -10.667 6.33301 -21 19 -31c33.333 -26.667 78.5 -48.667 135.5 -66s112.5 -26 166.5 -26c50.667 0 95.167 8.83301 133.5 26.5s65.833 42.167 82.5 73.5c18 32.667 27 95.667 27 189v626
c0 28 -4.33301 47.667 -13 59s-25.667 20.333 -51 27v27h271v-27c-25.333 -6.66699 -42.333 -15.667 -51 -27s-13 -31 -13 -59v-654c0 -63.333 -5.16699 -114.666 -15.5 -153.999s-27.166 -73.333 -50.499 -102c-31.333 -37.333 -74.166 -66.833 -128.499 -88.5
s-113.166 -32.5 -176.499 -32.5c-54 0 -116 7.33301 -186 22s-131 33.334 -183 56.001c-10.667 4.66699 -19.667 7 -27 7c-16 0 -31 -12 -45 -36z" />
    <glyph glyph-name="k" unicode="k" horiz-adv-x="1263" 
d="M327 433l-0.00195312 -319.998c0 -27.333 4.33301 -46.833 13 -58.5s25.667 -20.834 51 -27.501v-27h-271v27c25.333 6.66699 42.333 15.834 51 27.501s13 31.167 13 58.5v894c0 28 -4.33301 47.667 -13 59s-25.667 20.333 -51 27v27h271v-27
c-25.333 -6.66699 -42.333 -15.667 -51 -27s-13 -31 -13 -59v-442l536 417c36.667 28.667 59.334 47.5 68.001 56.5s13 17.833 13 26.5c0 14 -12 23.333 -36 28v27h315v-27c-26.667 -5.33301 -45 -10.333 -55 -15s-25.667 -15.334 -47 -32.001l-447 -349l495 -629
c13.333 -16.667 24.833 -27.5 34.5 -32.5s23.834 -7.83301 42.501 -8.5v-27h-298v27c29.333 7.33301 44 16.333 44 27c0 7.33301 -11.667 26.666 -35 57.999l-389 503z" />
    <glyph glyph-name="l" unicode="l" horiz-adv-x="1146" 
d="M327 109l683 -0.000976562c28 0 47.833 4.33301 59.5 13s20.834 26 27.501 52h27v-238h-27c-6.66699 25.333 -15.834 42.333 -27.501 51s-31.5 13 -59.5 13h-890v27c25.333 6.66699 42.333 15.834 51 27.501s13 31.167 13 58.5v894c0 28 -4.33301 47.667 -13 59
s-25.667 20.333 -51 27v27h271v-27c-25.333 -6.66699 -42.333 -15.667 -51 -27s-13 -31 -13 -59v-898z" />
    <glyph glyph-name="m" unicode="m" horiz-adv-x="1583" 
d="M779 0l-476 944.001v-831c0 -27.333 4.33301 -46.833 13 -58.5s25.667 -20.834 51 -27.501v-27h-247v27c25.333 6.66699 42.333 15.834 51 27.501s13 31.167 13 58.5v894c0 28 -4.33301 47.667 -13 59s-25.667 20.333 -51 27v27h340v-27c-33.333 -10 -50 -24.667 -50 -44
c0 -8 8.33301 -29 25 -63l354 -716l356 716c16 32 24 53 24 63c0 19.333 -16.667 34 -50 44v27h343v-27c-25.333 -6.66699 -42.333 -15.834 -51 -27.501s-13 -31.167 -13 -58.5v-894c0 -27.333 4.33301 -46.833 13 -58.5s25.667 -20.834 51 -27.501v-27h-271v27
c25.333 6.66699 42.333 15.834 51 27.501s13 31.167 13 58.5v831z" />
    <glyph glyph-name="n" unicode="n" horiz-adv-x="1434" 
d="M303 945v-832.001c0 -27.333 4.16699 -46.833 12.5 -58.5s25.5 -20.834 51.5 -27.501v-27h-247v27c26 6.66699 43.167 15.834 51.5 27.501s12.5 31.167 12.5 58.5v894c0 28 -4.33301 47.667 -13 59s-25.667 20.333 -51 27v27h364v-27
c-34.667 -11.333 -52 -28.666 -52 -51.999c0 -20 12.667 -44 38 -72l661 -740v778c0 28 -4.33301 47.667 -13 59s-25.667 20.333 -51 27v27h247v-27c-25.333 -6.66699 -42.333 -15.667 -51 -27s-13 -31 -13 -59v-894c0 -27.333 4.16699 -46.833 12.5 -58.5
s25.5 -20.834 51.5 -27.501v-27h-293v27c34.667 8.66699 52 22.334 52 41.001c0 14 -16 39 -48 75z" />
    <glyph glyph-name="o" unicode="o" horiz-adv-x="1536" 
d="M766 1144c199.333 0 360.002 -51.999 482.002 -155.999c130 -110 195 -255.333 195 -436c0 -112.667 -32 -216 -96 -310c-120.667 -177.333 -313.667 -266 -579 -266c-198 0 -358 52 -480 156c-130 110.667 -195 253.334 -195 428.001c0 118 31.667 224 95 318
c67.333 99.333 161.666 171.666 282.999 216.999c83.333 31.333 181.666 47.666 294.999 48.999zM766.002 1028c-162.667 0 -293.667 -50 -393 -150c-86.667 -86.667 -130 -192.667 -130 -318s43.333 -231.333 130 -318c99.333 -100 231 -150 395 -150s295.667 50 395 150
c86.667 86.667 130 190.667 130 312c0 131.333 -43.333 239.333 -130 324c-100 98.667 -232.333 148.667 -397 150z" />
    <glyph glyph-name="p" unicode="p" horiz-adv-x="1229" 
d="M327 503v-399c0 -20 4.5 -35.333 13.5 -46s24.833 -19.334 47.5 -26.001v-32h-268v32c24 6.66699 40.667 15.334 50 26.001s14 26 14 46v919c0 19.333 -4.83301 33.833 -14.5 43.5s-26.167 17.5 -49.5 23.5v30h620c82.667 0 145.167 -3.66699 187.5 -11
s80.5 -21.333 114.5 -42c40.667 -24 72.667 -58.833 96 -104.5s35 -96.167 35 -151.5s-11.5 -105.333 -34.5 -150s-55.5 -79.334 -97.5 -104.001c-34.667 -21.333 -73 -35.666 -115 -42.999s-104 -11 -186 -11h-413zM327 612h394c71.333 0 124 2.83301 158 8.5
s63 16.5 87 32.5c46.667 30.667 70 83.667 70 159c0 74 -23.333 126.667 -70 158c-24 16 -52.833 26.833 -86.5 32.5s-86.5 8.5 -158.5 8.5h-394v-399z" />
    <glyph glyph-name="q" unicode="q" horiz-adv-x="1536" 
d="M1065 25c-93.333 -32.667 -193.332 -49.002 -299.999 -49.002c-196 0 -355 52 -477 156c-130 110.667 -195 253.334 -195 428.001s65 317.334 195 428.001c122 104 282 156 480 156s358 -52 480 -156c130 -110.667 195 -253.334 195 -428.001
c0 -203.333 -87.333 -362.333 -262 -477l104 -79c15.333 -11.333 29.666 -17 42.999 -17c8.66699 0 22 10.667 40 32l22 -15l-150 -197l-21 17c9.33301 22.667 14 38 14 46c0 14.667 -10.333 30.334 -31 47.001zM949.001 116.998c-47.333 34 -83 56.667 -107 68
s-47.667 17 -71 17c-22 0 -45.333 -8.66699 -70 -26l-17 22c53.333 36 107 54 161 54c37.333 0 71.833 -6 103.5 -18s71.834 -34 120.501 -66c149.333 96 224 226.667 224 392c0 125.333 -43.333 231.333 -130 318c-99.333 100 -231 150 -395 150s-295.667 -50 -395 -150
c-86.667 -86.667 -130 -192.667 -130 -318s43.333 -231.333 130 -318c99.333 -100 230.666 -150 393.999 -150c56 0 116.667 8.33301 182 25z" />
    <glyph glyph-name="r" unicode="r" horiz-adv-x="1308" 
d="M327 507l-0.000976562 -393.999c0 -27.333 4.33301 -46.833 13 -58.5s25.667 -20.834 51 -27.501v-27h-271v27c26 6.66699 43.167 15.834 51.5 27.501s12.5 31.167 12.5 58.5v894c0 28 -4.33301 47.667 -13 59s-25.667 20.333 -51 27v27h665
c75.333 0 136.833 -5.33301 184.5 -16s89.167 -28.667 124.5 -54c77.333 -54.667 116 -134.667 116 -240c0 -86 -27 -153.833 -81 -203.5s-133.333 -79.5 -238 -89.5l281 -446c10 -16 19.833 -26.833 29.5 -32.5s26.834 -10.167 51.501 -13.5v-25h-277v27
c26 5.33301 39 13.666 39 24.999c0 8 -7.66699 24 -23 48l-258 407h-407zM326.999 616.001h426c68.667 0 120.167 2.5 154.5 7.5s63.5 14.167 87.5 27.5c52.667 29.333 79 80.333 79 153c0 70 -24.667 122.667 -74 158c-45.333 32.667 -122.333 49 -231 49h-442v-395z" />
    <glyph glyph-name="s" unicode="s" horiz-adv-x="1268" 
d="M1185 1062l-110.003 -217.999l-24 12c3.33301 19.333 5 32.666 5 39.999c0 16 -21.667 35.333 -65 58c-92 49.333 -204 74 -336 74c-106 0 -196 -19.667 -270 -59c-74 -40 -111 -95.667 -111 -167c0 -32 9.33301 -60.833 28 -86.5s43.667 -43.834 75 -54.501
s65.333 -17.667 102 -21s115.334 -7.33301 236.001 -12c100.667 -3.33301 176.834 -9.66602 228.501 -18.999s95.834 -24.333 132.501 -45c39.333 -22 70.333 -53.833 93 -95.5s34 -87.167 34 -136.5c0 -103.333 -42.333 -185.666 -127 -246.999
c-101.333 -72.667 -236 -109 -404 -109c-82.667 0 -169.5 12.667 -260.5 38s-175.5 60 -253.5 104c-10.667 6.66699 -18.667 10 -24 10c-10 0 -25 -11.667 -45 -35l-23 15l127 213l24 -14l-4 -16c-3.33301 -10.667 -5 -19.334 -5 -26.001c0 -18.667 34 -46 102 -82
c114.667 -60.667 233.667 -91 357 -91c112.667 0 206.334 19.333 281.001 58c36 18.667 64.667 43.834 86 75.501s32 64.834 32 99.501c0 32 -9 60.667 -27 86s-41.667 43.333 -71 54c-27.333 9.33301 -57.833 16 -91.5 20s-97.167 7.66699 -190.5 11
c-110 4.66699 -188.667 10.167 -236 16.5s-92 17.166 -134 32.499c-53.333 19.333 -96.333 50.666 -129 93.999c-32.667 44.667 -49 97.334 -49 158.001c0 107.333 48.667 191.666 146 252.999c99.333 62.667 225.666 94 378.999 94c140 0 280.667 -31.333 422 -94
c21.333 -8.66699 33.666 -13 36.999 -13c10.667 0 23.334 12.333 38.001 37z" />
    <glyph glyph-name="t" unicode="t" horiz-adv-x="1132" 
d="M637 1005l0.000976562 -892c0 -27.333 4.16699 -46.833 12.5 -58.5s25.5 -20.834 51.5 -27.501v-27h-271v27c25.333 6.66699 42.333 15.834 51 27.501s13 31.167 13 58.5v892h-365c-28 0 -47.667 -4.33301 -59 -13s-20.333 -26 -27 -52h-27v238h27
c6.66699 -25.333 15.667 -42.333 27 -51s31 -13 59 -13h873c28 0 47.667 4.33301 59 13s20.333 25.667 27 51h27v-238h-27c-6.66699 26 -15.834 43.333 -27.501 52s-31.167 13 -58.5 13h-365z" />
    <glyph glyph-name="u" unicode="u" horiz-adv-x="1342" 
d="M305 1007l-0.00195312 -574.997c0 -88.667 4.33301 -149.834 13 -183.501s27.667 -61.834 57 -84.501c60 -48 162.667 -72 308 -72c160.667 0 269.334 29.333 326.001 88c20.667 22 34.334 49.167 41.001 81.5s10 89.166 10 170.499v575
c0 27.333 -4.33301 46.833 -13 58.5s-25.667 20.834 -51 27.501v27h247v-27c-25.333 -6.66699 -42.333 -15.667 -51 -27s-13 -31 -13 -59v-604c0 -102.667 -8.66699 -175 -26 -217c-29.333 -72 -83 -125 -161 -159s-185.333 -51 -322 -51c-196 0 -333.333 36.333 -412 109
c-38 34.667 -63.5 73.667 -76.5 117s-19.5 110.333 -19.5 201v604c0 28 -4.33301 47.667 -13 59s-25.667 20.333 -51 27v27h271v-27c-25.333 -6.66699 -42.333 -15.834 -51 -27.501s-13 -31.167 -13 -58.5z" />
    <glyph glyph-name="v" unicode="v" horiz-adv-x="1231" 
d="M632 159l359.001 821.001c10 22 15 41 15 57c0 31.333 -19.667 50 -59 56v27h278v-27c-28.667 -8 -49.5 -20 -62.5 -36s-32.5 -53.667 -58.5 -113l-342 -779c-16 -36.667 -24 -64.334 -24 -83.001c0 -29.333 18.667 -47.666 56 -54.999v-27h-346v27
c37.333 8 56 26.667 56 56c0 18 -8.33301 45.333 -25 82l-352 779c-27.333 60.667 -47.333 98.667 -60 114s-33.334 27 -62.001 35v27h310v-27c-39.333 -6.66699 -59 -24.667 -59 -54c0 -16.667 5 -36.334 15 -59.001z" />
    <glyph glyph-name="w" unicode="w" horiz-adv-x="1823" 
d="M912 919l-272.999 -762.998c-13.333 -37.333 -20 -61 -20 -71c0 -28.667 19.333 -48 58 -58v-27h-312v27c36.667 6 55 23.333 55 52c0 18 -6 43.667 -18 77l-307 828c-13.333 37.333 -26.166 62.666 -38.499 75.999s-32.833 24.333 -61.5 33v27h293v-27
c-38 -9.33301 -57 -27.333 -57 -54c0 -8.66699 5 -27 15 -55l286 -791l280 791c9.33301 26 14 44 14 54c0 26.667 -18 45 -54 55v27h302v-27c-38.667 -10 -58 -27.667 -58 -53c0 -13.333 4.33301 -32 13 -56l286 -801l278 801c6.66699 18.667 10 35 10 49
c0 30.667 -21 50.667 -63 60v27h289v-27c-28.667 -6.66699 -50.834 -17.834 -66.501 -33.501s-29.834 -40.834 -42.501 -75.501l-300 -844c-9.33301 -25.333 -14 -44.666 -14 -57.999c0 -33.333 18.667 -51.666 56 -54.999v-27h-309v27c35.333 6 53 23.667 53 53
c0 15.333 -6.33301 40.666 -19 75.999z" />
    <glyph glyph-name="x" unicode="x" horiz-adv-x="1157" 
d="M657 602l349.002 -455c36 -47.333 63 -78.333 81 -93s39.333 -23.667 64 -27v-27h-313v27c32.667 3.33301 49 14 49 32c0 10.667 -11.333 31.334 -34 62.001l-283 372l-289 -373c-18.667 -24 -28 -43.667 -28 -59c0 -16.667 15 -28 45 -34v-27h-293v27
c27.333 6.66699 50.833 17.834 70.5 33.501s46.167 44.5 79.5 86.5l348 439l-298 384c-36.667 48.667 -62.834 79.667 -78.501 93s-36.834 23.333 -63.501 30v27h320v-27c-30.667 -8 -46 -22.667 -46 -44c0 -16.667 7.66699 -35.334 23 -56.001l225 -297l238 303
c16 21.333 24 38.333 24 51c0 23.333 -15.667 37.666 -47 42.999v27h286v-27c-28.667 -10 -51 -21.833 -67 -35.5s-41.333 -43.167 -76 -88.5z" />
    <glyph glyph-name="y" unicode="y" horiz-adv-x="1114" 
d="M640 494v-381c0 -27.333 4.16699 -46.833 12.5 -58.5s25.5 -20.834 51.5 -27.501v-27h-271v27c25.333 6.66699 42.333 15.834 51 27.501s13 31.167 13 58.5v381l-345 450c-42 55.333 -73 92 -93 110s-43.667 31 -71 39v27h316v-27
c-29.333 -4.66699 -44 -17.334 -44 -38.001c0 -18.667 9 -39.667 27 -63l295 -387l267 386c18.667 27.333 28 48 28 62c0 22.667 -15 36 -45 40v27h292v-27c-30 -10 -57.667 -27.167 -83 -51.5s-60 -67.166 -104 -128.499z" />
    <glyph glyph-name="z" unicode="z" horiz-adv-x="1091" 
d="M1045 1120v-17l-760 -994h649c28 0 47.833 4.33301 59.5 13s20.834 26 27.501 52h27v-238h-27c-6.66699 25.333 -15.834 42.333 -27.501 51s-31.5 13 -59.5 13h-890v22l767 989h-643c-28 0 -47.667 -4.33301 -59 -13s-20.333 -26 -27 -52h-27v238h27
c6.66699 -25.333 15.667 -42.333 27 -51s31 -13 59 -13h877z" />
    <glyph glyph-name="braceleft" unicode="{" horiz-adv-x="649" 
d="M0 554v257.999h24c5.33301 -24.667 11.666 -41.5 18.999 -50.5s18.666 -13.5 33.999 -13.5h62c26 0 42.5 10 49.5 30s11.167 67.333 12.5 142v454c0 38.667 18.833 74.167 56.5 106.5s79.167 48.5 124.5 48.5h153c28.667 0 48.667 4.33301 60 13s20.333 25.667 27 51h27
v-238h-27c-6.66699 26 -15.667 43.333 -27 52s-31.333 13 -60 13h-82c-38 -0.666992 -67.667 -18 -89 -52c-8.66699 -14 -14.167 -33.833 -16.5 -59.5s-3.5 -84.167 -3.5 -175.5v-307c0 -30 -5.66699 -54.833 -17 -74.5s-33 -42.5 -65 -68.5c32 -25.333 53.667 -48 65 -68
s17 -45 17 -75v-451c-2 -88.667 34.333 -136.667 109 -144h82c28 0 47.833 4.33301 59.5 13s20.834 26 27.501 52h27v-238h-27c-6.66699 25.333 -15.834 42.333 -27.501 51s-31.5 13 -59.5 13h-153c-40.667 0 -79.667 14 -117 42c-42.667 32.667 -64 70.334 -64 113.001v455
c-1.33301 74.667 -5.5 122 -12.5 142s-23.5 30 -49.5 30h-62c-15.333 0 -26.666 -4.5 -33.999 -13.5s-13.666 -25.833 -18.999 -50.5h-24z" />
    <glyph glyph-name="bar" unicode="|" 
d="M434 1365h155v-1706h-155v1706z" />
    <glyph glyph-name="braceright" unicode="}" horiz-adv-x="649" 
d="M649 554h-23.999c-5.33301 24.667 -11.833 41.5 -19.5 50.5s-19.167 13.5 -34.5 13.5h-62c-26 0 -42.5 -10 -49.5 -30s-11.167 -67.333 -12.5 -142v-455c0 -38.667 -18.833 -74.167 -56.5 -106.5s-78.834 -48.5 -123.501 -48.5h-154c-28 0 -47.667 -4.33301 -59 -13
s-20.333 -25.667 -27 -51h-27v238h27c6.66699 -26 15.667 -43.333 27 -52s31 -13 59 -13h82c74.667 7.33301 111 55.333 109 144v451c0 30.667 5.66699 55.834 17 75.501s33 42.167 65 67.5c-32.667 26 -54.5 48.667 -65.5 68s-16.5 44.333 -16.5 75v307
c0 96.667 -1.33301 157.667 -4 183s-10 45.666 -22 60.999c-21.333 28.667 -49 43 -83 43h-82c-28 0 -47.833 -4.33301 -59.5 -13s-20.5 -26 -26.5 -52h-27v238h27c6.66699 -25.333 15.667 -42.333 27 -51s31 -13 59 -13h154c40 0 78.667 -14 116 -42
c42.667 -33.333 64 -71 64 -113v-454c1.33301 -74.667 5.5 -122 12.5 -142s23.5 -30 49.5 -30h62c15.333 0 26.833 4.5 34.5 13.5s14.167 25.833 19.5 50.5h24v-258z" />
    <glyph glyph-name="asciitilde" unicode="~" horiz-adv-x="1365" 
d="M277 534l-83.999 64.999c38.667 78.667 80 136.334 124 173.001s94.333 55 151 55c52.667 0 131 -26.333 235 -79c58 -29.333 99.333 -48.333 124 -57s50 -13 76 -13c66.667 0 129 51.333 187 154l83 -66c-28 -57.333 -55.667 -102 -83 -134
c-54.667 -63.333 -118.667 -95 -192 -95c-27.333 0 -56.833 5.5 -88.5 16.5s-80.834 32.833 -147.501 65.5c-91.333 45.333 -158 68 -200 68c-35.333 0 -67 -11.5 -95 -34.5s-58 -62.5 -90 -118.5z" />
    <glyph glyph-name="exclamdown" unicode="&#xa1;" horiz-adv-x="699" 
d="M436 983l-0.000976562 -27l-16 -4c-26.667 -6 -39.334 -16.333 -38.001 -31l1 -10v-15l53 -823c1.33301 -17.333 5 -28.5 11 -33.5s21.667 -9.16699 47 -12.5v-27h-289v27c8.66699 1.33301 14.667 2 18 2c14.667 2 24.834 6 30.501 12s8.83398 16.667 9.50098 32l53 823
v15l1 10c0 10 -2.5 16.667 -7.5 20s-20.5 8.33301 -46.5 15v27h173zM348.999 1388c30 0 55.667 -10.668 77 -32.001s32 -47.666 32 -78.999c0 -29.333 -10.667 -54.5 -32 -75.5s-47 -31.5 -77 -31.5s-55.667 10.667 -77 32s-32 47 -32 77s10.5 55.5 31.5 76.5
s46.833 31.833 77.5 32.5z" />
    <glyph glyph-name="cent" unicode="&#xa2;" horiz-adv-x="1475" 
d="M821 1150l0.000976562 -934.002c108.667 8 204.667 36 288 84c34 20 63.333 41.333 88 64s37 39.667 37 51c0 10.667 -6 27.667 -18 51l23 15l156 -200l-20 -18c-24.667 20.667 -41.667 31 -51 31c-5.33301 0 -13.333 -4.33301 -24 -13
c-141.333 -112.667 -301 -173 -479 -181v-125c0 -20.667 4.66699 -36.334 14 -47.001s26 -19 50 -25v-33h-243v33c24 6 40.667 14.333 50 25s14 26.334 14 47.001v127c-110.667 10 -206.334 38.333 -287.001 85c-82.667 46.667 -149 109.667 -199 189
c-58.667 93.333 -88 196.333 -88 309c0 148.667 49 275.334 147 380.001c104.667 112.667 247 178.334 427 197.001v129c0 20 -4.66699 35.333 -14 46s-26 19.334 -50 26.001v32h243v-32c-24 -6.66699 -40.667 -15.334 -50 -26.001s-14 -26 -14 -46v-125
c82 -2 156.333 -12 223 -30s137.334 -47 212.001 -87c13.333 -6.66699 23.333 -10 30 -10c13.333 0 28.666 11.333 45.999 34l24 -13l-125 -215l-23 15c4.66699 16.667 7 30 7 40c0 14 -13.333 29.667 -40 47c-96.667 62 -214.667 96.333 -354 103zM706.001 1145
c-105.333 -16 -193.333 -53.001 -264 -111.001c-106.667 -87.333 -160 -201.666 -160 -342.999c0 -122.667 38.167 -226.167 114.5 -310.5s179.5 -137.5 309.5 -159.5v924z" />
    <glyph glyph-name="sterling" unicode="&#xa3;" horiz-adv-x="1475" 
d="M990 844l0.000976562 -256.999h-32c-6.66699 24 -15.334 40.667 -26.001 50s-26.334 14 -47.001 14h-270c8 -42.667 12 -88 12 -136c0 -74 -11.5 -138.167 -34.5 -192.5s-63.5 -112.5 -121.5 -174.5c97.333 26 184.333 39 261 39c64.667 0 137 -10.667 217 -32
c58 -15.333 104 -23 138 -23c36 0 66.333 9.66699 91 29s37 43 37 71c0 17.333 -8 36 -24 56l20 27l235 -236l-24 -21c-22.667 13.333 -41 20 -55 20s-34.667 -8 -62 -24c-46.667 -26 -84.167 -43.5 -112.5 -52.5s-61.5 -13.5 -99.5 -13.5c-36.667 0 -104 12.667 -202 38
c-61.333 16 -127 24 -197 24c-114.667 0 -220.334 -25.333 -317.001 -76l-91 177c66.667 44 115.5 95.5 146.5 154.5s46.5 129.5 46.5 211.5c0 34 -4.66699 78.667 -14 134h-86c-20.667 0 -36.334 -4.66699 -47.001 -14s-19.334 -26 -26.001 -50h-32v257h32
c6.66699 -23.333 15.334 -39.666 26.001 -48.999s26.334 -14 47.001 -14h63l-3 14c-20.667 93.333 -31 158 -31 194c0 85.333 27.333 163 82 233c87.333 111.333 220 167 398 167c73.333 0 137.166 -9.66699 191.499 -29s119.5 -55.333 195.5 -108
c31.333 -20.667 51.333 -33 60 -37s20.334 -6 35.001 -6c8.66699 0 20 1.33301 34 4l21 -25l-221 -190l-21 25c12.667 13.333 19 27 19 41c0 33.333 -23.667 70 -71 110c-61.333 52 -138 78 -230 78c-102.667 0 -186 -25.333 -250 -76s-96 -116.334 -96 -197.001
c0 -29.333 10.333 -94 31 -194v-4h299c20.667 0 36.334 4.66699 47.001 14s19.334 25.666 26.001 48.999h32z" />
    <glyph glyph-name="currency" unicode="&#xa4;" horiz-adv-x="1447" 
d="M1210 318l124 -137c8.66699 -10 18.334 -15 29.001 -15s25.667 7.66699 45 23l16 -18l-165 -182l-15 17c13.333 22 20 39 20 51s-4.33301 22.667 -13 32l-127 141c-108.667 -87.333 -242.667 -131 -402 -131c-158.667 0 -291.667 42.333 -399 127l-128 -142
c-8.66699 -10 -13 -20.667 -13 -32c0 -12 6.66699 -29 20 -51l-15 -17l-164 183l15 16c20.667 -14.667 36 -22 46 -22c10.667 0 20 4.66699 28 14l124 138c-81.333 105.333 -122 228.666 -122 369.999c0 146.667 43.333 273.334 130 380.001l-123 137
c-8.66699 9.33301 -18.334 14 -29.001 14s-26 -7.33301 -46 -22l-14 16l164 182l15 -16c-13.333 -24 -20 -41 -20 -51c0 -12 4.33301 -22.667 13 -32l129 -143c104.667 78.667 234.334 118 389.001 118c156.667 0 289 -42 397 -126l128 141c8.66699 10 13 20.667 13 32
c0 12 -6.66699 29 -20 51l15 17l164 -182l-15 -17c-20 14.667 -35.333 22 -46 22s-20.334 -4.66699 -29.001 -14l-123 -137c82 -105.333 123 -228.666 123 -369.999c0 -136.667 -39.667 -258.334 -119 -365.001zM720 1150c-146 0 -263.999 -49.667 -353.999 -149
c-78 -86.667 -117 -192.667 -117 -318c0 -126 39 -232 117 -318c89.333 -100 207.666 -150 354.999 -150c148 0 266.667 50 356 150c78 86 117 190 117 312c0 131.333 -39 239.333 -117 324c-90.667 98 -209.667 147.667 -357 149z" />
    <glyph glyph-name="yen" unicode="&#xa5;" horiz-adv-x="1475" 
d="M813 467v-349.001c0 -27.333 5 -46.833 15 -58.5s29.667 -20.834 59 -27.501v-32h-285v32c29.333 6.66699 49 15.667 59 27s15 31 15 59v349h-298c-24 0 -42 -4.5 -54 -13.5s-22 -25.833 -30 -50.5h-37v258h37c8 -24 18 -40.667 30 -50s30 -14 54 -14h288l-149 239h-207
c-24 0 -42 -4.5 -54 -13.5s-22.333 -25.833 -31 -50.5h-37v258h37c8 -24 18.167 -40.667 30.5 -50s30.5 -14 54.5 -14h122l-148 216c-29.333 34 -59.333 70.667 -90 110c-22.667 22.667 -48.667 36.334 -78 41.001v32h336v-32c-19.333 -4.66699 -32 -9.66699 -38 -15
s-9 -14 -9 -26c0 -9.33301 2 -18 6 -26s17.667 -31 41 -69l298 -478l296 494c22 34 34.833 54.5 38.5 61.5s5.5 14.5 5.5 22.5c0 16.667 -14.667 28.667 -44 36v32h313v-32c-33.333 -5.33301 -61.333 -19.666 -84 -42.999c-52.667 -57.333 -83.667 -93.333 -93 -108
l-140 -216h123c24 0 42.167 4.66699 54.5 14s22.166 26 29.499 50h37v-258h-37c-7.33301 24 -17.166 40.667 -29.499 50s-30.5 14 -54.5 14h-196l-146 -239h274c24 0 42 4.66699 54 14s22 26 30 50h37v-258h-37c-8 24.667 -18 41.5 -30 50.5s-30 13.5 -54 13.5h-284z" />
    <glyph glyph-name="brokenbar" unicode="&#xa6;" 
d="M434 1365h155v-683h-155v683zM434 314h155v-655h-155v655z" />
    <glyph glyph-name="section" unicode="&#xa7;" horiz-adv-x="1258" 
d="M1118 1406l-152.997 -221l-28 19c14.667 20 22 38.667 22 56c0 10 -4.83301 19.833 -14.5 29.5s-29.167 23.5 -58.5 41.5c-80 50 -164.667 75 -254 75c-72.667 0 -132.667 -15 -180 -45s-71 -67.667 -71 -113c0 -36 15.5 -67.5 46.5 -94.5s87.833 -58.167 170.5 -93.5
l246 -105c97.333 -42 172 -88.333 224 -139c53.333 -52 80 -115.333 80 -190c0 -52.667 -14.333 -102.667 -43 -150s-77 -100.666 -145 -159.999c70.667 -55.333 106 -119.666 106 -192.999c0 -79.333 -33.667 -144.333 -101 -195
c-76.667 -57.333 -176.334 -86 -299.001 -86c-81.333 0 -154.833 10.667 -220.5 32s-138.5 58.333 -218.5 111c-15.333 10 -27.333 15 -36 15c-12.667 0 -31.334 -10.333 -56.001 -31l-26 17l154 229l24 -19c-19.333 -24.667 -29 -43.334 -29 -56.001
c0 -21.333 38.667 -54.666 116 -99.999c91.333 -54 187 -81 287 -81c78.667 0 142 13.833 190 41.5s72 64.5 72 110.5c0 63.333 -53.667 118.333 -161 165l-323 138c-186 80 -279 184.333 -279 313c0 55.333 17.333 109.166 52 161.499s84 98.833 148 139.5
c-44 32 -75.333 63.5 -94 94.5s-28 67.5 -28 109.5c0 80 34.333 147 103 201c75.333 59.333 172.333 89 291 89c67.333 0 128.333 -8.33301 183 -25s118.667 -46.334 192 -89.001c17.333 -10 29.666 -15 36.999 -15c12 0 28 10.667 48 32zM478.003 965
c-112 -66 -168 -143.332 -168 -231.999c0 -47.333 20.833 -88 62.5 -122s124.5 -77.667 248.5 -131l223 -96c49.333 33.333 87.333 70.166 114 110.499s40 81.833 40 124.5c0 48 -18.5 88.5 -55.5 121.5s-106.833 71.5 -209.5 115.5z" />
    <glyph glyph-name="dieresis" unicode="&#xa8;" 
d="M335 1466c26 0 47.998 -9 65.998 -27s27 -40.333 27 -67c0 -25.333 -9.16699 -47 -27.5 -65s-40.166 -27 -65.499 -27s-47.166 9.16699 -65.499 27.5s-27.5 40.166 -27.5 65.499c0 26 9 47.833 27 65.5s40 26.834 66 27.501zM686.998 1466c26 0 47.999 -9 65.999 -27
s27 -40.333 27 -67c0 -25.333 -9.16699 -47 -27.5 -65s-40.166 -27 -65.499 -27c-26 0 -48 9.16699 -66 27.5s-27 40.166 -27 65.499c0 26 9 47.833 27 65.5s40 26.834 66 27.501z" />
    <glyph glyph-name="copyright" unicode="&#xa9;" horiz-adv-x="1865" 
d="M930 1389c240.667 0 434.667 -63.002 582 -189.002c82.667 -70 144.667 -155.667 186 -257c34 -83.333 51 -173 51 -269c0 -130 -37 -251.667 -111 -365c-81.333 -125.333 -194.333 -215.666 -339 -270.999c-108 -41.333 -230.333 -62 -367 -62
c-239.333 0 -432.333 63 -579 189c-82 70.667 -144 156.334 -186 257.001c-34 82.667 -51 169.667 -51 261c0 135.333 36.667 260 110 374c80 123.333 193.333 213.333 340 270c102.667 39.333 224 60 364 62zM930 1310c-225.333 0 -403.667 -63.335 -535 -190.002
c-120 -115.333 -180 -261 -180 -437c0 -175.333 60 -321 180 -437c131.333 -126.667 310.333 -190 537 -190c228 0 407.333 63.333 538 190c120 116 180 258.667 180 428c0 184.667 -60 333.334 -180 446.001c-71.333 67.333 -148.333 115 -231 143
c-90.667 30.667 -193.667 46.334 -309 47.001zM1386 1019l-98.9971 -158.002l-28 15c4.66699 14.667 7 25.334 7 32.001c0 12.667 -25 31 -75 55c-72 33.333 -150.333 50 -235 50c-114.667 0 -207.334 -30 -278.001 -90c-71.333 -60.667 -107 -139.334 -107 -236.001
s37.333 -177 112 -241c72.667 -62 162 -93 268 -93c104 0 195.667 29 275 87c34.667 24.667 52 41.334 52 50.001c0 5.33301 -4.33301 15 -13 29l25 19l119 -138l-25 -19c-13.333 11.333 -22.666 17 -27.999 17c-4 0 -10.667 -3.66699 -20 -11
c-110.667 -85.333 -238.667 -128 -384 -128c-144.667 0 -262.334 38.333 -353.001 115c-95.333 80.667 -143 183.334 -143 308.001c0 98 30 183.333 90 256c92 112.667 231 169 417 169c125.333 0 243.666 -30.667 354.999 -92c6 -3.33301 10 -5 12 -5
c3.33301 0 12.666 7.66699 27.999 23z" />
    <glyph glyph-name="ordfeminine" unicode="&#xaa;" horiz-adv-x="1046" 
d="M267 1255l-74.999 86.999l33 13c7.33301 -7.33301 13.333 -11 18 -11c2.66699 0 7 1.33301 13 4c24.667 11.333 59 21 103 29s84.667 12 122 12c100 0 179.167 -19.167 237.5 -57.5s87.5 -90.5 87.5 -156.5v-300c0 -12 3.16699 -20.5 9.5 -25.5
s19.166 -8.83301 38.499 -11.5v-27h-135v63c-33.333 -29.333 -65.666 -49.666 -96.999 -60.999s-70.666 -17 -117.999 -17c-82 0 -153 19.333 -213 58c-57.333 36.667 -86 85 -86 145c0 58.667 28.5 107.167 85.5 145.5s129.167 57.5 216.5 57.5
c46 0 84.5 -5.16699 115.5 -15.5s63.167 -28.833 96.5 -55.5v53c0 42 -21.333 75.833 -64 101.5s-99 38.5 -169 38.5c-40.667 0 -82.834 -4.66699 -126.501 -14s-65.834 -18.333 -66.501 -27l6 -15zM515.001 1124c-74 0 -132.333 -14.668 -175 -44.001
c-33.333 -22.667 -50 -51.334 -50 -86.001c0 -33.333 21.5 -61.5 64.5 -84.5s95.5 -34.5 157.5 -34.5c68 0 122 14.667 162 44c30 21.333 45 46.333 45 75c0 38.667 -18.5 69.834 -55.5 93.501s-86.5 35.834 -148.5 36.501zM851.001 746.998l-0.00195312 -210h-24
c-5.33301 24.667 -11.666 41.5 -18.999 50.5s-18.666 13.5 -33.999 13.5h-502c-14.667 0 -25.834 -4.5 -33.501 -13.5s-14.167 -25.833 -19.5 -50.5h-23v210h23c5.33301 -24.667 11.833 -41.5 19.5 -50.5s18.834 -13.5 33.501 -13.5h502c14.667 0 26 4.66699 34 14
s14.333 26 19 50h24z" />
    <glyph glyph-name="guillemotleft" unicode="&#xab;" 
d="M345 159l-195 401l195 400h138l-196 -400l196 -401h-138zM708 159l-195 401l195 400h138l-197 -400l197 -401h-138z" />
    <glyph glyph-name="logicalnot" unicode="&#xac;" 
d="M804 0v431h-736v136h887v-567h-151z" />
    <glyph glyph-name="sfthyphen" unicode="&#xad;" horiz-adv-x="407" 
d="M407 689l-0.00195312 -258h-24c-5.33301 24.667 -11.666 41.5 -18.999 50.5s-18.666 13.5 -33.999 13.5h-254c-14.667 0 -25.834 -4.5 -33.501 -13.5s-14.167 -25.833 -19.5 -50.5h-23v258h23c5.33301 -24.667 11.833 -41.5 19.5 -50.5s18.834 -13.5 33.501 -13.5h254
c14.667 0 26 4.66699 34 14s14.333 26 19 50h24z" />
    <glyph glyph-name="registered" unicode="&#xae;" horiz-adv-x="1865" 
d="M930 1389c240.667 0 434.667 -63.002 582 -189.002c82.667 -70 144.667 -155.667 186 -257c34 -83.333 51 -173 51 -269c0 -130 -37 -251.667 -111 -365c-81.333 -125.333 -194.333 -215.666 -339 -270.999c-108 -41.333 -230.333 -62 -367 -62
c-239.333 0 -432.333 63 -579 189c-82 70.667 -144 156.334 -186 257.001c-34 82.667 -51 169.667 -51 261c0 135.333 36.667 260 110 374c80 123.333 193.333 213.333 340 270c102.667 39.333 224 60 364 62zM930 1310c-225.333 0 -403.667 -63.335 -535 -190.002
c-120 -115.333 -180 -261 -180 -437c0 -175.333 60 -321 180 -437c131.333 -126.667 310.333 -190 537 -190c228 0 407.333 63.333 538 190c120 116 180 258.667 180 428c0 184.667 -60 333.334 -180 446.001c-71.333 67.333 -148.333 115 -231 143
c-90.667 30.667 -193.667 46.334 -309 47.001zM669.999 634.996l0.000976562 -286c0 -15.333 2.5 -25.833 7.5 -31.5s15.833 -10.167 32.5 -13.5v-31h-191v31c17.333 4 28.333 8.66699 33 14s7 15.666 7 30.999v667c0 16 -2.5 26.833 -7.5 32.5
s-15.833 9.83398 -32.5 12.501v32l471 -1c65.333 0 116.5 -3.33301 153.5 -10s69.5 -18.334 97.5 -35.001c67.333 -39.333 101 -100.666 101 -183.999c0 -61.333 -21.333 -112.333 -64 -153s-99.334 -64 -170.001 -70l208 -308c12.667 -18.667 31.667 -27.667 57 -27v-32
h-210v32c20.667 2.66699 31 6.33398 31 11.001c0 1.33301 -7 12.666 -21 33.999l-190 285h-313zM670 724.996h336c79.333 0 134.333 8.66699 165 26c40 22 60 59.333 60 112c0 53.333 -20.667 91 -62 113c-32 17.333 -89.333 26 -172 26h-327v-277z" />
    <glyph glyph-name="macron" unicode="&#xaf;" 
d="M0 1615h1024v-103h-1024v103z" />
    <glyph glyph-name="degree" unicode="&#xb0;" horiz-adv-x="969" 
d="M486 1389c87.333 0 161.998 -32.668 223.998 -98.001c54.667 -57.333 82 -128.333 82 -213s-31 -157 -93 -217c-59.333 -58 -130.333 -87 -213 -87c-91.333 0 -167.666 33.333 -228.999 100c-52.667 58.667 -79 127.334 -79 206.001c0 44.667 9.33301 88 28 130
s44.334 76.667 77.001 104c58 48.667 125.667 73.667 203 75zM481.998 1310c-56 0 -105 -20.332 -147 -60.999c-49.333 -46.667 -74 -102.667 -74 -168c0 -55.333 18 -105 54 -149c44 -52.667 100.333 -79 169 -79c58 0 109.333 21 154 63
c47.333 45.333 71 98.666 71 159.999c0 64 -20.667 117.667 -62 161c-45.333 48 -100.333 72.333 -165 73z" />
    <glyph glyph-name="plusminus" unicode="&#xb1;" horiz-adv-x="1570" 
d="M238 554l0.000976562 257.995h34c14.667 -24.667 32.834 -41.5 54.501 -50.5s53.834 -13.5 96.501 -13.5h298v295c0 42.667 -4.83301 75 -14.5 97s-26.5 40 -50.5 54v36h258v-36c-24 -14.667 -40.5 -32.667 -49.5 -54s-13.5 -53.666 -13.5 -96.999v-295h294
c43.333 0 76.166 4.66699 98.499 14s40.166 26 53.499 50h36v-258h-36c-14.667 24 -32.834 40.667 -54.501 50s-53.834 14 -96.501 14h-295v-243c0 -43.333 4.5 -75.666 13.5 -96.999s25.5 -39.666 49.5 -54.999v-33h-258v34c24.667 14.667 41.667 32.834 51 54.501
s14 53.834 14 96.501v243h-299c-42.667 0 -74.667 -4.5 -96 -13.5s-39.666 -25.833 -54.999 -50.5h-33zM238.001 -129.005v258h34c14.667 -24.667 32.834 -41.5 54.501 -50.5s53.834 -13.5 96.501 -13.5h722c43.333 0 76.166 4.66699 98.499 14s40.166 26 53.499 50h36v-258
h-36c-14.667 24.667 -32.667 41.5 -54 50.5s-53.666 13.5 -96.999 13.5h-723c-43.333 0 -75.833 -4.5 -97.5 -13.5s-39.834 -25.833 -54.501 -50.5h-33z" />
    <glyph glyph-name="twosuperior" unicode="&#xb2;" horiz-adv-x="929" 
d="M225 1099l-134.999 127l23 22c16.667 -11.333 29 -17 37 -17c2.66699 0 7 3 13 9c41.333 44 91 78.167 149 102.5s119 36.5 183 36.5c88 0 160.667 -22 218 -66c59.333 -46 89 -104.667 89 -176c0 -60 -19.333 -110.167 -58 -150.5s-110.667 -85.5 -216 -135.5
c-92.667 -44 -157.834 -80.5 -195.501 -109.5s-65.167 -64.167 -82.5 -105.5h507c16 0 27 2.33301 33 7s10.667 15 14 31h32v-166h-32c-3.33301 16 -8 26.333 -14 31s-17 7 -33 7h-572c-16 0 -26.833 -2.33301 -32.5 -7s-10.5 -15 -14.5 -31h-32
c-2.66699 172 125.666 314.333 384.999 427c77.333 35.333 130.333 66.833 159 94.5s43 61.167 43 100.5c0 45.333 -19.667 82.5 -59 111.5s-89.666 43.5 -150.999 43.5c-76.667 0 -144.667 -24.333 -204 -73c-33.333 -27.333 -50 -46.333 -50 -57
c0 -8.66699 6.33301 -20 19 -34z" />
    <glyph glyph-name="threesuperior" unicode="&#xb3;" horiz-adv-x="928" 
d="M194 1113l-119.001 132.001l22 21c15.333 -11.333 25.333 -17 30 -17c2.66699 0 8 2.66699 16 8c67.333 46.667 124.333 78.667 171 96s100.667 26 162 26c96 0 175 -23 237 -69c58 -42.667 87 -95.667 87 -159c0 -37.333 -9.66699 -68.833 -29 -94.5
s-50.333 -48.167 -93 -67.5c48.667 -12.667 87.334 -36.834 116.001 -72.501s43 -77.5 43 -125.5c0 -76 -32.667 -137.333 -98 -184c-69.333 -50 -158.666 -75 -267.999 -75c-112 0 -223.667 30.333 -335 91c-8.66699 4.66699 -14.334 7 -17.001 7
c-6.66699 0 -16.334 -6.66699 -29.001 -20l-27 16l96 154l28 -15c-6 -13.333 -9 -22 -9 -26c0 -6 6 -14 18 -24c68.667 -59.333 162.334 -89 281.001 -89c84 0 149 18.333 195 55c36.667 28.667 55 65.667 55 111c0 47.333 -19.667 83.666 -59 108.999
s-95.666 38 -168.999 38h-78c-16.667 0 -27.834 -2.33301 -33.501 -7s-10.167 -15 -13.5 -31h-32v166h32c3.33301 -16 8 -26.333 14 -31s17 -7 33 -7h64c73.333 0 126.333 10.667 159 32c31.333 20.667 47 49 47 85c0 40 -21 73.167 -63 99.5s-95 39.5 -159 39.5
c-84.667 0 -158.667 -25 -222 -75c-28 -22 -42 -38 -42 -48c0 -3.33301 4 -12.666 12 -27.999z" />
    <glyph glyph-name="acute" unicode="&#xb4;" 
d="M747 1533v-27c-22.667 -2 -39.667 -11 -51 -27l-129 -173c-4 -6 -6 -12 -6 -18c0 -10 7 -15 21 -15h4v-27h-173v27c14.667 0 24.667 2 30 6s12 14 20 30l76 163c2 4 3 8 3 12c0 12.667 -9 20 -27 22v27h232z" />
    <glyph glyph-name="mu" unicode="&#xb5;" horiz-adv-x="908" 
d="M929 106l0.00292969 -32.999l-165 -93c-2.66699 -1.33301 -5.66699 -2 -9 -2c-12.667 0 -26.334 4.83301 -41.001 14.5s-25.334 20.834 -32.001 33.501c-10 18.667 -20 60 -30 124c-60 -58 -104.333 -97 -133 -117c-59.333 -42 -120.666 -63 -183.999 -63
c-58 0 -105 14.667 -141 44s-63.667 75 -83 137c-0.666992 -29.333 -1 -49.333 -1 -60c0 -44.667 1.16699 -78.834 3.5 -102.501s10.166 -82.834 23.499 -177.501c6.66699 -44.667 10 -77.334 10 -98.001c0 -29.333 -7 -53.5 -21 -72.5s-32 -28.5 -54 -28.5
s-40.333 9 -55 27s-22 40.333 -22 67s4.66699 67.667 14 123c38 255.333 57 503 57 743v365h143v-587c0 -66 3.83301 -115.5 11.5 -148.5s21.5 -61.167 41.5 -84.5c31.333 -35.333 74.666 -53 129.999 -53c48.667 0 92.667 12.833 132 38.5s79.333 67.5 120 125.5v709h142
v-698c0 -61.333 5.5 -102.666 16.5 -123.999s32.5 -32 64.5 -32c18 0 38.667 7.66699 62 23z" />
    <glyph glyph-name="paragraph" unicode="&#xb6;" horiz-adv-x="1307" 
d="M641 635l-181 -0.00195312c-40.667 0 -86 7.33301 -136 22s-90 32.334 -120 53.001c-108.667 75.333 -163 175.333 -163 300c0 76 23 142.667 69 200c32 40 67.167 70.833 105.5 92.5s84.5 36.834 138.5 45.501c67.333 11.333 108.333 17 123 17h734v-32
c-26 -6.66699 -43.167 -15.667 -51.5 -27s-12.5 -31 -12.5 -59v-1293c0 -28 4.16699 -47.667 12.5 -59s25.5 -20.333 51.5 -27v-32h-221v1406h-192v-1406h-221v32c26 6.66699 43.167 15.667 51.5 27s12.5 31 12.5 59v681z" />
    <glyph glyph-name="cedilla" unicode="&#xb8;" 
d="M408 -202l51.001 103.999c14.667 1.33301 28 2 40 2c57.333 0 102.666 -12.333 135.999 -37s50 -58 50 -100c0 -45.333 -16.667 -81.666 -50 -108.999c-32.667 -27.333 -79.667 -41 -141 -41c-60 0 -111.333 7.66699 -154 23l16 36c28 -8.66699 54.333 -13 79 -13
c75.333 0 113 27.333 113 82c0 45.333 -20.667 68 -62 68c-22 0 -41.333 -9 -58 -27z" />
    <glyph glyph-name="onesuperior" unicode="&#xb9;" horiz-adv-x="928" 
d="M402 546l-0.00292969 31.999c16.667 4 27.334 8.66699 32.001 14s7 15.333 7 30v579c-33.333 -17.333 -60.666 -27.333 -81.999 -30c-10 -1.33301 -15.833 -3 -17.5 -5s-4.16699 -10.667 -7.5 -26h-32v165h32c1.33301 -8.66699 2.33301 -14.334 3 -17.001l2 -11
c0.666992 -5.33301 4 -8 10 -8c16.667 0 36.334 6.16699 59.001 18.5s34 22.833 34 31.5c0 5.33301 -11 10 -33 14v32h177v-32c-16.667 -3.33301 -27.5 -7.66602 -32.5 -12.999s-7.5 -15.666 -7.5 -30.999v-667c0 -14.667 2.33301 -24.667 7 -30s15.667 -10 33 -14v-32h-184
z" />
    <glyph glyph-name="ordmasculine" unicode="&#xba;" horiz-adv-x="1046" 
d="M522 1376c96.667 0 174.667 -25.333 234 -76c63.333 -53.333 95 -124 95 -212c0 -82.667 -31.667 -151 -95 -205c-59.333 -50.667 -137 -76 -233 -76s-173.667 25.333 -233 76c-63.333 54 -95 123.667 -95 209c0 84 30 152 90 204s139 78.667 237 80zM522 1310
c-76 0 -137.334 -23.334 -184.001 -70.001c-40 -40.667 -60 -90.334 -60 -149.001c0 -58 20 -107.333 60 -148c46 -46.667 107.667 -70 185 -70s139 23.333 185 70c40 40.667 60 89.334 60 146.001c0 65.333 -22.667 118.333 -68 159s-104.666 61.334 -177.999 62.001z
M850.999 746.999l-0.00195312 -210h-24c-5.33301 24.667 -11.666 41.5 -18.999 50.5s-18.666 13.5 -33.999 13.5h-502c-14.667 0 -25.834 -4.5 -33.501 -13.5s-14.167 -25.833 -19.5 -50.5h-23v210h23c5.33301 -24.667 11.833 -41.5 19.5 -50.5s18.834 -13.5 33.501 -13.5
h502c14.667 0 26 4.66699 34 14s14.333 26 19 50h24z" />
    <glyph glyph-name="guillemotright" unicode="&#xbb;" 
d="M678 159h-138l196 401l-196 400h138l195 -400zM315 159h-138l197 401l-197 400h138l195 -400z" />
    <glyph glyph-name="onequarter" unicode="&#xbc;" horiz-adv-x="2365" 
d="M402 546l-0.00292969 31.998c16.667 4 27.334 8.66699 32.001 14s7 15.333 7 30v579c-33.333 -17.333 -60.666 -27.333 -81.999 -30c-10 -1.33301 -15.833 -3 -17.5 -5s-4.16699 -10.667 -7.5 -26h-32v165h32c2.66699 -18 4.66699 -28.5 6 -31.5s4.33301 -4.5 9 -4.5
c16.667 0 36.334 6.16699 59.001 18.5s34 22.833 34 31.5c0 5.33301 -11 10 -33 14v32h177v-32c-16.667 -3.33301 -27.5 -7.66602 -32.5 -12.999s-7.5 -15.666 -7.5 -30.999v-667c0 -14.667 2.33301 -24.667 7 -30s15.667 -10 33 -14v-32h-184zM1324 1365
l316.999 -0.000976562v-27c-45.333 -3.33301 -88.666 -44.666 -129.999 -123.999l-500 -1062c-21.333 -46 -32 -73.667 -32 -83c0 -23.333 21.667 -37 65 -41v-28h-321v28c45.333 3.33301 88.333 44.666 129 123.999l509 1061c21.333 44.667 32 72.334 32 83.001
c0 24.667 -23 38.667 -69 42v27zM2143 258.997h74.998c16 0 26.833 2.33301 32.5 7s10.5 15 14.5 31h32v-166h-32c-3.33301 16 -8 26.333 -14 31s-17 7 -33 7h-75v-93c0 -14.667 2.33301 -24.667 7 -30s15.334 -10 32.001 -14v-32h-183v32
c16.667 4 27.334 8.66699 32.001 14s7 15.333 7 30v93h-455c-16 0 -27 -2.33301 -33 -7s-10.667 -15 -14 -31h-32v107l471 529c3.33301 4 5 7 5 9s-10 5.66699 -30 11v32h232v-32c-16 -3.33301 -26.5 -7.83301 -31.5 -13.5s-7.5 -16.167 -7.5 -31.5v-483zM2037.99 258.997
v445l-389 -445h389z" />
    <glyph glyph-name="onehalf" unicode="&#xbd;" horiz-adv-x="2365" 
d="M402 546l-0.00195312 31.999c16 4 26.5 8.66699 31.5 14s7.5 15.666 7.5 30.999v578c-33.333 -17.333 -60.666 -27.333 -81.999 -30c-10 -1.33301 -15.833 -3 -17.5 -5s-4.16699 -10.667 -7.5 -26h-32v165h32c2.66699 -18 4.66699 -28.5 6 -31.5s4.33301 -4.5 9 -4.5
c16.667 0 36.334 6.16699 59.001 18.5s34 23.166 34 32.499c0 4.66699 -11 9 -33 13v32h177v-32c-16.667 -3.33301 -27.5 -7.66602 -32.5 -12.999s-7.5 -15.666 -7.5 -30.999v-666c0 -15.333 2.5 -25.666 7.5 -30.999s15.833 -10 32.5 -14v-32h-184zM1324 1365
l316.999 -0.000976562v-27c-45.333 -3.33301 -88.666 -44.666 -129.999 -123.999l-500 -1062c-21.333 -46 -32 -73.667 -32 -83c0 -23.333 21.667 -37 65 -41v-28h-321v28c45.333 3.33301 88.333 44.666 129 123.999l509 1061c21.333 44.667 32 72.334 32 83.001
c0 24.667 -23 38.667 -69 42v27zM1661 552.998l-134.999 127.001l23 22c17.333 -11.333 29.666 -17 36.999 -17c2.66699 0 7 3 13 9c41.333 44 91 78.167 149 102.5s119 36.5 183 36.5c88 0 160.667 -22 218 -66c59.333 -46 89 -104.667 89 -176
c0 -60 -19.333 -110.167 -58 -150.5s-110.667 -85.5 -216 -135.5c-92.667 -44 -157.834 -80.5 -195.501 -109.5s-65.167 -64.167 -82.5 -105.5h507c16 0 27 2.33301 33 7s10.667 15 14 31h32v-166h-32c-3.33301 16 -8 26.333 -14 31s-17 7 -33 7h-572
c-16 0 -26.833 -2.33301 -32.5 -7s-10.5 -15 -14.5 -31h-32c-2.66699 171.333 125.333 313.666 384 426.999c78 35.333 131.333 66.833 160 94.5s43 61.167 43 100.5c0 45.333 -19.667 82.5 -59 111.5s-89.666 43.5 -150.999 43.5c-76.667 0 -144.667 -24.333 -204 -73
c-33.333 -27.333 -50 -46.333 -50 -57c0 -8.66699 6.33301 -19.667 19 -33z" />
    <glyph glyph-name="threequarters" unicode="&#xbe;" horiz-adv-x="2365" 
d="M194 1113l-119 132.003l22 21c15.333 -11.333 25.333 -17 30 -17c3.33301 0 16.666 8.33301 39.999 25c100.667 70 203.667 105 309 105c96 0 175 -23 237 -69c58 -42.667 87 -95.667 87 -159c0 -37.333 -9.66699 -68.833 -29 -94.5s-50.333 -48.167 -93 -67.5
c50 -14 89 -38.333 117 -73s42 -76.334 42 -125.001c0 -76 -32.667 -137.333 -98 -184c-69.333 -50 -158.666 -75 -267.999 -75c-112 0 -223.667 30.333 -335 91c-8.66699 4.66699 -14.334 7 -17.001 7c-6 0 -15.667 -6.66699 -29 -20l-27 16l96 154l28 -15
c-6 -13.333 -9 -22 -9 -26c0 -6 6 -14 18 -24c68.667 -59.333 162.334 -89 281.001 -89c84 0 149 18.333 195 55c36.667 28.667 55 65.667 55 111c0 47.333 -19.667 83.666 -59 108.999s-95.666 38 -168.999 38h-78c-16.667 0 -27.834 -2.33301 -33.501 -7
s-10.167 -15 -13.5 -31h-32v166h32c3.33301 -16 8 -26.333 14 -31s17 -7 33 -7h64c73.333 0 126.333 10.667 159 32c31.333 21.333 47 49.666 47 84.999c0 40.667 -21 74 -63 100s-95 39 -159 39c-84.667 0 -158.667 -25 -222 -75c-28 -22 -42 -38 -42 -48
c0 -3.33301 4 -12.333 12 -27zM1324 1365l316.999 -0.000976562v-27c-45.333 -3.33301 -88.666 -44.666 -129.999 -123.999l-500 -1062c-21.333 -46 -32 -73.667 -32 -83c0 -23.333 21.667 -37 65 -41v-28h-321v28c45.333 3.33301 88.333 44.666 129 123.999l509 1061
c21.333 44.667 32 72.334 32 83.001c0 24.667 -23 38.667 -69 42v27zM2142 259.002h74.999c16 0 26.833 2.33301 32.5 7s10.5 15 14.5 31h32v-166h-32c-3.33301 16 -8 26.333 -14 31s-17 7 -33 7h-75v-93c0 -14.667 2.33301 -24.667 7 -30s15.334 -10 32 -14v-32h-183v32
c16.667 4 27.334 8.66699 32.001 14s7 15.333 7 30v93h-454c-16 0 -27 -2.33301 -33 -7s-10.667 -15 -14 -31h-32v107l470 529c3.33301 4 5 7 5 9s-10 5.66699 -30 11v32h232v-32c-16 -3.33301 -26.5 -7.83301 -31.5 -13.5s-7.5 -16.167 -7.5 -31.5v-483zM2037 259.002v445
l-389 -445h389z" />
    <glyph glyph-name="questiondown" unicode="&#xbf;" horiz-adv-x="1051" 
d="M410 975l242.001 0.00195312v-27c-23.333 -1.33301 -38.666 -5.83301 -45.999 -13.5s-11.666 -24.167 -12.999 -49.5c-2.66699 -72.667 -17 -135.334 -43 -188.001c-14.667 -29.333 -28.834 -53.166 -42.501 -71.499s-55.834 -69.833 -126.501 -154.5
c-49.333 -59.333 -74 -114.666 -74 -165.999c0 -48.667 13 -89.334 39 -122.001c44 -56 105 -84 183 -84c80 0 151.667 29.667 215 89c34.667 32.667 52 62.334 52 89.001c0 10 -7 25 -21 45l23 22l185 -199l-23 -22l-25 15c-8.66699 5.33301 -15.334 8 -20.001 8
c-6.66699 0 -18 -6.66699 -34 -20c-118.667 -100 -243 -150 -373 -150c-108.667 0 -197.667 33.667 -267 101c-60.667 59.333 -91 132.666 -91 219.999c0 64.667 19 123.334 57 176.001c19.333 26.667 64.666 76 135.999 148c36.667 37.333 66.334 81.666 89.001 132.999
s34 99.666 34 144.999c0 16.667 -3.66699 28.167 -11 34.5s-22.333 11.166 -45 14.499v27zM525.001 1389c29.333 0 54.501 -10.6689 75.501 -32.002s31.5 -46.666 31.5 -75.999s-10.5 -54.5 -31.5 -75.5s-46.167 -31.5 -75.5 -31.5c-30.667 0 -56.334 10.5 -77.001 31.5
s-31 46.5 -31 76.5c0 29.333 10.5 54.333 31.5 75s46.5 31.334 76.5 32.001z" />
    <glyph glyph-name="Agrave" unicode="&#xc0;" horiz-adv-x="1510" 
d="M1119 383l-730.997 -0.000976562l-120 -259c-11.333 -24.667 -17 -42 -17 -52c0 -20 19.667 -33.333 59 -40v-32h-304v32c27.333 4.66699 48.166 14.667 62.499 30s33.166 48.666 56.499 99.999l500 1079c12 26 18 43.667 18 53c0 17.333 -16.333 30.333 -49 39v32h332
v-32c-32.667 -10.667 -49 -24.667 -49 -42c0 -7.33301 6 -24 18 -50l479 -1040c35.333 -76.667 58.666 -121.667 69.999 -135s36 -24.666 74 -33.999v-32h-324v32c38.667 5.33301 58 20 58 44c0 10.667 -7.33301 31.334 -22 62.001zM1060 512.999l-307 674l-306 -674h613z
M520.003 1765h232.001v-27c-18 -2 -27 -9.33301 -27 -22c0 -4 1 -8 3 -12l77 -163c7.33301 -16 13.666 -26 18.999 -30s15.333 -6 30 -6v-27h-173v27h5c13.333 0 20 5 20 15c0 6 -2 12 -6 18l-129 172c-11.333 16.667 -28.333 26 -51 28v27z" />
    <glyph glyph-name="Aacute" unicode="&#xc1;" horiz-adv-x="1510" 
d="M1119 383l-730.997 -0.000976562l-120 -259c-11.333 -24.667 -17 -42 -17 -52c0 -20 19.667 -33.333 59 -40v-32h-304v32c27.333 4.66699 48.166 14.667 62.499 30s33.166 48.666 56.499 99.999l500 1079c12 26 18 43.667 18 53c0 17.333 -16.333 30.333 -49 39v32h332
v-32c-32.667 -10.667 -49 -24.667 -49 -42c0 -7.33301 6 -24 18 -50l479 -1040c35.333 -76.667 58.666 -121.667 69.999 -135s36 -24.666 74 -33.999v-32h-324v32c38.667 5.33301 58 20 58 44c0 10.667 -7.33301 31.334 -22 62.001zM1060 512.999l-307 674l-306 -674h613z
M990.003 1765v-27c-22.667 -2 -39.667 -11.333 -51 -28l-129 -172c-4 -6 -6 -12 -6 -18c0 -10 7 -15 21 -15h4v-27h-173v27c14.667 0 24.667 2 30 6s12 14 20 30l76 163c2 4 3 8 3 12c0 12.667 -9 20 -27 22v27h232z" />
    <glyph glyph-name="Acircumflex" unicode="&#xc2;" horiz-adv-x="1510" 
d="M1119 383l-730.997 -0.000976562l-120 -259c-11.333 -24.667 -17 -42 -17 -52c0 -20 19.667 -33.333 59 -40v-32h-304v32c27.333 4.66699 48.166 14.667 62.499 30s33.166 48.666 56.499 99.999l500 1079c12 26 18 43.667 18 53c0 17.333 -16.333 30.333 -49 39v32h332
v-32c-32.667 -10.667 -49 -24.667 -49 -42c0 -7.33301 6 -24 18 -50l479 -1040c35.333 -76.667 58.666 -121.667 69.999 -135s36 -24.666 74 -33.999v-32h-324v32c38.667 5.33301 58 20 58 44c0 10.667 -7.33301 31.334 -22 62.001zM1060 512.999l-307 674l-306 -674h613z
M642.003 1478h-209.999v27c17.333 0.666992 29.666 3.16699 36.999 7.5s19.333 15.833 36 34.5l146 149c8 8 12 16.333 12 25c0 11.333 -11.667 17 -35 17v27h262v-27c-22 -2.66699 -33 -8.66699 -33 -18c0 -7.33301 6 -16.666 18 -27.999l169 -167
c12 -12.667 28 -19.334 48 -20.001v-27h-235v27c22 2 33 7 33 15c0 4 -5.66699 11.667 -17 23l-124 131l-128 -134c-6.66699 -6.66699 -10 -12.667 -10 -18c0 -10 10.333 -15.667 31 -17v-27z" />
    <glyph glyph-name="Atilde" unicode="&#xc3;" horiz-adv-x="1510" 
d="M1119 383l-730.997 -0.000976562l-120 -259c-11.333 -24.667 -17 -42 -17 -52c0 -20 19.667 -33.333 59 -40v-32h-304v32c27.333 4.66699 48.166 14.667 62.499 30s33.166 48.666 56.499 99.999l500 1079c12 26 18 43.667 18 53c0 17.333 -16.333 30.333 -49 39v32h332
v-32c-32.667 -10.667 -49 -24.667 -49 -42c0 -7.33301 6 -24 18 -50l479 -1040c35.333 -76.667 58.666 -121.667 69.999 -135s36 -24.666 74 -33.999v-32h-324v32c38.667 5.33301 58 20 58 44c0 10.667 -7.33301 31.334 -22 62.001zM1060 512.999l-307 674l-306 -674h613z
M958.003 1733l130 -84l-14 -23c-9.33301 4 -16.666 6 -21.999 6c-8 0 -16.333 -6 -25 -18c-42.667 -63.333 -88.667 -95 -138 -95c-24 0 -50 5 -78 15l-144 53c-12 4.66699 -25.333 7 -40 7c-13.333 0 -26 -5.33301 -38 -16s-18.333 -22.334 -19 -35.001
c-0.666992 -6.66699 3.66602 -16 12.999 -28l-15 -18l-132 90l13 18c9.33301 -2.66699 16.333 -4 21 -4c12 0 23.667 7.66699 35 23c38.667 56 88 84 148 84c18.667 0 38 -3.66699 58 -11l145 -55c16 -6 31.667 -9 47 -9c13.333 0 25.833 5.33301 37.5 16
s17.5 22.334 17.5 35.001c0 9.33301 -5.33301 19.333 -16 30z" />
    <glyph glyph-name="Adieresis" unicode="&#xc4;" horiz-adv-x="1510" 
d="M1119 383l-730.997 -0.000976562l-120 -259c-11.333 -24.667 -17 -42 -17 -52c0 -20 19.667 -33.333 59 -40v-32h-304v32c27.333 4.66699 48.166 14.667 62.499 30s33.166 48.666 56.499 99.999l500 1079c12 26 18 43.667 18 53c0 17.333 -16.333 30.333 -49 39v32h332
v-32c-32.667 -10.667 -49 -24.667 -49 -42c0 -7.33301 6 -24 18 -50l479 -1040c35.333 -76.667 58.666 -121.667 69.999 -135s36 -24.666 74 -33.999v-32h-324v32c38.667 5.33301 58 20 58 44c0 10.667 -7.33301 31.334 -22 62.001zM1060 512.999l-307 674l-306 -674h613z
M603.003 1698c26 0 47.998 -9 65.998 -27s27 -40.333 27 -67c0 -25.333 -9.16699 -47 -27.5 -65s-40.166 -27 -65.499 -27s-47.166 9.16699 -65.499 27.5s-27.5 40.166 -27.5 65.499c0 26 9 47.833 27 65.5s40 26.834 66 27.501zM920.001 1698c26 0 47.998 -9 65.998 -27
s27 -40.333 27 -67c0 -25.333 -9.16699 -47 -27.5 -65s-40.166 -27 -65.499 -27s-47.166 9.16699 -65.499 27.5s-27.5 40.166 -27.5 65.499c0 26 9 47.833 27 65.5s40 26.834 66 27.501z" />
    <glyph glyph-name="Aring" unicode="&#xc5;" horiz-adv-x="1510" 
d="M1119 383l-730.997 -0.000976562l-120 -259c-11.333 -24.667 -17 -42 -17 -52c0 -20 19.667 -33.333 59 -40v-32h-304v32c27.333 4.66699 48.166 14.667 62.499 30s33.166 48.666 56.499 99.999l500 1079c12 26 18 43.667 18 53c0 17.333 -16.333 30.333 -49 39v32h332
v-32c-32.667 -10.667 -49 -24.667 -49 -42c0 -7.33301 6 -24 18 -50l479 -1040c35.333 -76.667 58.666 -121.667 69.999 -135s36 -24.666 74 -33.999v-32h-324v32c38.667 5.33301 58 20 58 44c0 10.667 -7.33301 31.334 -22 62.001zM1060 512.999l-307 674l-306 -674h613z
M761.003 1786c55.333 0 102.001 -16.334 140.001 -49.001c38 -33.333 57 -73.333 57 -120c0 -45.333 -19.333 -84.5 -58 -117.5s-84.667 -49.5 -138 -49.5c-54 0 -100 16.667 -138 50c-38.667 32.667 -58 72.334 -58 119.001s18.667 86 56 118s83.666 48.333 138.999 49z
M762.004 1705c-28.667 0 -52.667 -8.16797 -72 -24.501s-29 -37.166 -29 -62.499c0 -24 9.83301 -44.5 29.5 -61.5s43.5 -25.5 71.5 -25.5c27.333 0 51 8.5 71 25.5s30 37.167 30 60.5c0 25.333 -9.5 46.333 -28.5 63s-43.167 25 -72.5 25z" />
    <glyph glyph-name="AE" unicode="&#xc6;" horiz-adv-x="2026" 
d="M904 389l-495.999 0.000976562l-142 -265c-18.667 -34.667 -28 -55 -28 -61c0 -16 15.333 -26.333 46 -31v-32h-304v32c53.333 10.667 101 54 143 130l579 1078c17.333 32 26 51.667 26 59c0 16.667 -14.333 28 -43 34v32h1128c28 0 47.833 4.33301 59.5 13
s20.5 26 26.5 52h32v-258h-32c-6 25.333 -14.833 42.166 -26.5 50.499s-31.5 12.5 -59.5 12.5h-752v-468h455c28 0 47.667 4.33301 59 13s20.333 25.667 27 51h32v-258h-32c-6.66699 25.333 -15.667 42.333 -27 51s-31 13 -59 13h-455v-507h765c28 0 47.833 4.33301 59.5 13
s20.5 25.667 26.5 51h33v-258h-32c-6.66699 25.333 -15.834 42.333 -27.501 51s-31.5 13 -59.5 13h-986v32c25.333 6.66699 42.333 15.667 51 27s13 31 13 59v271zM904.001 519.001v714h-51l-378 -714h429z" />
    <glyph glyph-name="Ccedilla" unicode="&#xc7;" horiz-adv-x="1735" 
d="M1589 1247l-148.003 -247l-27 16c6 20 9 35.667 9 47c0 27.333 -42.667 61.666 -128 102.999c-117.333 57.333 -245.333 86 -384 86c-186.667 0 -338 -51.667 -454 -155c-118 -105.333 -177 -241.666 -177 -408.999c0 -166.667 61.333 -305 184 -415
c118.667 -107.333 265 -161 439 -161c170 0 320 49.667 450 149c58.667 44.667 88 76.334 88 95.001c0 9.33301 -5.66699 24.666 -17 45.999l24 19l178 -216l-25 -20c-18.667 16.667 -34 25 -46 25c-7.33301 0 -20 -7 -38 -21c-61.333 -46 -112.166 -80.5 -152.499 -103.5
s-84.5 -42.5 -132.5 -58.5c-99.333 -34 -208.666 -51 -327.999 -51c-230 0 -417 64 -561 192c-151.333 134 -227 305 -227 513c0 164 47.333 306 142 426c148 188 369.667 282 665 282c195.333 0 384.333 -51.667 567 -155c12 -6.66699 20.333 -10 25 -10
c8.66699 0 24.334 12.667 47.001 38zM730.997 -220l64 114c18.667 2 32.667 3 42 3c46 0 91.667 -10 137 -30c54 -23.333 81 -65.333 81 -126c0 -46.667 -18.667 -84.667 -56 -114c-44 -33.333 -100 -50 -168 -50c-72 0 -133.667 9.66699 -185 29l20 41
c34.667 -11.333 67.667 -17 99 -17c44 0 78.333 8.66699 103 26s37 41.333 37 72c0 23.333 -7.16699 42 -21.5 56s-33.5 21 -57.5 21c-14.667 0 -25 -1.66699 -31 -5s-19 -15.333 -39 -36z" />
    <glyph glyph-name="Egrave" unicode="&#xc8;" horiz-adv-x="1474" 
d="M371 637l0.000976562 -507.001h875c28 0 47.833 4.33301 59.5 13s20.5 25.667 26.5 51h32v-258h-31c-6.66699 25.333 -15.834 42.333 -27.501 51s-31.5 13 -59.5 13h-1096v32c26 6.66699 43.167 15.667 51.5 27s12.5 31 12.5 59v1129c0 28 -4.33301 47.667 -13 59
s-25.667 20.333 -51 27v32h1083c28 0 47.667 4.33301 59 13s20.333 26 27 52h32v-258h-32c-6 24.667 -14.833 41.334 -26.5 50.001s-31.5 13 -59.5 13h-862v-468h565c28 0 47.833 4.33301 59.5 13s20.5 25.667 26.5 51h32v-258h-32c-6 25.333 -14.833 42.333 -26.5 51
s-31.5 13 -59.5 13h-565zM542.001 1765h232.001v-27c-18 -2 -27 -9.33301 -27 -22c0 -4 1 -8 3 -12l77 -163c7.33301 -16 13.666 -26 18.999 -30s15.333 -6 30 -6v-27h-173v27h5c13.333 0 20 5 20 15c0 6 -2 12 -6 18l-129 172c-11.333 16.667 -28.333 26 -51 28v27z" />
    <glyph glyph-name="Eacute" unicode="&#xc9;" horiz-adv-x="1474" 
d="M371 637l0.000976562 -507.001h875c28 0 47.833 4.33301 59.5 13s20.5 25.667 26.5 51h32v-258h-31c-6.66699 25.333 -15.834 42.333 -27.501 51s-31.5 13 -59.5 13h-1096v32c26 6.66699 43.167 15.667 51.5 27s12.5 31 12.5 59v1129c0 28 -4.33301 47.667 -13 59
s-25.667 20.333 -51 27v32h1083c28 0 47.667 4.33301 59 13s20.333 26 27 52h32v-258h-32c-6 24.667 -14.833 41.334 -26.5 50.001s-31.5 13 -59.5 13h-862v-468h565c28 0 47.833 4.33301 59.5 13s20.5 25.667 26.5 51h32v-258h-32c-6 25.333 -14.833 42.333 -26.5 51
s-31.5 13 -59.5 13h-565zM999.001 1765v-27c-22.667 -2 -39.667 -11.333 -51 -28l-129 -172c-4 -6 -6 -12 -6 -18c0 -10 7 -15 21 -15h4v-27h-173v27c14.667 0 24.667 2 30 6s12 14 20 30l76 163c2 4 3 8 3 12c0 12.667 -9 20 -27 22v27h232z" />
    <glyph glyph-name="Ecircumflex" unicode="&#xca;" horiz-adv-x="1474" 
d="M371 637l0.000976562 -507.001h875c28 0 47.833 4.33301 59.5 13s20.5 25.667 26.5 51h32v-258h-31c-6.66699 25.333 -15.834 42.333 -27.501 51s-31.5 13 -59.5 13h-1096v32c26 6.66699 43.167 15.667 51.5 27s12.5 31 12.5 59v1129c0 28 -4.33301 47.667 -13 59
s-25.667 20.333 -51 27v32h1083c28 0 47.667 4.33301 59 13s20.333 26 27 52h32v-258h-32c-6 24.667 -14.833 41.334 -26.5 50.001s-31.5 13 -59.5 13h-862v-468h565c28 0 47.833 4.33301 59.5 13s20.5 25.667 26.5 51h32v-258h-32c-6 25.333 -14.833 42.333 -26.5 51
s-31.5 13 -59.5 13h-565zM651.001 1478h-209.999v27c17.333 0.666992 29.666 3.16699 36.999 7.5s19.333 15.833 36 34.5l146 149c8 8 12 16.333 12 25c0 11.333 -11.667 17 -35 17v27h262v-27c-22 -2.66699 -33 -8.66699 -33 -18c0 -7.33301 6 -16.666 18 -27.999l169 -167
c12 -12.667 28 -19.334 48 -20.001v-27h-235v27c22 2 33 7 33 15c0 4 -5.66699 11.667 -17 23l-124 131l-128 -134c-6.66699 -6.66699 -10 -12.667 -10 -18c0 -10 10.333 -15.667 31 -17v-27z" />
    <glyph glyph-name="Edieresis" unicode="&#xcb;" horiz-adv-x="1474" 
d="M371 637l0.000976562 -507.001h875c28 0 47.833 4.33301 59.5 13s20.5 25.667 26.5 51h32v-258h-31c-6.66699 25.333 -15.834 42.333 -27.501 51s-31.5 13 -59.5 13h-1096v32c26 6.66699 43.167 15.667 51.5 27s12.5 31 12.5 59v1129c0 28 -4.33301 47.667 -13 59
s-25.667 20.333 -51 27v32h1083c28 0 47.667 4.33301 59 13s20.333 26 27 52h32v-258h-32c-6 24.667 -14.833 41.334 -26.5 50.001s-31.5 13 -59.5 13h-862v-468h565c28 0 47.833 4.33301 59.5 13s20.5 25.667 26.5 51h32v-258h-32c-6 25.333 -14.833 42.333 -26.5 51
s-31.5 13 -59.5 13h-565zM594.001 1698c26 0 47.998 -9.00098 65.998 -27.001s27 -40.333 27 -67c0 -25.333 -9.16699 -47 -27.5 -65s-40.166 -27 -65.499 -27c-26 0 -48 9 -66 27s-27 40 -27 66s8.83301 47.833 26.5 65.5s39.834 26.834 66.501 27.501zM945.999 1698
c26 0 47.999 -9.00098 65.999 -27.001s27 -40.333 27 -67c0 -25.333 -9.16699 -47 -27.5 -65s-40.166 -27 -65.499 -27c-26 0 -48 9 -66 27s-27 40 -27 66s9 47.833 27 65.5s40 26.834 66 27.501z" />
    <glyph glyph-name="Igrave" unicode="&#xcc;" horiz-adv-x="586" 
d="M215 118v1129c0 28 -4.33301 47.833 -13 59.5s-25.667 20.5 -51 26.5v32h285v-32c-25.333 -6.66699 -42.333 -15.667 -51 -27s-13 -31 -13 -59v-1129c0 -28 4.16699 -47.667 12.5 -59s25.5 -20.333 51.5 -27v-32h-285v32c26 6.66699 43.167 15.667 51.5 27
s12.5 31 12.5 59zM51 1765h232.001v-27c-18 -2 -27 -9.33301 -27 -22c0 -4 1 -8 3 -12l77 -163c7.33301 -16 13.666 -26 18.999 -30s15.333 -6 30 -6v-27h-173v27h5c13.333 0 20 5 20 15c0 6 -2 12 -6 18l-129 172c-11.333 16.667 -28.333 26 -51 28v27z" />
    <glyph glyph-name="Iacute" unicode="&#xcd;" horiz-adv-x="586" 
d="M214 118v1129c0 28 -4.33301 47.833 -13 59.5s-25.667 20.5 -51 26.5v32h285v-32c-25.333 -6.66699 -42.333 -15.667 -51 -27s-13 -31 -13 -59v-1129c0 -28 4.16699 -47.667 12.5 -59s25.5 -20.333 51.5 -27v-32h-285v32c26 6.66699 43.167 15.667 51.5 27
s12.5 31 12.5 59zM535 1765v-27c-22.667 -2 -39.667 -11.333 -51 -28l-129 -172c-4 -6 -6 -12 -6 -18c0 -10 7 -15 21 -15h4v-27h-173v27c14.667 0 24.667 2 30 6s12 14 20 30l76 163c2 4 3 8 3 12c0 12.667 -9 20 -27 22v27h232z" />
    <glyph glyph-name="Icircumflex" unicode="&#xce;" horiz-adv-x="586" 
d="M215 118v1129c0 28 -4.33301 47.667 -13 59s-25.667 20.333 -51 27v32h285v-32c-25.333 -6 -42.333 -14.833 -51 -26.5s-13 -31.5 -13 -59.5v-1129c0 -28 4.16699 -47.667 12.5 -59s25.5 -20.333 51.5 -27v-32h-285v32c26 6.66699 43.167 15.667 51.5 27s12.5 31 12.5 59
zM207 1478l-203 0.000976562v27c26.667 0.666992 51 14.667 73 42l105 149c8 11.333 12 19.666 12 24.999c0 11.333 -11.667 17 -35 17v27h262v-27c-21.333 -2 -32 -8 -32 -18c0 -6.66699 4.66699 -16 14 -28l124 -167c21.333 -13.333 39.666 -20 54.999 -20v-27h-228v27
c22 2 33 7 33 15c0 4 -2.33301 8.33301 -7 13c-5.33301 5.33301 -8.66602 9 -9.99902 11l-90 137l-94 -140c-6.66699 -10 -10 -16 -10 -18c0 -10.667 10.333 -16.667 31 -18v-27z" />
    <glyph glyph-name="Idieresis" unicode="&#xcf;" horiz-adv-x="586" 
d="M214 118v1129c0 28 -4.33301 47.833 -13 59.5s-25.667 20.5 -51 26.5v32h285v-32c-25.333 -6.66699 -42.333 -15.667 -51 -27s-13 -31 -13 -59v-1129c0 -28 4.16699 -47.667 12.5 -59s25.5 -20.333 51.5 -27v-32h-285v32c26 6.66699 43.167 15.667 51.5 27
s12.5 31 12.5 59zM157 1698c26 0 47.998 -9.00098 65.998 -27.001s27 -40.333 27 -67c0 -25.333 -9.16699 -47 -27.5 -65s-40.166 -27 -65.499 -27s-47.166 9 -65.499 27s-27.5 40 -27.5 66s9 47.833 27 65.5s40 26.834 66 27.501zM426.998 1698
c26 0 47.998 -9.00098 65.998 -27.001s27 -40.333 27 -67c0 -25.333 -9.16699 -47 -27.5 -65s-40.166 -27 -65.499 -27c-26 0 -48 9 -66 27s-27 40 -27 66s8.83301 47.833 26.5 65.5s39.834 26.834 66.501 27.501z" />
    <glyph glyph-name="Eth" unicode="&#xd0;" horiz-adv-x="1686" 
d="M37 577l0.000976562 250.999h37c8 -24.667 18 -41.667 30 -51s30 -14 54 -14h57v498c0 20 -4.66699 35.333 -14 46s-26 19.334 -50 26.001v32h720c163.333 0 288.333 -22.667 375 -68c109.333 -56.667 192.666 -143.667 249.999 -261c50 -104 75 -222 75 -354
c0 -154.667 -33.667 -288.334 -101 -401.001c-60.667 -100 -137.5 -171.833 -230.5 -215.5s-215.833 -65.5 -368.5 -65.5h-720v32c24 6.66699 40.667 15.334 50 26.001s14 26 14 46v536h-57c-24 0 -42 -4.5 -54 -13.5s-22 -25.5 -30 -49.5h-37zM372.001 762.999
l357 -0.000976562c24 0 42 4.66699 54 14s22 26.333 30 51h37v-251h-37c-8 24 -18 40.5 -30 49.5s-30 13.5 -54 13.5h-357v-510h493c145.333 0 252.666 22.333 321.999 67c82.667 53.333 143.334 135.333 182.001 246c25.333 72.667 38 152.334 38 239.001
c0 160 -40.333 291.667 -121 395c-44.667 57.333 -99 98 -163 122s-150 36 -258 36h-493v-472z" />
    <glyph glyph-name="Ntilde" unicode="&#xd1;" horiz-adv-x="1722" 
d="M357 1192v-1074c0 -27.333 4.33301 -46.833 13 -58.5s25.667 -20.834 51 -27.501v-32h-271v32c26 6.66699 43.167 15.667 51.5 27s12.5 31 12.5 59v1129c0 28 -4.33301 47.833 -13 59.5s-25.667 20.5 -51 26.5v32h392v-32c-31.333 -10.667 -47 -25.667 -47 -45
c0 -13.333 15.667 -38.333 47 -75l822 -962v996c0 28 -4.33301 47.833 -13 59.5s-25.667 20.5 -51 26.5v32h271v-32c-25.333 -6 -42.333 -14.833 -51 -26.5s-13 -31.5 -13 -59.5v-1129c0 -28 4.33301 -47.667 13 -59s25.667 -20.333 51 -27v-32h-315v32
c30.667 8 46 21.667 46 41c0 14.667 -14 38.667 -42 72zM1077 1733l130 -84l-14 -23c-9.33301 4 -16.666 6 -21.999 6c-8 0 -16.333 -6 -25 -18c-42.667 -63.333 -88.667 -95 -138 -95c-24 0 -50 5 -78 15l-144 53c-12 4.66699 -25.333 7 -40 7
c-13.333 0 -26 -5.33301 -38 -16s-18.333 -22.334 -19 -35.001c-0.666992 -6.66699 3.66602 -16 12.999 -28l-15 -18l-132 90l13 18c9.33301 -2.66699 16.333 -4 21 -4c12 0 23.667 7.66699 35 23c38.667 56 88 84 148 84c18.667 0 38 -3.66699 58 -11l145 -55
c16 -6 31.667 -9 47 -9c13.333 0 25.833 5.33301 37.5 16s17.5 22.334 17.5 35.001c0 9.33301 -5.33301 19.333 -16 30z" />
    <glyph glyph-name="Ograve" unicode="&#xd2;" horiz-adv-x="1865" 
d="M930 1389c240.667 0 434.667 -63.002 582 -189.002c82.667 -70 144.667 -155.667 186 -257c34 -83.333 51 -173 51 -269c0 -130 -37 -251.667 -111 -365c-81.333 -125.333 -194.333 -215.666 -339 -270.999c-108 -41.333 -230.333 -62 -367 -62
c-239.333 0 -432.333 63 -579 189c-82 70.667 -144 156.334 -186 257.001c-34 82.667 -51 169.667 -51 261c0 135.333 36.667 260 110 374c80 123.333 193.333 213.333 340 270c102.667 39.333 224 60 364 62zM930 1252c-204.667 0 -366.667 -57.334 -486 -172.001
c-109.333 -105.333 -164 -237.666 -164 -396.999c0 -160 54.667 -292.667 164 -398c118.667 -114.667 281.334 -172 488.001 -172c207.333 0 370.666 57.333 489.999 172c108.667 105.333 163 235.333 163 390c0 167.333 -54.333 302.333 -163 405
c-65.333 61.333 -135.333 104.333 -210 129c-82.667 28 -176.667 42.333 -282 43zM704 1765h232.001v-27c-18 -2 -27 -9.33301 -27 -22c0 -4 1 -8 3 -12l77 -163c7.33301 -16 13.666 -26 18.999 -30s15.333 -6 30 -6v-27h-173v27h5c13.333 0 20 5 20 15c0 6 -2 12 -6 18
l-129 172c-11.333 16.667 -28.333 26 -51 28v27z" />
    <glyph glyph-name="Oacute" unicode="&#xd3;" horiz-adv-x="1865" 
d="M930 1389c240.667 0 434.667 -63.002 582 -189.002c82.667 -70 144.667 -155.667 186 -257c34 -83.333 51 -173 51 -269c0 -130 -37 -251.667 -111 -365c-81.333 -125.333 -194.333 -215.666 -339 -270.999c-108 -41.333 -230.333 -62 -367 -62
c-239.333 0 -432.333 63 -579 189c-82 70.667 -144 156.334 -186 257.001c-34 82.667 -51 169.667 -51 261c0 135.333 36.667 260 110 374c80 123.333 193.333 213.333 340 270c102.667 39.333 224 60 364 62zM930 1252c-204.667 0 -366.667 -57.334 -486 -172.001
c-109.333 -105.333 -164 -237.666 -164 -396.999c0 -160 54.667 -292.667 164 -398c118.667 -114.667 281.334 -172 488.001 -172c207.333 0 370.666 57.333 489.999 172c108.667 105.333 163 235.333 163 390c0 167.333 -54.333 302.333 -163 405
c-65.333 61.333 -135.333 104.333 -210 129c-82.667 28 -176.667 42.333 -282 43zM1168 1765v-27c-22.667 -2 -39.667 -11.333 -51 -28l-129 -172c-4 -6 -6 -12 -6 -18c0 -10 7 -15 21 -15h4v-27h-173v27c14.667 0 24.667 2 30 6s12 14 20 30l76 163c2 4 3 8 3 12
c0 12.667 -9 20 -27 22v27h232z" />
    <glyph glyph-name="Ocircumflex" unicode="&#xd4;" horiz-adv-x="1865" 
d="M930 1389c240.667 0 434.667 -63.002 582 -189.002c82.667 -70 144.667 -155.667 186 -257c34 -83.333 51 -173 51 -269c0 -130 -37 -251.667 -111 -365c-81.333 -125.333 -194.333 -215.666 -339 -270.999c-108 -41.333 -230.333 -62 -367 -62
c-239.333 0 -432.333 63 -579 189c-82 70.667 -144 156.334 -186 257.001c-34 82.667 -51 169.667 -51 261c0 135.333 36.667 260 110 374c80 123.333 193.333 213.333 340 270c102.667 39.333 224 60 364 62zM930 1252c-204.667 0 -366.667 -57.334 -486 -172.001
c-109.333 -105.333 -164 -237.666 -164 -396.999c0 -160 54.667 -292.667 164 -398c118.667 -114.667 281.334 -172 488.001 -172c207.333 0 370.666 57.333 489.999 172c108.667 105.333 163 235.333 163 390c0 167.333 -54.333 302.333 -163 405
c-65.333 61.333 -135.333 104.333 -210 129c-82.667 28 -176.667 42.333 -282 43zM819 1478h-209.999v27c17.333 0.666992 29.666 3.16699 36.999 7.5s19.333 15.833 36 34.5l146 149c8 8 12 16.333 12 25c0 11.333 -11.667 17 -35 17v27h262v-27
c-22 -2.66699 -33 -8.66699 -33 -18c0 -7.33301 6 -16.666 18 -27.999l169 -167c12 -12.667 28 -19.334 48 -20.001v-27h-235v27c22 2 33 7 33 15c0 4 -5.66699 11.667 -17 23l-124 131l-128 -134c-6.66699 -6.66699 -10 -12.667 -10 -18c0 -10 10.333 -15.667 31 -17v-27z
" />
    <glyph glyph-name="Otilde" unicode="&#xd5;" horiz-adv-x="1865" 
d="M930 1389c240.667 0 434.667 -63.002 582 -189.002c82.667 -70 144.667 -155.667 186 -257c34 -83.333 51 -173 51 -269c0 -130 -37 -251.667 -111 -365c-81.333 -125.333 -194.333 -215.666 -339 -270.999c-108 -41.333 -230.333 -62 -367 -62
c-239.333 0 -432.333 63 -579 189c-82 70.667 -144 156.334 -186 257.001c-34 82.667 -51 169.667 -51 261c0 135.333 36.667 260 110 374c80 123.333 193.333 213.333 340 270c102.667 39.333 224 60 364 62zM930 1252c-204.667 0 -366.667 -57.334 -486 -172.001
c-109.333 -105.333 -164 -237.666 -164 -396.999c0 -160 54.667 -292.667 164 -398c118.667 -114.667 281.334 -172 488.001 -172c207.333 0 370.666 57.333 489.999 172c108.667 105.333 163 235.333 163 390c0 167.333 -54.333 302.333 -163 405
c-65.333 61.333 -135.333 104.333 -210 129c-82.667 28 -176.667 42.333 -282 43zM1142 1733l130 -84l-14 -23c-9.33301 4 -16.666 6 -21.999 6c-8 0 -16.333 -6 -25 -18c-42.667 -63.333 -88.667 -95 -138 -95c-24 0 -50 5 -78 15l-144 53c-12 4.66699 -25.333 7 -40 7
c-13.333 0 -26 -5.33301 -38 -16s-18.333 -22.334 -19 -35.001c-0.666992 -6.66699 3.66602 -16 12.999 -28l-15 -18l-132 90l13 18c9.33301 -2.66699 16.333 -4 21 -4c12 0 23.667 7.66699 35 23c38.667 56 88 84 148 84c18.667 0 38 -3.66699 58 -11l145 -55
c16 -6 31.667 -9 47 -9c13.333 0 25.833 5.33301 37.5 16s17.5 22.334 17.5 35.001c0 9.33301 -5.33301 19.333 -16 30z" />
    <glyph glyph-name="Odieresis" unicode="&#xd6;" horiz-adv-x="1865" 
d="M930 1389c240.667 0 434.667 -63.002 582 -189.002c82.667 -70 144.667 -155.667 186 -257c34 -83.333 51 -173 51 -269c0 -130 -37 -251.667 -111 -365c-81.333 -125.333 -194.333 -215.666 -339 -270.999c-108 -41.333 -230.333 -62 -367 -62
c-239.333 0 -432.333 63 -579 189c-82 70.667 -144 156.334 -186 257.001c-34 82.667 -51 169.667 -51 261c0 135.333 36.667 260 110 374c80 123.333 193.333 213.333 340 270c102.667 39.333 224 60 364 62zM930 1252c-204.667 0 -366.667 -57.334 -486 -172.001
c-109.333 -105.333 -164 -237.666 -164 -396.999c0 -160 54.667 -292.667 164 -398c118.667 -114.667 281.334 -172 488.001 -172c207.333 0 370.666 57.333 489.999 172c108.667 105.333 163 235.333 163 390c0 167.333 -54.333 302.333 -163 405
c-65.333 61.333 -135.333 104.333 -210 129c-82.667 28 -176.667 42.333 -282 43zM763 1698c26 0 47.998 -9.00098 65.998 -27.001s27 -40.333 27 -67c0 -25.333 -9.16699 -47 -27.5 -65s-40.166 -27 -65.499 -27s-47.166 9 -65.499 27s-27.5 40 -27.5 66s9 47.833 27 65.5
s40 26.834 66 27.501zM1115 1698c26 0 47.999 -9.00098 65.999 -27.001s27 -40.333 27 -67c0 -25.333 -9.16699 -47 -27.5 -65s-40.166 -27 -65.499 -27c-26 0 -48 9 -66 27s-27 40 -27 66s9 47.833 27 65.5s40 26.834 66 27.501z" />
    <glyph glyph-name="multiply" unicode="&#xd7;" horiz-adv-x="1570" 
d="M451 166l-183 182.002l26 27c14 -3.33301 24.667 -5 32 -5c36.667 0 80.667 25.667 132 77l235 236l-234 234c-50.667 50.667 -95 76 -133 76c-7.33301 0 -17.333 -1.33301 -30 -4l-28 28l183 183l27 -28c-2.66699 -13.333 -4 -24 -4 -32
c0 -36.667 25.667 -80.334 77 -131.001l234 -235l234 234c51.333 51.333 77 96 77 134c0 7.33301 -1.66699 17 -5 29l29 29l182 -183l-28 -28c-13.333 2.66699 -24 4 -32 4c-36.667 0 -80.334 -25.333 -131.001 -76l-234 -234l236 -237
c50.667 -50.667 94.334 -76 131.001 -76c8 0 18.667 1.33301 32 4l26 -26l-183 -182l-26 26c2.66699 14 4 24.667 4 32c0 36.667 -25.333 80.334 -76 131.001l-236 236l-236 -236c-50.667 -50.667 -76 -94.334 -76 -131.001c0 -6.66699 1.33301 -17.334 4 -32.001z" />
    <glyph glyph-name="Oslash" unicode="&#xd8;" horiz-adv-x="1865" 
d="M1358 1503h305.999v-32c-24.667 -5.33301 -41 -11.333 -49 -18s-32.667 -36 -74 -88l-34 -49l-52 -72c196 -145.333 294 -332.333 294 -561c0 -136 -37 -260.667 -111 -374c-144.667 -222 -380.667 -333 -708 -333c-78.667 0 -146.5 5.66699 -203.5 17
s-124.167 32 -201.5 62l-17 -23c-34.667 -46.667 -52 -79 -52 -97c0 -20.667 15.333 -34 46 -40v-33h-302l1 32c46.667 6.66699 102.667 57 168 151l52 68c-85.333 62 -150.333 127.333 -195 196c-73.333 114 -110 238.667 -110 374s37 259.666 111 372.999
c144.667 222 381.334 333 710.001 333c150 0 285.667 -27 407 -81l40 52c14.667 18.667 22 40.334 22 65.001c0 20.667 -16 36 -48 46v32zM614.999 170c98 -38 204.333 -57 319 -57c206 0 368.667 57.667 488 173c108.667 104.667 163 237 163 397
c0 94 -17.333 176.167 -52 246.5s-90.667 136.5 -168 198.5zM1255 1193c-100 39.333 -208 58.999 -324 58.999c-206 0 -368.667 -57.333 -488 -172c-108.667 -105.333 -163 -237.666 -163 -396.999c0 -96.667 18 -180.5 54 -251.5s95 -138.5 177 -202.5z" />
    <glyph glyph-name="Ugrave" unicode="&#xd9;" horiz-adv-x="1617" 
d="M344 1247l0.000976562 -754.997c0 -89.333 4.66699 -152.166 14 -188.499s28.666 -67.833 57.999 -94.5c71.333 -64 204.333 -96 399 -96c212 0 351 37.667 417 113c22 25.333 36.667 55.5 44 90.5s11 93.5 11 175.5v755c0 27.333 -4.33301 46.833 -13 58.5
s-25.667 20.834 -51 27.501v32h271v-32c-25.333 -6 -42.333 -14.833 -51 -26.5s-13 -31.5 -13 -59.5v-786c0 -96.667 -9.33301 -170.334 -28 -221.001c-34.667 -90.667 -99.834 -157.334 -195.501 -200.001s-228.167 -64 -397.5 -64c-253.333 0 -426.666 49 -519.999 147
c-38 39.333 -64.5 84.166 -79.5 134.499s-22.5 118.166 -22.5 203.499v786c0 28 -4.33301 47.833 -13 59.5s-25.667 20.5 -51 26.5v32h285v-32c-25.333 -6.66699 -42.333 -15.834 -51 -27.501s-13 -31.167 -13 -58.5zM587.001 1765h232.001v-27c-18 -2 -27 -9.33301 -27 -22
c0 -4 1 -8 3 -12l77 -163c7.33301 -16 13.666 -26 18.999 -30s15.333 -6 30 -6v-27h-173v27h5c13.333 0 20 5 20 15c0 6 -2 12 -6 18l-129 172c-11.333 16.667 -28.333 26 -51 28v27z" />
    <glyph glyph-name="Uacute" unicode="&#xda;" horiz-adv-x="1617" 
d="M344 1247l0.000976562 -754.997c0 -89.333 4.66699 -152.166 14 -188.499s28.666 -67.833 57.999 -94.5c71.333 -64 204.333 -96 399 -96c212 0 351 37.667 417 113c22 25.333 36.667 55.5 44 90.5s11 93.5 11 175.5v755c0 27.333 -4.33301 46.833 -13 58.5
s-25.667 20.834 -51 27.501v32h271v-32c-25.333 -6 -42.333 -14.833 -51 -26.5s-13 -31.5 -13 -59.5v-786c0 -96.667 -9.33301 -170.334 -28 -221.001c-34.667 -90.667 -99.834 -157.334 -195.501 -200.001s-228.167 -64 -397.5 -64c-253.333 0 -426.666 49 -519.999 147
c-38 39.333 -64.5 84.166 -79.5 134.499s-22.5 118.166 -22.5 203.499v786c0 28 -4.33301 47.833 -13 59.5s-25.667 20.5 -51 26.5v32h285v-32c-25.333 -6.66699 -42.333 -15.834 -51 -27.501s-13 -31.167 -13 -58.5zM1030 1765v-27c-22.667 -2 -39.667 -11.333 -51 -28
l-129 -172c-4 -6 -6 -12 -6 -18c0 -10 7 -15 21 -15h4v-27h-173v27c14.667 0 24.667 2 30 6s12 14 20 30l76 163c2 4 3 8 3 12c0 12.667 -9 20 -27 22v27h232z" />
    <glyph glyph-name="Ucircumflex" unicode="&#xdb;" horiz-adv-x="1617" 
d="M344 1247l0.000976562 -754.997c0 -89.333 4.66699 -152.166 14 -188.499s28.666 -67.833 57.999 -94.5c71.333 -64 204.333 -96 399 -96c212 0 351 37.667 417 113c22 25.333 36.667 55.5 44 90.5s11 93.5 11 175.5v755c0 27.333 -4.33301 46.833 -13 58.5
s-25.667 20.834 -51 27.501v32h271v-32c-25.333 -6 -42.333 -14.833 -51 -26.5s-13 -31.5 -13 -59.5v-786c0 -96.667 -9.33301 -170.334 -28 -221.001c-34.667 -90.667 -99.834 -157.334 -195.501 -200.001s-228.167 -64 -397.5 -64c-253.333 0 -426.666 49 -519.999 147
c-38 39.333 -64.5 84.166 -79.5 134.499s-22.5 118.166 -22.5 203.499v786c0 28 -4.33301 47.833 -13 59.5s-25.667 20.5 -51 26.5v32h285v-32c-25.333 -6.66699 -42.333 -15.834 -51 -27.501s-13 -31.167 -13 -58.5zM689.001 1478h-209.999v27
c17.333 0.666992 29.666 3.16699 36.999 7.5s19.333 15.833 36 34.5l146 149c8 8 12 16.333 12 25c0 11.333 -11.667 17 -35 17v27h262v-27c-22 -2.66699 -33 -8.66699 -33 -18c0 -7.33301 6 -16.666 18 -27.999l169 -167c12 -12.667 28 -19.334 48 -20.001v-27h-235v27
c22 2 33 7 33 15c0 4 -5.66699 11.667 -17 23l-124 131l-128 -134c-6.66699 -6.66699 -10 -12.667 -10 -18c0 -10 10.333 -15.667 31 -17v-27z" />
    <glyph glyph-name="Udieresis" unicode="&#xdc;" horiz-adv-x="1617" 
d="M344 1247l0.000976562 -754.997c0 -89.333 4.66699 -152.166 14 -188.499s28.666 -67.833 57.999 -94.5c71.333 -64 204.333 -96 399 -96c212 0 351 37.667 417 113c22 25.333 36.667 55.5 44 90.5s11 93.5 11 175.5v755c0 27.333 -4.33301 46.833 -13 58.5
s-25.667 20.834 -51 27.501v32h271v-32c-25.333 -6 -42.333 -14.833 -51 -26.5s-13 -31.5 -13 -59.5v-786c0 -96.667 -9.33301 -170.334 -28 -221.001c-34.667 -90.667 -99.834 -157.334 -195.501 -200.001s-228.167 -64 -397.5 -64c-253.333 0 -426.666 49 -519.999 147
c-38 39.333 -64.5 84.166 -79.5 134.499s-22.5 118.166 -22.5 203.499v786c0 28 -4.33301 47.833 -13 59.5s-25.667 20.5 -51 26.5v32h285v-32c-25.333 -6.66699 -42.333 -15.834 -51 -27.501s-13 -31.167 -13 -58.5zM622.001 1698c26 0 47.998 -9.00098 65.998 -27.001
s27 -40.333 27 -67c0 -25.333 -9.16699 -47 -27.5 -65s-40.166 -27 -65.499 -27c-26 0 -48 9 -66 27s-27 40 -27 66s8.83301 47.833 26.5 65.5s39.834 26.834 66.501 27.501zM993.999 1698c26 0 47.999 -9.16797 65.999 -27.501s27 -40.5 27 -66.5
c0 -25.333 -9.16699 -47 -27.5 -65s-40.166 -27 -65.499 -27c-26 0 -48 9 -66 27s-27 40 -27 66s9 47.833 27 65.5s40 26.834 66 27.501z" />
    <glyph glyph-name="Yacute" unicode="&#xdd;" horiz-adv-x="1333" 
d="M751 604l-0.000976562 -486c0 -27.333 4.33301 -46.833 13 -58.5s25.667 -20.834 51 -27.501v-32h-285v32c25.333 6.66699 42.333 15.667 51 27s13 31 13 59v486l-441 578c-48 62.667 -81.167 102.334 -99.5 119.001s-41.166 27.334 -68.499 32.001v32h346v-32
c-31.333 -8 -47 -21 -47 -39c0 -22 15.667 -54.333 47 -97l347 -472l346 488c29.333 41.333 44 69.333 44 84c0 16.667 -14.667 28.667 -44 36v32h322v-32c-32.667 -6 -60.667 -20.667 -84 -44c-48 -50.667 -79 -86.334 -93 -107.001zM900.999 1765v-27
c-22.667 -2 -39.667 -11.333 -51 -28l-129 -172c-4 -6 -6 -12 -6 -18c0 -10 7 -15 21 -15h4v-27h-173v27c14.667 0 24.667 2 30 6s12 14 20 30l76 163c2 4 3 8 3 12c0 12.667 -9 20 -27 22v27h232z" />
    <glyph glyph-name="Thorn" unicode="&#xde;" horiz-adv-x="1398" 
d="M371 1120l428 0.000976562c101.333 0 179.833 -5.33301 235.5 -16s105.5 -29.667 149.5 -57c46 -28.667 83 -67.334 111 -116.001c31.333 -54.667 47 -116.334 47 -185.001c0 -93.333 -28.667 -173.333 -86 -240c-44 -51.333 -99.833 -87.166 -167.5 -107.499
s-164.167 -30.5 -289.5 -30.5h-428v-250c0 -28 4.16699 -47.667 12.5 -59s25.5 -20.333 51.5 -27v-32h-285v32c26 6.66699 43.167 15.667 51.5 27s12.5 31 12.5 59v1129c0 28 -4.33301 47.833 -13 59.5s-25.667 20.5 -51 26.5v32h285v-32
c-25.333 -6.66699 -42.333 -15.667 -51 -27s-13 -31 -13 -59v-127zM371 498.001h444c76 0 132.5 3 169.5 9s70.167 17.667 99.5 35c67.333 40 101 107.333 101 202s-33.667 162 -101 202c-29.333 17.333 -62.5 29 -99.5 35s-93.5 9 -169.5 9h-444v-492z" />
    <glyph glyph-name="germandbls" unicode="&#xdf;" horiz-adv-x="2535" 
d="M1185 1062l-110.003 -217.999l-24 12c3.33301 19.333 5 32.666 5 39.999c0 16 -21.667 35.333 -65 58c-92 49.333 -204 74 -336 74c-106 0 -196 -19.667 -270 -59c-74 -40 -111 -95.667 -111 -167c0 -32 9.33301 -60.833 28 -86.5s43.667 -43.834 75 -54.501
s65.333 -17.667 102 -21s115.334 -7.33301 236.001 -12c100.667 -3.33301 176.834 -9.66602 228.501 -18.999s95.834 -24.333 132.501 -45c39.333 -22 70.333 -53.833 93 -95.5s34 -87.167 34 -136.5c0 -103.333 -42.333 -185.666 -127 -246.999
c-101.333 -72.667 -236 -109 -404 -109c-82.667 0 -169.5 12.667 -260.5 38s-175.5 60 -253.5 104c-10.667 6.66699 -18.667 10 -24 10c-10 0 -25 -11.667 -45 -35l-23 15l127 213l24 -14l-4 -16c-3.33301 -10.667 -5 -19.334 -5 -26.001c0 -18.667 34 -46 102 -82
c114.667 -60.667 233.667 -91 357 -91c112.667 0 206.334 19.333 281.001 58c36 18.667 64.667 43.834 86 75.501s32 64.834 32 99.501c0 32 -9 60.667 -27 86s-41.667 43.333 -71 54c-27.333 9.33301 -57.833 16 -91.5 20s-97.167 7.66699 -190.5 11
c-110 4.66699 -188.667 10.167 -236 16.5s-92 17.166 -134 32.499c-53.333 19.333 -96.333 50.666 -129 93.999c-32.667 44.667 -49 97.334 -49 158.001c0 107.333 48.667 191.666 146 252.999c99.333 62.667 225.666 94 378.999 94c140 0 280.667 -31.333 422 -94
c21.333 -8.66699 33.666 -13 36.999 -13c10.667 0 23.334 12.333 38.001 37zM2452 1062l-108.997 -218l-25 12c3.33301 20 5 33.333 5 40c0 9.33301 -4.33301 18 -13 26s-26 18.667 -52 32c-92 49.333 -204 74 -336 74c-105.333 0 -195 -19.667 -269 -59s-111 -95 -111 -167
c0 -32 9.33301 -60.833 28 -86.5s43.667 -43.834 75 -54.501s65.166 -17.667 101.499 -21s115.166 -7.33301 236.499 -12c100 -3.33301 175.833 -9.66602 227.5 -18.999s95.834 -24.333 132.5 -45c39.333 -22 70.333 -53.833 93 -95.5s34 -87.167 34 -136.5
c0 -103.333 -42.333 -185.666 -127 -246.999c-100.667 -72.667 -235 -109 -403 -109c-83.333 0 -170.5 12.667 -261.5 38s-175.167 60 -252.5 104c-11.333 6.66699 -19.333 10 -24 10c-10 0 -25.333 -11.667 -46 -35l-22 15l127 213l24 -14
c-2.66699 -8 -4.33398 -13.333 -5.00098 -16c-3.33301 -10.667 -5 -19.334 -5 -26.001c0 -18.667 34 -46 102 -82c114.667 -60.667 233.667 -91 357 -91c112.667 0 206.334 19.333 281.001 58c36 18.667 64.667 43.834 86 75.501s32 64.834 32 99.501c0 32 -9 60.667 -27 86
s-41.333 43.333 -70 54c-28 9.33301 -58.667 16 -92 20s-97 7.66699 -191 11c-110 4.66699 -188.5 10.167 -235.5 16.5s-91.833 17.166 -134.5 32.499c-52.667 19.333 -95.334 50.666 -128.001 93.999c-32.667 44.667 -49 97.334 -49 158.001
c0 107.333 48.667 191.666 146 252.999c98.667 62.667 225 94 379 94c140 0 280.667 -31.333 422 -94c20.667 -8.66699 33 -13 37 -13c10 0 22.667 12.333 38 37z" />
    <glyph glyph-name="agrave" unicode="&#xe0;" horiz-adv-x="1267" 
d="M917 315l-587 -0.00195312l-85 -188c-10.667 -23.333 -16 -40.666 -16 -51.999c0 -22.667 17.333 -38.667 52 -48v-27h-276v27c26.667 4.66699 47.5 15.167 62.5 31.5s32.833 47.5 53.5 93.5l371 806c20.667 44.667 31 75.334 31 92.001
c0 23.333 -16.667 37.666 -50 42.999v27h325v-27c-33.333 -7.33301 -50 -21.666 -50 -42.999c0 -12.667 13.333 -48.334 40 -107.001l356 -775c24 -51.333 44.667 -86.666 62 -105.999s39.333 -31 66 -35v-27h-292v27c31.333 6.66699 47 18 47 34c0 8 -8 30 -24 66z
M870 423.998l-245 548l-247 -548h492zM391 1533h232.001v-27c-18 -2 -27 -9.33301 -27 -22c0 -4 1 -8 3 -12l77 -163c7.33301 -16 13.666 -26 18.999 -30s15.333 -6 30 -6v-27h-173v27h5c13.333 0 20 5 20 15c0 6 -2 12 -6 18l-129 173c-11.333 16 -28.333 25 -51 27v27z
" />
    <glyph glyph-name="aacute" unicode="&#xe1;" horiz-adv-x="1267" 
d="M917 315l-587 -0.00195312l-85 -188c-10.667 -23.333 -16 -40.666 -16 -51.999c0 -22.667 17.333 -38.667 52 -48v-27h-276v27c26.667 4.66699 47.5 15.167 62.5 31.5s32.833 47.5 53.5 93.5l371 806c20.667 44.667 31 75.334 31 92.001
c0 23.333 -16.667 37.666 -50 42.999v27h325v-27c-33.333 -7.33301 -50 -21.666 -50 -42.999c0 -12.667 13.333 -48.334 40 -107.001l356 -775c24 -51.333 44.667 -86.666 62 -105.999s39.333 -31 66 -35v-27h-292v27c31.333 6.66699 47 18 47 34c0 8 -8 30 -24 66z
M870 423.998l-245 548l-247 -548h492zM875 1533v-27c-22.667 -2 -39.667 -11 -51 -27l-129 -173c-4 -6 -6 -12 -6 -18c0 -10 7 -15 21 -15h4v-27h-173v27c14.667 0 24.667 2 30 6s12 14 20 30l76 163c2 4 3 8 3 12c0 12.667 -9 20 -27 22v27h232z" />
    <glyph glyph-name="acircumflex" unicode="&#xe2;" horiz-adv-x="1267" 
d="M917 315l-587 -0.00195312l-85 -188c-10.667 -23.333 -16 -40.666 -16 -51.999c0 -22.667 17.333 -38.667 52 -48v-27h-276v27c26.667 4.66699 47.5 15.167 62.5 31.5s32.833 47.5 53.5 93.5l371 806c20.667 44.667 31 75.334 31 92.001
c0 23.333 -16.667 37.666 -50 42.999v27h325v-27c-33.333 -7.33301 -50 -21.666 -50 -42.999c0 -12.667 13.333 -48.334 40 -107.001l356 -775c24 -51.333 44.667 -86.666 62 -105.999s39.333 -31 66 -35v-27h-292v27c31.333 6.66699 47 18 47 34c0 8 -8 30 -24 66z
M870 423.998l-245 548l-247 -548h492zM519 1246l-209.999 0.000976562v27c17.333 0.666992 29.666 3.16699 36.999 7.5s19.333 15.833 36 34.5l146 149c8 8 12 16.333 12 25c0 11.333 -11.667 17 -35 17v27h262v-27c-22 -2.66699 -33 -8.66699 -33 -18
c0 -7.33301 6 -16.666 18 -27.999l169 -167c12 -12.667 28 -19.334 48 -20.001v-27h-235v27c22 2 33 7 33 15c0 4 -5.66699 11.667 -17 23l-124 131l-128 -134c-6.66699 -6.66699 -10 -12.334 -10 -17.001c0 -10.667 10.333 -16.667 31 -18v-27z" />
    <glyph glyph-name="atilde" unicode="&#xe3;" horiz-adv-x="1267" 
d="M917 315l-587 -0.00195312l-85 -188c-10.667 -23.333 -16 -40.666 -16 -51.999c0 -22.667 17.333 -38.667 52 -48v-27h-276v27c26.667 4.66699 47.5 15.167 62.5 31.5s32.833 47.5 53.5 93.5l371 806c20.667 44.667 31 75.334 31 92.001
c0 23.333 -16.667 37.666 -50 42.999v27h325v-27c-33.333 -7.33301 -50 -21.666 -50 -42.999c0 -12.667 13.333 -48.334 40 -107.001l356 -775c24 -51.333 44.667 -86.666 62 -105.999s39.333 -31 66 -35v-27h-292v27c31.333 6.66699 47 18 47 34c0 8 -8 30 -24 66z
M870 423.998l-245 548l-247 -548h492zM834 1501l129.997 -84.001l-14 -23c-9.33301 4 -16.666 6 -21.999 6c-8 0 -16.333 -6 -25 -18c-42.667 -64 -88.667 -96 -138 -96c-23.333 0 -49.333 5.33301 -78 16l-144 53c-12.667 4.66699 -26 7 -40 7
c-13.333 0 -26.166 -5.5 -38.499 -16.5s-18.5 -22.5 -18.5 -34.5c0 -7.33301 4.33301 -16.666 13 -27.999l-15 -18l-132 90l13 18c8.66699 -2.66699 15.667 -4 21 -4c12 0 23.667 7.66699 35 23c38 56 87.333 84 148 84c18 0 37.333 -4 58 -12l145 -54
c16.667 -6.66699 32.334 -10 47.001 -10c13.333 0 25.833 5.33301 37.5 16s17.5 22.334 17.5 35.001c0 9.33301 -5.33301 19.666 -16 30.999z" />
    <glyph glyph-name="adieresis" unicode="&#xe4;" horiz-adv-x="1267" 
d="M917 315l-587 -0.00195312l-85 -188c-10.667 -23.333 -16 -40.666 -16 -51.999c0 -22.667 17.333 -38.667 52 -48v-27h-276v27c26.667 4.66699 47.5 15.167 62.5 31.5s32.833 47.5 53.5 93.5l371 806c20.667 44.667 31 75.334 31 92.001
c0 23.333 -16.667 37.666 -50 42.999v27h325v-27c-33.333 -7.33301 -50 -21.666 -50 -42.999c0 -12.667 13.333 -48.334 40 -107.001l356 -775c24 -51.333 44.667 -86.666 62 -105.999s39.333 -31 66 -35v-27h-292v27c31.333 6.66699 47 18 47 34c0 8 -8 30 -24 66z
M870 423.998l-245 548l-247 -548h492zM479 1466c26 0 47.998 -9.00098 65.998 -27.001s27 -40.333 27 -67c0 -25.333 -9.16699 -47 -27.5 -65s-40.166 -27 -65.499 -27c-26 0 -48 9 -66 27s-27 40 -27 66s8.83301 47.833 26.5 65.5s39.834 26.834 66.501 27.501z
M796.998 1466c26 0 47.998 -9.00098 65.998 -27.001s27 -40.333 27 -67c0 -25.333 -9.16699 -47 -27.5 -65s-40.166 -27 -65.499 -27c-26 0 -48 9 -66 27s-27 40 -27 66s8.83301 47.833 26.5 65.5s39.834 26.834 66.501 27.501z" />
    <glyph glyph-name="aring" unicode="&#xe5;" horiz-adv-x="1267" 
d="M917 315l-587 -0.00195312l-85 -188c-10.667 -23.333 -16 -40.666 -16 -51.999c0 -22.667 17.333 -38.667 52 -48v-27h-276v27c26.667 4.66699 47.5 15.167 62.5 31.5s32.833 47.5 53.5 93.5l371 806c20.667 44.667 31 75.334 31 92.001
c0 23.333 -16.667 37.666 -50 42.999v27h325v-27c-33.333 -7.33301 -50 -21.666 -50 -42.999c0 -12.667 13.333 -48.334 40 -107.001l356 -775c24 -51.333 44.667 -86.666 62 -105.999s39.333 -31 66 -35v-27h-292v27c31.333 6.66699 47 18 47 34c0 8 -8 30 -24 66z
M870 423.998l-245 548l-247 -548h492zM631 1554c55.333 0 102.001 -16.334 140.001 -49.001c38 -33.333 57 -73.333 57 -120c0 -45.333 -19.333 -84.5 -58 -117.5s-84.667 -49.5 -138 -49.5c-54 0 -100 16.667 -138 50c-38.667 32.667 -58 72.334 -58 119.001
s18.667 86 56 118s83.666 48.333 138.999 49zM632.001 1473c-28.667 0 -52.667 -8.16797 -72 -24.501s-29 -37.166 -29 -62.499c0 -24 9.83301 -44.5 29.5 -61.5s43.5 -25.5 71.5 -25.5c27.333 0 51 8.5 71 25.5s30 37.167 30 60.5c0 25.333 -9.5 46.333 -28.5 63
s-43.167 25 -72.5 25z" />
    <glyph glyph-name="ae" unicode="&#xe6;" horiz-adv-x="1771" 
d="M840 320l-416 -0.00195312l-103 -193c-16.667 -31.333 -25 -52.333 -25 -63c0 -16.667 14 -29 42 -37v-27h-282v27c33.333 8.66699 60 22.334 80 41.001s42.333 50.667 67 96l436 792c30 54 45 87.667 45 101c0 18 -13 30 -39 36v27h949c28 0 47.667 4.33301 59 13
s20.333 25.667 27 51h27v-238h-27c-6 26 -14.833 43.333 -26.5 52s-31.5 13 -59.5 13h-611v-378h361c28 0 47.833 4.33301 59.5 13s20.834 25.667 27.501 51h27v-238h-27c-6.66699 26 -15.834 43.333 -27.501 52s-31.5 13 -59.5 13h-361v-415h617c28 0 48 4.5 60 13.5
s20.667 26.167 26 51.5h28v-238h-28c-5.33301 25.333 -13.833 42.333 -25.5 51s-31.5 13 -59.5 13h-825v27c25.333 6.66699 42.333 15.834 51 27.501s13 31.167 13 58.5v207zM840 428.998v579h-47l-310 -579h357z" />
    <glyph glyph-name="ccedilla" unicode="&#xe7;" horiz-adv-x="1443" 
d="M1317 1037l-125.002 -215l-23 15c4.66699 17.333 7 30.666 7 39.999c0 14 -13.333 29.667 -40 47c-107.333 69.333 -233.333 104 -378 104c-141.333 0 -259.666 -39 -354.999 -117c-106.667 -87.333 -160 -201.666 -160 -342.999c0 -153.333 59 -275.666 177 -366.999
c92.667 -72.667 203.334 -109 332.001 -109c145.333 0 271.666 42.333 378.999 127c42 33.333 63 57.666 63 72.999c0 11.333 -5.66699 28.333 -17 51l23 15l156 -200l-21 -18c-23.333 20.667 -40 31 -50 31c-5.33301 0 -13.333 -4.33301 -24 -13
c-82 -64 -164.167 -110.333 -246.5 -139s-174.5 -43 -276.5 -43c-178 0 -324.667 48 -440 144c-58 48 -104.333 105 -139 171c-44 84 -66 174.333 -66 271c0 183.333 71.667 331 215 443c119.333 92.667 269.333 139 450 139c160 0 313 -39.333 459 -118
c12.667 -6.66699 22.334 -10 29.001 -10c14 0 29.667 11.333 47 34zM598.998 -202l51.001 103.999c14.667 1.33301 28 2 40 2c57.333 0 102.666 -12.333 135.999 -37s50 -58 50 -100c0 -45.333 -16.667 -81.666 -50 -108.999c-32.667 -27.333 -79.667 -41 -141 -41
c-60 0 -111.333 7.66699 -154 23l16 36c28 -8.66699 54.333 -13 79 -13c75.333 0 113 27.333 113 82c0 45.333 -20.667 68 -62 68c-22 0 -41.333 -9 -58 -27z" />
    <glyph glyph-name="egrave" unicode="&#xe8;" horiz-adv-x="1221" 
d="M327 524l0.000976562 -415.001h692c28 0 47.833 4.33301 59.5 13s20.5 26 26.5 52h28v-238h-28c-6 25.333 -14.667 42.333 -26 51s-31 13 -59 13h-900v27c26 6.66699 43.167 15.834 51.5 27.501s12.5 31.167 12.5 58.5v894c0 28 -4.33301 47.667 -13 59
s-25.667 20.333 -51 27v27h893c28 0 47.667 4.33301 59 13s20.333 25.667 27 51h27v-238h-27c-6.66699 26 -15.667 43.333 -27 52s-31 13 -59 13h-686v-378h437c28 0 47.667 4.33301 59 13s20.333 25.667 27 51h27v-238h-27c-6.66699 26 -15.834 43.333 -27.501 52
s-31.167 13 -58.5 13h-437zM416.001 1533h232.001v-27c-18 -2 -27 -9.33301 -27 -22c0 -4 1 -8 3 -12l77 -163c7.33301 -16 13.666 -26 18.999 -30s15.333 -6 30 -6v-27h-173v27h5c13.333 0 20 5 20 15c0 6 -2 12 -6 18l-129 173c-11.333 16 -28.333 25 -51 27v27z" />
    <glyph glyph-name="eacute" unicode="&#xe9;" horiz-adv-x="1221" 
d="M327 524l0.000976562 -415.001h692c28 0 47.833 4.33301 59.5 13s20.5 26 26.5 52h28v-238h-28c-6 25.333 -14.667 42.333 -26 51s-31 13 -59 13h-900v27c26 6.66699 43.167 15.834 51.5 27.501s12.5 31.167 12.5 58.5v894c0 28 -4.33301 47.667 -13 59
s-25.667 20.333 -51 27v27h893c28 0 47.667 4.33301 59 13s20.333 25.667 27 51h27v-238h-27c-6.66699 26 -15.667 43.333 -27 52s-31 13 -59 13h-686v-378h437c28 0 47.667 4.33301 59 13s20.333 25.667 27 51h27v-238h-27c-6.66699 26 -15.834 43.333 -27.501 52
s-31.167 13 -58.5 13h-437zM873.001 1533v-27c-22.667 -2 -39.667 -11 -51 -27l-129 -173c-4 -6 -6 -12 -6 -18c0 -10 7 -15 21 -15h4v-27h-173v27c14.667 0 24.667 2 30 6s12 14 20 30l76 163c2 4 3 8 3 12c0 12.667 -9 20 -27 22v27h232z" />
    <glyph glyph-name="ecircumflex" unicode="&#xea;" horiz-adv-x="1221" 
d="M327 524l0.000976562 -415.001h692c28 0 47.833 4.33301 59.5 13s20.5 26 26.5 52h28v-238h-28c-6 25.333 -14.667 42.333 -26 51s-31 13 -59 13h-900v27c26 6.66699 43.167 15.834 51.5 27.501s12.5 31.167 12.5 58.5v894c0 28 -4.33301 47.667 -13 59
s-25.667 20.333 -51 27v27h893c28 0 47.667 4.33301 59 13s20.333 25.667 27 51h27v-238h-27c-6.66699 26 -15.667 43.333 -27 52s-31 13 -59 13h-686v-378h437c28 0 47.667 4.33301 59 13s20.333 25.667 27 51h27v-238h-27c-6.66699 26 -15.834 43.333 -27.501 52
s-31.167 13 -58.5 13h-437zM520.001 1246l-209.999 0.000976562v27c17.333 0.666992 29.666 3.16699 36.999 7.5s19.333 15.833 36 34.5l146 149c8 8 12 16.333 12 25c0 11.333 -11.667 17 -35 17v27h262v-27c-22 -2.66699 -33 -8.66699 -33 -18
c0 -7.33301 6 -16.666 18 -27.999l169 -167c12 -12.667 28 -19.334 48 -20.001v-27h-235v27c22 2 33 7 33 15c0 4 -5.66699 11.667 -17 23l-124 131l-128 -134c-6.66699 -6.66699 -10 -12.334 -10 -17.001c0 -10.667 10.333 -16.667 31 -18v-27z" />
    <glyph glyph-name="edieresis" unicode="&#xeb;" horiz-adv-x="1221" 
d="M327 524l0.000976562 -415.001h692c28 0 47.833 4.33301 59.5 13s20.5 26 26.5 52h28v-238h-28c-6 25.333 -14.667 42.333 -26 51s-31 13 -59 13h-900v27c26 6.66699 43.167 15.834 51.5 27.501s12.5 31.167 12.5 58.5v894c0 28 -4.33301 47.667 -13 59
s-25.667 20.333 -51 27v27h893c28 0 47.667 4.33301 59 13s20.333 25.667 27 51h27v-238h-27c-6.66699 26 -15.667 43.333 -27 52s-31 13 -59 13h-686v-378h437c28 0 47.667 4.33301 59 13s20.333 25.667 27 51h27v-238h-27c-6.66699 26 -15.834 43.333 -27.501 52
s-31.167 13 -58.5 13h-437zM461.001 1466c26 0 47.998 -9 65.998 -27s27 -40.333 27 -67c0 -25.333 -9.16699 -47 -27.5 -65s-40.166 -27 -65.499 -27s-47.166 9.16699 -65.499 27.5s-27.5 40.166 -27.5 65.499c0 26 9 47.833 27 65.5s40 26.834 66 27.501zM812.999 1466
c26 0 47.999 -9 65.999 -27s27 -40.333 27 -67c0 -25.333 -9.16699 -47 -27.5 -65s-40.166 -27 -65.499 -27c-26 0 -48 9.16699 -66 27.5s-27 40.166 -27 65.499c0 26 9 47.833 27 65.5s40 26.834 66 27.501z" />
    <glyph glyph-name="igrave" unicode="&#xec;" horiz-adv-x="512" 
d="M185 113v894c0 28 -4.33301 47.667 -13 59s-25.667 20.333 -51 27v27h271v-27c-25.333 -6.66699 -42.333 -15.667 -51 -27s-13 -31 -13 -59v-894c0 -27.333 4.33301 -46.833 13 -58.5s25.667 -20.834 51 -27.501v-27h-271v27c25.333 6.66699 42.333 15.834 51 27.501
s13 31.167 13 58.5zM14 1533h232.001v-27c-18 -2 -27 -9.33301 -27 -22c0 -4 1 -8 3 -12l77 -163c7.33301 -16 13.666 -26 18.999 -30s15.333 -6 30 -6v-27h-173v27h5c13.333 0 20 5 20 15c0 6 -2 12 -6 18l-129 173c-11.333 16 -28.333 25 -51 27v27z" />
    <glyph glyph-name="iacute" unicode="&#xed;" horiz-adv-x="512" 
d="M184 113v894c0 28 -4.33301 47.667 -13 59s-25.667 20.333 -51 27v27h271v-27c-25.333 -6.66699 -42.333 -15.667 -51 -27s-13 -31 -13 -59v-894c0 -27.333 4.33301 -46.833 13 -58.5s25.667 -20.834 51 -27.501v-27h-271v27c25.333 6.66699 42.333 15.834 51 27.501
s13 31.167 13 58.5zM498 1533v-27c-22.667 -2 -39.667 -11 -51 -27l-129 -173c-4 -6 -6 -12 -6 -18c0 -10 7 -15 21 -15h4v-27h-173v27c14.667 0 24.667 2 30 6s12 14 20 30l76 163c2 4 3 8 3 12c0 12.667 -9 20 -27 22v27h232z" />
    <glyph glyph-name="icircumflex" unicode="&#xee;" horiz-adv-x="512" 
d="M185 113v894c0 28 -4.33301 47.667 -13 59s-25.667 20.333 -51 27v27h271v-27c-25.333 -6.66699 -42.333 -15.667 -51 -27s-13 -31 -13 -59v-894c0 -27.333 4.33301 -46.833 13 -58.5s25.667 -20.834 51 -27.501v-27h-271v27c25.333 6.66699 42.333 15.834 51 27.501
s13 31.167 13 58.5zM170 1246h-195.999v27c27.333 0.666992 51.666 14.667 72.999 42l98 149c8 12 12 20 12 24c0 12 -11.667 18 -35 18v27h262v-27c-21.333 -2 -32 -8 -32 -18c0 -6 4.66699 -15.333 14 -28l117 -167c18.667 -12 37 -18.667 55 -20v-27h-221v27
c22.667 2 33.667 7 33 15c0 4 -2.33301 8.33301 -7 13l-10 10l-90 138l-94 -141c-6.66699 -9.33301 -10 -15 -10 -17c0 -10.667 10.333 -16.667 31 -18v-27z" />
    <glyph glyph-name="idieresis" unicode="&#xef;" horiz-adv-x="512" 
d="M184 113v894c0 28 -4.33301 47.667 -13 59s-25.667 20.333 -51 27v27h271v-27c-25.333 -6.66699 -42.333 -15.667 -51 -27s-13 -31 -13 -59v-894c0 -27.333 4.33301 -46.833 13 -58.5s25.667 -20.834 51 -27.501v-27h-271v27c25.333 6.66699 42.333 15.834 51 27.501
s13 31.167 13 58.5zM127 1466c26 0 47.998 -9 65.998 -27s27 -40.333 27 -67c0 -25.333 -9.16699 -47 -27.5 -65s-40.166 -27 -65.499 -27s-47.166 9.16699 -65.499 27.5s-27.5 40.166 -27.5 65.499c0 26 9 47.833 27 65.5s40 26.834 66 27.501zM382.998 1466
c26 0 47.998 -9 65.998 -27s27 -40.333 27 -67c0 -25.333 -9.16699 -47 -27.5 -65s-40.166 -27 -65.499 -27s-47.166 9.16699 -65.499 27.5s-27.5 40.166 -27.5 65.499c0 26 9 47.833 27 65.5s40 26.834 66 27.501z" />
    <glyph glyph-name="eth" unicode="&#xf0;" horiz-adv-x="1401" 
d="M184 526l-81 -0.00195312c-14.667 0 -25.834 -4.66699 -33.501 -14s-14.167 -26.333 -19.5 -51h-23v231h23c5.33301 -24.667 11.833 -41.5 19.5 -50.5s18.834 -13.5 33.501 -13.5h81v379c0 27.333 -4.33301 46.833 -13 58.5s-25.667 20.834 -51 27.501v27h566
c151.333 0 264 -17.667 338 -53c92 -44.667 164 -118.667 216 -222c45.333 -89.333 68 -184.333 68 -285c0 -118 -30 -226.333 -90 -325c-52 -86 -117.833 -146.667 -197.5 -182s-191.167 -53 -334.5 -53h-566v27c25.333 6.66699 42.333 15.834 51 27.501s13 31.167 13 58.5
v413zM327 1011l-0.00292969 -382.999h292c14.667 0 25.834 4.66699 33.501 14s14.167 26 19.5 50h24v-231h-24c-5.33301 24.667 -11.666 41.667 -18.999 51s-18.666 14 -33.999 14h-292v-417h351c132.667 0 229.667 18 291 54c68.667 40 119.334 102 152.001 186
c24.667 63.333 37 133.666 37 210.999c0 136 -35 245 -105 327c-38.667 45.333 -86.334 77.333 -143.001 96s-134 28 -232 28h-351z" />
    <glyph glyph-name="ntilde" unicode="&#xf1;" horiz-adv-x="1434" 
d="M303 945v-832.001c0 -27.333 4.16699 -46.833 12.5 -58.5s25.5 -20.834 51.5 -27.501v-27h-247v27c26 6.66699 43.167 15.834 51.5 27.501s12.5 31.167 12.5 58.5v894c0 28 -4.33301 47.667 -13 59s-25.667 20.333 -51 27v27h364v-27
c-34.667 -11.333 -52 -28.666 -52 -51.999c0 -20 12.667 -44 38 -72l661 -740v778c0 28 -4.33301 47.667 -13 59s-25.667 20.333 -51 27v27h247v-27c-25.333 -6.66699 -42.333 -15.667 -51 -27s-13 -31 -13 -59v-894c0 -27.333 4.16699 -46.833 12.5 -58.5
s25.5 -20.834 51.5 -27.501v-27h-293v27c34.667 8.66699 52 22.334 52 41.001c0 14 -16 39 -48 75zM926 1501l129.997 -84.001l-14 -23c-9.33301 4 -16.666 6 -21.999 6c-8 0 -16.333 -6 -25 -18c-42.667 -64 -88.667 -96 -138 -96c-23.333 0 -49.333 5.33301 -78 16
l-144 53c-12.667 4.66699 -26 7 -40 7c-13.333 0 -26.166 -5.5 -38.499 -16.5s-18.5 -22.5 -18.5 -34.5c0 -7.33301 4.33301 -16.666 13 -27.999l-15 -18l-132 90l13 18c8.66699 -2.66699 15.667 -4 21 -4c12 0 23.667 7.66699 35 23c38 56 87.333 84 148 84
c18 0 37.333 -4 58 -12l145 -54c16.667 -6.66699 32.334 -10 47.001 -10c13.333 0 25.833 5.33301 37.5 16s17.5 22.334 17.5 35.001c0 9.33301 -5.33301 19.666 -16 30.999z" />
    <glyph glyph-name="ograve" unicode="&#xf2;" horiz-adv-x="1536" 
d="M766 1144c199.333 0 360.002 -51.999 482.002 -155.999c130 -110 195 -255.333 195 -436c0 -112.667 -32 -216 -96 -310c-120.667 -177.333 -313.667 -266 -579 -266c-198 0 -358 52 -480 156c-130 110.667 -195 253.334 -195 428.001c0 118 31.667 224 95 318
c67.333 99.333 161.666 171.666 282.999 216.999c83.333 31.333 181.666 47.666 294.999 48.999zM766.002 1028c-162.667 0 -293.667 -50 -393 -150c-86.667 -86.667 -130 -192.667 -130 -318s43.333 -231.333 130 -318c99.333 -100 231 -150 395 -150s295.667 50 395 150
c86.667 86.667 130 190.667 130 312c0 131.333 -43.333 239.333 -130 324c-100 98.667 -232.333 148.667 -397 150zM539.002 1533h232.001v-27c-18 -2 -27 -9.33301 -27 -22c0 -4 1 -8 3 -12l77 -163c7.33301 -16 13.666 -26 18.999 -30s15.333 -6 30 -6v-27h-173v27h5
c13.333 0 20 5 20 15c0 6 -2 12 -6 18l-129 173c-11.333 16 -28.333 25 -51 27v27z" />
    <glyph glyph-name="oacute" unicode="&#xf3;" horiz-adv-x="1536" 
d="M766 1144c199.333 0 360.002 -51.999 482.002 -155.999c130 -110 195 -255.333 195 -436c0 -112.667 -32 -216 -96 -310c-120.667 -177.333 -313.667 -266 -579 -266c-198 0 -358 52 -480 156c-130 110.667 -195 253.334 -195 428.001c0 118 31.667 224 95 318
c67.333 99.333 161.666 171.666 282.999 216.999c83.333 31.333 181.666 47.666 294.999 48.999zM766.002 1028c-162.667 0 -293.667 -50 -393 -150c-86.667 -86.667 -130 -192.667 -130 -318s43.333 -231.333 130 -318c99.333 -100 231 -150 395 -150s295.667 50 395 150
c86.667 86.667 130 190.667 130 312c0 131.333 -43.333 239.333 -130 324c-100 98.667 -232.333 148.667 -397 150zM1003 1533v-27c-22.667 -2 -39.667 -11 -51 -27l-129 -173c-4 -6 -6 -12 -6 -18c0 -10 7 -15 21 -15h4v-27h-173v27c14.667 0 24.667 2 30 6s12 14 20 30
l76 163c2 4 3 8 3 12c0 12.667 -9 20 -27 22v27h232z" />
    <glyph glyph-name="ocircumflex" unicode="&#xf4;" horiz-adv-x="1536" 
d="M766 1144c199.333 0 360.002 -51.999 482.002 -155.999c130 -110 195 -255.333 195 -436c0 -112.667 -32 -216 -96 -310c-120.667 -177.333 -313.667 -266 -579 -266c-198 0 -358 52 -480 156c-130 110.667 -195 253.334 -195 428.001c0 118 31.667 224 95 318
c67.333 99.333 161.666 171.666 282.999 216.999c83.333 31.333 181.666 47.666 294.999 48.999zM766.002 1028c-162.667 0 -293.667 -50 -393 -150c-86.667 -86.667 -130 -192.667 -130 -318s43.333 -231.333 130 -318c99.333 -100 231 -150 395 -150s295.667 50 395 150
c86.667 86.667 130 190.667 130 312c0 131.333 -43.333 239.333 -130 324c-100 98.667 -232.333 148.667 -397 150zM655.002 1246l-209.999 0.000976562v27c17.333 0.666992 29.666 3.16699 36.999 7.5s19.333 15.833 36 34.5l146 149c8 8 12 16.333 12 25
c0 11.333 -11.667 17 -35 17v27h262v-27c-22 -2.66699 -33 -8.66699 -33 -18c0 -7.33301 6 -16.666 18 -27.999l169 -167c12 -12.667 28 -19.334 48 -20.001v-27h-235v27c22 2 33 7 33 15c0 4 -5.66699 11.667 -17 23l-124 131l-128 -134
c-6.66699 -6.66699 -10 -12.334 -10 -17.001c0 -10.667 10.333 -16.667 31 -18v-27z" />
    <glyph glyph-name="otilde" unicode="&#xf5;" horiz-adv-x="1536" 
d="M766 1144c199.333 0 360.002 -51.999 482.002 -155.999c130 -110 195 -255.333 195 -436c0 -112.667 -32 -216 -96 -310c-120.667 -177.333 -313.667 -266 -579 -266c-198 0 -358 52 -480 156c-130 110.667 -195 253.334 -195 428.001c0 118 31.667 224 95 318
c67.333 99.333 161.666 171.666 282.999 216.999c83.333 31.333 181.666 47.666 294.999 48.999zM766.002 1028c-162.667 0 -293.667 -50 -393 -150c-86.667 -86.667 -130 -192.667 -130 -318s43.333 -231.333 130 -318c99.333 -100 231 -150 395 -150s295.667 50 395 150
c86.667 86.667 130 190.667 130 312c0 131.333 -43.333 239.333 -130 324c-100 98.667 -232.333 148.667 -397 150zM977.002 1501l129.997 -84.001l-14 -23c-9.33301 4 -16.666 6 -21.999 6c-8 0 -16.333 -6 -25 -18c-42.667 -64 -88.667 -96 -138 -96
c-23.333 0 -49.333 5.33301 -78 16l-144 53c-12.667 4.66699 -26 7 -40 7c-13.333 0 -26.166 -5.5 -38.499 -16.5s-18.5 -22.5 -18.5 -34.5c0 -7.33301 4.33301 -16.666 13 -27.999l-15 -18l-132 90l13 18c8.66699 -2.66699 15.667 -4 21 -4c12 0 23.667 7.66699 35 23
c38 56 87.333 84 148 84c18 0 37.333 -4 58 -12l145 -54c16.667 -6.66699 32.334 -10 47.001 -10c13.333 0 25.833 5.33301 37.5 16s17.5 22.334 17.5 35.001c0 9.33301 -5.33301 19.666 -16 30.999z" />
    <glyph glyph-name="odieresis" unicode="&#xf6;" horiz-adv-x="1536" 
d="M766 1144c199.333 0 360.002 -51.999 482.002 -155.999c130 -110 195 -255.333 195 -436c0 -112.667 -32 -216 -96 -310c-120.667 -177.333 -313.667 -266 -579 -266c-198 0 -358 52 -480 156c-130 110.667 -195 253.334 -195 428.001c0 118 31.667 224 95 318
c67.333 99.333 161.666 171.666 282.999 216.999c83.333 31.333 181.666 47.666 294.999 48.999zM766.002 1028c-162.667 0 -293.667 -50 -393 -150c-86.667 -86.667 -130 -192.667 -130 -318s43.333 -231.333 130 -318c99.333 -100 231 -150 395 -150s295.667 50 395 150
c86.667 86.667 130 190.667 130 312c0 131.333 -43.333 239.333 -130 324c-100 98.667 -232.333 148.667 -397 150zM595.002 1466c26 0 47.999 -9.00098 65.999 -27.001s27 -40.333 27 -67c0 -25.333 -9.16699 -47 -27.5 -65s-40.166 -27 -65.499 -27c-26 0 -48 9 -66 27
s-27 40 -27 66s9 47.833 27 65.5s40 26.834 66 27.501zM953.001 1466c26 0 47.999 -9.00098 65.999 -27.001s27 -40.333 27 -67c0 -25.333 -9.16699 -47 -27.5 -65s-40.166 -27 -65.499 -27c-26 0 -48 9 -66 27s-27 40 -27 66s9 47.833 27 65.5s40 26.834 66 27.501z" />
    <glyph glyph-name="divide" unicode="&#xf7;" horiz-adv-x="1570" 
d="M238 554l0.000976562 258h34c14.667 -24.667 32.667 -41.5 54 -50.5s53.666 -13.5 96.999 -13.5h722c43.333 0 76 4.66699 98 14s40 26 54 50h36v-258h-36c-14.667 24.667 -32.667 41.5 -54 50.5s-53.666 13.5 -96.999 13.5h-723c-43.333 0 -75.833 -4.5 -97.5 -13.5
s-39.834 -25.833 -54.501 -50.5h-33zM785.001 369c33.333 0 61.6689 -11.667 85.002 -35s35 -52 35 -86c0 -32.667 -11.833 -60.667 -35.5 -84s-51.834 -35 -84.501 -35s-60.834 11.833 -84.501 35.5s-35.5 52.167 -35.5 85.5c0 32.667 11.5 60.5 34.5 83.5
s51.5 34.833 85.5 35.5zM785.004 1236c33.333 0 61.6689 -11.667 85.002 -35s35 -52 35 -86c0 -32.667 -11.833 -60.667 -35.5 -84s-51.834 -35 -84.501 -35s-60.834 11.833 -84.501 35.5s-35.5 52.167 -35.5 85.5c0 32.667 11.5 60.5 34.5 83.5s51.5 34.833 85.5 35.5z" />
    <glyph glyph-name="oslash" unicode="&#xf8;" horiz-adv-x="1536" 
d="M428 42l-20.002 -24.9961c-30.667 -38.667 -46 -63.334 -46 -74.001c0 -18 15.667 -29.667 47 -35v-27h-285l1 27c46.667 3.33301 102.667 45.333 168 126l46 59c-164 120 -246 275.667 -246 467c0 174.667 65 317.334 195 428.001c121.333 104 283 156 485 156
c63.333 0 117.166 -4.33301 161.499 -13s101.5 -26.334 171.5 -53.001l14 18c25.333 35.333 38 60.666 38 75.999c0 17.333 -16.333 30.333 -49 39v27h289v-27c-27.333 -4.66699 -51.666 -16.334 -72.999 -35.001s-53.666 -57 -96.999 -115l-28 -37
c50 -34 91.667 -72.667 125 -116c78.667 -101.333 118 -217.333 118 -348c0 -174.667 -65 -317.334 -195 -428.001c-122 -104 -284 -156 -486 -156c-123.333 0 -234.666 22 -333.999 66zM509.998 146.004c81.333 -36 167 -54 257 -54c164.667 0 296.667 50 396 150
c86.667 86.667 130 192.667 130 318c0 142 -58.333 261.333 -175 358zM420.998 199.004l605.002 776c-56 21.333 -100.833 35.5 -134.5 42.5s-72.834 10.5 -117.501 10.5c-168.667 0 -302.334 -50 -401.001 -150c-86.667 -86.667 -130 -192.667 -130 -318
c0 -74 14.167 -139.833 42.5 -197.5s73.5 -112.167 135.5 -163.5z" />
    <glyph glyph-name="ugrave" unicode="&#xf9;" horiz-adv-x="1342" 
d="M305 1007l-0.00195312 -574.997c0 -88.667 4.33301 -149.834 13 -183.501s27.667 -61.834 57 -84.501c60 -48 162.667 -72 308 -72c160.667 0 269.334 29.333 326.001 88c20.667 22 34.334 49.167 41.001 81.5s10 89.166 10 170.499v575
c0 27.333 -4.33301 46.833 -13 58.5s-25.667 20.834 -51 27.501v27h247v-27c-25.333 -6.66699 -42.333 -15.667 -51 -27s-13 -31 -13 -59v-604c0 -102.667 -8.66699 -175 -26 -217c-29.333 -72 -83 -125 -161 -159s-185.333 -51 -322 -51c-196 0 -333.333 36.333 -412 109
c-38 34.667 -63.5 73.667 -76.5 117s-19.5 110.333 -19.5 201v604c0 28 -4.33301 47.667 -13 59s-25.667 20.333 -51 27v27h271v-27c-25.333 -6.66699 -42.333 -15.834 -51 -27.501s-13 -31.167 -13 -58.5zM448.998 1533h232.001v-27c-18 -2 -27 -9.33301 -27 -22
c0 -4 1 -8 3 -12l77 -163c7.33301 -16 13.666 -26 18.999 -30s15.333 -6 30 -6v-27h-173v27h5c13.333 0 20 5 20 15c0 6 -2 12 -6 18l-129 173c-11.333 16 -28.333 25 -51 27v27z" />
    <glyph glyph-name="uacute" unicode="&#xfa;" horiz-adv-x="1342" 
d="M305 1007l-0.00195312 -574.997c0 -88.667 4.33301 -149.834 13 -183.501s27.667 -61.834 57 -84.501c60 -48 162.667 -72 308 -72c160.667 0 269.334 29.333 326.001 88c20.667 22 34.334 49.167 41.001 81.5s10 89.166 10 170.499v575
c0 27.333 -4.33301 46.833 -13 58.5s-25.667 20.834 -51 27.501v27h247v-27c-25.333 -6.66699 -42.333 -15.667 -51 -27s-13 -31 -13 -59v-604c0 -102.667 -8.66699 -175 -26 -217c-29.333 -72 -83 -125 -161 -159s-185.333 -51 -322 -51c-196 0 -333.333 36.333 -412 109
c-38 34.667 -63.5 73.667 -76.5 117s-19.5 110.333 -19.5 201v604c0 28 -4.33301 47.667 -13 59s-25.667 20.333 -51 27v27h271v-27c-25.333 -6.66699 -42.333 -15.834 -51 -27.501s-13 -31.167 -13 -58.5zM902.998 1533v-27c-22.667 -2 -39.667 -11 -51 -27l-129 -173
c-4 -6 -6 -12 -6 -18c0 -10 7 -15 21 -15h4v-27h-173v27c14.667 0 24.667 2 30 6s12 14 20 30l76 163c2 4 3 8 3 12c0 12.667 -9 20 -27 22v27h232z" />
    <glyph glyph-name="ucircumflex" unicode="&#xfb;" horiz-adv-x="1342" 
d="M305 1007l-0.00195312 -574.997c0 -88.667 4.33301 -149.834 13 -183.501s27.667 -61.834 57 -84.501c60 -48 162.667 -72 308 -72c160.667 0 269.334 29.333 326.001 88c20.667 22 34.334 49.167 41.001 81.5s10 89.166 10 170.499v575
c0 27.333 -4.33301 46.833 -13 58.5s-25.667 20.834 -51 27.501v27h247v-27c-25.333 -6.66699 -42.333 -15.667 -51 -27s-13 -31 -13 -59v-604c0 -102.667 -8.66699 -175 -26 -217c-29.333 -72 -83 -125 -161 -159s-185.333 -51 -322 -51c-196 0 -333.333 36.333 -412 109
c-38 34.667 -63.5 73.667 -76.5 117s-19.5 110.333 -19.5 201v604c0 28 -4.33301 47.667 -13 59s-25.667 20.333 -51 27v27h271v-27c-25.333 -6.66699 -42.333 -15.834 -51 -27.501s-13 -31.167 -13 -58.5zM557.998 1246l-209.999 0.000976562v27
c17.333 0.666992 29.666 3.16699 36.999 7.5s19.333 15.833 36 34.5l146 149c8 8 12 16.333 12 25c0 11.333 -11.667 17 -35 17v27h262v-27c-22 -2.66699 -33 -8.66699 -33 -18c0 -7.33301 6 -16.666 18 -27.999l169 -167c12 -12.667 28 -19.334 48 -20.001v-27h-235v27
c22 2 33 7 33 15c0 4 -5.66699 11.667 -17 23l-124 131l-128 -134c-6.66699 -6.66699 -10 -12.334 -10 -17.001c0 -10.667 10.333 -16.667 31 -18v-27z" />
    <glyph glyph-name="udieresis" unicode="&#xfc;" horiz-adv-x="1342" 
d="M305 1007l-0.00195312 -574.997c0 -88.667 4.33301 -149.834 13 -183.501s27.667 -61.834 57 -84.501c60 -48 162.667 -72 308 -72c160.667 0 269.334 29.333 326.001 88c20.667 22 34.334 49.167 41.001 81.5s10 89.166 10 170.499v575
c0 27.333 -4.33301 46.833 -13 58.5s-25.667 20.834 -51 27.501v27h247v-27c-25.333 -6.66699 -42.333 -15.667 -51 -27s-13 -31 -13 -59v-604c0 -102.667 -8.66699 -175 -26 -217c-29.333 -72 -83 -125 -161 -159s-185.333 -51 -322 -51c-196 0 -333.333 36.333 -412 109
c-38 34.667 -63.5 73.667 -76.5 117s-19.5 110.333 -19.5 201v604c0 28 -4.33301 47.667 -13 59s-25.667 20.333 -51 27v27h271v-27c-25.333 -6.66699 -42.333 -15.834 -51 -27.501s-13 -31.167 -13 -58.5zM503.998 1466c26 0 47.998 -9 65.998 -27s27 -40.333 27 -67
c0 -25.333 -9.16699 -47 -27.5 -65s-40.166 -27 -65.499 -27s-47.166 9.16699 -65.499 27.5s-27.5 40.166 -27.5 65.499c0 26 9 47.833 27 65.5s40 26.834 66 27.501zM855.996 1466c26 0 47.999 -9 65.999 -27s27 -40.333 27 -67c0 -25.333 -9.16699 -47 -27.5 -65
s-40.166 -27 -65.499 -27c-26 0 -48 9.16699 -66 27.5s-27 40.166 -27 65.499c0 26 9 47.833 27 65.5s40 26.834 66 27.501z" />
    <glyph glyph-name="yacute" unicode="&#xfd;" horiz-adv-x="1114" 
d="M640 494v-381c0 -27.333 4.16699 -46.833 12.5 -58.5s25.5 -20.834 51.5 -27.501v-27h-271v27c25.333 6.66699 42.333 15.834 51 27.501s13 31.167 13 58.5v381l-345 450c-42 55.333 -73 92 -93 110s-43.667 31 -71 39v27h316v-27
c-29.333 -4.66699 -44 -17.334 -44 -38.001c0 -18.667 9 -39.667 27 -63l295 -387l267 386c18.667 27.333 28 48 28 62c0 22.667 -15 36 -45 40v27h292v-27c-30 -10 -57.667 -27.167 -83 -51.5s-60 -67.166 -104 -128.499zM799 1533v-27c-22.667 -2 -39.667 -11 -51 -27
l-129 -173c-4 -6 -6 -12 -6 -18c0 -10 7 -15 21 -15h4v-27h-173v27c14.667 0 24.667 2 30 6s12 14 20 30l76 163c2 4 3 8 3 12c0 12.667 -9 20 -27 22v27h232z" />
    <glyph glyph-name="thorn" unicode="&#xfe;" horiz-adv-x="1160" 
d="M327 922l345 -0.000976562c82 0 144.333 -3.66699 187 -11s81 -21.333 115 -42c40.667 -24 72.667 -58.833 96 -104.5s35 -96.167 35 -151.5s-11.5 -105.333 -34.5 -150s-55.5 -79.334 -97.5 -104.001c-34.667 -21.333 -73 -35.666 -115 -42.999s-104 -11 -186 -11h-345
v-192c0 -28 4.16699 -47.667 12.5 -59s25.5 -20.333 51.5 -27v-27h-271v27c25.333 6.66699 42.333 15.834 51 27.501s13 31.167 13 58.5v894c0 28 -4.33301 47.667 -13 59s-25.667 20.333 -51 27v27h271v-27c-25.333 -6.66699 -42.333 -15.667 -51 -27s-13 -31 -13 -59v-85z
M327 413.999h326c71.333 0 124 2.83301 158 8.5s63 16.5 87 32.5c46.667 31.333 70 84 70 158c0 74.667 -23.333 127.667 -70 159c-24 16 -53 26.833 -87 32.5s-86.667 8.5 -158 8.5h-326v-399z" />
    <glyph glyph-name="ydieresis" unicode="&#xff;" horiz-adv-x="1114" 
d="M640 494v-381c0 -27.333 4.16699 -46.833 12.5 -58.5s25.5 -20.834 51.5 -27.501v-27h-271v27c25.333 6.66699 42.333 15.834 51 27.501s13 31.167 13 58.5v381l-345 450c-42 55.333 -73 92 -93 110s-43.667 31 -71 39v27h316v-27
c-29.333 -4.66699 -44 -17.334 -44 -38.001c0 -18.667 9 -39.667 27 -63l295 -387l267 386c18.667 27.333 28 48 28 62c0 22.667 -15 36 -45 40v27h292v-27c-30 -10 -57.667 -27.167 -83 -51.5s-60 -67.166 -104 -128.499zM391 1466c26 0 47.998 -9 65.998 -27
s27 -40.333 27 -67c0 -25.333 -9.16699 -47 -27.5 -65s-40.166 -27 -65.499 -27s-47.166 9.16699 -65.499 27.5s-27.5 40.166 -27.5 65.499c0 26 9 47.833 27 65.5s40 26.834 66 27.501zM742.998 1466c26 0 47.999 -9 65.999 -27s27 -40.333 27 -67
c0 -25.333 -9.16699 -47 -27.5 -65s-40.166 -27 -65.499 -27c-26 0 -48 9.16699 -66 27.5s-27 40.166 -27 65.499c0 26 9 47.833 27 65.5s40 26.834 66 27.501z" />
    <glyph glyph-name="dotlessi" unicode="&#x131;" horiz-adv-x="512" 
d="M184 113v894c0 28 -4.33301 47.667 -13 59s-25.667 20.333 -51 27v27h271v-27c-25.333 -6.66699 -42.333 -15.667 -51 -27s-13 -31 -13 -59v-894c0 -27.333 4.33301 -46.833 13 -58.5s25.667 -20.834 51 -27.501v-27h-271v27c25.333 6.66699 42.333 15.834 51 27.501
s13 31.167 13 58.5z" />
    <glyph glyph-name="OE" unicode="&#x152;" horiz-adv-x="2186" 
d="M1220 637l0.00195312 -507h766c28 0 47.833 4.33301 59.5 13s20.5 25.667 26.5 51h32v-258h-31c-6.66699 25.333 -15.834 42.333 -27.501 51s-31.167 13 -58.5 13h-771c-2.66699 0.666992 -31 -0.333008 -85 -3c-88 -4.66699 -156 -7 -204 -7
c-218 0 -395.333 48.333 -532 145c-85.333 61.333 -152 136.333 -200 225c-52.667 98 -79 205.667 -79 323c0 163.333 48.667 304.666 146 423.999c88.667 108 201.667 183.333 339 226c92 28.667 202 43 330 43l285 -11h757c28 0 47.667 4.33301 59 13s20.333 26 26.999 52
h32v-258h-32c-6 24.667 -14.833 41.334 -26.5 50.001s-31.5 13 -59.5 13h-753v-468h456c28 0 47.833 4.33301 59.5 13s20.5 25.667 26.5 51h32v-258h-32c-6 25.333 -14.833 42.333 -26.5 51s-31.5 13 -59.5 13h-456zM1063 1235c-48 2.66699 -90.668 4 -128.001 4
c-192.667 0 -344.667 -44.333 -456 -133c-60 -48 -107.667 -108 -143 -180c-37.333 -76.667 -56 -157.667 -56 -243c0 -118.667 34.667 -226 104 -322c113.333 -156 297 -234 551 -234c30.667 0 73.334 1 128.001 3v1105z" />
    <glyph glyph-name="oe" unicode="&#x153;" horiz-adv-x="1738" 
d="M950 524l0.000976562 -415h617c28 0 47.833 4.33301 59.5 13s20.5 26 26.5 52h28v-238h-28c-6 25.333 -14.667 42.333 -26 51s-31 13 -59 13h-562c-48.667 0 -108 -2 -178 -6c-42.667 -2.66699 -79.667 -4 -111 -4c-178 0 -325.667 45.333 -443 136
c-68.667 52.667 -122.334 118 -161.001 196c-37.333 76 -56 155.333 -56 238c0 118.667 36.667 227 110 325c121.333 163.333 305 245 551 245c31.333 0 68 -1.33301 110 -4c72 -4 131.333 -6 178 -6h555c28 0 47.667 4.33301 59 13s20.333 25.667 27 51h27v-238h-27
c-6 26 -14.833 43.333 -26.5 52s-31.5 13 -59.5 13h-611v-378h361c28 0 47.833 4.33301 59.5 13s20.834 25.667 27.501 51h27v-238h-27c-6.66699 26 -15.834 43.333 -27.501 52s-31.5 13 -59.5 13h-361zM807.001 1011c-32 2 -58.334 3.00098 -79.001 3.00098
c-153.333 0 -276.666 -38.667 -369.999 -116c-100.667 -83.333 -151 -196 -151 -338c0 -142.667 50.333 -255.334 151 -338.001c94 -77.333 216.667 -116 368 -116c23.333 0 50.333 1 81 3v902z" />
    <glyph glyph-name="Scaron" unicode="&#x160;" horiz-adv-x="1532" 
d="M1431 1281l-143 -258.002l-28 15c11.333 30 17 48.667 17 56c0 20 -24.667 41.667 -74 65c-134 62.667 -276 94 -426 94c-123.333 0 -230.666 -23 -321.999 -69c-44 -22.667 -78.833 -52 -104.5 -88s-38.5 -74 -38.5 -114c0 -33.333 10 -64.833 30 -94.5
s46.333 -51.834 79 -66.501c36 -16.667 78.5 -28.167 127.5 -34.5s128.833 -11.166 239.5 -14.499c153.333 -4.66699 263 -11.834 329 -21.501s120.333 -26.5 163 -50.5c113.333 -63.333 170 -159.666 170 -288.999c0 -123.333 -51.333 -224.333 -154 -303
c-114 -88 -271 -132 -471 -132c-115.333 0 -216 11.667 -302 35s-188.667 66.333 -308 129c-33.333 15.333 -53 23 -59 23c-10 0 -25.667 -12 -47 -36l-27 17l150 251l28 -16c-12.667 -26.667 -19 -44.667 -19 -54c0 -21.333 42.667 -54.333 128 -99
c76.667 -40 150.5 -68.833 221.5 -86.5s148.167 -26.5 231.5 -26.5c168.667 0 296.667 37 384 111c58 49.333 87 108 87 176c0 89.333 -49.667 151 -149 185c-32 11.333 -65.167 18.5 -99.5 21.5s-131.833 7.5 -292.5 13.5c-114.667 4.66699 -204.5 13.334 -269.5 26.001
s-122.833 33.334 -173.5 62.001c-47.333 26.667 -84.833 64 -112.5 112s-41.5 100.333 -41.5 157c0 96.667 36 179.667 108 249c53.333 50.667 127 90.5 221 119.5s197 43.5 309 43.5c91.333 0 176.166 -9 254.499 -27s166.833 -49 265.5 -93c22 -9.33301 35.667 -14 41 -14
c12 0 28.333 13.333 49 40zM920 1765l209.999 -0.00195312v-27c-17.333 -0.666992 -29.666 -3.16699 -36.999 -7.5s-19.333 -15.833 -36 -34.5l-146 -149c-8 -8 -12 -16.333 -12 -25c0 -11.333 11.667 -17 35 -17v-27h-262v27c22 2 33 8 33 18c0 7.33301 -6 17 -18 29
l-169 166c-12 12.667 -28 19.334 -48 20.001v27h235v-27c-22 -2 -33 -7 -33 -15c0 -4 5.66699 -11.667 17 -23l124 -131l128 134c6.66699 6.66699 10 12.334 10 17.001c0 10.667 -10.333 16.667 -31 18v27z" />
    <glyph glyph-name="scaron" unicode="&#x161;" horiz-adv-x="1268" 
d="M1185 1062l-110.003 -217.999l-24 12c3.33301 19.333 5 32.666 5 39.999c0 16 -21.667 35.333 -65 58c-92 49.333 -204 74 -336 74c-106 0 -196 -19.667 -270 -59c-74 -40 -111 -95.667 -111 -167c0 -32 9.33301 -60.833 28 -86.5s43.667 -43.834 75 -54.501
s65.333 -17.667 102 -21s115.334 -7.33301 236.001 -12c100.667 -3.33301 176.834 -9.66602 228.501 -18.999s95.834 -24.333 132.501 -45c39.333 -22 70.333 -53.833 93 -95.5s34 -87.167 34 -136.5c0 -103.333 -42.333 -185.666 -127 -246.999
c-101.333 -72.667 -236 -109 -404 -109c-82.667 0 -169.5 12.667 -260.5 38s-175.5 60 -253.5 104c-10.667 6.66699 -18.667 10 -24 10c-10 0 -25 -11.667 -45 -35l-23 15l127 213l24 -14l-4 -16c-3.33301 -10.667 -5 -19.334 -5 -26.001c0 -18.667 34 -46 102 -82
c114.667 -60.667 233.667 -91 357 -91c112.667 0 206.334 19.333 281.001 58c36 18.667 64.667 43.834 86 75.501s32 64.834 32 99.501c0 32 -9 60.667 -27 86s-41.667 43.333 -71 54c-27.333 9.33301 -57.833 16 -91.5 20s-97.167 7.66699 -190.5 11
c-110 4.66699 -188.667 10.167 -236 16.5s-92 17.166 -134 32.499c-53.333 19.333 -96.333 50.666 -129 93.999c-32.667 44.667 -49 97.334 -49 158.001c0 107.333 48.667 191.666 146 252.999c99.333 62.667 225.666 94 378.999 94c140 0 280.667 -31.333 422 -94
c21.333 -8.66699 33.666 -13 36.999 -13c10.667 0 23.334 12.333 38.001 37zM798.997 1533l209.999 -0.00195312v-27c-17.333 -0.666992 -29.666 -3.16699 -36.999 -7.5s-19.333 -15.833 -36 -34.5l-146 -149c-8 -8 -12 -16.333 -12 -25c0 -11.333 11.667 -17 35 -17v-27
h-262v27c22 2 33 8 33 18c0 7.33301 -6 17 -18 29l-169 166c-12 12.667 -28 19.334 -48 20.001v27h235v-27c-22 -2 -33 -7 -33 -15c0 -4 5.66699 -11.667 17 -23l124 -131l128 134c6.66699 6.66699 10 12.334 10 17.001c0 10.667 -10.333 16.667 -31 18v27z" />
    <glyph glyph-name="Ydieresis" unicode="&#x178;" horiz-adv-x="1333" 
d="M751 604l-0.000976562 -486c0 -27.333 4.33301 -46.833 13 -58.5s25.667 -20.834 51 -27.501v-32h-285v32c25.333 6.66699 42.333 15.667 51 27s13 31 13 59v486l-441 578c-48 62.667 -81.167 102.334 -99.5 119.001s-41.166 27.334 -68.499 32.001v32h346v-32
c-31.333 -8 -47 -21 -47 -39c0 -22 15.667 -54.333 47 -97l347 -472l346 488c29.333 41.333 44 69.333 44 84c0 16.667 -14.667 28.667 -44 36v32h322v-32c-32.667 -6 -60.667 -20.667 -84 -44c-48 -50.667 -79 -86.334 -93 -107.001zM502.999 1698
c26 0 47.998 -9 65.998 -27s27 -40.333 27 -67c0 -25.333 -9.16699 -47 -27.5 -65s-40.166 -27 -65.499 -27s-47.166 9.16699 -65.499 27.5s-27.5 40.166 -27.5 65.499c0 26 9 47.833 27 65.5s40 26.834 66 27.501zM854.997 1698c26 0 47.998 -9.00098 65.998 -27.001
s27 -40.333 27 -67c0 -25.333 -9.16699 -47 -27.5 -65s-40.166 -27 -65.499 -27s-47.166 9 -65.499 27s-27.5 40 -27.5 66s9 47.833 27 65.5s40 26.834 66 27.501z" />
    <glyph glyph-name="florin" unicode="&#x192;" horiz-adv-x="1474" 
d="M-5 -34l157.997 237l24 -11c-6 -12.667 -9 -24 -9 -34c0 -36.667 14.167 -68.5 42.5 -95.5s61.833 -40.5 100.5 -40.5c41.333 0 82.333 9.5 123 28.5s72.334 42.833 95.001 71.5c24 32 45.333 95 64 189l80 408h-82c-20 0 -36.167 -4.5 -48.5 -13.5
s-24.5 -25.5 -36.5 -49.5h-32l50 257h33c2 -24 7.33301 -40.667 16 -50s23.334 -14 44.001 -14h82l46 234c23.333 118.667 62.333 203.667 117 255c38.667 36.667 87 66 145 88s116 33 174 33c79.333 0 148.666 -26.333 207.999 -79c6 -4.66699 12 -7 18 -7
c14.667 0 31.667 12.333 51 37l22 -11l-158 -236l-23 11c11.333 27.333 17 45.666 17 54.999c0 14.667 -6 30.334 -18 47.001c-31.333 44.667 -75.333 67 -132 67c-42 0 -83.5 -9.33301 -124.5 -28s-72.5 -42.667 -94.5 -72c-24 -31.333 -45.333 -94 -64 -188l-41 -206h213
c20.667 0 37.334 4.83301 50.001 14.5s24.334 26.167 35.001 49.5h33l-51 -257h-32c-2 23.333 -7.33301 39.666 -16 48.999s-23.334 14 -44.001 14h-213l-86 -436c-24 -119.333 -63 -204.666 -117 -255.999c-39.333 -36.667 -88 -66 -146 -88s-116 -33 -174 -33
c-81.333 0 -150.666 24 -207.999 72c-5.33301 4.66699 -11.333 7 -18 7c-14.667 0 -31.667 -10 -51 -30z" />
    <glyph glyph-name="circumflex" unicode="&#x2c6;" 
d="M392 1246l-209.999 0.000976562v27c17.333 0.666992 29.666 3.16699 36.999 7.5s19.333 15.833 36 34.5l146 149c8 8 12 16.333 12 25c0 11.333 -11.667 17 -35 17v27h262v-27c-22 -2.66699 -33 -8.66699 -33 -18c0 -7.33301 6 -16.666 18 -27.999l169 -167
c12 -12.667 28 -19.334 48 -20.001v-27h-235v27c22 2 33 7 33 15c0 4 -5.66699 11.667 -17 23l-124 131l-128 -134c-6.66699 -6.66699 -10 -12.334 -10 -17.001c0 -10.667 10.333 -16.667 31 -18v-27z" />
    <glyph glyph-name="caron" unicode="&#x2c7;" 
d="M632 1533l209.999 -0.00195312v-27c-17.333 -0.666992 -29.666 -3.16699 -36.999 -7.5s-19.333 -15.833 -36 -34.5l-146 -149c-8 -8 -12 -16.333 -12 -25c0 -11.333 11.667 -17 35 -17v-27h-262v27c22 2 33 8 33 18c0 7.33301 -6 17 -18 29l-169 166
c-12 12.667 -28 19.334 -48 20.001v27h235v-27c-22 -2 -33 -7 -33 -15c0 -4 5.66699 -11.667 17 -23l124 -131l128 134c6.66699 6.66699 10 12.334 10 17.001c0 10.667 -10.333 16.667 -31 18v27z" />
    <glyph glyph-name="uni02C9" unicode="&#x2c9;" 
d="M779 1477v-210h-23c-4.66699 20 -11.834 33.5 -21.501 40.5s-26.167 10.5 -49.5 10.5h-347c-22.667 0 -39 -3.5 -49 -10.5s-17.333 -20.5 -22 -40.5h-23v210h23c4.66699 -20 12 -33.333 22 -40s26.333 -10 49 -10h347c23.333 0 39.833 3.33301 49.5 10
s16.834 20 21.501 40h23z" />
    <glyph glyph-name="breve" unicode="&#x2d8;" 
d="M211 1504l-0.00195312 27h172v-27c-13.333 -0.666992 -21.833 -2.33398 -25.5 -5.00098s-5.5 -8.33398 -5.5 -17.001c0 -25.333 10.333 -50 31 -74c29.333 -34 73.333 -51 132 -51c55.333 0 97.333 17 126 51c20.667 24 31 48.667 31 74c0 8.66699 -2 14.334 -6 17.001
s-12.333 4.33398 -25 5.00098v27h172v-27c-22.667 0 -34.667 -7.33301 -36 -22c-5.33301 -50 -19.666 -92.333 -42.999 -127c-49.333 -72.667 -123.333 -109 -222 -109c-74.667 0 -135.667 21 -183 63s-74.666 99.667 -81.999 173c-1.33301 14.667 -13.333 22 -36 22z" />
    <glyph glyph-name="dotaccent" unicode="&#x2d9;" 
d="M511 1466c26 0 47.998 -9 65.998 -27s27 -40.333 27 -67c0 -25.333 -9.16699 -47 -27.5 -65s-40.166 -27 -65.499 -27s-47.166 9.16699 -65.499 27.5s-27.5 40.166 -27.5 65.499c0 26 9 47.833 27 65.5s40 26.834 66 27.501z" />
    <glyph glyph-name="ring" unicode="&#x2da;" 
d="M511 1554c55.333 0 102.001 -16.334 140.001 -49.001c38 -33.333 57 -73.333 57 -120c0 -45.333 -19.333 -84.5 -58 -117.5s-84.667 -49.5 -138 -49.5c-54 0 -100 16.667 -138 50c-38.667 32.667 -58 72.334 -58 119.001s18.667 86 56 118s83.666 48.333 138.999 49z
M512.001 1473c-28.667 0 -52.667 -8.16797 -72 -24.501s-29 -37.166 -29 -62.499c0 -24 9.83301 -44.5 29.5 -61.5s43.5 -25.5 71.5 -25.5c27.333 0 51 8.5 71 25.5s30 37.167 30 60.5c0 25.333 -9.5 46.333 -28.5 63s-43.167 25 -72.5 25z" />
    <glyph glyph-name="ogonek" unicode="&#x2db;" 
d="M876 0l90.999 0.00195312c-33.333 -20.667 -59.833 -45.5 -79.5 -74.5s-29.5 -58.167 -29.5 -87.5c0 -28.667 11.167 -51.834 33.5 -69.501s51.833 -26.5 88.5 -26.5c14.667 0 36.667 3.33301 66 10l15 -39c-51.333 -14 -96.333 -21 -135 -21
c-137.333 0 -206 46.667 -206 140c0 37.333 11.333 68.166 34 92.499s63.334 49.5 122.001 75.5z" />
    <glyph glyph-name="tilde" unicode="&#x2dc;" 
d="M708 1501l129.997 -84.001l-14 -23c-9.33301 4 -16.666 6 -21.999 6c-8 0 -16.333 -6 -25 -18c-42.667 -64 -88.667 -96 -138 -96c-23.333 0 -49.333 5.33301 -78 16l-144 53c-12.667 4.66699 -26 7 -40 7c-13.333 0 -26.166 -5.5 -38.499 -16.5s-18.5 -22.5 -18.5 -34.5
c0 -7.33301 4.33301 -16.666 13 -27.999l-15 -18l-132 90l13 18c8.66699 -2.66699 15.667 -4 21 -4c12 0 23.667 7.66699 35 23c38 56 87.333 84 148 84c18 0 37.333 -4 58 -12l145 -54c16.667 -6.66699 32.334 -10 47.001 -10c13.333 0 25.833 5.33301 37.5 16
s17.5 22.334 17.5 35.001c0 9.33301 -5.33301 19.666 -16 30.999z" />
    <glyph glyph-name="hungarumlaut" unicode="&#x2dd;" 
d="M625 1533v-27c-22.667 -2 -39.667 -11 -51 -27l-129 -173c-4 -6 -6 -12 -6 -18c0 -10 7 -15 21 -15h4v-27h-164v27c14.667 0 24.667 2 30 6s12 14 20 30l77 163c1.33301 3.33301 2 7.33301 2 12c0 12.667 -9 20 -27 22v27h223zM943 1533v-27
c-22.667 -2 -39.667 -11 -51 -27l-129 -173c-4 -6 -6 -12 -6 -18c0 -10 7 -15 21 -15h4v-27h-164v27c14.667 0 24.667 2 30 6s12 14 20 30l77 163c1.33301 3.33301 2 7.33301 2 12c0 12.667 -9 20 -27 22v27h223z" />
    <glyph glyph-name="pi" unicode="&#x3c0;" horiz-adv-x="1129" 
d="M187 0v867h-148v113h1050v-113h-147v-867h-139v867h-477v-867h-139z" />
    <glyph glyph-name="endash" unicode="&#x2013;" horiz-adv-x="1571" 
d="M1487 689v-258h-37c-8 24 -18 40.667 -30 50s-30 14 -54 14h-1160c-24 0 -42 -4.66699 -54 -14s-22 -26 -30 -50h-37v258h37c8 -24 18 -40.667 30 -50s30 -14 54 -14h1160c24 0 42 4.66699 54 14s22 26 30 50h37z" />
    <glyph glyph-name="emdash" unicode="&#x2014;" horiz-adv-x="1215" 
d="M1215 689v-258h-37c-8 24 -18 40.667 -30 50s-30 14 -54 14h-973c-24 0 -42 -4.66699 -54 -14s-22 -26 -30 -50h-37v258h37c8 -24 18 -40.667 30 -50s30 -14 54 -14h973c24 0 42 4.66699 54 14s22 26 30 50h37z" />
    <glyph glyph-name="quoteleft" unicode="&#x2018;" horiz-adv-x="573" 
d="M357 1389l31.002 -35.002c-44.667 -27.333 -77 -54.166 -97 -80.499s-33.333 -59.166 -40 -98.499c18.667 4 33 6 43 6c30.667 0 55.167 -9.83301 73.5 -29.5s27.5 -45.5 27.5 -77.5c0 -32.667 -9.83301 -59.5 -29.5 -80.5s-44.834 -31.5 -75.501 -31.5
c-34.667 0 -62.167 14.333 -82.5 43s-30.5 67 -30.5 115c0 58.667 14.167 109.167 42.5 151.5s74.166 81.5 137.499 117.5z" />
    <glyph glyph-name="quoteright" unicode="&#x2019;" horiz-adv-x="573" 
d="M215 962l-30.001 35.001c44 27.333 76 54.166 96 80.499s33.333 59.5 40 99.5c-18 -4.66699 -32 -7 -42 -7c-30.667 0 -55.334 9.83301 -74.001 29.5s-28 45.5 -28 77.5c0 32.667 9.83301 59.5 29.5 80.5s44.834 31.5 75.501 31.5c34.667 0 62.334 -14.333 83.001 -43
s31 -67 31 -115c0 -59.333 -14.167 -110 -42.5 -152s-74.5 -81 -138.5 -117z" />
    <glyph glyph-name="quotesinglbase" unicode="&#x201a;" horiz-adv-x="573" 
d="M215 -232l-30.001 35.002c44 27.333 76 54.166 96 80.499s33.333 59.166 40 98.499c-18 -4 -32 -6 -42 -6c-30.667 0 -55.334 9.83301 -74.001 29.5s-28 45.5 -28 77.5c0 32.667 9.83301 59.5 29.5 80.5s44.834 31.5 75.501 31.5c34.667 0 62.334 -14.333 83.001 -43
s31 -67 31 -115c0 -59.333 -14.167 -110 -42.5 -152s-74.5 -81 -138.5 -117z" />
    <glyph glyph-name="quotedblleft" unicode="&#x201c;" horiz-adv-x="969" 
d="M357 1389l31.002 -35.002c-44.667 -27.333 -77 -54.166 -97 -80.499s-33.333 -59.166 -40 -98.499c18.667 4 33 6 43 6c30.667 0 55.167 -9.83301 73.5 -29.5s27.5 -45.5 27.5 -77.5c0 -32.667 -9.83301 -59.5 -29.5 -80.5s-44.834 -31.5 -75.501 -31.5
c-34.667 0 -62.167 14.333 -82.5 43s-30.5 67 -30.5 115c0 58.667 14.167 109.167 42.5 151.5s74.166 81.5 137.499 117.5zM753.002 1389l31.002 -35.002c-44.667 -27.333 -77 -54.166 -97 -80.499s-33.333 -59.166 -40 -98.499c18.667 4 33 6 43 6
c30.667 0 55.167 -9.83301 73.5 -29.5s27.5 -45.5 27.5 -77.5c0 -32.667 -9.83301 -59.5 -29.5 -80.5s-44.834 -31.5 -75.501 -31.5c-34 0 -61.333 14.333 -82 43s-31 67 -31 115c0 58.667 14.167 109.167 42.5 151.5s74.166 81.5 137.499 117.5z" />
    <glyph glyph-name="quotedblright" unicode="&#x201d;" horiz-adv-x="969" 
d="M215 962l-30.001 35.001c44 27.333 76 54.166 96 80.499s33.333 59.5 40 99.5c-18 -4.66699 -32 -7 -42 -7c-30.667 0 -55.334 9.83301 -74.001 29.5s-28 45.5 -28 77.5c0 32.667 9.83301 59.5 29.5 80.5s44.834 31.5 75.501 31.5c34.667 0 62.334 -14.333 83.001 -43
s31 -67 31 -115c0 -59.333 -14.167 -110 -42.5 -152s-74.5 -81 -138.5 -117zM610.999 962.001l-31.0029 35.001c44.667 27.333 77 54.166 97 80.499s33.333 59.5 40 99.5c-18 -4.66699 -32 -7 -42 -7c-31.333 0 -56.166 9.83301 -74.499 29.5s-27.5 45.5 -27.5 77.5
c0 32.667 9.83301 59.5 29.5 80.5s44.834 31.5 75.501 31.5c34.667 0 62.334 -14.333 83.001 -43s31 -67 31 -115c0 -59.333 -14.167 -110 -42.5 -152s-74.5 -81 -138.5 -117z" />
    <glyph glyph-name="quotedblbase" unicode="&#x201e;" horiz-adv-x="969" 
d="M215 -232l-30.001 35.002c44 27.333 76 54.166 96 80.499s33.333 59.166 40 98.499c-18 -4 -32 -6 -42 -6c-30.667 0 -55.334 9.83301 -74.001 29.5s-28 45.5 -28 77.5c0 32.667 9.83301 59.5 29.5 80.5s44.834 31.5 75.501 31.5c34.667 0 62.334 -14.333 83.001 -43
s31 -67 31 -115c0 -59.333 -14.167 -110 -42.5 -152s-74.5 -81 -138.5 -117zM610.999 -231.998l-31.0029 35.002c44.667 27.333 77 54.166 97 80.499s33.333 59.166 40 98.499c-18 -4 -32 -6 -42 -6c-31.333 0 -56.166 9.83301 -74.499 29.5s-27.5 45.5 -27.5 77.5
c0 32.667 9.83301 59.5 29.5 80.5s44.834 31.5 75.501 31.5c34.667 0 62.334 -14.333 83.001 -43s31 -67 31 -115c0 -59.333 -14.167 -110 -42.5 -152s-74.5 -81 -138.5 -117z" />
    <glyph glyph-name="dagger" unicode="&#x2020;" horiz-adv-x="1238" 
d="M483 1502h272v-27c-25.333 -6 -42 -14.333 -50 -25s-12.667 -31 -14 -61l-28 -341h361c20.667 0 36.334 4.66699 47.001 14s19.334 26 26.001 50h32v-238h-32c-6.66699 24.667 -15.334 41.667 -26.001 51s-26.334 14 -47.001 14h-361l28 -963
c0.666992 -28.667 5 -48.5 13 -59.5s25 -19.833 51 -26.5v-27h-272v27c26 6.66699 43 15.5 51 26.5s12.333 30.833 13 59.5l28 963h-361c-20.667 0 -36.334 -4.66699 -47.001 -14s-19.334 -26.333 -26.001 -51h-32v238h32c6.66699 -24 15.334 -40.667 26.001 -50
s26.334 -14 47.001 -14h361l-28 341c-1.33301 30 -6 50.167 -14 60.5s-24.667 18.833 -50 25.5v27z" />
    <glyph glyph-name="daggerdbl" unicode="&#x2021;" horiz-adv-x="1238" 
d="M483 1502h272.005v-27c-25.333 -6 -42 -14.333 -50 -25s-12.667 -31 -14 -61l-28 -286h361c20.667 0 36.334 4.66699 47.001 14s19.334 26 26.001 50h32v-238h-32c-6.66699 24.667 -15.334 41.667 -26.001 51s-26.334 14 -47.001 14h-361l14 -431h347
c20.667 0 36.334 4.66699 47.001 14s19.334 26.333 26.001 51h32v-238h-32c-6.66699 24 -15.334 40.667 -26.001 50s-26.334 14 -47.001 14h-347l14 -478c0.666992 -28.667 5.16699 -48.5 13.5 -59.5s25.166 -19.833 50.499 -26.5v-27h-272v27
c25.333 6.66699 42.166 15.5 50.499 26.5s12.833 30.833 13.5 59.5l14 478h-347c-20.667 0 -36.334 -4.66699 -47.001 -14s-19.334 -26 -26.001 -50h-32v238h32c6.66699 -24.667 15.167 -41.667 25.5 -51s26.166 -14 47.499 -14h347l14 431h-361
c-20.667 0 -36.334 -4.66699 -47.001 -14s-19.334 -26.333 -26.001 -51h-32v238h32c6.66699 -24 15.334 -40.667 26.001 -50s26.334 -14 47.001 -14h361l-28 286c-1.33301 30 -6 50.333 -14 61s-24.667 19 -50 25v27z" />
    <glyph glyph-name="bullet" unicode="&#x2022;" horiz-adv-x="1365" 
d="M689 978c75.333 0 140.669 -27.667 196.002 -83c56 -55.333 84 -122.333 84 -201s-28 -145.667 -84 -201c-54.667 -55.333 -121.334 -83 -200.001 -83s-145.334 27.667 -200.001 83c-56 55.333 -84 122 -84 200c0 80.667 28 148 84 202c56 55.333 124 83 204 83z" />
    <glyph glyph-name="ellipsis" unicode="&#x2026;" horiz-adv-x="1720" 
d="M286 194c30.667 0 56.5 -10.668 77.5 -32.001s31.5 -47.333 31.5 -78c0 -29.333 -10.833 -54.666 -32.5 -75.999s-47.167 -32 -76.5 -32c-30 0 -55.667 10.833 -77 32.5s-32 47.167 -32 76.5c0 30 10.5 55.5 31.5 76.5s46.833 31.833 77.5 32.5zM859 193.999
c30.667 0 56.5 -10.668 77.5 -32.001s31.5 -47.333 31.5 -78c0 -29.333 -10.833 -54.666 -32.5 -75.999s-47.167 -32 -76.5 -32c-30 0 -55.667 10.667 -77 32s-32 47 -32 77s10.5 55.5 31.5 76.5s46.833 31.833 77.5 32.5zM1433 193.998c30.667 0 56.5 -10.668 77.5 -32.001
s31.5 -47.333 31.5 -78c0 -29.333 -10.833 -54.666 -32.5 -75.999s-47.167 -32 -76.5 -32c-30 0 -55.667 10.667 -77 32s-32 47 -32 77s10.5 55.5 31.5 76.5s46.833 31.833 77.5 32.5z" />
    <glyph glyph-name="perthousand" unicode="&#x2030;" horiz-adv-x="2688" 
d="M422 1379c93.333 0 173.335 -30 240.002 -90c77.333 -69.333 116 -159.333 116 -270c0 -48.667 -10.333 -96.334 -31 -143.001s-49 -86 -85 -118c-66.667 -60 -146.334 -90 -239.001 -90s-172.334 30 -239.001 90c-77.333 70 -116 158.333 -116 265
c0 50.667 10.333 99.834 31 147.501s49 87.167 85 118.5c66.667 58.667 146 88.667 238 90zM422.002 1298c-70 0 -128.999 -25.001 -176.999 -75.001c-50 -52 -75 -118.667 -75 -200c0 -79.333 23.833 -144.833 71.5 -196.5s108.167 -77.5 181.5 -77.5
c71.333 0 130.666 25 177.999 75c50 52.667 75 117.667 75 195c0 82 -23.333 148.833 -70 200.5s-108 77.834 -184 78.501zM567.003 26.999v-27h-281v28c46 2.66699 101.333 44 166 124l821 1061c38 49.333 57 79.666 57 90.999c0 16.667 -15.667 27.667 -47 33v28h272v-28
c-46 -2.66699 -101.333 -43.667 -166 -123l-812 -1063c-38.667 -50 -58 -80 -58 -90c0 -17.333 16 -28.666 48 -33.999zM1417 696.999c93.333 0 173.336 -30 240.003 -90c77.333 -69.333 116 -159.333 116 -270c0 -48.667 -10.333 -96.334 -31 -143.001s-49 -86 -85 -118
c-66.667 -60 -146.334 -90 -239.001 -90s-172.334 30 -239.001 90c-77.333 70 -116 158.333 -116 265c0 50.667 10.333 99.834 31 147.501s49 87.167 85 118.5c67.333 58.667 146.666 88.667 237.999 90zM1417.01 615.999c-70 0 -128.999 -25.001 -176.999 -75.001
c-50 -52 -75 -118.667 -75 -200c0 -79.333 23.833 -144.833 71.5 -196.5s108.167 -77.5 181.5 -77.5c71.333 0 130.666 25 177.999 75c50 52.667 75 118 75 196c0 81.333 -23.5 147.833 -70.5 199.5s-108.167 77.834 -183.5 78.501zM2264.01 696.998
c93.333 0 173.334 -30 240.001 -90c77.333 -69.333 116 -159.333 116 -270c0 -48.667 -10.333 -96.334 -31 -143.001s-49 -86 -85 -118c-66.667 -60 -146.334 -90 -239 -90c-92.667 0 -172.334 30 -239.001 90c-77.333 70 -116 158.333 -116 265
c0 50.667 10.333 99.834 31 147.501s49 87.167 85 118.5c66.667 58.667 146 88.667 238 90zM2264.01 615.998c-70 0 -129 -25.001 -177 -75.001c-50 -52 -75 -118.667 -75 -200c0 -79.333 23.833 -144.833 71.5 -196.5s108.167 -77.5 181.5 -77.5
c71.333 0 130.666 25 178 75c50 52.667 75 118 75 196c0 81.333 -23.5 147.833 -70.5 199.5s-108.167 77.834 -183.5 78.501z" />
    <glyph glyph-name="guilsinglleft" unicode="&#x2039;" horiz-adv-x="661" 
d="M345 159l-195 401l195 400h138l-196 -400l196 -401h-138z" />
    <glyph glyph-name="guilsinglright" unicode="&#x203a;" horiz-adv-x="661" 
d="M315 159h-138l197 401l-197 400h138l195 -400z" />
    <glyph glyph-name="Euro" unicode="&#x20ac;" horiz-adv-x="1475" 
d="M1424 128l-27 -15c-22.667 25.333 -38.334 38 -47.001 38c-7.33301 0 -15.666 -3.33301 -24.999 -10c-150.667 -110 -295.334 -165 -434.001 -165c-145.333 0 -274 45.667 -386 137c-106 86 -180.667 198.667 -224 338h-91c-37.333 0 -66 -21.333 -86 -64h-33l50 258h33
c3.33301 -42.667 24 -64 62 -64h37c-4.66699 36 -7 69.667 -7 101c0 38.667 2.33301 74.667 7 108h-63c-37.333 0 -66 -21.333 -86 -64h-33l50 258h33c3.33301 -42.667 24 -64 62 -64h67c44 137.333 118.667 248.666 224 333.999c112 90 240 135 384 135
c138.667 0 283.334 -55 434.001 -165c9.33301 -6.66699 17.666 -10 24.999 -10c8.66699 0 24.334 12.667 47.001 38l27 -15l-138 -237l-27 16c6 20 9 35.667 9 47c0 12 -5.66699 23.667 -17 35c-100 102 -220 153.333 -360 154c-110 0.666992 -207 -30.666 -291 -93.999
c-77.333 -58.667 -135 -138 -173 -238h592c38 0 67 21.333 87 64h33l-51 -258h-33c-3.33301 42.667 -24 64 -62 64h-601c-5.33301 -34 -8 -69.667 -8 -107c0 -32.667 2.66699 -66.667 8 -102h565c38 0 67 21.333 87 64h33l-51 -258h-33c-3.33301 42.667 -24 64 -62 64h-506
c37.333 -101.333 95 -182 173 -242c84 -64.667 181.667 -96.667 293 -96c140 0.666992 260 52 360 154c11.333 11.333 17 23 17 35c0 11.333 -3 27 -9 47l27 16z" />
    <glyph glyph-name="trademark" unicode="&#x2122;" horiz-adv-x="1911" 
d="M453 1279l-0.000976562 -619.001c0 -14.667 2.33301 -24.667 7 -30s15 -9.66602 31 -12.999v-30h-182v30c16 4 26.333 8.5 31 13.5s7 14.833 7 29.5v619h-266c-15.333 0 -25.666 -2.16699 -30.999 -6.5s-10 -14.166 -14 -29.499h-31v158h31
c3.33301 -15.333 7.83301 -25.166 13.5 -29.499s16.167 -6.5 31.5 -6.5h638c16 0 26.667 2.16699 32 6.5s10 14.166 14 29.499h31v-158h-31c-3.33301 15.333 -7.83301 25.166 -13.5 29.499s-16.5 6.5 -32.5 6.5h-266zM1350 578.999l-331 629v-548
c0 -14.667 2.33301 -24.5 7 -29.5s15 -9.5 31 -13.5v-30h-174v30c16 4 26.333 8.5 31 13.5s7 14.833 7 29.5v632c0 14.667 -2.33301 24.667 -7 30s-15 9.66602 -31 12.999v30h223v-30c-19.333 -6 -29 -12.333 -29 -19c0 -2.66699 6.33301 -15.667 19 -39l261 -493l263 497
c8.66699 18.667 13 30.334 13 35.001c0 6 -9.66699 12.333 -29 19v30h225v-30c-16 -3.33301 -26.333 -7.66602 -31 -12.999s-7 -15.333 -7 -30v-632c0 -14.667 2.33301 -24.5 7 -29.5s15 -9.5 31 -13.5v-30h-182v30c16 3.33301 26.333 7.66602 31 12.999s7 15.333 7 30v549z
" />
    <glyph glyph-name="Omega" unicode="&#x2126;" horiz-adv-x="1365" 
d="M57 0l-0.000976562 128.997h380c-99.333 56.667 -181.666 126.334 -246.999 209.001c-90.667 114.667 -136 249.334 -136 404.001c0 204 72.667 371 218 501c115.333 103.333 251.666 155 408.999 155c164 0 304.333 -53.667 421 -161
c68.667 -62.667 121.334 -139 158.001 -229c34 -84 51 -173 51 -267c0 -129.333 -32.333 -245.666 -97 -348.999s-160 -191 -286 -263h380v-129h-532v121c96 53.333 171.333 112 226 176c106.667 124 160 265.333 160 424c0 166 -54 303.333 -162 412
c-88 89.333 -193 134 -315 134c-124.667 0 -231.667 -44.667 -321 -134c-107.333 -107.333 -161 -245 -161 -413c0 -257.333 128.667 -457 386 -599v-121h-532z" />
    <glyph glyph-name="partialdiff" unicode="&#x2202;" 
d="M179 1252l18.002 120c110.667 -16 203.334 -40 278.001 -72c170.667 -72.667 298 -193.334 382 -362.001c66.667 -133.333 100 -281.666 100 -444.999c0 -144 -33 -259.667 -99 -347c-40.667 -54 -91.834 -96 -153.501 -126s-127.167 -45 -196.5 -45
c-124 0 -228 44.667 -312 134c-86.667 92 -130 203 -130 333c0 104 30 196.667 90 278c39.333 53.333 89.166 95 149.499 125s124.833 45 193.5 45c89.333 0 160.666 -22 213.999 -66c18 -15.333 47.333 -46.333 88 -93l-9 22c-30.667 82 -54.834 138.667 -72.501 170
s-45.5 67.333 -83.5 108c-119.333 123.333 -271.666 197 -456.999 221zM526.002 777c-75.333 0 -141.333 -22.668 -198 -68.001c-38.667 -31.333 -69.167 -71.333 -91.5 -120s-33.5 -99.667 -33.5 -153c0 -101.333 34 -185.666 102 -252.999c59.333 -58.667 130 -88 212 -88
c70 0 132.333 23.667 187 71c77.333 66.667 116 160 116 280c0 106 -32.333 189.667 -97 251c-54 51.333 -119.667 78 -197 80z" />
    <glyph glyph-name="Delta" unicode="&#x2206;" horiz-adv-x="1271" 
d="M12 0l546 1365h152l548 -1365h-1246zM204 129h859l-428 1076z" />
    <glyph glyph-name="product" unicode="&#x220f;" horiz-adv-x="1365" 
d="M56 1536h1253v-121h-151v-1806h151v-121h-442v121h157v1806h-683v-1806h155v-121h-440v121h152v1806h-152v121z" />
    <glyph glyph-name="summation" unicode="&#x2211;" horiz-adv-x="1365" 
d="M1220 1536v-466h-135l-14 329h-837l511 -846l-510 -929h855l8 331h141v-467h-1169v158l501 906l-501 830v154h1150z" />
    <glyph glyph-name="fraction" unicode="&#x2215;" horiz-adv-x="508" 
d="M396 1365l316.999 -0.000976562v-27c-45.333 -3.33301 -88.666 -44.666 -129.999 -123.999l-500 -1062c-21.333 -46 -32 -73.667 -32 -83c0 -23.333 21.667 -37 65 -41v-28h-321v28c45.333 3.33301 88.333 44.666 129 123.999l509 1061
c21.333 44.667 32 72.334 32 83.001c0 24.667 -23 38.667 -69 42v27z" />
    <glyph glyph-name="periodcentered" unicode="&#x2219;" horiz-adv-x="573" 
d="M286 669c30.667 0 56.5 -10.668 77.5 -32.001s31.5 -47.333 31.5 -78c0 -29.333 -10.833 -54.666 -32.5 -75.999s-47.167 -32 -76.5 -32c-30 0 -55.667 10.833 -77 32.5s-32 47.167 -32 76.5c0 30 10.5 55.5 31.5 76.5s46.833 31.833 77.5 32.5z" />
    <glyph glyph-name="radical" unicode="&#x221a;" horiz-adv-x="1365" 
d="M1365 1693v-123.999h-398l-468 -1569h-159l-178 607h-162v124h251l88 -291c6 -18.667 17 -60.334 33 -125.001l36 -151h7c6.66699 26.667 23 88 49 184l56 209l103 343l236 793h506z" />
    <glyph glyph-name="infinity" unicode="&#x221e;" horiz-adv-x="1365" 
d="M685 622c-35.333 -50 -67.333 -90 -96 -120c-71.333 -75.333 -155 -113 -251 -113c-93.333 0 -168.333 32.667 -225 98c-49.333 56.667 -74 128 -74 214c0 86.667 26.333 157.667 79 213c58 60.667 131.667 91 221 91c123.333 0 237.333 -77.667 342 -233
c34 49.333 65.667 89 95 119c72.667 75.333 156.667 113 252 113c96 0 172.333 -33.667 229 -101c46.667 -56 70 -125.667 70 -209c0 -89.333 -27.667 -162 -83 -218c-56.667 -58 -128.667 -87 -216 -87c-66.667 0 -126.5 18 -179.5 54s-107.5 95.667 -163.5 179zM738 697
c50 -76.667 95.999 -130.833 137.999 -162.5s89 -47.5 141 -47.5c57.333 0 104.5 19.667 141.5 59s55.5 90 55.5 152c0 66.667 -22 119.334 -66 158.001c-37.333 33.333 -81.666 50 -132.999 50c-78 0 -149.667 -40.333 -215 -121l-37 -51.5
c-16.667 -23.667 -25 -35.834 -25 -36.501zM626.999 696.001c-48.667 76.667 -94.333 130.999 -137 162.999s-90.334 48 -143.001 48c-57.333 0 -104.166 -19.667 -140.499 -59s-54.5 -90 -54.5 -152c0 -67.333 22 -120.333 66 -159c37.333 -32.667 81.666 -49 132.999 -49
c78 0 149.333 40.333 214 121c8.66699 10 21.334 26.833 38.001 50.5s24.667 35.834 24 36.501z" />
    <glyph glyph-name="integral" unicode="&#x222b;" 
d="M206 -490l32.0039 138c29.333 -14.667 55.666 -22 78.999 -22c52.667 0 87 20 103 60c9.33301 23.333 14 87.666 14 192.999v1241c0 134.667 5.66699 222 17 262c13.333 46.667 41.666 84 84.999 112s94.666 42 153.999 42c31.333 0 74.333 -7.33301 129 -22l-31 -138
c-31.333 14 -59 21 -83 21c-48.667 0 -81.334 -18 -98.001 -54c-10.667 -24.667 -16 -77.334 -16 -158.001v-1316c0 -93.333 -3 -157.166 -9 -191.499s-19.667 -65.166 -41 -92.499c-24 -29.333 -57.5 -52.833 -100.5 -70.5s-88.833 -26.5 -137.5 -26.5
c-20.667 0 -53 7.33301 -97 22z" />
    <glyph glyph-name="approxequal" unicode="&#x2248;" 
d="M106 712l-83.998 58c26.667 54.667 53.334 98 80.001 130c55.333 65.333 120.666 98 195.999 98c50.667 0 128 -26.333 232 -79c58 -29.333 99.667 -48.5 125 -57.5s50.666 -13.5 75.999 -13.5c36.667 0 69.334 11 98.001 33s58.667 59.667 90 113l83 -57
c-28 -58 -56.333 -103.333 -85 -136c-53.333 -62 -116.333 -93 -189 -93c-28 0 -57.833 5.5 -89.5 16.5s-79.834 32.5 -144.501 64.5c-92.667 46 -160.334 69 -203.001 69c-35.333 0 -67 -11 -95 -33s-58 -59.667 -90 -113zM106.002 367l-83.9971 57
c26.667 54 53.667 97.333 81 130c54.667 65.333 119.667 98 195 98c50.667 0 128 -26.333 232 -79c58 -28.667 99.667 -47.5 125 -56.5s50.666 -13.5 75.999 -13.5c36.667 0 69.167 10.833 97.5 32.5s58.5 59.167 90.5 112.5l83 -57c-28 -58 -56.333 -103.333 -85 -136
c-53.333 -62 -116.333 -93 -189 -93c-28 0 -57.833 5.5 -89.5 16.5s-79.834 32.5 -144.501 64.5c-92.667 46 -160.334 69 -203.001 69c-35.333 0 -67 -11 -95 -33s-58 -59.333 -90 -112z" />
    <glyph glyph-name="notequal" unicode="&#x2260;" horiz-adv-x="1570" 
d="M845 952l69.998 143.001c20 41.333 30 75.333 30 102c0 20 -7 40.667 -21 62l15 33l232 -113l-15 -32c-28.667 -2.66699 -51.834 -11.667 -69.501 -27s-35.834 -42.333 -54.501 -81l-43 -87h156c43.333 0 76 4.66699 98 14s40 26 54 50h36v-258h-36
c-14.667 24.667 -32.667 41.5 -54 50.5s-53.666 13.5 -96.999 13.5h-220l-137 -279h356c43.333 0 76.166 4.66699 98.499 14s40.166 26 53.499 50h36v-258h-36c-14.667 24.667 -32.667 41.5 -54 50.5s-53.666 13.5 -96.999 13.5h-420l-71 -146c-20.667 -42 -31 -76 -31 -102
c0 -18.667 7.33301 -39.334 22 -62.001l-15 -30l-232 113l15 30c28.667 2.66699 51.834 11.667 69.501 27s35.834 42.333 54.501 81l44 89h-159c-43.333 0 -75.833 -4.5 -97.5 -13.5s-39.834 -25.833 -54.501 -50.5h-33v258h34c14.667 -24.667 32.834 -41.5 54.501 -50.5
s53.834 -13.5 96.501 -13.5h222l136 279h-358c-43.333 0 -75.666 -4.5 -96.999 -13.5s-39.666 -25.833 -54.999 -50.5h-33v258h34c14.667 -24.667 32.667 -41.5 54 -50.5s53.666 -13.5 96.999 -13.5h422z" />
    <glyph glyph-name="lessequal" unicode="&#x2264;" 
d="M955 1214v-147l-717 -283l717 -281v-147l-887 362v134zM955 297v-137h-887v137h887z" />
    <glyph glyph-name="greaterequal" unicode="&#x2265;" 
d="M68 1214l887 -362v-134l-887 -362v147l717 281l-717 283v147zM68 297h887v-137h-887v137z" />
    <glyph glyph-name="lozenge" unicode="&#x25ca;" horiz-adv-x="1365" 
d="M683 1419l532 -736l-532 -736l-532 736zM683 1237l-404 -554l404 -555l403 555z" />
    <glyph glyph-name="fi" unicode="&#xf001;" horiz-adv-x="1720" 
d="M327 525v-412c0 -27.333 4.33301 -46.833 13 -58.5s25.667 -20.834 51 -27.501v-27h-271v27c25.333 6.66699 42.333 15.834 51 27.501s13 31.167 13 58.5v894c0 28 -4.33301 47.667 -13 59s-25.667 20.333 -51 27v27h910c27.333 0 46.833 4.33301 58.5 13
s20.834 25.667 27.501 51h27v-238h-27c-6.66699 26 -15.834 43.333 -27.501 52s-31.167 13 -58.5 13h-703v-377h457c28 0 47.667 4.33301 59 13s20.333 26 27 52h27v-238h-27c-6.66699 25.333 -15.667 42.333 -27 51s-31 13 -59 13h-457zM1393 113v894
c0 28 -4.33301 47.667 -13 59s-25.667 20.333 -51 27v27h271v-27c-25.333 -6.66699 -42.333 -15.667 -51 -27s-13 -31 -13 -59v-894c0 -27.333 4.33301 -46.833 13 -58.5s25.667 -20.834 51 -27.501v-27h-271v27c25.333 6.66699 42.333 15.834 51 27.501s13 31.167 13 58.5z
" />
    <glyph glyph-name="fl" unicode="&#xf002;" horiz-adv-x="2354" 
d="M327 525l0.000976562 -412c0 -27.333 4.33301 -46.833 13 -58.5s25.667 -20.834 51 -27.501v-27h-271v27c25.333 6.66699 42.333 15.834 51 27.501s13 31.167 13 58.5v894c0 28 -4.33301 47.667 -13 59s-25.667 20.333 -51 27v27h910c28 0 47.667 4.33301 59 13
s20.333 25.667 27 51h27v-238h-27c-6.66699 26 -15.834 43.333 -27.501 52s-31.167 13 -58.5 13h-703v-377h457c27.333 0 46.833 4.33301 58.5 13s20.834 26 27.501 52h27v-238h-27c-6.66699 25.333 -15.834 42.333 -27.501 51s-31.167 13 -58.5 13h-457zM1536 109
l682.999 -0.000976562c27.333 0 46.833 4.33301 58.5 13s20.834 26 27.501 52h27v-238h-27c-6.66699 25.333 -15.667 42.333 -27 51s-31 13 -59 13h-890v27c25.333 6.66699 42.333 15.834 51 27.501s13 31.167 13 58.5v894c0 28 -4.33301 47.667 -13 59
s-25.667 20.333 -51 27v27h271v-27c-25.333 -6.66699 -42.333 -15.667 -51 -27s-13 -31 -13 -59v-898z" />
    <glyph glyph-name="glyph1" horiz-adv-x="0" 
 />
    <glyph glyph-name="glyph2" horiz-adv-x="512" 
 />
    <glyph glyph-name="glyph242" 
d="M376 1698c26 0 47.998 -9.00098 65.998 -27.001s27 -40.333 27 -67c0 -25.333 -9.16699 -47 -27.5 -65s-40.166 -27 -65.499 -27s-47.166 9 -65.499 27s-27.5 40 -27.5 66s9 47.833 27 65.5s40 26.834 66 27.501zM645.998 1698c26 0 47.998 -9.00098 65.998 -27.001
s27 -40.333 27 -67c0 -25.333 -9.16699 -47 -27.5 -65s-40.166 -27 -65.499 -27c-26 0 -48 9 -66 27s-27 40 -27 66s8.83301 47.833 26.5 65.5s39.834 26.834 66.501 27.501z" />
    <glyph glyph-name="glyph243" 
d="M511 1786c55.333 0 102.001 -16.334 140.001 -49.001c38 -33.333 57 -73.333 57 -120c0 -45.333 -19.333 -84.5 -58 -117.5s-84.667 -49.5 -138 -49.5c-54 0 -100 16.667 -138 50c-38.667 32.667 -58 72.334 -58 119.001s18.667 86 56 118s83.666 48.333 138.999 49z
M512.001 1705c-28.667 0 -52.667 -8.16797 -72 -24.501s-29 -37.166 -29 -62.499c0 -24 9.83301 -44.5 29.5 -61.5s43.5 -25.5 71.5 -25.5c27.333 0 51 8.5 71 25.5s30 37.167 30 60.5c0 25.333 -9.5 46.333 -28.5 63s-43.167 25 -72.5 25z" />
    <glyph glyph-name="glyph244" 
d="M632 1765l209.999 -0.00195312v-27c-17.333 -0.666992 -29.666 -3.16699 -36.999 -7.5s-19.333 -15.833 -36 -34.5l-146 -149c-8 -8 -12 -16.333 -12 -25c0 -11.333 11.667 -17 35 -17v-27h-262v27c22 2 33 8 33 18c0 7.33301 -6 17 -18 29l-169 166
c-12 12.667 -28 19.334 -48 20.001v27h235v-27c-22 -2 -33 -7 -33 -15c0 -4 5.66699 -11.667 17 -23l124 -131l128 134c6.66699 6.66699 10 12.334 10 17.001c0 10.667 -10.333 16.667 -31 18v27z" />
    <glyph glyph-name="glyph245" 
d="M392 -220l64 114c18.667 2 32.667 3 42 3c46 0 91.667 -10 137 -30c54 -23.333 81 -65.333 81 -126c0 -46.667 -18.667 -84.667 -56 -114c-44 -33.333 -100 -50 -168 -50c-72 0 -133.667 9.66699 -185 29l20 41c34.667 -11.333 67.667 -17 99 -17
c44 0 78.333 8.66699 103 26s37 41.333 37 72c0 23.333 -7.16699 42 -21.5 56s-33.5 21 -57.5 21c-14.667 0 -25 -1.66699 -31 -5s-19 -15.333 -39 -36z" />
    <glyph glyph-name="glyph246" 
d="M392 1478h-209.999v27c17.333 0.666992 29.666 3.16699 36.999 7.5s19.333 15.833 36 34.5l146 149c8 8 12 16.333 12 25c0 11.333 -11.667 17 -35 17v27h262v-27c-22 -2.66699 -33 -8.66699 -33 -18c0 -7.33301 6 -16.666 18 -27.999l169 -167
c12 -12.667 28 -19.334 48 -20.001v-27h-235v27c22 2 33 7 33 15c0 4 -5.66699 11.667 -17 23l-124 131l-128 -134c-6.66699 -6.66699 -10 -12.667 -10 -18c0 -10 10.333 -15.667 31 -17v-27z" />
    <glyph glyph-name="glyph247" 
d="M747 1765v-27c-22.667 -2 -39.667 -11.333 -51 -28l-129 -172c-4 -6 -6 -12 -6 -18c0 -10 7 -15 21 -15h4v-27h-173v27c14.667 0 24.667 2 30 6s12 14 20 30l76 163c2 4 3 8 3 12c0 12.667 -9 20 -27 22v27h232z" />
    <glyph glyph-name="glyph248" 
d="M383 1466c26 0 47.998 -9 65.998 -27s27 -40.333 27 -67c0 -25.333 -9.16699 -47 -27.5 -65s-40.166 -27 -65.499 -27s-47.166 9.16699 -65.499 27.5s-27.5 40.166 -27.5 65.499c0 26 9 47.833 27 65.5s40 26.834 66 27.501zM638.998 1466c26 0 47.998 -9 65.998 -27
s27 -40.333 27 -67c0 -25.333 -9.16699 -47 -27.5 -65s-40.166 -27 -65.499 -27s-47.166 9.16699 -65.499 27.5s-27.5 40.166 -27.5 65.499c0 26 9 47.833 27 65.5s40 26.834 66 27.501z" />
    <glyph glyph-name="glyph249" 
d="M708 1733l130 -84l-14 -23c-9.33301 4 -16.666 6 -21.999 6c-8 0 -16.333 -6 -25 -18c-42.667 -63.333 -88.667 -95 -138 -95c-24 0 -50 5 -78 15l-144 53c-12 4.66699 -25.333 7 -40 7c-13.333 0 -26 -5.33301 -38 -16s-18.333 -22.334 -19 -35.001
c-0.666992 -6.66699 3.66602 -16 12.999 -28l-15 -18l-132 90l13 18c9.33301 -2.66699 16.333 -4 21 -4c12 0 23.667 7.66699 35 23c38.667 56 88 84 148 84c18.667 0 38 -3.66699 58 -11l145 -55c16 -6 31.667 -9 47 -9c13.333 0 25.833 5.33301 37.5 16
s17.5 22.334 17.5 35.001c0 9.33301 -5.33301 19.333 -16 30z" />
    <glyph glyph-name="glyph250" 
d="M335 1698c26 0 47.998 -9.00098 65.998 -27.001s27 -40.333 27 -67c0 -25.333 -9.16699 -47 -27.5 -65s-40.166 -27 -65.499 -27s-47.166 9 -65.499 27s-27.5 40 -27.5 66s9 47.833 27 65.5s40 26.834 66 27.501zM686.998 1698c26 0 47.999 -9.00098 65.999 -27.001
s27 -40.333 27 -67c0 -25.333 -9.16699 -47 -27.5 -65s-40.166 -27 -65.499 -27c-26 0 -48 9 -66 27s-27 40 -27 66s9 47.833 27 65.5s40 26.834 66 27.501z" />
    <glyph glyph-name="glyph251" 
d="M277 1765h232.001v-27c-18 -2 -27 -9.33301 -27 -22c0 -4 1 -8 3 -12l77 -163c7.33301 -16 13.666 -26 18.999 -30s15.333 -6 30 -6v-27h-173v27h5c13.333 0 20 5 20 15c0 6 -2 12 -6 18l-129 172c-11.333 16.667 -28.333 26 -51 28v27z" />
    </font>
</defs>
</svg>
