<?xml version="1.0" standalone="no"?>
<!DOCTYPE svg PUBLIC "-//W3C//DTD SVG 1.1//EN" "http://www.w3.org/Graphics/SVG/1.1/DTD/svg11.dtd" >
<svg>
<metadata>
Created by FontForge 20090914 at Mon Feb 27 15:22:25 2012
 By www-data
Data copyright &#194;&#169; URW Software &#38; Type GbmH., additional data copyright The Font Bureau, Inc. Copyright 1994 Microsoft Corporation. All rights reserved.
</metadata>
<defs>
<font id="CopperplateGothic-Bold" horiz-adv-x="1024" >
  <font-face 
    font-family="Copperplate Gothic Bold"
    font-weight="400"
    font-stretch="normal"
    units-per-em="2048"
    panose-1="2 14 7 5 2 2 6 2 4 4"
    ascent="1638"
    descent="-410"
    x-height="1120"
    cap-height="1365"
    bbox="-272.999 -512 2575 1813"
    underline-thickness="174"
    underline-position="-119"
    unicode-range="U+0020-U+F002"
  />
<missing-glyph horiz-adv-x="512" 
d="M51 0v1365h410v-1365h-410zM410 51v1263h-308v-1263h308z" />
    <glyph glyph-name=".notdef" horiz-adv-x="512" 
d="M51 0v1365h410v-1365h-410zM410 51v1263h-308v-1263h308z" />
    <glyph glyph-name="space" unicode=" " horiz-adv-x="512" 
 />
    <glyph glyph-name="space" unicode="&#xa0;" horiz-adv-x="512" 
 />
    <glyph glyph-name="exclam" unicode="!" horiz-adv-x="774" 
d="M518 480h-261.998v32c27.333 7.33301 44.666 15.5 51.999 24.5s11 25.167 11 48.5c0 14 -1 29 -3 45l-73 615c-4 35.333 -9.5 57.666 -16.5 66.999s-23.5 16.333 -49.5 21v32h420v-32c-26 -4.66699 -42.5 -11.667 -49.5 -21s-12.5 -31.666 -16.5 -66.999l-73 -615
c-2 -16 -3 -31 -3 -45c0 -24 3.66699 -40.333 11 -49s24.666 -16.667 51.999 -24v-32zM387.002 304c46 0 84.833 -16.001 116.5 -48.001s47.5 -71 47.5 -117c0 -44.667 -16.167 -83 -48.5 -115s-70.833 -48 -115.5 -48c-45.333 0 -84 16.167 -116 48.5
s-48 71.166 -48 116.499c0 44.667 15.833 82.834 47.5 114.501s70.5 47.834 116.5 48.501z" />
    <glyph glyph-name="quotedbl" unicode="&#x22;" horiz-adv-x="1137" 
d="M403 803l0.00292969 -29.001h-236v29c25.333 6.66699 41.166 14.167 47.499 22.5s9.5 25.5 9.5 51.5c0 10.667 -1 21.334 -3 32.001l-66 348c-4.66699 33.333 -9.83398 53.666 -15.501 60.999s-20.167 13.333 -43.5 18v29h378v-29c-24 -4.66699 -38.667 -10.667 -44 -18
s-10.333 -27.666 -15 -60.999l-66 -348c-2 -10 -3 -21.333 -3 -34c0 -24.667 3.16699 -41.167 9.5 -49.5s22.166 -15.833 47.499 -22.5zM971.003 802.999l0.00390625 -29h-236v29c25.333 6.66699 41.166 14.167 47.499 22.5s9.5 25.5 9.5 51.5c0 11.333 -1 22 -3 32l-66 348
c-4.66699 33.333 -9.83398 53.666 -15.501 60.999s-20.167 13.333 -43.5 18v29h378v-29c-23.333 -4.66699 -37.833 -10.667 -43.5 -18s-10.834 -27.666 -15.501 -60.999l-66 -348c-2 -10 -3 -21.333 -3 -34c0 -24.667 3.16699 -41.167 9.5 -49.5
s22.166 -15.833 47.499 -22.5z" />
    <glyph glyph-name="numbersign" unicode="#" horiz-adv-x="1570" 
d="M1235 1054l165.994 0.00292969c20.667 0 37.334 5 50.001 15s24.334 27 35.001 51h32l-64 -341h-34c-2 23.333 -7.5 39.666 -16.5 48.999s-23.5 14 -43.5 14h-167l-63 -326h166c20.667 0 37.334 4.66699 50.001 14s24.334 25.666 35.001 48.999h32l-64 -340h-34
c-2 24 -7.33301 40.833 -16 50.5s-23.334 14.5 -44.001 14.5h-166l-39 -201c-0.666992 -3.33301 -1 -8.66602 -1 -15.999c0 -16.667 3.33301 -28.667 10 -36s20.334 -14.333 41.001 -21l-7 -34h-340l7 34c25.333 7.33301 43.666 16.166 54.999 26.499s19 25.833 23 46.5
l39 201h-328l-39 -201c-0.666992 -3.33301 -1 -8.66602 -1 -15.999c0 -16.667 3.33301 -28.667 10 -36s20.334 -14.333 41.001 -21l-6 -34h-340l6 34c26 7.33301 44.667 16.166 56 26.499s19 25.833 23 46.5l39 201h-167c-20 0 -36.333 -4.83301 -49 -14.5
s-24.667 -26.5 -36 -50.5h-34l66 340h34c2 -24 7.33301 -40.5 16 -49.5s23.334 -13.5 44.001 -13.5h167l63 326h-166c-20.667 0 -37.167 -4.5 -49.5 -13.5s-24.166 -25.5 -35.499 -49.5h-34l66 341h34c2 -24.667 7.33301 -41.834 16 -51.501s23.334 -14.5 44.001 -14.5h167
l38 201c1.33301 4 2 9.66699 2 17c0 16 -3.5 27.833 -10.5 35.5s-20.5 14.167 -40.5 19.5l6 33h340l-7 -33c-24.667 -6 -42.834 -14.5 -54.501 -25.5s-19.5 -26.5 -23.5 -46.5l-39 -201h328l39 201c0.666992 4 1 9.66699 1 17c0 16 -3.5 27.833 -10.5 35.5
s-20.5 14.167 -40.5 19.5l6 33h340l-6 -33c-25.333 -6 -43.833 -14.5 -55.5 -25.5s-19.5 -26.5 -23.5 -46.5zM917.994 516.003l64 326h-328l-64 -326h328z" />
    <glyph glyph-name="dollar" unicode="$" horiz-adv-x="1461" 
d="M821 837l36.0039 -2.99902c166.667 -14.667 293.667 -52 381 -112c45.333 -31.333 81.166 -73.5 107.499 -126.5s39.5 -109.5 39.5 -169.5c0 -92 -26.5 -172 -79.5 -240s-129.833 -120 -230.5 -156c-82.667 -30 -167.334 -47 -254.001 -51v-65
c0 -20.667 4.66699 -36.334 14 -47.001s26 -19.334 50 -26.001v-32h-278v32c24 6.66699 40.667 15.334 50 26.001s14 26.334 14 47.001v65c-161.333 12 -325 59.667 -491 143c-14.667 7.33301 -26.334 11 -35.001 11s-22.334 -7.33301 -41.001 -22l-29 14l148 335l29 -13
v-14c0 -36 21 -68.667 63 -98c43.333 -30 98.5 -56.333 165.5 -79s130.5 -36.667 190.5 -42v341c-97.333 9.33301 -170.333 19.333 -219 30s-94.334 26.667 -137.001 48c-61.333 30.667 -109 75.667 -143 135c-31.333 54.667 -47 116.667 -47 186
c0 128.667 48.833 232 146.5 310s230.834 119.667 399.501 125v49c0 20 -4.66699 35.333 -14 46s-26 19.334 -50 26.001v32h279v-32c-24.667 -6.66699 -41.667 -15.334 -51 -26.001s-14 -26 -14 -46v-54c62.667 -4.66699 126.834 -16.667 192.501 -36s150.5 -51 254.5 -95
c17.333 -7.33301 31 -11 41 -11c14 0 30.333 7.66699 49 23l29 -15l-164 -321l-28 16c0.666992 5.33301 1 10.666 1 15.999c0 34 -42.833 72.5 -128.5 115.5s-167.834 67.5 -246.501 73.5v-313zM671.004 854.001v301c-54.667 -4 -100.334 -12 -137.001 -24
c-40.667 -13.333 -73 -33.333 -97 -60s-36 -55.667 -36 -87c0 -24 8.33301 -45.333 25 -64s39.334 -32 68.001 -40c40 -11.333 99 -20 177 -26zM821.004 538.001l-0.000976562 -324.997c66 7.33301 119.667 21 161 41c76 37.333 114 88 114 152
c0 21.333 -6.83301 41.166 -20.5 59.499s-31.167 31.166 -52.5 38.499c-37.333 13.333 -104.666 24.666 -201.999 33.999z" />
    <glyph glyph-name="percent" unicode="%" horiz-adv-x="1809" 
d="M416 1377c97.333 0 178 -29.333 242 -88c72 -66 108 -156 108 -270c0 -108 -36 -195 -108 -261c-64 -58.667 -144.333 -88 -241 -88s-177 29.333 -241 88c-72 66.667 -108 155.334 -108 266.001c0 112 36 200.333 108 265c64 57.333 144 86.666 240 87.999zM417 1234
c-52 0 -94.333 -19.501 -127 -58.501s-49 -89.833 -49 -152.5c0 -62 16.333 -112.5 49 -151.5s75 -58.5 127 -58.5c51.333 0 93.5 19.5 126.5 58.5s49.5 88.833 49.5 149.5c0 64 -16 115.333 -48 154s-74.667 58.334 -128 59.001zM1391 694.999
c97.333 0 178 -29.332 242 -87.999c72 -66 108 -156 108 -270c0 -108 -36 -195 -108 -261c-64 -58.667 -144.333 -88 -241 -88s-177 29.333 -241 88c-72 66 -108 154.667 -108 266c0 112 36 200.333 108 265c64 57.333 144 86.666 240 87.999zM1392 552
c-52 0 -94.333 -19.501 -127 -58.501s-49 -89.833 -49 -152.5c0 -62 16.333 -112.5 49 -151.5s75 -58.5 127 -58.5c51.333 0 93.5 19.5 126.5 58.5s49.5 88.833 49.5 149.5c0 64 -16 115.333 -48 154s-74.667 58.334 -128 59.001zM1380 1192l-804 -1040
c-24 -31.333 -36 -54 -36 -68c0 -26.667 20 -44 60 -52v-32h-356v32c34 5.33301 60.833 15.833 80.5 31.5s52.5 53.167 98.5 112.5l788 1016c29.333 37.333 44 64.333 44 81c0 29.333 -20 49.333 -60 60v32h355v-32c-34 -4.66699 -58.833 -13.5 -74.5 -26.5
s-47.5 -51.167 -95.5 -114.5z" />
    <glyph glyph-name="ampersand" unicode="&#x26;" horiz-adv-x="1584" 
d="M1530 940l0.00195312 -379.001h-32c-4 33.333 -14 50 -30 50c-14.667 0 -36.667 -9.66699 -66 -29s-55 -41.333 -77 -66c-39.333 -43.333 -66.666 -90.333 -81.999 -141c41.333 -42 77.166 -71.833 107.499 -89.5s61.5 -26.5 93.5 -26.5c29.333 0 47.333 16 54 48h32
v-315c-18.667 4 -77.334 9 -176.001 15c-38 2.66699 -85.167 20.334 -141.5 53.001s-104.833 70.667 -145.5 114c-135.333 -132 -296 -198 -482 -198c-145.333 0 -266 34.667 -362 104c-108.667 78 -163 181 -163 309c0 171.333 101.333 306.666 304 405.999
c-90 78.667 -135 164.667 -135 258c0 108.667 52 195 156 259c84.667 51.333 181.667 77 291 77c122.667 0 230 -30.667 322 -92c90 -60 135 -143.333 135 -250c0 -59.333 -13.167 -109.666 -39.5 -150.999s-73.5 -86 -141.5 -134c69.333 -44.667 123 -108 161 -190
c64 110.667 126.667 193.167 188 247.5s137.666 94.5 228.999 120.5zM683.002 1185c-50.667 0 -95 -12.334 -133 -37.001c-48.667 -31.333 -73 -76.333 -73 -135c0 -49.333 19.5 -90.166 58.5 -122.499s88.167 -48.5 147.5 -48.5c51.333 0 96 12.333 134 37
c48.667 32 73 76 73 132c0 51.333 -19 93 -57 125s-88 48.333 -150 49zM612.002 671.998c-74.667 0 -139.333 -21.668 -194 -65.001c-54 -43.333 -81 -97.666 -81 -162.999c0 -68.667 26.5 -125 79.5 -169s120.833 -66 203.5 -66c85.333 0 158 21.333 218 64
c60 42 90 92 90 150c0 27.333 -9.16699 57.5 -27.5 90.5s-41.5 60.5 -69.5 82.5c-61.333 50 -134.333 75.333 -219 76z" />
    <glyph glyph-name="quotesingle" unicode="'" horiz-adv-x="569" 
d="M403 803l0.00292969 -29.001h-236v29c25.333 6.66699 41.166 14.167 47.499 22.5s9.5 25.5 9.5 51.5c0 10.667 -1 21.334 -3 32.001l-66 348c-4.66699 33.333 -9.83398 53.666 -15.501 60.999s-20.167 13.333 -43.5 18v29h378v-29c-24 -4.66699 -38.667 -10.667 -44 -18
s-10.333 -27.666 -15 -60.999l-66 -348c-2 -10 -3 -21.333 -3 -34c0 -24.667 3.16699 -41.167 9.5 -49.5s22.166 -15.833 47.499 -22.5z" />
    <glyph glyph-name="parenleft" unicode="(" horiz-adv-x="683" 
d="M556 1529l110.001 -90.998c-76 -88 -131.667 -170.667 -167 -248c-64.667 -138 -97 -307.333 -97 -508c0 -162.667 20.167 -301.334 60.5 -416.001s108.166 -227.667 203.499 -339l-110 -91c-86 61.333 -161 138 -225 230c-131.333 189.333 -197 394.666 -197 615.999
c0 167.333 38 327.333 114 480s178.667 275 308 367z" />
    <glyph glyph-name="parenright" unicode=")" horiz-adv-x="683" 
d="M127 1529c85.333 -61.333 159.999 -138 223.999 -230c131.333 -189.333 197 -395 197 -617c0 -167.333 -37.833 -327 -113.5 -479s-178.167 -274.333 -307.5 -367l-111 91c76 88 132 170.333 168 247c64 138.667 96 308 96 508c0 163.333 -20.167 302.5 -60.5 417.5
s-108.166 227.833 -203.499 338.5z" />
    <glyph glyph-name="asterisk" unicode="*" horiz-adv-x="1033" 
d="M365 1502l303.002 0.000976562v-38c-33.333 -8 -55.333 -28.333 -66 -61s-17 -100 -19 -202c89.333 30.667 149.166 55.834 179.499 75.501s45.5 43.5 45.5 71.5c0 3.33301 -0.333008 8.33301 -1 15l36 12l94 -288l-36 -12c-18 29.333 -42.667 44 -74 44
c-39.333 0 -107 -14.667 -203 -44c52 -68.667 90.667 -114.834 116 -138.501s48.666 -35.5 69.999 -35.5c9.33301 0 22 3.33301 38 10l22 -30l-245 -179l-22 31c16 20 24 37.333 24 52c0 35.333 -36.667 105.666 -110 210.999c-73.333 -105.333 -110 -175.666 -110 -210.999
c0 -14.667 8 -32 24 -52l-22 -31l-246 178l23 31c16.667 -6.66699 29.667 -10 39 -10c37.333 0 98.666 57.667 183.999 173c-98.667 30 -166.667 45 -204 45c-29.333 0 -53.666 -14.667 -72.999 -44l-36 11l94 288l36 -11c-0.666992 -6.66699 -1 -12.334 -1 -17.001
c0 -26 17.167 -50 51.5 -72s92.166 -46.333 173.499 -73c-2.66699 104 -9.16699 171.833 -19.5 203.5s-32.166 51.5 -65.499 59.5v38z" />
    <glyph glyph-name="plus" unicode="+" horiz-adv-x="1570" 
d="M687 585l-357 -0.00195312c-18.667 0 -33 -4.66699 -43 -14s-18 -26 -24 -50h-29v324h30c5.33301 -24 13 -40.667 23 -50s24.333 -14 43 -14h357v356c0 18.667 -4.66699 32.834 -14 42.501s-26 17.5 -50 23.5v30h324v-29c-24 -6.66699 -40.667 -14.667 -50 -24
s-14 -23.666 -14 -42.999v-356h357c18.667 0 32.834 4.66699 42.501 14s17.5 26 23.5 50h30v-324h-30c-6 24 -13.833 40.667 -23.5 50s-23.834 14 -42.501 14h-357v-357c0 -18.667 4.66699 -33 14 -43s26 -18 50 -24v-29h-324v30c24 5.33301 40.667 13 50 23
s14 24.333 14 43v357z" />
    <glyph glyph-name="comma" unicode="," horiz-adv-x="628" 
d="M197 -250c54.667 36 94 71.001 118 105.001s41 78 51 132c-32 -7.33301 -55.333 -11 -70 -11c-44 0 -79.333 15.333 -106 46s-40 70.667 -40 120s13.5 88.666 40.5 117.999s62.833 44 107.5 44c60 0 106 -24.667 138 -74c28 -44.667 42 -98 42 -160
c0 -146.667 -77.667 -274.667 -233 -384z" />
    <glyph glyph-name="hyphen" unicode="-" horiz-adv-x="455" 
d="M455 733v-346h-32c-6.66699 24 -15.334 40.667 -26.001 50s-26.334 14 -47.001 14h-246c-20 0 -35.5 -4.83301 -46.5 -14.5s-19.5 -26.167 -25.5 -49.5h-32v346h32c6 -24 14.5 -40.833 25.5 -50.5s26.5 -14.5 46.5 -14.5h246c20.667 0 36.334 4.66699 47.001 14
s19.334 26.333 26.001 51h32z" />
    <glyph glyph-name="period" unicode="." horiz-adv-x="628" 
d="M314 304c46 0 84.833 -16.001 116.5 -48.001s47.5 -71 47.5 -117c0 -44.667 -16.167 -83 -48.5 -115s-70.833 -48 -115.5 -48c-45.333 0 -84 16.167 -116 48.5s-48 71.166 -48 116.499c0 44.667 15.833 82.834 47.5 114.501s70.5 47.834 116.5 48.501z" />
    <glyph glyph-name="slash" unicode="/" horiz-adv-x="1555" 
d="M1317 1192l-804 -1040c-24.667 -31.333 -37 -54 -37 -68c0 -26.667 20 -44 60 -52v-32h-468v32c34.667 5.33301 61.667 15.833 81 31.5s52 53.167 98 112.5l788 1016c29.333 37.333 44 64.333 44 81c0 29.333 -20 49.333 -60 60v32h468v-32
c-34 -4.66699 -58.833 -13.5 -74.5 -26.5s-47.5 -51.167 -95.5 -114.5z" />
    <glyph glyph-name="zero" unicode="0" horiz-adv-x="1461" 
d="M729 1389c179.333 0 328.333 -58.335 447 -175.002c133.333 -131.333 200 -311.666 200 -540.999c0 -72 -10 -145 -30 -219s-47.333 -138.333 -82 -193c-60.667 -96 -140.667 -169 -240 -219c-88 -44 -186 -66 -294 -66c-179.333 0 -328 58.667 -446 176
c-56.667 56.667 -100.667 120.667 -132 192c-45.333 105.333 -68 218.333 -68 339c0 162.667 37.333 303.334 112 422.001c58.667 94 138.667 166.667 240 218c84 42.667 181.667 64.667 293 66zM729 1157c-106 0 -190.334 -47 -253.001 -141
c-58 -87.333 -87 -195.666 -87 -324.999s29 -237.666 87 -324.999c62.667 -94 147.334 -141 254.001 -141c107.333 0 192 47 254 141c58 87.333 87 193.666 87 318.999c0 135.333 -29 245.666 -87 330.999c-62 92.667 -147 139.667 -255 141z" />
    <glyph glyph-name="one" unicode="1" horiz-adv-x="1461" 
d="M441 872l0.000976562 362.999h32c7.33301 -24.667 14.333 -40.667 21 -48s17 -11 31 -11c6.66699 0 16 1.33301 28 4l86 22v59c0 20 -4.66699 35.333 -14 46s-26 19.334 -50 26.001v32h417v-32c-24 -6.66699 -40.667 -15.167 -50 -25.5s-14 -25.833 -14 -46.5v-1156
c0 -20.667 4.66699 -36.334 14 -47.001s26 -19.334 50 -26.001v-32h-417v32c24 6.66699 40.667 15.334 50 26.001s14 26.334 14 47.001v864l-94 -23c-22 -5.33301 -37.833 -13 -47.5 -23s-17.834 -27 -24.501 -51h-32z" />
    <glyph glyph-name="two" unicode="2" horiz-adv-x="1461" 
d="M439 246l835.001 0.00195312c20.667 0 36.334 4.66699 47.001 14s19.334 26 26.001 50h32v-374h-32c-6.66699 24 -15.334 40.667 -26.001 50s-26.334 14 -47.001 14h-1063c-34 0 -57 -4 -69 -12s-21 -25.333 -27 -52h-32c-0.666992 33.333 -1 54.666 -1 63.999
c0 85.333 9.66699 155.666 29 210.999c39.333 112 112.666 207 219.999 285c55.333 40 145.666 88.667 270.999 146l169 77c79.333 36.667 136.5 74.5 171.5 113.5s52.5 85.167 52.5 138.5c0 60.667 -20.833 106.834 -62.5 138.501s-102.167 47.5 -181.5 47.5
c-96.667 0 -186.667 -23.667 -270 -71c-80.667 -45.333 -121 -92 -121 -140c0 -11.333 5.33301 -32.333 16 -63l-22 -23l-266 287l24 22c25.333 -12 44 -18 56 -18c10.667 0 20 2.33301 28 7s24.333 18 49 40c146.667 127.333 327.667 191 543 191
c154.667 0 278.334 -38 371.001 -114c94 -77.333 141 -180.333 141 -309c0 -126.667 -45 -231.334 -135 -314.001c-59.333 -54 -139 -103.333 -239 -148l-154 -69c-16 -8 -52.333 -23.333 -109 -46c-69.333 -28 -118 -50.833 -146 -68.5s-54 -42.5 -78 -74.5z" />
    <glyph glyph-name="three" unicode="3" horiz-adv-x="1461" 
d="M1151 716c151.333 -56.667 226.999 -157.335 226.999 -302.002c0 -148 -65 -260.333 -195 -337c-114 -67.333 -256.667 -101 -428 -101c-182 0 -347 35.667 -495 107c-62 30 -102 45 -120 45c-16.667 0 -39.334 -12.333 -68.001 -37l-29 15l160 369l30 -13
c-3.33301 -8 -5 -15 -5 -21c0 -36 18.333 -69 55 -99c47.333 -38.667 115 -70.5 203 -95.5s176.333 -37.5 265 -37.5c84 0 156 13.667 216 41c76 34.667 114 89 114 163c0 64 -27 112.333 -81 145s-133.667 49 -239 49c-64 0 -108.167 -4.66699 -132.5 -14
s-39.833 -27.666 -46.5 -54.999h-32v335h32c8 -30 22.833 -49.5 44.5 -58.5s64.167 -13.5 127.5 -13.5c98.667 0 174.334 17.333 227.001 52c46 29.333 69 71.666 69 126.999c0 56.667 -25.667 100.334 -77 131.001s-124.666 46 -219.999 46
c-134.667 0 -253 -29.667 -355 -89c-49.333 -29.333 -74 -60 -74 -92c0 -12.667 4.33301 -27.667 13 -45l-25 -20l-230 283l25 20c24.667 -11.333 43 -17 55 -17c13.333 0 31.333 7.66699 54 23c167.333 112.667 354.333 169 561 169c144 0 265.333 -28.333 364 -85
c56.667 -32.667 101 -75 133 -127c32.667 -54 49 -114.333 49 -181c0 -119.333 -57.333 -212.666 -172 -279.999z" />
    <glyph glyph-name="four" unicode="4" horiz-adv-x="1461" 
d="M943 230l-719.001 0.00292969c-38.667 0 -64.167 -3.83301 -76.5 -11.5s-21.166 -25.5 -26.499 -53.5h-31v290l678 762c29.333 34 44 58.333 44 73c0 23.333 -17 37.666 -51 42.999v32h535v-32c-24 -6.66699 -40.667 -15.334 -50 -26.001s-14 -26 -14 -46v-806h75
c20.667 0 36.334 4.66699 47.001 14s19.334 25.666 26.001 48.999h32v-353h-32c-6.66699 24 -15.334 40.833 -26.001 50.5s-26.334 14.5 -47.001 14.5h-75v-125c0 -20.667 4.66699 -36.334 14 -47.001s26 -19.334 50 -26.001v-32h-417v32
c24 6.66699 40.667 15.334 50 26.001s14 26.334 14 47.001v125zM942.999 455.003v599l-527 -599h527z" />
    <glyph glyph-name="five" unicode="5" horiz-adv-x="1461" 
d="M57 162l241.002 318.999l26 -18c-4.66699 -17.333 -7 -32 -7 -44c0 -34 27 -68 81 -102c112 -72 235.333 -108 370 -108c100.667 0 180 21 238 63c62.667 46 94 109 94 189c0 74 -30.167 133 -90.5 177s-141.166 66 -242.499 66c-74.667 0 -145.167 -12 -211.5 -36
s-99.5 -49.667 -99.5 -77c0 -9.33301 4.66699 -22.666 14 -39.999l-24 -21l-352 354l21 24c5.33301 -0.666992 9.66602 -1 12.999 -1c32 0 48 20.333 48 61v289c0 22 -4.83301 38.667 -14.5 50s-26.167 20 -49.5 26v32h1082c20.667 0 36.167 4.66699 46.5 14
s19.166 26.333 26.499 51h32v-361h-32c-7.33301 24 -16.166 40.5 -26.499 49.5s-25.833 13.5 -46.5 13.5h-779v-294c110 54.667 237.667 82 383 82c190 0 339.333 -44.333 448 -133c100.667 -82 151 -190.333 151 -325c0 -102.667 -30.333 -194.667 -91 -276
c-104 -140 -281 -210 -531 -210c-161.333 0 -300.333 28.667 -417 86c-28.667 14 -75.334 40 -140.001 78c-28 16.667 -53.333 25 -76 25c-12.667 0 -32.334 -7.66699 -59.001 -23z" />
    <glyph glyph-name="six" unicode="6" horiz-adv-x="1461" 
d="M1386 1286l-175.999 -326.997l-28 14c3.33301 17.333 5 30.333 5 39c0 26.667 -21.333 53.334 -64 80.001c-36 22.667 -81.667 41 -137 55s-109 21 -161 21c-110.667 0 -205.334 -29 -284.001 -87c-51.333 -38 -89.333 -83.833 -114 -137.5
s-40.334 -123.834 -47.001 -210.501c67.333 60 135.5 103.167 204.5 129.5s148.5 39.5 238.5 39.5c145.333 0 270 -34.667 374 -104c58 -38.667 104 -89.334 138 -152.001c32 -60.667 48 -127.334 48 -200.001c0 -142.667 -59.667 -257.334 -179 -344.001
c-115.333 -84 -262.666 -126 -441.999 -126c-193.333 0 -344.333 48.667 -453 146c-72 64 -126 146 -162 246c-34 96 -51 196.333 -51 301c0 212.667 65.667 384.667 197 516c136 136 312.333 204 529 204c76 0 144.833 -7 206.5 -21s132.5 -38.667 212.5 -74
c28 -12.667 50 -19 66 -19c11.333 0 22.333 4.33301 33 13c8.66699 7.33301 15 12.333 19 15zM769.001 674.003c-101.333 0 -183.998 -25 -247.998 -75c-53.333 -41.333 -80 -95 -80 -161s26.667 -120 80 -162c63.333 -50 146.666 -75 249.999 -75s186.666 25 249.999 75
c53.333 42 80 95 80 159c0 67.333 -26.667 122 -80 164c-62.667 49.333 -146.667 74.333 -252 75z" />
    <glyph glyph-name="seven" unicode="7" horiz-adv-x="1461" 
d="M1041 1140l-851.002 -0.000976562c-20.667 0 -36.334 -4.5 -47.001 -13.5s-19.334 -25.5 -26.001 -49.5h-32v353h32c6.66699 -24.667 15.334 -41.667 26.001 -51s26.334 -14 47.001 -14h1080c20.667 0 36.334 4.66699 47.001 14s19.334 26.333 26.001 51h32v-261
l-614 -1012c-24 -39.333 -36 -64.666 -36 -75.999c0 -20 18.667 -36.333 56 -49v-32h-489v32c28.667 8 52.5 20.667 71.5 38s41.167 46.333 66.5 87z" />
    <glyph glyph-name="eight" unicode="8" horiz-adv-x="1461" 
d="M1081 730c203.333 -52.667 305 -159.666 305 -320.999c0 -108.667 -43 -203.334 -129 -284.001c-105.333 -99.333 -280.666 -149 -525.999 -149c-167.333 0 -305.333 24.333 -414 73c-69.333 31.333 -127 79.666 -173 144.999c-46 66.667 -69 138 -69 214
c0 162 101.667 269.333 305 322c-164 64.667 -246 162 -246 292c0 92 37.333 170.333 112 235c101.333 88 262.666 132 483.999 132c154.667 0 284 -23.333 388 -70c60.667 -27.333 110.667 -66.666 150 -117.999s59 -111 59 -179c0 -130 -82 -227.333 -246 -292zM728 1175
c-94 0 -168.501 -14.8311 -223.501 -44.498s-82.5 -69.834 -82.5 -120.501s27.667 -90.667 83 -120s130.333 -44 225 -44s169.834 14.667 225.501 44s83.5 68.666 83.5 117.999c0 52.667 -27.167 93.667 -81.5 123s-130.833 44 -229.5 44zM727.999 618.003
c-114 0 -204.667 -22.002 -272 -66.002c-50 -33.333 -75 -79.666 -75 -138.999c0 -63.333 31.167 -113.166 93.5 -149.499s147.5 -54.5 255.5 -54.5c117.333 0 209 22 275 66c50 34 75 79.333 75 136c0 65.333 -30.667 116 -92 152s-148 54.333 -260 55z" />
    <glyph glyph-name="nine" unicode="9" horiz-adv-x="1461" 
d="M75 79l177 327.001l28 -14c-4 -16.667 -6 -29.667 -6 -39c0 -26.667 21.333 -53.334 64 -80.001c35.333 -22 81 -40.167 137 -54.5s109.333 -21.5 160 -21.5c111.333 0 206.333 29 285 87c51.333 38.667 89.5 84.667 114.5 138s40.5 123.333 46.5 210
c-67.333 -60 -135.5 -103.167 -204.5 -129.5s-148.833 -39.5 -239.5 -39.5c-144.667 0 -268.667 34.333 -372 103c-58.667 39.333 -104.667 90.333 -138 153c-32 60.667 -48 127 -48 199c0 144 59.667 259 179 345c116 84 262.667 126 440 126
c193.333 0 344.666 -48.667 453.999 -146c72.667 -64 126.667 -146 162 -246c34 -96 51 -196.333 51 -301c0 -212.667 -65.667 -384.667 -197 -516c-136 -136 -312.333 -204 -529 -204c-76 0 -144.333 6.83301 -205 20.5s-132 38.5 -214 74.5c-28 12.667 -49.667 19 -65 19
c-11.333 0 -22.666 -4.33301 -33.999 -13c-8.66699 -7.33301 -15 -12.333 -19 -15zM690 1164c-102 0 -184.999 -25 -248.999 -75c-53.333 -41.333 -80 -95.333 -80 -162c0 -65.333 26.667 -119 80 -161c63.333 -50 146.333 -75 249 -75c103.333 0 186.666 25 249.999 75
c53.333 42 80 95 80 159c0 67.333 -26.667 122 -80 164c-62 49.333 -145.333 74.333 -250 75z" />
    <glyph glyph-name="colon" unicode=":" horiz-adv-x="628" 
d="M314 304c46 0 84.833 -16.001 116.5 -48.001s47.5 -71 47.5 -117c0 -44.667 -16.167 -83 -48.5 -115s-70.833 -48 -115.5 -48c-45.333 0 -84 16.167 -116 48.5s-48 71.166 -48 116.499c0 44.667 15.833 82.834 47.5 114.501s70.5 47.834 116.5 48.501zM314 1144
c46 0 84.833 -16.001 116.5 -48.001s47.5 -71 47.5 -117c0 -44.667 -16.167 -83 -48.5 -115s-70.833 -48 -115.5 -48c-45.333 0 -84 16.167 -116 48.5s-48 71.166 -48 116.499c0 44.667 15.833 82.834 47.5 114.501s70.5 47.834 116.5 48.501z" />
    <glyph glyph-name="semicolon" unicode=";" horiz-adv-x="628" 
d="M197 -250c54.667 36 94 71.001 118 105.001s41 78 51 132c-32 -7.33301 -55.333 -11 -70 -11c-44 0 -79.333 15.333 -106 46s-40 70.667 -40 120s13.5 88.666 40.5 117.999s62.833 44 107.5 44c60 0 106 -24.667 138 -74c28 -44.667 42 -98 42 -160
c0 -146.667 -77.667 -274.667 -233 -384zM314 1144c46 0 84.833 -16.001 116.5 -48.001s47.5 -71 47.5 -117c0 -44.667 -16.167 -83 -48.5 -115s-70.833 -48 -115.5 -48c-45.333 0 -84 16.167 -116 48.5s-48 71.166 -48 116.499c0 44.667 15.833 82.834 47.5 114.501
s70.5 47.834 116.5 48.501z" />
    <glyph glyph-name="less" unicode="&#x3c;" 
d="M955 1266v-289l-580 -294l580 -295v-288l-887 462v243z" />
    <glyph glyph-name="equal" unicode="=" horiz-adv-x="1570" 
d="M234 753l-0.000976562 324h30c5.33301 -24 13 -40.667 23 -50s24.333 -14 43 -14h910c18.667 0 32.834 4.66699 42.501 14s17.5 26 23.5 50h30v-324h-30c-6 24 -13.833 40.667 -23.5 50s-23.834 14 -42.501 14h-910c-19.333 0 -33.666 -4.66699 -42.999 -14
s-17.333 -26 -24 -50h-29zM233.999 288l-0.000976562 323.999h30c5.33301 -23.333 13 -39.666 23 -48.999s24.333 -14 43 -14h910c18.667 0 32.834 4.5 42.501 13.5s17.5 25.5 23.5 49.5h30v-324h-30c-6 24.667 -13.833 41.667 -23.5 51s-23.834 14 -42.501 14h-910
c-19.333 0 -33.666 -4.66699 -42.999 -14s-17.333 -26.333 -24 -51h-29z" />
    <glyph glyph-name="greater" unicode="&#x3e;" 
d="M69 1266l887 -461v-243l-887 -462v288l580 295l-580 294v289z" />
    <glyph glyph-name="question" unicode="?" horiz-adv-x="1000" 
d="M213 980l-172.002 252l26 18c20 -10 34 -15 42 -15c15.333 0 44 13.667 86 41c62.667 41.333 118.5 70.5 167.5 87.5s101.833 25.5 158.5 25.5c92 0 169 -21.667 231 -65c83.333 -58 125 -137.333 125 -238c0 -52.667 -13.333 -103 -40 -151s-72.667 -104 -138 -168
c-45.333 -44.667 -74.833 -79.834 -88.5 -105.501s-20.5 -58.834 -20.5 -99.501c0 -18 4 -31 12 -39s23.333 -15 46 -21v-32h-329v32c26.667 8.66699 44.334 19.834 53.001 33.501s16.667 44.167 24 91.5c7.33301 42.667 17.5 76.5 30.5 101.5s40.167 63.5 81.5 115.5
c37.333 46.667 62.5 82.834 75.5 108.501s19.5 52.5 19.5 80.5c0 43.333 -14.167 78.166 -42.5 104.499s-66.166 39.5 -113.499 39.5c-70.667 0 -131 -25.333 -181 -76c-23.333 -24 -35 -47 -35 -69c0 -7.33301 3 -18.666 9 -33.999zM499.998 304
c46 0 84.833 -16.001 116.5 -48.001s47.5 -71 47.5 -117c0 -44.667 -16.167 -83 -48.5 -115s-70.833 -48 -115.5 -48c-45.333 0 -84 16.167 -116 48.5s-48 71.166 -48 116.499c0 44.667 15.833 82.834 47.5 114.501s70.5 47.834 116.5 48.501z" />
    <glyph glyph-name="at" unicode="@" horiz-adv-x="1682" 
d="M1274 968l-113.996 -459.003c-2 -6.66699 -3 -13.667 -3 -21c0 -30 20.667 -45 62 -45c37.333 0 76.666 16.333 117.999 49c26.667 20.667 48 55.5 64 104.5s24 102.5 24 160.5c0 126 -44 230.667 -132 314c-58.667 56 -127.334 98.667 -206.001 128
c-71.333 26 -142 39 -212 39c-108.667 0 -215 -29 -319 -87c-105.333 -59.333 -184 -133.666 -236 -222.999c-42 -72.667 -63 -153.334 -63 -242.001c0 -99.333 25.667 -193.666 77 -282.999c106 -184 283.333 -276 532 -276c47.333 0 102 4.83301 164 14.5
s112.333 21.5 151 35.5c16 5.33301 24 15.666 24 30.999c0 4.66699 -0.333008 10 -1 16l24 6l67 -234l-24 -6c-16.667 32 -34.667 48 -54 48c-8 0 -19.667 -2 -35 -6c-136 -35.333 -249.667 -53 -341 -53c-196.667 0 -363.334 59 -500.001 177
c-154.667 132.667 -232 303.334 -232 512.001c0 146 37.333 276 112 390c80 122 194.333 211.667 343 269c102.667 39.333 209.334 59 320.001 59c200 0 368 -60 504 -180c124 -108.667 186 -246.667 186 -414c0 -151.333 -48 -270.666 -144 -357.999
c-64 -58 -128.333 -87 -193 -87c-50 0 -90.5 8.83301 -121.5 26.5s-59.833 48.5 -86.5 92.5c-39.333 -29.333 -87.5 -52.666 -144.5 -69.999s-115.5 -26 -175.5 -26c-82 0 -148.333 20 -199 60c-56 45.333 -84 106.333 -84 183c0 86.667 31.333 164.667 94 234
c41.333 46 93.166 82 155.499 108s127.833 39 196.5 39c93.333 0 174.666 -32.667 243.999 -98l22 72h136zM842.004 866.997c-66.667 0 -123.999 -18.3359 -171.999 -55.0029c-56 -43.333 -85.667 -99.333 -89 -168c-2 -43.333 12.167 -78.666 42.5 -105.999
s70.833 -41 121.5 -41c86.667 0 158 20.333 214 61c56 41.333 84 89 84 143c0 52.667 -17.333 93.334 -52 122.001s-84.334 43.334 -149.001 44.001z" />
    <glyph glyph-name="A" unicode="A" horiz-adv-x="1666" 
d="M1123 348l-620 -0.000976562l-92 -192c-12.667 -26.667 -19 -47.667 -19 -63c0 -29.333 22.333 -49.666 67 -60.999v-32h-452v32c26.667 5.33301 47 14.666 61 27.999s30 39.333 48 78l502 1049c16 33.333 24 60 24 80c0 30.667 -19.333 52.667 -58 66v32h484v-32
c-39.333 -11.333 -59 -31 -59 -59c0 -19.333 6.33301 -41.333 19 -66l520 -1052c22 -44.667 41.333 -75.167 58 -91.5s39 -27.166 67 -32.499v-32h-502v32c44 7.33301 66 28 66 62c0 14 -6.66699 34.667 -20 62zM1037 534.999l-221 486l-224 -486h445z" />
    <glyph glyph-name="B" unicode="B" horiz-adv-x="1651" 
d="M1339 715c153.333 -58 230 -165.337 230 -322.004c0 -124.667 -44.667 -222.334 -134 -293.001c-45.333 -35.333 -97.833 -60.833 -157.5 -76.5s-133.5 -23.5 -221.5 -23.5h-933v32c24 6.66699 40.667 15.334 50 26.001s14 26.334 14 47.001v1155
c0 20.667 -4.66699 36.334 -14 47.001s-26 19.334 -50 26.001v32h924c88.667 0 160 -6.66699 214 -20s101.333 -36 142 -68c80.667 -63.333 121 -154.666 121 -273.999c0 -133.333 -61.667 -229.333 -185 -288zM485 821.996l523 0.000976562
c79.333 0 134.666 11.667 165.999 35c35.333 26.667 53 68 53 124c0 57.333 -16.667 98.166 -50 122.499s-89.666 36.5 -168.999 36.5h-523v-318zM485 224.997h506.001c94 0 161.667 13 203 39c47.333 30 71 79 71 147c0 67.333 -23.667 116.333 -71 147
c-40.667 26 -108.334 39 -203.001 39h-506v-372z" />
    <glyph glyph-name="C" unicode="C" horiz-adv-x="1718" 
d="M1446 469l190 -285.001l-26 -18c-18.667 17.333 -34 26 -46 26s-45.667 -16 -101 -48c-114.667 -66 -211.167 -110.5 -289.5 -133.5s-171.5 -34.5 -279.5 -34.5c-215.333 0 -392 51 -530 153c-81.333 59.333 -145.333 133 -192 221c-54 100.667 -81 211.667 -81 333
c0 165.333 48.333 309 145 431c145.333 183.333 365 275 659 275c108 0 200.667 -11.333 278 -34s174 -67.334 290 -134.001c55.333 -31.333 89 -47 101 -47s27.333 8.66699 46 26l26 -18l-190 -285l-27 18c1.33301 10.667 2 19.667 2 27c0 19.333 -8.33301 37.5 -25 54.5
s-46.334 37.5 -89.001 61.5c-118 66.667 -243 100 -375 100c-156 0 -280.333 -39 -373 -117c-109.333 -91.333 -164 -210.666 -164 -357.999s54.667 -266.666 164 -357.999c92.667 -78 217 -117 373 -117c132 0 257 33.333 375 100c42.667 24 72.334 44.5 89.001 61.5
s25 35.167 25 54.5c0 7.33301 -0.666992 16 -2 26z" />
    <glyph glyph-name="D" unicode="D" horiz-adv-x="1717" 
d="M187 105v1154.99c0 20.667 -4.66699 36.334 -14 47.001s-26 19.334 -50 26.001v32h761c166.667 0 294.667 -19 384 -57c128 -55.333 222.667 -146.666 284 -273.999c48.667 -100 73 -217 73 -351c0 -235.333 -72.333 -414.666 -217 -537.999
c-60.667 -52 -131.667 -89.167 -213 -111.5s-185 -33.5 -311 -33.5h-761v32c24 6.66699 40.667 15.334 50 26.001s14 26.334 14 47.001zM485 224.994l374.002 0.000976562c119.333 0 209 16.333 269 49c128.667 70 193 206.333 193 409c0 146.667 -34.667 259 -104 337
c-38.667 43.333 -85.334 74.166 -140.001 92.499s-127.334 27.5 -218.001 27.5h-374v-915z" />
    <glyph glyph-name="E" unicode="E" horiz-adv-x="1556" 
d="M485 599v-374.003h878c20 0 35.333 4.66699 46 14s19.334 26 26.001 50h32v-353h-32c-6.66699 24 -15.334 40.667 -26.001 50s-26 14 -46 14h-1240v32c24 6.66699 40.667 15.334 50 26.001s14 26.334 14 47.001v1155c0 20.667 -4.66699 36.334 -14 47.001
s-26 19.334 -50 26.001v32h1216c20 0 35.333 4.83301 46 14.5s19.334 26.5 26.001 50.5h32v-353h-32c-6.66699 23.333 -15.334 39.666 -26.001 48.999s-26 14 -46 14h-854v-324h554c20 0 35.333 4.66699 46 14s19.334 26 26.001 50h32v-345h-32
c-6.66699 23.333 -15.334 39.833 -26.001 49.5s-26 14.5 -46 14.5h-554z" />
    <glyph glyph-name="F" unicode="F" horiz-adv-x="1490" 
d="M485 597v-492.003c0 -20.667 4.83301 -36.5 14.5 -47.5s26.167 -19.5 49.5 -25.5v-32h-426v32c24 6.66699 40.667 15.334 50 26.001s14 26.334 14 47.001v1155c0 20.667 -4.66699 36.334 -14 47.001s-26 19.334 -50 26.001v32h1208c20 0 35.333 4.66699 46 14
s19.334 26.333 26.001 51h32v-353h-32c-6.66699 24 -15.334 40.5 -26.001 49.5s-26 13.5 -46 13.5h-846v-326h553c20.667 0 36.334 4.83301 47.001 14.5s19.334 26.5 26.001 50.5h32v-345h-32c-6.66699 23.333 -15.334 39.666 -26.001 48.999s-26.334 14 -47.001 14h-553z
" />
    <glyph glyph-name="G" unicode="G" horiz-adv-x="1757" 
d="M1337 491l-336.998 0.00390625c-20.667 0 -36.167 -4.66699 -46.5 -14s-18.833 -26 -25.5 -50h-32v318h32c6.66699 -24.667 15.167 -41.5 25.5 -50.5s25.833 -13.5 46.5 -13.5h648v-32c-24 -6.66699 -40.833 -15.334 -50.5 -26.001s-14.5 -26.334 -14.5 -47.001v-280
c0 -20.667 4.66699 -36.334 14 -47.001s26.333 -19.334 51 -26.001v-25c-259.333 -148 -510.666 -222 -753.999 -222c-220.667 0 -400.667 52.333 -540 157c-175.333 132 -263 315.333 -263 550c0 218.667 78 392.667 234 522c148 122.667 344.667 184 590 184
c78 0 151.5 -7.16699 220.5 -21.5s147.5 -38.5 235.5 -72.5c45.333 -18 77.666 -27 96.999 -27c14 0 30.333 7.66699 49 23l28 -15l-160 -327l-29 15c-0.666992 22 -3.66699 37.833 -9 47.5s-17.333 21.5 -36 35.5c-40.667 30.667 -100.334 56.834 -179.001 78.501
s-153 32.5 -223 32.5c-142.667 0 -261 -40 -355 -120c-106 -90.667 -159 -210.334 -159 -359.001c0 -144 51.667 -260.333 155 -349c94.667 -81.333 219.334 -122 374.001 -122c75.333 0 149.666 8.66699 222.999 26s136.666 41 189.999 71v186z" />
    <glyph glyph-name="H" unicode="H" horiz-adv-x="1757" 
d="M1272 596h-787v-492c0 -20 4.83301 -35.5 14.5 -46.5s26.167 -19.5 49.5 -25.5v-32h-426v32c24 6.66699 40.667 15.334 50 26.001s14 26 14 46v1157c0 20 -4.66699 35.333 -14 46s-26 19.334 -50 26.001v32h426v-32c-24 -6 -40.667 -14.5 -50 -25.5s-14 -26.5 -14 -46.5
v-440h787v440c0 20 -4.66699 35.5 -14 46.5s-26 19.5 -50 25.5v32h426v-32c-24 -6.66699 -40.667 -15.334 -50 -26.001s-14 -26 -14 -46v-1157c0 -20 4.66699 -35.333 14 -46s26 -19.334 50 -26.001v-32h-426v32c23.333 6 39.833 14.5 49.5 25.5s14.5 26.5 14.5 46.5v492z
" />
    <glyph glyph-name="I" unicode="I" horiz-adv-x="671" 
d="M187 105v1156c0 20 -4.66699 35.333 -14 46s-26 19.334 -50 26.001v32h426v-32c-24 -6 -40.667 -14.5 -50 -25.5s-14 -26.5 -14 -46.5v-1156c0 -20.667 4.83301 -36.5 14.5 -47.5s26.167 -19.5 49.5 -25.5v-32h-426v32c24 6.66699 40.667 15.334 50 26.001
s14 26.334 14 47.001z" />
    <glyph glyph-name="J" unicode="J" horiz-adv-x="1238" 
d="M6 52l128.002 345.999l30 -11c-0.666992 -8 -1 -14.667 -1 -20c0 -27.333 17 -52.666 51 -75.999c36 -23.333 84.167 -43 144.5 -59s118.166 -24 173.499 -24c89.333 0 154.333 20.333 195 61c20.667 20.667 34.667 45.167 42 73.5s11 71.166 11 128.499v789
c0 20.667 -4.66699 36.334 -14 47.001s-26 19.334 -50 26.001v32h426v-32c-24 -6.66699 -40.667 -15.334 -50 -26.001s-14 -26.334 -14 -47.001v-804c0 -132 -18.333 -227.333 -55 -286c-38.667 -62 -96 -109.833 -172 -143.5s-164.667 -50.5 -266 -50.5
c-58 0 -108.333 3.83301 -151 11.5s-112.334 25.834 -209.001 54.501c-60 17.333 -102.667 26 -128 26c-22 0 -42.333 -9.33301 -61 -28z" />
    <glyph glyph-name="K" unicode="K" horiz-adv-x="1642" 
d="M690 638l-205.002 -167.002v-366c0 -20.667 4.83301 -36.5 14.5 -47.5s26.167 -19.5 49.5 -25.5v-32h-426v32c24 6.66699 40.667 15.334 50 26.001s14 26.334 14 47.001v1156c0 20 -4.66699 35.333 -14 46s-26 19.334 -50 26.001v32h426v-32
c-24 -6 -40.667 -14.5 -50 -25.5s-14 -26.5 -14 -46.5v-478l562 459c26 21.333 39 38.333 39 51c0 19.333 -19.333 32.666 -58 39.999v32h558v-32c-23.333 -4.66699 -40 -10 -50 -16s-39 -28.667 -87 -68l-77 -64l-464 -373l526 -633
c48.667 -58.667 83.834 -96.5 105.501 -113.5s48.834 -28.167 81.501 -33.5v-32h-533v32c35.333 7.33301 53 20 53 38c0 9.33301 -16 34 -48 74z" />
    <glyph glyph-name="L" unicode="L" horiz-adv-x="1449" 
d="M485 225l839 -0.00390625c20.667 0 36.334 4.66699 47.001 14s19.334 26 26.001 50h32v-353h-32c-6.66699 24 -15.334 40.667 -26.001 50s-26.334 14 -47.001 14h-1201v32c24 6.66699 40.667 15.334 50 26.001s14 26.334 14 47.001v1155
c0 20.667 -4.66699 36.334 -14 47.001s-26 19.334 -50 26.001v32h426v-32c-24 -6 -40.667 -14.5 -50 -25.5s-14 -26.833 -14 -47.5v-1035z" />
    <glyph glyph-name="M" unicode="M" horiz-adv-x="1979" 
d="M963 19l-503 924.002v-838c0 -20.667 4.66699 -36.334 14 -47.001s26 -19.334 50 -26.001v-32h-401v32c24 6.66699 40.667 15.334 50 26.001s14 26.334 14 47.001v1156c0 20 -4.66699 35.333 -14 46s-26 19.334 -50 26.001v32h526v-32c-31.333 -8 -47 -26.333 -47 -55
c0 -13.333 4.66699 -28.666 14 -45.999l372 -686l377 674c16.667 30.667 25 53 25 67c0 27.333 -16.667 42.666 -50 45.999v32h516v-32c-24 -6.66699 -40.667 -15.334 -50 -26.001s-14 -26 -14 -46v-1156c0 -20.667 4.66699 -36.334 14 -47.001s26 -19.334 50 -26.001v-32
h-426v32c23.333 6 39.833 14.5 49.5 25.5s14.5 26.833 14.5 47.5v838z" />
    <glyph glyph-name="N" unicode="N" horiz-adv-x="1785" 
d="M460 935v-829.999c0 -20.667 4.66699 -36.334 14 -47.001s26 -19.334 50 -26.001v-32h-401v32c24 6.66699 40.667 15.334 50 26.001s14 26.334 14 47.001v1156c0 20 -4.66699 35.333 -14 46s-26 19.334 -50 26.001v32h464v-32c-28.667 -7.33301 -43 -22.666 -43 -45.999
c0 -16 9.33301 -33.667 28 -53l753 -783v810c0 20 -4.66699 35.333 -14 46s-26 19.334 -50 26.001v32h401v-32c-24 -6.66699 -40.667 -15.334 -50 -26.001s-14 -26 -14 -46v-1156c0 -20.667 4.66699 -36.334 14 -47.001s26 -19.334 50 -26.001v-32h-430v32
c28 6 42 20.333 42 43c0 13.333 -16.333 36.666 -49 69.999z" />
    <glyph glyph-name="O" unicode="O" horiz-adv-x="1752" 
d="M873 1389c238 0 426.668 -64.333 566.001 -193c147.333 -134.667 221 -308.667 221 -522c0 -130.667 -35.333 -252.667 -106 -366c-138 -221.333 -364.333 -332 -679 -332c-236 0 -423.667 64.333 -563 193c-74.667 68.667 -131.334 151 -170.001 247
c-34 84.667 -51 173.667 -51 267c0 136.667 35 261.667 105 375c134 216.667 359.667 327 677 331zM874.001 1158c-130 0 -238.333 -38.667 -325 -116c-102.667 -91.333 -154 -211 -154 -359s51.333 -267.667 154 -359c86.667 -77.333 195.667 -116 327 -116
s240 38.667 326 116c51.333 46 90.666 102.333 117.999 169c24 59.333 36 120.666 36 183.999c0 154.667 -51.333 276.334 -154 365.001c-87.333 76 -196.666 114.667 -327.999 116z" />
    <glyph glyph-name="P" unicode="P" horiz-adv-x="1567" 
d="M485 554l0.000976562 -450.003c0 -20 4.83301 -35.5 14.5 -46.5s26.167 -19.5 49.5 -25.5v-32h-426v32c24 6.66699 40.667 15.334 50 26.001s14 26 14 46v1156c0 20.667 -4.66699 36.334 -14 47.001s-26 19.334 -50 26.001v32h852c99.333 0 178.166 -6.66699 236.499 -20
s109.833 -36.333 154.5 -69c46 -34 82 -78.667 108 -134c26 -57.333 39 -118 39 -182c0 -92 -24.667 -172.667 -74 -242c-42.667 -59.333 -99.167 -101.5 -169.5 -126.5s-168.5 -37.5 -294.5 -37.5h-490zM485.001 778.997l454.999 -0.00292969
c90.667 0 154.334 9.66699 191.001 29c23.333 12.667 42.166 32.834 56.499 60.501s21.5 58.167 21.5 91.5c0 32.667 -7.16699 62.834 -21.5 90.501s-33.166 47.834 -56.499 60.501c-36 19.333 -99.667 29 -191 29h-455v-361z" />
    <glyph glyph-name="Q" unicode="Q" horiz-adv-x="1752" 
d="M1447 176l106.002 -110.001c24 -25.333 40.167 -40.833 48.5 -46.5s18.166 -8.5 29.499 -8.5c9.33301 0 24.666 4.33301 45.999 13l21 -24l-292 -266l-22 24c13.333 22 20 38.333 20 49c0 12 -18.667 40.333 -56 85l-118 144c-98.667 -40 -218.667 -60 -360 -60
c-232.667 0 -418.667 64.333 -558 193c-74.667 68.667 -131.334 151 -170.001 247c-34 84.667 -51 173.667 -51 267c0 136.667 35.333 261.334 106 374.001c137.333 221.333 363.666 332 678.999 332c236.667 0 424.334 -64.333 563.001 -193
c74.667 -68.667 131.334 -150.667 170.001 -246c34 -84.667 51 -173.667 51 -267c0 -200.667 -71 -369.667 -213 -507zM1250 374.999c70.667 88 105.999 191 105.999 309c0 147.333 -51.333 266.666 -154 357.999c-86 77.333 -194.667 116 -326 116
c-132 0 -241 -38.667 -327 -116c-102.667 -92 -154 -211.667 -154 -359c0 -148 51.333 -267.667 154 -359c86.667 -77.333 196 -116 328 -116c62.667 0 124 10.667 184 32l-19 24c-70.667 90.667 -154 147.334 -250 170.001v28c48 37.333 102.667 56 164 56
c44 0 87.833 -10.667 131.5 -32s97.834 -58.333 162.501 -111z" />
    <glyph glyph-name="R" unicode="R" horiz-adv-x="1656" 
d="M485 557l-0.000976562 -453.004c0 -20 4.83301 -35.5 14.5 -46.5s26.167 -19.5 49.5 -25.5v-32h-426v32c24 6.66699 40.667 15.334 50 26.001s14 26 14 46v1156c0 20.667 -4.66699 36.334 -14 47.001s-26 19.334 -50 26.001v32h854c104 0 186.5 -6 247.5 -18
s114.167 -33 159.5 -63c52.667 -34.667 92 -81.667 118 -141c24.667 -57.333 37 -118.666 37 -183.999c0 -222.667 -123.667 -353 -371 -391l265 -377c46.667 -66 80.834 -108.5 102.501 -127.5s48.167 -29.5 79.5 -31.5v-32h-494v32c34 5.33301 51 17.333 51 36
c0 12 -15.667 41 -47 87l-276 402h-364zM484.999 781.996l460 0.00195312c68 0 116 2 144 6s53.667 12.333 77 25c50.667 27.333 76 76.666 76 147.999s-25.333 120.666 -76 147.999c-24 13.333 -49.5 21.833 -76.5 25.5s-75.167 5.5 -144.5 5.5h-460v-358z" />
    <glyph glyph-name="S" unicode="S" horiz-adv-x="1475" 
d="M1393 1250l-163.001 -321l-28 16c0.666992 6.66699 1 12 1 16c0 22.667 -19.333 47 -58 73c-118.667 82.667 -258 124 -418 124c-70.667 0 -133 -8.66699 -187 -26c-39.333 -13.333 -71.166 -33.333 -95.499 -60s-36.5 -55.667 -36.5 -87c0 -51.333 31 -86.333 93 -105
c32 -9.33301 100.667 -19.333 206 -30l157 -16c93.333 -10 168.833 -23.667 226.5 -41s108.834 -41.666 153.501 -72.999c45.333 -32.667 81.166 -75.667 107.499 -129s39.5 -110.333 39.5 -171c0 -96 -31 -181.333 -93 -256c-56 -68 -143 -118.333 -261 -151
c-88 -24.667 -182.333 -37 -283 -37c-180.667 0 -359 43.333 -535 130c-37.333 17.333 -59.666 26 -66.999 26c-8.66699 0 -22.334 -7.33301 -41.001 -22l-29 15l148 335l29 -14v-13c0 -30 14.333 -57.667 43 -83c43.333 -38.667 110.333 -72 201 -100s176.667 -42 258 -42
c88.667 0 164.334 15 227.001 45c34.667 16.667 62.334 38.834 83.001 66.501s31 56.5 31 86.5c0 45.333 -24.333 77.666 -73 96.999c-34 13.333 -102.667 25.666 -206 36.999l-154 16c-103.333 10.667 -176.333 20.834 -219 30.501s-85.334 25.167 -128.001 46.5
c-60.667 30 -108.334 75 -143.001 135c-31.333 54 -47 116 -47 186c0 115.333 39.667 210.666 119 285.999c104 99.333 260 149 468 149c87.333 0 168.666 -8.83301 243.999 -26.5s169.333 -50.167 282 -97.5c38.667 -15.333 62.334 -23 71.001 -23
c14 0 30.333 7.66699 49 23z" />
    <glyph glyph-name="T" unicode="T" horiz-adv-x="1381" 
d="M840 1140l0.00195312 -1035c0 -20.667 4.66699 -36.334 14 -47.001s26 -19.334 50 -26.001v-32h-426v32c24 6.66699 40.667 15.334 50 26.001s14 26.334 14 47.001v1035h-424c-20 0 -35.333 -4.5 -46 -13.5s-19.334 -25.5 -26.001 -49.5h-32v353h32
c7.33301 -24.667 16.166 -41.667 26.499 -51s25.5 -14 45.5 -14h1145c20.667 0 36.334 4.66699 47.001 14s19.334 26.333 26.001 51h32v-353h-32c-6.66699 24 -15.334 40.5 -26.001 49.5s-26.334 13.5 -47.001 13.5h-423z" />
    <glyph glyph-name="U" unicode="U" horiz-adv-x="1671" 
d="M1512 1260l-0.000976562 -765.002c0 -144.667 -26.667 -253 -80 -325c-96 -129.333 -294.333 -194 -595 -194c-217.333 0 -383.666 35 -498.999 105c-67.333 40.667 -114 96 -140 166c-25.333 69.333 -38 152 -38 248v765c0 20.667 -4.66699 36.334 -14 47.001
s-26 19.334 -50 26.001v32h427v-32c-24 -6 -40.833 -14.5 -50.5 -25.5s-14.5 -26.833 -14.5 -47.5v-681c0 -78.667 4.33301 -136.834 13 -174.501s25 -69.167 49 -94.5c64 -68 173.333 -102 328 -102c155.333 0 265 34 329 102c23.333 25.333 39.333 56.833 48 94.5
s13 95.834 13 174.501v681c0 20.667 -4.66699 36.334 -14 47.001s-26 19.334 -50 26.001v32h402v-32c-24 -6.66699 -40.667 -15.334 -50 -26.001s-14 -26.334 -14 -47.001z" />
    <glyph glyph-name="V" unicode="V" horiz-adv-x="1577" 
d="M797 396l361.998 801.999c15.333 34 23 60.333 23 79c0 28.667 -22 47.334 -66 56.001v32h467v-32c-29.333 -4 -49.666 -12.333 -60.999 -25s-31 -49.334 -59 -110.001l-473 -1021c-20 -43.333 -30 -71.666 -30 -84.999c0 -34 21 -54 63 -60v-32h-470v32
c42 6 63 26.333 63 61c0 12.667 -10 40.667 -30 84l-473 1021c-28 60.667 -47.667 97.334 -59 110.001s-31.666 21 -60.999 25v32h485v-32c-44 -8.66699 -66 -27.334 -66 -56.001c0 -18.667 7.66699 -45 23 -79z" />
    <glyph glyph-name="W" unicode="W" horiz-adv-x="2311" 
d="M1157 961l-312 -787.997c-18 -40 -27 -65.333 -27 -76c0 -30.667 24.667 -52.334 74 -65.001v-32h-439v32c44.667 8.66699 67 31.334 67 68.001c0 10 -9.33301 39.667 -28 89l-391 1007c-19.333 50 -36.833 83.833 -52.5 101.5s-38.5 29.5 -68.5 35.5v32h474v-32
c-42 -9.33301 -63 -29 -63 -59c0 -15.333 5.33301 -37.333 16 -66l270 -722l292 726c12.667 31.333 19 52 19 62c0 30.667 -22.333 50.334 -67 59.001v32h496v-32c-45.333 -12 -68 -33.667 -68 -65c0 -10.667 5.66699 -30.667 17 -60l278 -725l269 713
c14 35.333 21 61.666 21 78.999c0 29.333 -24 48.666 -72 57.999v32h469v-32c-33.333 -9.33301 -56.333 -21.333 -69 -36s-29.334 -48.334 -50 -101.001l-391 -1007c-18.667 -48 -28 -80 -28 -96c0 -32.667 23.667 -53 71 -61v-32h-445v32
c46.667 7.33301 70 29.666 70 66.999c0 12.667 -10.333 42.667 -31 90z" />
    <glyph glyph-name="X" unicode="X" horiz-adv-x="1541" 
d="M943 711l412.999 -535c45.333 -58.667 77.833 -96 97.5 -112s46.834 -26.667 81.501 -32v-32h-541v32c40 8 60 25.333 60 52c0 14 -12 36.667 -36 68l-263 338l-250 -327c-27.333 -35.333 -41 -60.333 -41 -75c0 -33.333 22.333 -52 67 -56v-32h-524v32
c30.667 3.33301 54.5 12 71.5 26s51.167 53.333 102.5 118l412 520l-379 496c-49.333 64.667 -82.166 103.5 -98.499 116.5s-42.5 21.167 -78.5 24.5l-1 32h548v-32c-40 -10.667 -60 -31 -60 -61c0 -16 14.333 -42.667 43 -80l214 -275l217 275
c32 40.667 48 69.334 48 86.001c0 29.333 -23 47.666 -69 54.999v32h533v-32c-32 -3.33301 -54.833 -10.5 -68.5 -21.5s-48.834 -50.833 -105.501 -119.5z" />
    <glyph glyph-name="Y" unicode="Y" horiz-adv-x="1460" 
d="M879 571v-466c0 -20.667 4.83301 -36.334 14.5 -47.001s26.5 -19.334 50.5 -26.001v-32h-429v32c24 6.66699 41 15.334 51 26.001s15 26.334 15 47.001v466l-441 621c-38 53.333 -67.833 89.166 -89.5 107.499s-47.5 29.5 -77.5 33.5v32h539v-32
c-44.667 -7.33301 -67 -28 -67 -62c0 -12 13.667 -38.333 41 -79l246 -366l253 366c27.333 39.333 41 66 41 80c0 15.333 -6 28.5 -18 39.5s-28.333 18.167 -49 21.5v32h528v-32c-30 -4 -55.833 -15.167 -77.5 -33.5s-51.5 -54.166 -89.5 -107.499z" />
    <glyph glyph-name="Z" unicode="Z" horiz-adv-x="1462" 
d="M566 225h710.003c20 0 35.333 4.66699 46 14s19.334 26 26.001 50h32v-353h-32c-6.66699 24 -15.334 40.667 -26.001 50s-26 14 -46 14h-1194v70l794 1070h-683c-20.667 0 -36.334 -4.5 -47.001 -13.5s-19.334 -25.5 -26.001 -49.5h-32v353h32
c7.33301 -24.667 16.166 -41.667 26.499 -51s25.833 -14 46.5 -14h1176v-57z" />
    <glyph glyph-name="bracketleft" unicode="[" horiz-adv-x="683" 
d="M134 1475l430 0.000976562c21.333 0 37.333 4.66699 48 14s19.667 26 27 50h27v-268h-27c-6.66699 24 -15.5 40.833 -26.5 50.5s-27.167 14.5 -48.5 14.5h-147v-1306h134c28 0 47.833 4.33301 59.5 13s21.167 26 28.5 52h27v-268h-27
c-6.66699 23.333 -15.667 39.833 -27 49.5s-27.333 14.5 -48 14.5l-430 -1v25c23.333 6 39.833 14.167 49.5 24.5s14.5 25.166 14.5 44.499v1396c0 19.333 -4.83301 34.333 -14.5 45s-26.167 19 -49.5 25v25z" />
    <glyph glyph-name="backslash" unicode="\" horiz-adv-x="1555" 
d="M519 1192l788 -1016c46.667 -59.333 79.667 -96.833 99 -112.5s46 -26.167 80 -31.5v-32h-468v32c40 8 60 25.333 60 52c0 14 -12 36.667 -36 68l-804 1040c-48 63.333 -79.833 101.5 -95.5 114.5s-40.5 21.833 -74.5 26.5v32h467v-32c-40 -10.667 -60 -31 -60 -61
c0 -16 14.667 -42.667 44 -80z" />
    <glyph glyph-name="bracketright" unicode="]" horiz-adv-x="683" 
d="M548 1475v-25c-23.333 -6 -39.833 -14.333 -49.5 -25s-14.5 -25.667 -14.5 -45v-1396c0 -19.333 4.83301 -34 14.5 -44s26.167 -18.333 49.5 -25v-25l-430 1c-20.667 0 -36.667 -4.83301 -48 -14.5s-20.333 -26.167 -27 -49.5h-27v268h27
c7.33301 -26 16.833 -43.333 28.5 -52s31.5 -13 59.5 -13h134v1306h-147c-21.333 0 -37.5 -4.83301 -48.5 -14.5s-19.833 -26.5 -26.5 -50.5h-27v268h27c7.33301 -24 16.333 -40.667 27 -50s26.667 -14 48 -14h430z" />
    <glyph glyph-name="asciicircum" unicode="^" 
d="M293 723h-258l316 650h323l316 -650h-259l-219 453z" />
    <glyph glyph-name="underscore" unicode="_" 
d="M0 -119h1024v-174h-1024v174z" />
    <glyph glyph-name="grave" unicode="`" 
d="M246 1533l304 0.000976562v-27c-18.667 -2 -28 -8.33301 -28 -19c0 -4 1.33301 -9 4 -15l66 -163c6 -14.667 12.333 -24.334 19 -29.001s18 -7 34 -7v-27h-217v27h5c13.333 0 20 5.33301 20 16c0 6 -2 11.333 -6 16l-142 174c-13.333 17.333 -33 26.333 -59 27v27z" />
    <glyph glyph-name="a" unicode="a" horiz-adv-x="1421" 
d="M947 280l-514.997 0.00390625l-58 -122c-14 -29.333 -21 -52.333 -21 -69c0 -32 21.333 -52.333 64 -61v-28h-412v28c25.333 4 44.166 11.667 56.499 23s26.833 33.666 43.5 66.999l409 828c15.333 31.333 23 58.666 23 81.999c0 27.333 -18.667 48.666 -56 63.999v28
h435v-28c-36.667 -14.667 -55 -37.334 -55 -68.001c0 -22 8.33301 -49 25 -81l424 -803c23.333 -44 41.666 -72.5 54.999 -85.5s33.666 -22.167 60.999 -27.5v-27h-457v27c43.333 7.33301 65 27.666 65 60.999c0 20.667 -8.33301 46.334 -25 77.001zM866.003 437.004
l-183 359l-174 -359h357z" />
    <glyph glyph-name="b" unicode="b" horiz-adv-x="1387" 
d="M1127 602c55.333 -25.333 96.001 -50.6689 122.001 -76.002c48.667 -48 73 -112.667 73 -194c0 -109.333 -41.333 -193.666 -124 -252.999c-73.333 -52.667 -174.333 -79 -303 -79h-797v28c23.333 6 39.833 14.667 49.5 26s14.5 27.333 14.5 48v916
c0 20.667 -4.66699 36.334 -14 47.001s-26 19.667 -50 27v28h784c137.333 0 238 -24.667 302 -74c68 -52 102 -123.333 102 -214c0 -53.333 -11.833 -97 -35.5 -131s-64.834 -67 -123.501 -99zM430.001 699.997l407 0.000976562c64 0 109.333 8.16699 136 24.5
s40 44.5 40 84.5c0 39.333 -13.167 67.166 -39.5 83.499s-71.833 24.5 -136.5 24.5h-407v-217zM430.001 202.998h417c134.667 0 202 49 202 147s-67.333 147 -202 147h-417v-294z" />
    <glyph glyph-name="c" unicode="c" horiz-adv-x="1427" 
d="M1193 401l168.999 -245.998l-23 -17c-16 11.333 -28.667 17 -38 17c-11.333 0 -37.666 -12.333 -78.999 -37c-91.333 -53.333 -172 -90.333 -242 -111s-150.667 -31 -242 -31c-182.667 0 -331.667 43.667 -447 131c-65.333 50 -117.333 112.667 -156 188
c-41.333 81.333 -62 169.666 -62 264.999c0 131.333 38 247.333 114 348c119.333 157.333 302.333 236 549 236c91.333 0 172.5 -10.333 243.5 -31s151.833 -57.667 242.5 -111c41.333 -24.667 67.666 -37 78.999 -37c9.33301 0 22 5.66699 38 17l23 -18l-169 -245l-22 16
c0.666992 8 1.33398 13 2.00098 15c0.666992 6 1 10.333 1 13c0 32.667 -45 69.667 -135 111c-85.333 39.333 -171.333 59 -258 59c-121.333 0 -221.333 -32 -300 -96c-90 -72 -135 -164.333 -135 -277c0 -113.333 45 -206 135 -278c79.333 -63.333 179.333 -95 300 -95
c94.667 0 189 23.667 283 71c73.333 37.333 110 70 110 98c0 1.33301 -1 10.666 -3 27.999z" />
    <glyph glyph-name="d" unicode="d" horiz-adv-x="1441" 
d="M162 102l-0.00195312 915.998c0 20.667 -4.66699 36.334 -14 47.001s-26 19.667 -50 27v28h657c136.667 0 244.334 -17 323.001 -51c110.667 -48 190.334 -127.333 239.001 -238c34 -77.333 51 -167.666 51 -270.999c0 -191.333 -57 -336.333 -171 -435
c-51.333 -44 -111.833 -75.833 -181.5 -95.5s-156.5 -29.5 -260.5 -29.5h-657v28c23.333 6 39.833 14.667 49.5 26s14.5 27.333 14.5 48zM429.998 202.998l286 0.000976562c131.333 0 226.666 30 285.999 90c62 62.667 93 151.667 93 267s-31 204.333 -93 267
c-30.667 31.333 -68.667 54.166 -114 68.499s-102.666 21.5 -171.999 21.5h-286v-714z" />
    <glyph glyph-name="e" unicode="e" horiz-adv-x="1314" 
d="M430 476v-273.001h711c20.667 0 36.5 4.66699 47.5 14s19.833 26.333 26.5 51h28v-332h-28c-6 23.333 -14.667 39.833 -26 49.5s-27.333 14.5 -48 14.5h-1043v28c23.333 6 39.833 14.667 49.5 26s14.5 27.333 14.5 48v916c0 20.667 -4.66699 36.334 -14 47.001
s-26 19.667 -50 27v28h1012c21.333 0 37.5 4.66699 48.5 14s19.833 26 26.5 50h27v-332h-27c-6.66699 24.667 -15.5 41.667 -26.5 51s-27.167 14 -48.5 14h-680v-246h422c20.667 0 36.5 4.66699 47.5 14s20.167 26 27.5 50h27v-324h-27c-6.66699 24 -15.5 40.833 -26.5 50.5
s-27.167 14.5 -48.5 14.5h-422z" />
    <glyph glyph-name="f" unicode="f" horiz-adv-x="1248" 
d="M430 476v-374.001c0 -20.667 4.66699 -36.5 14 -47.5s26 -20.167 50 -27.5v-27h-396v28c23.333 6 39.833 14.667 49.5 26s14.5 27.333 14.5 48v916c0 20.667 -4.66699 36.334 -14 47.001s-26 19.667 -50 27v28h1004c21.333 0 37.5 4.66699 48.5 14s19.833 26 26.5 50h27
v-332h-27c-6.66699 24 -15.5 40.833 -26.5 50.5s-27.167 14.5 -48.5 14.5h-672v-246h422c21.333 0 37.333 4.66699 48 14s19.667 26 27 50h27v-324h-27c-6.66699 24 -15.5 40.833 -26.5 50.5s-27.167 14.5 -48.5 14.5h-422z" />
    <glyph glyph-name="g" unicode="g" horiz-adv-x="1474" 
d="M1108 432l-254.998 -0.000976562c-21.333 0 -37.5 -4.66699 -48.5 -14s-19.833 -26 -26.5 -50h-27v296h27c6.66699 -23.333 15.5 -39.666 26.5 -48.999s27.167 -14 48.5 -14h533v-29c-23.333 -6.66699 -39.833 -16.334 -49.5 -29.001s-14.5 -30.667 -14.5 -54v-236
c0 -20.667 4.83301 -36.667 14.5 -48s26.167 -20.333 49.5 -27v-23c-216 -119.333 -431.333 -179 -646 -179c-185.333 0 -335.333 43.667 -450 131c-62 48 -112 107.333 -150 178c-44.667 84 -67 173.667 -67 269c0 132 40.667 249.333 122 352
c126.667 158.667 314 238 562 238c108.667 0 232.667 -24 372 -72c55.333 -18.667 87.666 -28 96.999 -28c11.333 0 24.666 5.33301 39.999 16l24 -13l-133 -282l-24 12v6c0 24.667 -24.667 50 -74 76c-91.333 48.667 -189.333 73 -294 73c-120.667 0 -219.667 -33 -297 -99
c-81.333 -69.333 -122 -162.666 -122 -279.999c0 -110 37 -198 111 -264c76 -67.333 182.667 -101 320 -101c130.667 0 241 24.333 331 73v171z" />
    <glyph glyph-name="h" unicode="h" horiz-adv-x="1486" 
d="M1055 487l-625 -0.00195312v-385c0 -20.667 4.66699 -36.5 14 -47.5s26 -20.167 50 -27.5v-27h-396v28c23.333 6 39.833 14.667 49.5 26s14.5 27.333 14.5 48v916c0 20.667 -4.66699 36.334 -14 47.001s-26 19.667 -50 27v28h396v-28
c-24 -6.66699 -40.667 -15.5 -50 -26.5s-14 -26.833 -14 -47.5v-328h625v328c0 20.667 -4.5 36.334 -13.5 47.001s-25.833 19.667 -50.5 27v28h396v-28c-24 -6.66699 -40.667 -15.5 -50 -26.5s-14 -26.833 -14 -47.5v-916c0 -20.667 4.66699 -36.5 14 -47.5
s26 -20.167 50 -27.5v-27h-396v28c23.333 6 39.833 14.667 49.5 26s14.5 27.333 14.5 48v385z" />
    <glyph glyph-name="i" unicode="i" horiz-adv-x="593" 
d="M430 1018v-916.001c0 -20.667 4.66699 -36.5 14 -47.5s26 -20.167 50 -27.5v-27h-396v28c23.333 6 39.833 14.667 49.5 26s14.5 27.333 14.5 48v916c0 20.667 -4.66699 36.334 -14 47.001s-26 19.667 -50 27v28h396v-28c-24 -6.66699 -40.667 -15.5 -50 -26.5
s-14 -26.833 -14 -47.5z" />
    <glyph glyph-name="j" unicode="j" horiz-adv-x="1035" 
d="M5 30l99.001 305l26 -9c0 -24 7.33301 -43 22 -57c21.333 -20.667 58.833 -39.334 112.5 -56.001s104.167 -25 151.5 -25c71.333 0 124.166 16 158.499 48s51.5 81.333 51.5 148v634c0 20.667 -4.66699 36.334 -14 47.001s-26 19.667 -50 27v28h396v-28
c-24 -6.66699 -40.667 -15.5 -50 -26.5s-14 -26.833 -14 -47.5v-639c0 -122.667 -20.667 -210.667 -62 -264c-34 -44 -84.333 -78.167 -151 -102.5s-142.334 -36.5 -227.001 -36.5c-93.333 0 -208.666 22 -345.999 66c-12.667 4 -23 6 -31 6
c-15.333 0 -30.333 -8.66699 -45 -26z" />
    <glyph glyph-name="k" unicode="k" horiz-adv-x="1403" 
d="M589 511l-159 -130.001v-279c0 -20.667 4.66699 -36.5 14 -47.5s26 -20.167 50 -27.5v-27h-396v28c23.333 6 39.833 14.667 49.5 26s14.5 27.333 14.5 48v916c0 20.667 -4.66699 36.334 -14 47.001s-26 19.667 -50 27v28h396v-28c-24 -6.66699 -40.667 -15.5 -50 -26.5
s-14 -26.833 -14 -47.5v-367l421 336c31.333 24.667 47 46.334 47 65.001c0 20 -19.333 33.333 -58 40v28h504v-27c-25.333 -4 -46.5 -11.667 -63.5 -23s-59.167 -46.333 -126.5 -105l-378 -301l416 -478c53.333 -62 91.5 -102.333 114.5 -121s49.5 -31.334 79.5 -38.001
v-27h-490v27c36.667 8.66699 55 22 55 40c0 6.66699 -2.16699 13.167 -6.5 19.5s-19.833 24.833 -46.5 55.5z" />
    <glyph glyph-name="l" unicode="l" horiz-adv-x="1176" 
d="M430 203l627 -0.000976562c21.333 0 37.333 4.66699 48 14s19.667 26.333 27 51h27v-332h-27c-6.66699 24 -15.5 40.667 -26.5 50s-27.167 14 -48.5 14h-959v28c23.333 6 39.833 14.667 49.5 26s14.5 27.333 14.5 48v916c0 20.667 -4.66699 36.334 -14 47.001
s-26 19.667 -50 27v28h396v-28c-24 -6.66699 -40.667 -15.5 -50 -26.5s-14 -26.833 -14 -47.5v-815z" />
    <glyph glyph-name="m" unicode="m" horiz-adv-x="1677" 
d="M814 35l-408 701v-634c0 -20.667 4.66699 -36.5 14 -47.5s26 -20.167 50 -27.5v-27h-372v28c23.333 6 39.833 14.667 49.5 26s14.5 27.333 14.5 48v916c0 20.667 -4.66699 36.5 -14 47.5s-26 19.833 -50 26.5v28h473v-28c-31.333 -10 -47 -29 -47 -57
c0 -27.333 11.333 -60.666 34 -99.999l279 -471l281 464c32 52.667 48 90 48 112c0 27.333 -16.333 44.666 -49 51.999v28h461v-28c-24 -6.66699 -40.667 -15.5 -50 -26.5s-14 -26.833 -14 -47.5v-916c0 -20.667 4.66699 -36.667 14 -48s26 -20.333 50 -27v-27h-396v28
c23.333 6 39.833 14.667 49.5 26s14.5 27.333 14.5 48v634z" />
    <glyph glyph-name="n" unicode="n" horiz-adv-x="1523" 
d="M406 738v-636.001c0 -20.667 4.83301 -36.667 14.5 -48s26.167 -20.333 49.5 -27v-27h-372v28c23.333 6 39.833 14.667 49.5 26s14.5 27.333 14.5 48v916c0 20.667 -4.66699 36.334 -14 47.001s-26 19.667 -50 27v28h430v-28c-29.333 -7.33301 -44 -20.333 -44 -39
c0 -16 10.667 -34.667 32 -56l600 -596v617c0 20.667 -4.66699 36.5 -14 47.5s-26 19.833 -50 26.5v28h372v-28c-24 -6.66699 -40.667 -15.5 -50 -26.5s-14 -26.833 -14 -47.5v-916c0 -20.667 4.66699 -36.5 14 -47.5s26 -20.167 50 -27.5v-27h-401v27
c29.333 6 44 18.333 44 37c0 9.33301 -4 19 -12 29s-26.333 29.667 -55 59z" />
    <glyph glyph-name="o" unicode="o" horiz-adv-x="1460" 
d="M728 1144c178 0 326.333 -45.333 445 -136c142 -109.333 213 -261.666 213 -456.999c0 -183.333 -71 -329.666 -213 -438.999c-117.333 -90.667 -265 -136 -443 -136s-325.667 45.333 -443 136c-142.667 109.333 -214 258.666 -214 447.999
c0 191.333 71.333 340.666 214 447.999c118 88.667 265 134 441 136zM729 932c-115.333 0 -209.334 -37 -282.001 -111c-67.333 -69.333 -101 -156.333 -101 -261c0 -104 33.667 -190.667 101 -260c72.667 -74.667 167 -112 283 -112c115.333 0 209.333 37.333 282 112
c67.333 68.667 101 153.667 101 255c0 110 -33.667 198.667 -101 266c-73.333 72.667 -167.666 109.667 -282.999 111z" />
    <glyph glyph-name="p" unicode="p" horiz-adv-x="1335" 
d="M430 460v-358.002c0 -20.667 4.66699 -36.5 14 -47.5s26 -20.167 50 -27.5v-27h-396v28c23.333 6 39.833 14.667 49.5 26s14.5 27.333 14.5 48v916c0 20.667 -4.66699 36.334 -14 47.001s-26 19.667 -50 27v28h730c144.667 0 253.667 -21.667 327 -65
c42.667 -25.333 76 -61.333 100 -108s36 -99 36 -157c0 -111.333 -38 -194.166 -114 -248.499s-192.333 -81.5 -349 -81.5h-398zM430 662.998h382.001c70 0 118.667 6.66699 146 20c40 19.333 60 55 60 107s-20 87.667 -60 107c-26.667 13.333 -75.334 20 -146.001 20h-382
v-254z" />
    <glyph glyph-name="q" unicode="q" horiz-adv-x="1480" 
d="M1215 147l99.9971 -106.999c26.667 -28 49.334 -41.667 68.001 -41c10 0.666992 22 6.66699 36 18l18 -20l-242 -222l-18 20c12 14 18 26.667 18 38s-15.333 34.666 -46 69.999l-113 130c-89.333 -38 -191.666 -57 -306.999 -57c-177.333 0 -324.666 45.333 -441.999 136
c-142.667 110 -214 259.333 -214 448s71.333 338 214 448c118 90.667 265.667 136 443 136c178 0 325.667 -45.333 443 -136c142.667 -110 214 -259.333 214 -448c0 -168 -57.333 -305.667 -172 -413zM1037 329.001c51.333 64.667 77.001 142.334 77.001 233.001
c0 103.333 -33.667 189.666 -101 258.999c-72 74 -166.333 111 -283 111c-116 0 -210.333 -37 -283 -111c-67.333 -69.333 -101 -156.333 -101 -261c0 -104 33.667 -190.667 101 -260c72.667 -74.667 166.667 -112 282 -112c51.333 0 102.333 9 153 27
c-74 92 -146.667 146.667 -218 164v17c43.333 30.667 86.666 46 129.999 46c72 0 153 -37.667 243 -113z" />
    <glyph glyph-name="r" unicode="r" horiz-adv-x="1406" 
d="M430 460l0.000976562 -358c0 -20.667 4.66699 -36.5 14 -47.5s26 -20.167 50 -27.5v-27h-396v28c23.333 6 39.833 14.667 49.5 26s14.5 27.333 14.5 48v916c0 20.667 -4.66699 36.334 -14 47.001s-26 19.667 -50 27v28h734c95.333 0 168 -4.83301 218 -14.5
s94.667 -27.167 134 -52.5c80.667 -52.667 121 -138.667 121 -258c0 -90.667 -24.833 -161.5 -74.5 -212.5s-129.834 -87.833 -240.501 -110.5l212 -296c38.667 -54.667 69.5 -91.834 92.5 -111.501s49.167 -32.167 78.5 -37.5v-27h-470v27c34.667 9.33301 52 24.333 52 45
c0 14.667 -10.667 37 -32 67l-224 321h-269zM430.001 663h404.001c61.333 0 106.666 6.66699 135.999 20c41.333 18 62 53.667 62 107c0 47.333 -14.5 80.333 -43.5 99s-80.5 28 -154.5 28h-404v-254z" />
    <glyph glyph-name="s" unicode="s" horiz-adv-x="1261" 
d="M1175 1019l-135.001 -261.002l-24 13c0 22 -7 39.333 -21 52c-38 34 -94 62 -168 84s-149 33 -225 33c-64.667 0 -122 -9 -172 -27c-72 -26 -108 -63.667 -108 -113c0 -32.667 17.333 -55.834 52 -69.501s101.667 -24.5 201 -32.5l158 -12
c138 -10.667 243 -37.334 315 -80.001c40 -24 73 -56 99 -96c32.667 -50 49 -106.333 49 -169c0 -114 -51.333 -204 -154 -270c-98 -63.333 -230.667 -95 -398 -95c-168.667 0 -331.667 35.667 -489 107c-10.667 4.66699 -19.667 7 -27 7c-13.333 0 -25.666 -8 -36.999 -24
l-25 10l115 274l25 -10v-8c0 -17.333 6.66699 -32 20 -44c33.333 -29.333 91 -54.833 173 -76.5s163 -32.5 243 -32.5c70.667 0 134 9.33301 190 28c69.333 22.667 104 59.334 104 110.001c0 40.667 -24 69 -72 85c-32 10.667 -89.667 19.667 -173 27l-157 13
c-84.667 6.66699 -149.334 15.334 -194.001 26.001s-83.667 26.334 -117 47.001c-42.667 26.667 -76 63 -100 109s-36 96.333 -36 151c0 122.667 52.667 216.334 158 281.001c96 58.667 214.667 88 356 88c76.667 0 148.167 -8.5 214.5 -25.5s145.5 -46.833 237.5 -89.5
c27.333 -12.667 46.333 -19 57 -19s24.334 7.33301 41.001 22z" />
    <glyph glyph-name="t" unicode="t" horiz-adv-x="1165" 
d="M716 917v-815c0 -20.667 4.66699 -36.5 14 -47.5s26 -20.167 50 -27.5v-27h-396v28c23.333 6 39.833 14.667 49.5 26s14.5 27.333 14.5 48v815h-330c-21.333 0 -37.5 -4.83301 -48.5 -14.5s-19.833 -26.5 -26.5 -50.5h-27v332h28c6 -23.333 14.5 -39.833 25.5 -49.5
s27.167 -14.5 48.5 -14.5h928c21.333 0 37.5 4.66699 48.5 14s19.833 26 26.5 50h27v-332h-27c-6.66699 24 -15.5 40.833 -26.5 50.5s-27.167 14.5 -48.5 14.5h-330z" />
    <glyph glyph-name="u" unicode="u" horiz-adv-x="1414" 
d="M1273 1018l-0.000976562 -593.002c0 -135.333 -26.667 -234.666 -80 -297.999c-86 -100.667 -248 -151 -486 -151c-159.333 0 -288 24.333 -386 73c-70.667 35.333 -119 85.666 -145 150.999c-24 60 -36 135 -36 225v593c0 20.667 -4.66699 36.334 -14 47.001
s-26 19.667 -50 27v28h397v-28c-24.667 -6.66699 -41.667 -15.5 -51 -26.5s-14 -26.833 -14 -47.5v-539c0 -62.667 5.5 -110.667 16.5 -144s30.167 -60.666 57.5 -81.999c54.667 -43.333 133.667 -65 237 -65s182.333 21.667 237 65
c26.667 21.333 45.334 48.666 56.001 81.999s16 81.333 16 144v539c0 20.667 -4.5 36.334 -13.5 47.001s-25.833 19.667 -50.5 27v28h373v-28c-24 -6.66699 -40.667 -15.5 -50 -26.5s-14 -26.833 -14 -47.5z" />
    <glyph glyph-name="v" unicode="v" horiz-adv-x="1331" 
d="M674 354l271.001 593.001c16 34 24 59.333 24 76c0 33.333 -21.667 56.333 -65 69v28h433v-28c-26.667 -8.66699 -46 -19.334 -58 -32.001s-27.333 -38.667 -46 -78l-392 -825c-14 -29.333 -21 -51.666 -21 -66.999c0 -33.333 22 -54.333 66 -63v-27h-439v27
c43.333 8.66699 65 29.667 65 63c0 15.333 -7 37.666 -21 66.999l-392 825c-18.667 40 -33.834 66.167 -45.501 78.5s-31.167 22.833 -58.5 31.5v28h449v-28c-42.667 -13.333 -64 -36.333 -64 -69c0 -14.667 8.33301 -40 25 -76z" />
    <glyph glyph-name="w" unicode="w" horiz-adv-x="1965" 
d="M980 778l-244.999 -608.999c-12 -30 -18 -54.667 -18 -74c0 -37.333 22 -60 66 -68v-27h-417v27c40 10 60 32.667 60 68c0 18 -6 42.667 -18 74l-296 764c-22.667 58.667 -41.834 97.834 -57.501 117.501s-39.167 33.5 -70.5 41.5v28h426v-28
c-41.333 -13.333 -62 -34.333 -62 -63c0 -14 6.66699 -38 20 -72l210 -529l209 525c12.667 31.333 19 55.333 19 72c0 33.333 -22.333 55.666 -67 66.999v28h498v-28c-43.333 -14 -65 -37.333 -65 -70c0 -14.667 5.66699 -36.334 17 -65.001l204 -529l204 534
c8.66699 23.333 13 43.666 13 60.999c0 18.667 -4.66699 33 -14 43s-26.333 18.667 -51 26v28h436v-28c-32.667 -12 -56.5 -27.167 -71.5 -45.5s-33.833 -56.166 -56.5 -113.499l-300 -764c-10.667 -27.333 -16 -51.333 -16 -72c0 -38.667 22.667 -62 68 -70v-27h-434v27
c42.667 12 64 36.333 64 73c0 9.33301 -7.33301 32.333 -22 69z" />
    <glyph glyph-name="x" unicode="x" horiz-adv-x="1300" 
d="M799 580l330.999 -439c28.667 -38 55.334 -65.5 80.001 -82.5s52.667 -27.5 84 -31.5v-27h-515v27c42 9.33301 63 27 63 53c0 13.333 -11 34.666 -33 63.999l-182 239l-183 -239c-18 -23.333 -27 -43.666 -27 -60.999c0 -24 21.667 -42.667 65 -56v-27h-477v27
c32 7.33301 57 17.833 75 31.5s43 41.167 75 82.5l330 427l-290 388c-62 82.667 -116.667 128 -164 136v28h512v-28c-43.333 -12 -65 -32 -65 -60c0 -16.667 10.333 -39 31 -67l152 -203l140 190c27.333 37.333 41 64.333 41 81c0 30 -22 49.667 -66 59v28h488v-28
c-36 -7.33301 -62.5 -17.833 -79.5 -31.5s-47.167 -48.5 -90.5 -104.5z" />
    <glyph glyph-name="y" unicode="y" horiz-adv-x="1226" 
d="M747 491l-0.00195312 -389.002c0 -20.667 4.66699 -36.5 14 -47.5s26 -20.167 50 -27.5v-27h-396v27c24 6.66699 40.667 15.5 50 26.5s14 27.167 14 48.5v389l-332 457c-37.333 51.333 -67.166 86.5 -89.499 105.5s-48.833 31.833 -79.5 38.5v28h504v-28
c-43.333 -11.333 -65 -31.666 -65 -60.999c0 -14.667 15.667 -44 47 -88l163 -226l159 226c31.333 44.667 47 74.334 47 89.001c0 28 -21.333 48 -64 60l-1 28h480v-28c-30.667 -6.66699 -57.167 -19.5 -79.5 -38.5s-52.166 -54.167 -89.499 -105.5z" />
    <glyph glyph-name="z" unicode="z" horiz-adv-x="1247" 
d="M511 203h568c21.333 0 37.333 4.83301 48 14.5s19.667 26.5 27 50.5h27v-332h-28c-6 23.333 -14.5 39.833 -25.5 49.5s-27.167 14.5 -48.5 14.5h-1003v60l653 857h-543c-21.333 0 -37.333 -4.66699 -48 -14s-19.667 -26.333 -27 -51h-27v332h27
c6.66699 -24 15.5 -40.667 26.5 -50s27.167 -14 48.5 -14h985v-49z" />
    <glyph glyph-name="braceleft" unicode="{" horiz-adv-x="683" 
d="M669 -173l-26.9951 0.000976562c-6.66699 25.333 -15.834 42.333 -27.501 51s-31.167 13 -58.5 13h-232c-40.667 0 -79.334 14 -116.001 42c-44 33.333 -65.667 70.666 -65 111.999v373c-1.33301 74.667 -5.5 122.167 -12.5 142.5s-23.5 30.5 -49.5 30.5h-62
c-14.667 0 -25.834 -4.66699 -33.501 -14s-14.167 -26.333 -19.5 -51h-24v313h24c5.33301 -24.667 11.666 -41.5 18.999 -50.5s18.666 -13.5 33.999 -13.5h62c26 0 42.5 10 49.5 30s11.167 67.333 12.5 142v374c0 38.667 18.833 74 56.5 106s79.167 48 124.5 48h232
c28 0 47.833 4.33301 59.5 13s20.5 25.667 26.5 51h27v-279h-27c-6.66699 26 -15.667 43.333 -27 52s-31 13 -59 13h-82c-73.333 -6.66699 -109.333 -54.667 -108 -144v-355c0 -30 -5.83301 -55 -17.5 -75s-33.5 -42.667 -65.5 -68c32 -25.333 53.833 -48 65.5 -68
s17.5 -45.333 17.5 -76v-354c-1.33301 -89.333 34.667 -137.333 108 -144h82c28 0 47.667 4.33301 59 13s20.333 26 27 52h27v-279z" />
    <glyph glyph-name="bar" unicode="|" 
d="M366 1365h292v-1706h-292v1706z" />
    <glyph glyph-name="braceright" unicode="}" horiz-adv-x="683" 
d="M14 -173l0.000976562 279h27c6.66699 -26 15.667 -43.333 27 -52s31 -13 59 -13h82c74 7.33301 110.333 55.333 109 144v354c0 30.667 5.83301 56 17.5 76s33.5 42.667 65.5 68c-32 25.333 -53.833 48 -65.5 68s-17.5 45 -17.5 75v355
c1.33301 88.667 -35 136.667 -109 144h-82c-27.333 0 -46.833 -4.33301 -58.5 -13s-20.834 -26 -27.501 -52h-27v279h27c6.66699 -25.333 15.667 -42.333 27 -51s31 -13 59 -13h233c40.667 0 79.334 -14 116.001 -42c43.333 -32.667 65 -70 65 -112v-374
c1.33301 -74.667 5.5 -122 12.5 -142s23.167 -30 48.5 -30h62c15.333 0 26.666 4.5 33.999 13.5s13.666 25.833 18.999 50.5h24v-313h-24c-5.33301 25.333 -11.666 42.5 -18.999 51.5s-18.666 13.5 -33.999 13.5h-62c-25.333 0 -41.5 -10.167 -48.5 -30.5
s-11.167 -67.833 -12.5 -142.5v-373c0 -38 -18.833 -73.167 -56.5 -105.5s-79.167 -48.5 -124.5 -48.5h-233c-27.333 0 -46.833 -4.33301 -58.5 -13s-20.834 -25.667 -27.501 -51h-27z" />
    <glyph glyph-name="asciitilde" unicode="~" horiz-adv-x="1365" 
d="M332 484l-141.998 118c26.667 64 55.667 116.667 87 158c58.667 77.333 129.667 116 213 116c48 0 123 -22.667 225 -68c84.667 -37.333 142 -56 172 -56c52 0 102 43 150 129l142 -118c-32 -73.333 -63 -128.333 -93 -165c-58.667 -73.333 -128.334 -110 -209.001 -110
c-26 0 -51.833 4.33301 -77.5 13s-92.834 36 -201.501 82c-48.667 20.667 -87.667 31 -117 31c-28.667 0 -54 -9.66699 -76 -29s-46.333 -53 -73 -101z" />
    <glyph glyph-name="exclamdown" unicode="&#xa1;" horiz-adv-x="774" 
d="M518 885l-0.00195312 -32c-27.333 -7.33301 -44.666 -15.333 -51.999 -24s-11 -25 -11 -49c0 -14 1 -29 3 -45l73 -615c4 -35.333 9.5 -57.666 16.5 -66.999s23.5 -16.333 49.5 -21v-32h-420v32c26 4.66699 42.5 11.667 49.5 21s12.5 31.666 16.5 66.999l73 615
c2 16 3 31 3 45c0 23.333 -3.66699 39.333 -11 48s-24.666 17 -51.999 25v32h262zM386.998 1389c45.333 0 84 -16.167 116 -48.5s48 -71.833 48 -118.5c0 -44 -16.167 -81.833 -48.5 -113.5s-70.833 -47.5 -115.5 -47.5c-45.333 0 -84 16 -116 48s-48 70.333 -48 115
c0 45.333 15.833 84 47.5 116s70.5 48.333 116.5 49z" />
    <glyph glyph-name="cent" unicode="&#xa2;" horiz-adv-x="1461" 
d="M706 105c-108 8.66699 -203.332 34.002 -285.999 76.002c-90 45.333 -161.667 111 -215 197c-58 92 -87 194.667 -87 308c0 150.667 48.667 279.334 146 386.001c103.333 114 250.666 178.667 441.999 194v53c0 21.333 -4.66699 37.5 -14 48.5s-26 19.833 -50 26.5v27
h273v-27c-24 -7.33301 -40.667 -16.333 -50 -27s-14 -26.667 -14 -48v-52c74.667 -2.66699 141.834 -14.667 201.501 -36s146.5 -64.333 260.5 -129c12.667 -7.33301 23.667 -11 33 -11s22.333 5.66699 39 17l22 -18l-169 -245l-22 17c1.33301 9.33301 2 16.333 2 21
c0 29.333 -20.333 55.333 -61 78c-58 33.333 -108.333 56.666 -151 69.999s-94.334 22.333 -155.001 27v-744c92.667 6.66699 178.667 30 258 70c73.333 37.333 110 70 110 98c0 1.33301 -1 10.666 -3 27.999l22 17l169 -246l-23 -17c-15.333 11.333 -28.333 17 -39 17
c-9.33301 0 -49.333 -20.333 -120 -61c-64 -36.667 -123 -63.334 -177 -80.001s-119.667 -28.667 -197 -36v-58c0 -21.333 4.66699 -37.5 14 -48.5s26 -19.833 50 -26.5v-27h-273v27c24 7.33301 40.667 16.333 50 27s14 26.667 14 48v59zM706.001 326.002v720
c-74 -19.333 -133.333 -47 -178 -83c-89.333 -72.667 -134 -165 -134 -277c0 -112.667 44.667 -205 134 -277c44.667 -36 104 -63.667 178 -83z" />
    <glyph glyph-name="sterling" unicode="&#xa3;" horiz-adv-x="1461" 
d="M309 805c-10 80 -14.9961 138.333 -14.9961 175c0 108 34.667 195.333 104 262c48.667 46 111 82 187 108s158 39 246 39c122 0 228.333 -22.333 319 -67c39.333 -19.333 90 -52.333 152 -99c34.667 -26 62.667 -39 84 -39c8 0 17.667 3.33301 29 10l20 -25l-292 -211
l-20 26c12 8 18 19 18 33c0 24 -21 50.667 -63 80c-58.667 40 -132 60 -220 60c-86 0 -152.5 -17.667 -199.5 -53s-70.5 -85 -70.5 -149c0 -23.333 3.33301 -73.333 10 -150h228c20.667 0 36.334 4.66699 47.001 14s19.334 26 26.001 50h32v-324h-32
c-6.66699 24 -15.334 40.833 -26.001 50.5s-26.334 14.5 -47.001 14.5h-206c4.66699 -44.667 7 -80.667 7 -108c0 -61.333 -7.33301 -109.333 -22 -144s-44.334 -73.667 -89.001 -117c70 20 132 30 186 30c47.333 0 106.333 -8.66699 177 -26c58 -14.667 98.333 -22 121 -22
c31.333 0 60.166 9 86.499 27s39.5 38.333 39.5 61c0 15.333 -7 29 -21 41l22 23l288 -221l-19 -23c-14.667 8 -27 12 -37 12c-16.667 0 -53.667 -19.333 -111 -58c-48 -32 -91 -54.667 -129 -68s-80 -20 -126 -20c-27.333 0 -51.833 1.5 -73.5 4.5
s-83.834 13.5 -186.501 31.5c-36.667 6.66699 -83 10 -139 10c-132.667 0 -251.334 -27 -356.001 -81l-96 217c74.667 40 126.167 83.167 154.5 129.5s42.5 110.5 42.5 192.5c0 28 -1.66699 64.333 -5 109h-81c-20.667 0 -36.334 -4.83301 -47.001 -14.5
s-19.334 -26.5 -26.001 -50.5h-32v324h32c6.66699 -24 15.334 -40.667 26.001 -50s26.334 -14 47.001 -14h56z" />
    <glyph glyph-name="currency" unicode="&#xa4;" horiz-adv-x="1570" 
d="M1305 306l102 -102.001c15.333 -15.333 31 -23 47 -23c13.333 0 30 5.66699 50 17l23 -22l-235 -235l-23 23c12 20 18 36.333 18 49c0 16 -8 31.667 -24 47l-120 120c-106.667 -54 -225.667 -81 -357 -81c-134.667 0 -254.667 27 -360 81l-120 -120
c-15.333 -15.333 -23 -31 -23 -47c0 -12.667 6 -29 18 -49l-23 -23l-235 235l23 22c20 -11.333 36.333 -17 49 -17c16 0 31.667 7.66699 47 23l103 103c-72.667 104 -109 229 -109 375s36.333 271.667 109 377l-103 102c-15.333 16 -31 24 -47 24c-12.667 0 -29 -6 -49 -18
l-23 23l235 234l23 -22c-12 -20 -18 -36.667 -18 -50c0 -16 7.66699 -31.667 23 -47l121 -120c103.333 54 223 81 359 81c135.333 0 254.333 -27.333 357 -82l120 121c16 16 24 31.667 24 47c0 12.667 -6 29.334 -18 50.001l23 22l235 -234l-23 -23
c-20.667 12 -37 18 -49 18c-16 0 -32 -8 -48 -24l-101 -101c72 -103.333 108 -229.333 108 -378c0 -146.667 -36.333 -272 -109 -376zM784 1054c-106.667 0 -193.665 -36.998 -260.998 -110.998c-62.667 -68.667 -94 -155.334 -94 -260.001s31.333 -191.334 94 -260.001
c67.333 -74.667 154.666 -112 261.999 -112s194.666 37.333 261.999 112c62.667 68 94 153 94 255c0 108 -31.333 196.333 -94 265c-66 72.667 -153.667 109.667 -263 111z" />
    <glyph glyph-name="yen" unicode="&#xa5;" horiz-adv-x="1461" 
d="M582 404h-291.002c-20.667 0 -36.334 -5.83301 -47.001 -17.5s-19.334 -32.167 -26.001 -61.5h-32v340h32c6.66699 -24 15.334 -40.667 26.001 -50s26.334 -14 47.001 -14h272l-119 236h-235c-20.667 0 -36.334 -5.83301 -47.001 -17.5s-19.334 -32.167 -26.001 -61.5
h-32v340h32c6.66699 -24 15.334 -40.667 26.001 -50s26.334 -14 47.001 -14h139l-99 158c-28 44.667 -55.333 78.334 -82 101.001s-55 36 -85 40v32h540v-32c-44.667 -7.33301 -67 -27.666 -67 -60.999c0 -7.33301 1.5 -14.5 4.5 -21.5s13.5 -27.5 31.5 -61.5l143 -363
l148 363c18 33.333 28.5 53.5 31.5 60.5s4.5 14.5 4.5 22.5c0 33.333 -22.333 53.666 -67 60.999v32h527v-32c-30 -4 -58.333 -17.333 -85 -40s-54 -56.334 -82 -101.001l-98 -158h139c20 0 35.5 4.83301 46.5 14.5s19.5 26.167 25.5 49.5h32v-340h-32
c-6 29.333 -14.5 49.833 -25.5 61.5s-26.5 17.5 -46.5 17.5h-234l-119 -236h271c20.667 0 36.334 4.83301 47.001 14.5s19 26.167 25 49.5h32v-340h-32c-6 29.333 -14.5 49.833 -25.5 61.5s-26.5 17.5 -46.5 17.5h-290v-299c0 -20.667 4.83301 -36.334 14.5 -47.001
s26.5 -19.334 50.5 -26.001v-32h-429v32c24.667 6.66699 41.834 15.334 51.501 26.001s14.5 26.334 14.5 47.001v299z" />
    <glyph glyph-name="brokenbar" unicode="&#xa6;" 
d="M366 1365h292v-716h-292v716zM366 314h292v-655h-292v655z" />
    <glyph glyph-name="section" unicode="&#xa7;" horiz-adv-x="1374" 
d="M1137 457c57.333 -40 95.498 -76.3359 114.498 -109.003s28.5 -78 28.5 -136c0 -101.333 -37 -185.666 -111 -252.999c-90 -82 -236 -123 -438 -123c-103.333 0 -195.333 11.167 -276 33.5s-167 60.833 -259 115.5c-14.667 8.66699 -26.334 13 -35.001 13
s-23.334 -7.66699 -44.001 -23l-21 13l174 266l22 -14c-6 -15.333 -9 -27 -9 -35c0 -24.667 25.333 -53 76 -85c91.333 -58 215 -87 371 -87c114 0 200.667 19.667 260 59c48.667 32.667 73 70.334 73 113.001c0 36.667 -21.167 64.167 -63.5 82.5s-118.5 33.5 -228.5 45.5
l-197 20c-132 14 -231.333 43.667 -298 89c-34 22.667 -60.667 53.167 -80 91.5s-29 79.833 -29 124.5c0 85.333 25.667 153 77 203c18.667 18 48.334 39 89.001 63c-51.333 26.667 -88.666 54.334 -111.999 83.001c-35.333 44 -53 98.667 -53 164
c0 112 43.5 199.833 130.5 263.5s207.5 95.5 361.5 95.5c71.333 0 139.333 -6.33301 204 -19s141.667 -34.667 231 -66c22 -7.33301 40.333 -11 55 -11c8 0 21 8.33301 39 25l23 -10l-137 -278l-23 11c4 15.333 6 26.333 6 33c0 19.333 -25.333 40 -76 62
c-49.333 21.333 -96.166 36 -140.499 44s-100.833 12 -169.5 12c-92.667 0 -164 -12.333 -214 -37c-55.333 -26.667 -83 -61 -83 -103c0 -30 15.833 -52.667 47.5 -68s87.834 -27.333 168.501 -36l192 -21c150.667 -16 265.667 -44.667 345 -86
c101.333 -52.667 152 -139.667 152 -261c0 -59.333 -12.333 -112 -37 -158s-60 -81.333 -106 -106zM880.998 534.997c64 25.333 107.334 47.668 130.001 67.001c34 29.333 51 64.333 51 105c0 39.333 -16.833 68.166 -50.5 86.499s-95.834 32.833 -186.501 43.5l-263 30
c-125.333 -48 -188 -107 -188 -177c0 -38.667 21.667 -66.667 65 -84c20 -8 71 -17.667 153 -29z" />
    <glyph glyph-name="dieresis" unicode="&#xa8;" 
d="M311 1510c38 0 69.667 -12.668 95 -38.001c25.333 -26 38 -57.667 38 -95c0 -34.667 -12.667 -64.667 -38 -90s-56.333 -38 -93 -38c-35.333 0 -66 12.667 -92 38c-25.333 24.667 -38 55.334 -38 92.001c0 36 12.333 66.5 37 91.5s55 38.167 91 39.5zM710 1510
c36.667 0 67.667 -12.666 93 -37.999c25.333 -26 38 -56 38 -90c0 -38 -12.667 -69.667 -38 -95s-57 -38 -95 -38c-35.333 0 -65.5 12.833 -90.5 38.5s-37.5 56.5 -37.5 92.5c0 35.333 12.5 65.666 37.5 90.999s55.833 38.333 92.5 39z" />
    <glyph glyph-name="copyright" unicode="&#xa9;" horiz-adv-x="1808" 
d="M907 1389c240.667 0 434.667 -63.002 582 -189.002c82.667 -70 144.667 -155.667 186 -257c34 -83.333 51 -173 51 -269c0 -130 -37 -251.667 -111 -365c-81.333 -125.333 -194.333 -215.666 -339 -270.999c-108 -41.333 -230.333 -62 -367 -62
c-239.333 0 -432.333 63 -579 189c-82 70.667 -144 156.334 -186 257.001c-34 82.667 -51 169.667 -51 261c0 135.333 36.667 260 110 374c80 123.333 193.333 213.333 340 270c102.667 39.333 224 60 364 62zM907 1271c-212.667 0 -380.668 -59.334 -504.001 -178.001
c-113.333 -108.667 -170 -245.667 -170 -411c0 -164 56.667 -300.667 170 -410c123.333 -118.667 292 -178 506 -178c214.667 0 383.667 59.333 507 178c113.333 108.667 170 242.667 170 402c0 173.333 -56.667 313 -170 419c-67.333 63.333 -139.666 108 -216.999 134
c-86 28.667 -183.333 43.334 -292 44.001zM1240 565.997l119 -179l-25 -18c-11.333 12 -20 18 -26 18s-24.667 -9 -56 -27c-66 -38.667 -123 -65.167 -171 -79.5s-104 -21.5 -168 -21.5c-129.333 0 -235 30.333 -317 91c-109.333 80.667 -164 191.667 -164 333
s54.667 252.333 164 333c82 60.667 187.667 91 317 91c60.667 0 114.5 -6.5 161.5 -19.5s99.5 -36.167 157.5 -69.5l20 -11c31.333 -18 50 -27 56 -27c5.33301 0 14 5.66699 26 17l25 -18l-119 -179l-25 17c1.33301 8.66699 2 15.334 2 20.001c0 16.667 -21.333 37 -64 61
c-68.667 38.667 -141 58 -217 58c-90.667 0 -162.667 -22.333 -216 -67c-63.333 -52.667 -95 -121.334 -95 -206.001c0 -82.667 28.333 -148.834 85 -198.501s132 -74.5 226 -74.5c76 0 148.333 19.333 217 58c42.667 24 64 44.333 64 61
c0 4.66699 -0.666992 11.334 -2 20.001z" />
    <glyph glyph-name="ordfeminine" unicode="&#xaa;" horiz-adv-x="1046" 
d="M194 1337l29.001 18.001c7.33301 -7.33301 13.333 -11 18 -11c2.66699 0 7 1.33301 13 4c56.667 27.333 132.667 41 228 41c98 0 176.167 -19.333 234.5 -58s87.5 -90.667 87.5 -156v-300c0 -12 3.16699 -20.5 9.5 -25.5s19.166 -8.83301 38.499 -11.5v-27h-169v63
c-28 -30 -55.5 -50.667 -82.5 -62s-61.5 -17 -103.5 -17c-78 0 -147.333 19.333 -208 58c-57.333 36.667 -86 85.334 -86 146.001c0 59.333 28.667 107.666 86 144.999c59.333 38.667 130 58 212 58c40.667 0 74.167 -5 100.5 -15s53.5 -28.667 81.5 -56v52
c0 35.333 -18 63.666 -54 84.999s-83.667 32 -143 32c-42.667 0 -85.167 -4.66699 -127.5 -14s-63.5 -19 -63.5 -29c0 -1.33301 3 -8 9 -20l-29 -17zM513.001 1106c-62.667 0 -112.334 -12.6689 -149.001 -38.002c-28 -19.333 -42 -44 -42 -74c0 -28.667 18.333 -53 55 -73
s81.334 -30 134.001 -30c49.333 0 90.5 9.83301 123.5 29.5s49.5 44.167 49.5 73.5c0 32.667 -15.5 59.334 -46.5 80.001s-72.5 31.334 -124.5 32.001zM848.001 770.999l-0.00195312 -258h-24c-5.33301 24.667 -11.666 41.5 -18.999 50.5s-18.666 13.5 -33.999 13.5h-502
c-14.667 0 -25.834 -4.5 -33.501 -13.5s-14.167 -25.833 -19.5 -50.5h-23v258h23c5.33301 -24.667 11.833 -41.5 19.5 -50.5s18.834 -13.5 33.501 -13.5h502c14.667 0 26 4.66699 34 14s14.333 26 19 50h24z" />
    <glyph glyph-name="guillemotleft" unicode="&#xab;" horiz-adv-x="997" 
d="M847 983l-197 -403l197 -403h-173l-194 403l194 403h173zM490 983l-196 -403l196 -403h-173l-194 403l194 403h173z" />
    <glyph glyph-name="logicalnot" unicode="&#xac;" 
d="M672 0v338h-604v254h887v-592h-283z" />
    <glyph glyph-name="sfthyphen" unicode="&#xad;" horiz-adv-x="455" 
d="M455 733v-346h-32c-6.66699 24 -15.334 40.667 -26.001 50s-26.334 14 -47.001 14h-246c-20 0 -35.5 -4.83301 -46.5 -14.5s-19.5 -26.167 -25.5 -49.5h-32v346h32c6 -24 14.5 -40.833 25.5 -50.5s26.5 -14.5 46.5 -14.5h246c20.667 0 36.334 4.66699 47.001 14
s19.334 26.333 26.001 51h32z" />
    <glyph glyph-name="registered" unicode="&#xae;" horiz-adv-x="1818" 
d="M907 1389c240.667 0 434.667 -63.002 582 -189.002c82.667 -70 144.667 -155.667 186 -257c34 -83.333 51 -173 51 -269c0 -130 -37 -251.667 -111 -365c-81.333 -125.333 -194.333 -215.666 -339 -270.999c-108 -41.333 -230.333 -62 -367 -62
c-239.333 0 -432.333 63 -579 189c-82 70.667 -144 156.334 -186 257.001c-34 82.667 -51 169.667 -51 261c0 135.333 36.667 260 110 374c80 123.333 193.333 213.333 340 270c102.667 39.333 224 60 364 62zM907 1271c-212.667 0 -380.668 -59.334 -504.001 -178.001
c-113.333 -108.667 -170 -245.667 -170 -411c0 -164 56.667 -300.667 170 -410c123.333 -118.667 292 -178 506 -178c214.667 0 383.667 59.333 507 178c113.333 108.667 170 242.667 170 402c0 173.333 -56.667 313 -170 419c-67.333 63.333 -139.666 108 -216.999 134
c-86 28.667 -183.333 43.334 -292 44.001zM709.999 600.997l-0.00195312 -260c0 -10.667 2.66699 -18.667 8 -24s15.333 -9.66602 30 -12.999v-31h-265v31c14.667 3.33301 24.667 7.66602 30 12.999s8 13.333 8 24v683c0 11.333 -2.5 19.5 -7.5 24.5s-15.167 9.5 -30.5 13.5
v31l510 -1c62.667 0 112.334 -3.66699 149.001 -11s68.334 -20 95.001 -38c63.333 -42 95 -108 95 -198c0 -134.667 -71.333 -213.334 -214 -236.001l150 -213c28 -39.333 48.167 -64.166 60.5 -74.499s28.5 -15.833 48.5 -16.5v-32h-305v32c20 2 30 7 30 15
c0 4 -9 19.667 -27 47l-160 234h-205zM709.997 747.997l265 0.000976562c63.333 0 105.666 5.66699 126.999 17c27.333 15.333 41 42.666 41 81.999c0 38.667 -13.667 65.667 -41 81c-21.333 11.333 -63.666 17 -126.999 17h-265v-197z" />
    <glyph glyph-name="macron" unicode="&#xaf;" 
d="M0 1659h1024v-174h-1024v174z" />
    <glyph glyph-name="degree" unicode="&#xb0;" horiz-adv-x="945" 
d="M473 1404c92 0 170.333 -34.332 235 -102.999c57.333 -60.667 86 -135 86 -223c0 -88.667 -32.333 -164.667 -97 -228c-63.333 -60.667 -138.333 -91 -225 -91c-95.333 0 -175 35 -239 105c-55.333 61.333 -83 133.333 -83 216c0 46.667 9.83301 92 29.5 136
s46.5 80.333 80.5 109c61.333 51.333 132.333 77.666 213 78.999zM470 1287c-50.667 0 -94.999 -18.334 -132.999 -55.001c-44 -42 -66 -92.333 -66 -151c0 -50 16.333 -94.667 49 -134c39.333 -47.333 89.666 -71 150.999 -71c54 0 101.167 20 141.5 60
s60.5 86.667 60.5 140c0 58 -18.667 106.667 -56 146c-40.667 42.667 -89.667 64.334 -147 65.001z" />
    <glyph glyph-name="plusminus" unicode="&#xb1;" horiz-adv-x="1570" 
d="M687 585l-356.998 0.000976562c-18.667 0 -32.834 -4.66699 -42.501 -14s-17.834 -26 -24.501 -50h-29v324h30c5.33301 -24 13 -40.667 23 -50s24.333 -14 43 -14h357v356c0 18.667 -4.66699 32.834 -14 42.501s-26 17.5 -50 23.5v30h324v-29
c-24 -6.66699 -40.667 -14.834 -50 -24.501s-14 -23.834 -14 -42.501v-356h357c18.667 0 32.834 4.66699 42.501 14s17.5 26 23.5 50h30v-324h-30c-6 24 -13.833 40.667 -23.5 50s-23.834 14 -42.501 14h-357v-289c0 -18.667 4.66699 -33 14 -43s26 -18 50 -24v-29h-324v30
c24 5.33301 40.667 13 50 23s14 24.333 14 43v289zM234.002 -189.999l-0.000976562 323.999h30c5.33301 -23.333 13 -39.666 23 -48.999s24.333 -14 43 -14h910c18.667 0 32.834 4.5 42.501 13.5s17.5 25.5 23.5 49.5h30v-324h-30c-6 24.667 -13.833 41.667 -23.5 51
s-23.834 14 -42.501 14h-910c-19.333 0 -33.666 -4.66699 -42.999 -14s-17.333 -26.333 -24 -51h-29z" />
    <glyph glyph-name="twosuperior" unicode="&#xb2;" horiz-adv-x="969" 
d="M313 705l520.001 0.000976562c12.667 0 21.667 2.5 27 7.5s10.333 15.167 15 30.5h32v-234h-32c-4.66699 14.667 -9.66699 24.5 -15 29.5s-14.333 7.5 -27 7.5h-680c-21.333 0 -35.166 -2 -41.499 -6s-11.166 -14.333 -14.499 -31h-33c-0.666992 22.667 -1 37 -1 43
c0 83.333 21 152.333 63 207c28.667 36.667 62.167 67.5 100.5 92.5s96.166 53.833 173.499 86.5l108 45c49.333 21.333 84.833 43 106.5 65s32.5 48 32.5 78c0 68 -49.333 102 -148 102c-60.667 0 -117.667 -13.667 -171 -41c-48.667 -25.333 -73 -51 -73 -77
c0 -5.33301 3.66699 -18 11 -38l-22 -21l-180 179l24 20c17.333 -8 29.666 -12 36.999 -12c8 0 23 8.66699 45 26c95.333 76.667 212.333 115 351 115c101.333 0 182.333 -23 243 -69c61.333 -46.667 92 -109 92 -187c0 -62 -19.5 -115.333 -58.5 -160
s-100.5 -84.334 -184.5 -119.001l-99 -41c-6 -2.66699 -29.333 -11.667 -70 -27c-68.667 -25.333 -112.334 -49 -131.001 -71z" />
    <glyph glyph-name="threesuperior" unicode="&#xb3;" horiz-adv-x="969" 
d="M771 977c90 -33.333 135.002 -92.999 135.002 -178.999c0 -90 -42.667 -158 -128 -204c-74.667 -40.667 -167 -61 -277 -61c-117.333 0 -223.666 21.333 -318.999 64c-39.333 17.333 -64.333 26 -75 26c-9.33301 0 -23.333 -8 -42 -24l-29 14l108 229l31 -12
c-2.66699 -6.66699 -4 -12 -4 -16c0 -33.333 33.667 -63.333 101 -90s142.666 -40 225.999 -40c63.333 0 113.166 10.167 149.499 30.5s54.5 47.833 54.5 82.5c0 72 -65 108 -195 108c-42 0 -70.167 -2.66699 -84.5 -8s-23.5 -16.333 -27.5 -33h-32v211h32
c5.33301 -18.667 14.166 -30.5 26.499 -35.5s39.833 -7.5 82.5 -7.5c56 0 100 8.66699 132 26s48 41.333 48 72c0 31.333 -15.833 55.5 -47.5 72.5s-77.167 25.5 -136.5 25.5c-64.667 0 -125.5 -10.5 -182.5 -31.5s-85.5 -43.5 -85.5 -67.5c0 -7.33301 3.33301 -17 10 -29
l-26 -19l-156 177l25 19c17.333 -7.33301 29.333 -11 36 -11c8 0 18.333 4 31 12c108.667 67.333 229.667 101 363 101c93.333 0 172.333 -17 237 -51c80 -42 120 -104.333 120 -187c0 -70.667 -33.667 -125.334 -101 -164.001z" />
    <glyph glyph-name="acute" unicode="&#xb4;" 
d="M778 1533v-27.001c-26 -0.666992 -45.667 -9.66699 -59 -27l-142 -174c-4 -4.66699 -6 -10 -6 -16c0 -10.667 7 -16 21 -16h4v-27h-217v27c16 0 27.333 2.33301 34 7s13 14.334 19 29.001l66 163c2.66699 6 4 11 4 15c0 10.667 -9.33301 17 -28 19v27h304z" />
    <glyph glyph-name="mu" unicode="&#xb5;" horiz-adv-x="984" 
d="M1032 110v-40.001l-261 -93c-4.66699 -1.33301 -8.66699 -2 -12 -2c-29.333 0 -53.333 12 -72 36c-11.333 16 -26.333 52 -45 108c-38.667 -42 -68 -71 -88 -87c-50.667 -42 -107.667 -63 -171 -63c-56.667 0 -101.334 12.667 -134.001 38s-62 69.666 -88 132.999
c-0.666992 -16 -1 -26.333 -1 -31c0 -40 4.5 -80.5 13.5 -121.5s25.5 -96.833 49.5 -167.5c15.333 -46 23 -82.667 23 -110c0 -26 -8.66699 -48.667 -26 -68c-25.333 -29.333 -58.666 -44 -99.999 -44c-40.667 0 -73.167 10.667 -97.5 32s-36.5 50 -36.5 86
c0 32 6 76.667 18 134c40.667 195.333 62 411 64 647v439h269v-588c0 -100 10.333 -168 31 -204c8.66699 -14 21.667 -25.833 39 -35.5s35 -14.5 53 -14.5c28 0 54.333 8.33301 79 25s53 45.334 85 86.001v731h267v-666c0 -69.333 5.5 -115.166 16.5 -137.499
s33.833 -33.5 68.5 -33.5c16 0 34.667 3.66699 56 11z" />
    <glyph glyph-name="paragraph" unicode="&#xb6;" horiz-adv-x="1307" 
d="M641 635l-181 -0.00195312c-40.667 0 -86 7.33301 -136 22s-90 32.334 -120 53.001c-108.667 75.333 -163 175.333 -163 300c0 76 23 142.667 69 200c32 40 67.167 70.833 105.5 92.5s84.5 36.834 138.5 45.501c67.333 11.333 108.333 17 123 17h775v-32
c-25.333 -6.66699 -42.333 -15.667 -51 -27s-13 -31 -13 -59v-1293c0 -28 4.33301 -47.667 13 -59s25.667 -20.333 51 -27v-32h-255v1406h-165v-1406h-255v32c26 6.66699 43.167 15.667 51.5 27s12.5 31 12.5 59v681z" />
    <glyph glyph-name="cedilla" unicode="&#xb8;" 
d="M378 -224l53.001 99c8 14.667 13.667 23.167 17 25.5s10.333 3.5 21 3.5c84.667 0 150 -13.667 196 -41s69 -66 69 -116c0 -48 -19.667 -87.333 -59 -118c-42 -32.667 -103 -49 -183 -49c-78.667 0 -146 9.33301 -202 28l23 47c36.667 -10.667 70.667 -16 102 -16
c43.333 0 77.666 7.5 102.999 22.5s38 35.5 38 61.5c0 19.333 -7 35.833 -21 49.5s-31 20.5 -51 20.5c-30 0 -55.333 -11.667 -76 -35z" />
    <glyph glyph-name="onesuperior" unicode="&#xb9;" horiz-adv-x="969" 
d="M293 1061l0.000976562 227.999h32l5 -14c4 -14 11.667 -21 23 -21c3.33301 0 8.66602 1 15.999 3l50 11v29c0 10.667 -2.83301 18.667 -8.5 24s-16.5 9.66602 -32.5 12.999v31h281v-31c-16 -3.33301 -26.833 -7.5 -32.5 -12.5s-8.5 -13.167 -8.5 -24.5v-682
c0 -11.333 2.83301 -19.5 8.5 -24.5s16.5 -9.5 32.5 -13.5v-31h-281v31c16.667 4 27.667 8.5 33 13.5s8 13.167 8 24.5v501l-51 -11c-14 -3.33301 -23.5 -7.66602 -28.5 -12.999s-9.83301 -15.666 -14.5 -30.999h-32z" />
    <glyph glyph-name="ordmasculine" unicode="&#xba;" horiz-adv-x="1046" 
d="M522 1390c86 0 158 -22.002 216 -66.002c69.333 -53.333 104 -127.666 104 -222.999c0 -89.333 -34.667 -160.666 -104 -213.999c-57.333 -44 -129 -66 -215 -66c-86.667 0 -158.667 22 -216 66c-69.333 53.333 -104 126.333 -104 219c0 84 29.167 152 87.5 204
s135.5 78.667 231.5 80zM522 1278c-52 0 -94.667 -16.167 -128 -48.5s-50 -73.5 -50 -123.5c0 -50.667 16.833 -92.167 50.5 -124.5s76.5 -48.5 128.5 -48.5c51.333 0 93.833 16.167 127.5 48.5s50.5 72.833 50.5 121.5c0 52 -16.5 94 -49.5 126s-76.167 48.333 -129.5 49z
M850 770.998l-0.00195312 -258h-24c-5.33301 24.667 -11.666 41.5 -18.999 50.5s-18.666 13.5 -33.999 13.5h-502c-14.667 0 -25.834 -4.5 -33.501 -13.5s-14.167 -25.833 -19.5 -50.5h-23v258h23c5.33301 -24.667 11.833 -41.5 19.5 -50.5s18.834 -13.5 33.501 -13.5h502
c14.667 0 26 4.66699 34 14s14.333 26 19 50h24z" />
    <glyph glyph-name="guillemotright" unicode="&#xbb;" horiz-adv-x="997" 
d="M150 983h173l194 -403l-194 -403h-173l196 403zM507 983h172l195 -403l-195 -403h-172l196 403z" />
    <glyph glyph-name="onequarter" unicode="&#xbc;" horiz-adv-x="2526" 
d="M293 1061l0.000976562 227.999h32l5 -14c4 -14 11.667 -21 23 -21c3.33301 0 8.66602 1 15.999 3l50 11v29c0 10.667 -2.83301 18.667 -8.5 24s-16.5 9.66602 -32.5 12.999v31h281v-31c-16 -3.33301 -26.833 -7.5 -32.5 -12.5s-8.5 -13.167 -8.5 -24.5v-682
c0 -11.333 2.83301 -19.5 8.5 -24.5s16.5 -9.5 32.5 -13.5v-31h-281v31c16.667 4 27.667 8.5 33 13.5s8 13.167 8 24.5v501l-51 -11c-14 -3.33301 -23.5 -7.66602 -28.5 -12.999s-9.83301 -15.666 -14.5 -30.999h-32zM1832 1365l0.00195312 -31.999
c-32.667 -4.66699 -55.334 -12.834 -68.001 -24.501s-39.667 -50.5 -81 -116.5l-618 -1040c-16.667 -28 -25 -48.333 -25 -61c0 -16 6.83301 -29.167 20.5 -39.5s32.5 -16.833 56.5 -19.5v-32h-420v32c33.333 5.33301 58.166 15.833 74.499 31.5s42.5 53.167 78.5 112.5
l609 1016c20 32.667 30 57 30 73s-7.33301 30.5 -22 43.5s-33 21.167 -55 24.5v32h420zM2171 136l-453 -0.000976562c-24 0 -39.333 -2 -46 -6s-11.667 -14.667 -15 -32h-32v180l436 452c18 18.667 27 31.334 27 38.001c0 10 -11 16.333 -33 19v32h356v-31
c-16 -4 -26.833 -8.5 -32.5 -13.5s-8.5 -12.833 -8.5 -23.5v-469h42c12 0 20.667 2.5 26 7.5s10.333 15.167 15 30.5h32v-222h-32c-4.66699 15.333 -9.66699 25.5 -15 30.5s-14 7.5 -26 7.5h-42v-67c0 -11.333 2.83301 -19.5 8.5 -24.5s16.5 -9.5 32.5 -13.5v-31h-281v31
c16.667 4 27.667 8.5 33 13.5s8 13.167 8 24.5v67zM2171 281.999v330l-314 -330h314z" />
    <glyph glyph-name="onehalf" unicode="&#xbd;" horiz-adv-x="2527" 
d="M293 1061v228h32l5 -14c4.66699 -14 12.334 -21 23.001 -21c3.33301 0 8.66602 1 15.999 3l50 11v29c0 11.333 -2.83301 19.333 -8.5 24s-16.5 9 -32.5 13v31h281v-31c-16.667 -3.33301 -27.667 -7.5 -33 -12.5s-8 -13.167 -8 -24.5v-682
c0 -11.333 2.83301 -19.5 8.5 -24.5s16.5 -9.5 32.5 -13.5v-31h-281v31c16.667 4 27.667 8.5 33 13.5s8 13.167 8 24.5v501l-51 -11c-14 -3.33301 -23.5 -7.5 -28.5 -12.5s-9.83301 -15.5 -14.5 -31.5h-32zM1832 1365l0.00195312 -31.999
c-32.667 -4.66699 -55.334 -12.834 -68.001 -24.501s-39.667 -50.5 -81 -116.5l-618 -1040c-16.667 -28 -25 -48.333 -25 -61c0 -16 6.83301 -29.167 20.5 -39.5s32.5 -16.833 56.5 -19.5v-32h-420v32c33.333 5.33301 58.166 15.833 74.499 31.5s42.5 53.167 78.5 112.5
l609 1016c20 32.667 30 57 30 73s-7.33301 30.5 -22 43.5s-33 21.167 -55 24.5v32h420zM1870 159.001l519.998 0.00390625c12.667 0 21.667 2.5 27 7.5s10.333 14.833 15 29.5h32v-234h-32c-4.66699 15.333 -9.66699 25.5 -15 30.5s-14.333 7.5 -27 7.5h-680
c-21.333 0 -35.166 -2 -41.499 -6s-11.166 -14.667 -14.499 -32h-33c-0.666992 23.333 -1 38 -1 44c0 82.667 21.333 151.334 64 206.001c28 36.667 61 67.5 99 92.5s96 53.833 174 86.5l108 46c49.333 20.667 84.833 42.167 106.5 64.5s32.5 48.166 32.5 77.499
c0 68.667 -49.333 103 -148 103c-60.667 0 -117.334 -13.667 -170.001 -41c-49.333 -25.333 -74 -51.333 -74 -78c0 -4.66699 3.66699 -17.334 11 -38.001l-22 -21l-180 179l24 21c18 -8 30.333 -12 37 -12c8 0 23 9 45 27c95.333 76 212.333 114 351 114
c101.333 0 182.333 -23 243 -69c61.333 -46.667 92 -109.334 92 -188.001c0 -62 -19.5 -115.333 -58.5 -160s-100.5 -84.334 -184.5 -119.001l-99 -41c-3.33301 -1.33301 -26.666 -10 -69.999 -26c-69.333 -26.667 -113 -50.334 -131 -71.001z" />
    <glyph glyph-name="threequarters" unicode="&#xbe;" horiz-adv-x="2526" 
d="M771 977c90 -33.333 135.001 -92.999 135.001 -178.999c0 -90 -42.667 -158 -128 -204c-74.667 -40.667 -167 -61 -277 -61c-117.333 0 -223.666 21.333 -318.999 64c-39.333 17.333 -64.333 26 -75 26c-9.33301 0 -23.333 -8 -42 -24l-29 14l108 229l31 -12
c-2.66699 -6.66699 -4 -12 -4 -16c0 -33.333 33.667 -63.333 101 -90s142.666 -40 225.999 -40c63.333 0 113.166 10.167 149.499 30.5s54.5 47.833 54.5 82.5c0 72 -65 108 -195 108c-42 0 -70.167 -2.66699 -84.5 -8s-23.5 -16.333 -27.5 -33h-32v211h32
c5.33301 -18.667 14.166 -30.5 26.499 -35.5s39.833 -7.5 82.5 -7.5c56.667 0 100.834 8.66699 132.501 26s47.5 41.333 47.5 72c0 31.333 -15.833 55.5 -47.5 72.5s-77.167 25.5 -136.5 25.5c-64.667 0 -125.5 -10.5 -182.5 -31.5s-85.5 -43.5 -85.5 -67.5
c0 -7.33301 3.33301 -17 10 -29l-26 -19l-156 177l25 19c17.333 -7.33301 29.333 -11 36 -11c8 0 18.333 4 31 12c107.333 67.333 228.333 101 363 101c93.333 0 172.333 -17 237 -51c80 -42 120 -104.333 120 -187c0 -70.667 -33.667 -125.334 -101 -164.001zM1832 1365
l0.000976562 -31.998c-33.333 -4.66699 -56 -12.834 -68 -24.501s-39 -50.5 -81 -116.5l-618 -1040c-16.667 -28 -25 -48.333 -25 -61c0 -16 6.83301 -29.167 20.5 -39.5s32.5 -16.833 56.5 -19.5v-32h-420v32c33.333 6 58.166 16.667 74.499 32s42.5 52.666 78.5 111.999
l609 1016c20 32.667 30 57 30 73s-7.33301 30.5 -22 43.5s-33 21.167 -55 24.5v32h420zM2171 136.003l-453 -0.000976562c-24 0 -39.333 -2 -46 -6s-11.667 -14.667 -15 -32h-32v180l436 452c18 18.667 27 31.334 27 38.001c0 10 -11 16.333 -33 19v32h356v-31
c-16 -4 -26.833 -8.5 -32.5 -13.5s-8.5 -12.833 -8.5 -23.5v-469h42c12 0 20.667 2.5 26 7.5s10.333 15.167 15 30.5h32v-222h-32c-4.66699 15.333 -9.66699 25.5 -15 30.5s-14 7.5 -26 7.5h-42v-67c0 -11.333 2.66699 -19.5 8 -24.5s16.333 -9.5 33 -13.5v-31h-281v31
c16.667 4 27.667 8.5 33 13.5s8 13.167 8 24.5v67zM2171 282.002v330l-314 -330h314z" />
    <glyph glyph-name="questiondown" unicode="&#xbf;" horiz-adv-x="1000" 
d="M787 385l172.002 -251.999l-26 -18l-8 4c-14.667 7.33301 -26 11 -34 11c-15.333 0 -44 -13.667 -86 -41c-62.667 -41.333 -118.5 -70.5 -167.5 -87.5s-101.833 -25.5 -158.5 -25.5c-92 0 -169 21.667 -231 65c-83.333 58 -125 137.333 -125 238
c0 52.667 13.333 103 40 151s72.667 104 138 168c45.333 44.667 74.833 79.834 88.5 105.501s20.5 58.834 20.5 99.501c0 17.333 -4 30.166 -12 38.499s-23.333 15.5 -46 21.5v32h329v-32c-26.667 -8.66699 -44.334 -19.834 -53.001 -33.501s-16.667 -44.167 -24 -91.5
c-7.33301 -42.667 -17.5 -76.5 -30.5 -101.5s-40.167 -63.5 -81.5 -115.5c-37.333 -46.667 -62.5 -82.834 -75.5 -108.501s-19.5 -52.5 -19.5 -80.5c0 -43.333 14.167 -78.166 42.5 -104.499s66.166 -39.5 113.499 -39.5c70.667 0 131 25.333 181 76c23.333 24 35 47 35 69
c0 7.33301 -3 18.666 -9 33.999zM500.002 1389c45.333 0 84 -16.1699 116 -48.5029s48 -71.166 48 -116.499c0 -44.667 -16 -83 -48 -115s-70.667 -48 -116 -48c-46 0 -84.833 16 -116.5 48s-47.5 71 -47.5 117c0 44.667 16 82.834 48 114.501s70.667 47.834 116 48.501z
" />
    <glyph glyph-name="Agrave" unicode="&#xc0;" horiz-adv-x="1666" 
d="M1123 348l-620 -0.000976562l-92 -192c-12.667 -26.667 -19 -47.667 -19 -63c0 -29.333 22.333 -49.666 67 -60.999v-32h-452v32c26.667 5.33301 47 14.666 61 27.999s30 39.333 48 78l502 1049c16 33.333 24 60 24 80c0 30.667 -19.333 52.667 -58 66v32h484v-32
c-39.333 -11.333 -59 -31 -59 -59c0 -19.333 6.33301 -41.333 19 -66l520 -1052c22 -44.667 41.333 -75.167 58 -91.5s39 -27.166 67 -32.499v-32h-502v32c44 7.33301 66 28 66 62c0 14 -6.66699 34.667 -20 62zM1037 534.999l-221 486l-224 -486h445zM543 1765
l304 0.000976562v-27c-18.667 -2 -28 -8.33301 -28 -19c0 -4 1.33301 -9 4 -15l66 -163c6 -14.667 12.333 -24.334 19 -29.001s18 -7 34 -7v-27h-217v27h5c13.333 0 20 5.33301 20 16c0 6 -2 11.333 -6 16l-142 173c-13.333 18 -33 27.333 -59 28v27z" />
    <glyph glyph-name="Aacute" unicode="&#xc1;" horiz-adv-x="1666" 
d="M1123 348l-620 -0.000976562l-92 -192c-12.667 -26.667 -19 -47.667 -19 -63c0 -29.333 22.333 -49.666 67 -60.999v-32h-452v32c26.667 5.33301 47 14.666 61 27.999s30 39.333 48 78l502 1049c16 33.333 24 60 24 80c0 30.667 -19.333 52.667 -58 66v32h484v-32
c-39.333 -11.333 -59 -31 -59 -59c0 -19.333 6.33301 -41.333 19 -66l520 -1052c22 -44.667 41.333 -75.167 58 -91.5s39 -27.166 67 -32.499v-32h-502v32c44 7.33301 66 28 66 62c0 14 -6.66699 34.667 -20 62zM1037 534.999l-221 486l-224 -486h445zM1108 1765v-27.001
c-26 -0.666992 -45.667 -10 -59 -28l-142 -173c-4 -4.66699 -6 -10 -6 -16c0 -10.667 7 -16 21 -16h4v-27h-217v27c16 0 27.333 2.33301 34 7s13 14.334 19 29.001l66 163c2.66699 6 4 11 4 15c0 10.667 -9.33301 17 -28 19v27h304z" />
    <glyph glyph-name="Acircumflex" unicode="&#xc2;" horiz-adv-x="1666" 
d="M1123 348l-620 -0.000976562l-92 -192c-12.667 -26.667 -19 -47.667 -19 -63c0 -29.333 22.333 -49.666 67 -60.999v-32h-452v32c26.667 5.33301 47 14.666 61 27.999s30 39.333 48 78l502 1049c16 33.333 24 60 24 80c0 30.667 -19.333 52.667 -58 66v32h484v-32
c-39.333 -11.333 -59 -31 -59 -59c0 -19.333 6.33301 -41.333 19 -66l520 -1052c22 -44.667 41.333 -75.167 58 -91.5s39 -27.166 67 -32.499v-32h-502v32c44 7.33301 66 28 66 62c0 14 -6.66699 34.667 -20 62zM1037 534.999l-221 486l-224 -486h445zM737 1478
l-250.001 -0.000976562v27c16 0.666992 26.333 2.5 31 5.5s17.334 15.167 38.001 36.5l134 149c7.33301 8 11 16.333 11 25c0 11.333 -11 17 -33 17v27h316v-27c-20 -2 -30 -8 -30 -18c0 -7.33301 5.33301 -16.666 16 -27.999l150 -167
c10.667 -12.667 25.667 -19.334 45 -20.001v-27h-287v27c20.667 1.33301 31 6.33301 31 15c0 2.66699 -5.33301 10.334 -16 23.001l-84 103l-92 -106c-6 -6 -9 -12 -9 -18c0 -10 9.66699 -15.667 29 -17v-27z" />
    <glyph glyph-name="Atilde" unicode="&#xc3;" horiz-adv-x="1666" 
d="M1123 348l-620 -0.000976562l-92 -192c-12.667 -26.667 -19 -47.667 -19 -63c0 -29.333 22.333 -49.666 67 -60.999v-32h-452v32c26.667 5.33301 47 14.666 61 27.999s30 39.333 48 78l502 1049c16 33.333 24 60 24 80c0 30.667 -19.333 52.667 -58 66v32h484v-32
c-39.333 -11.333 -59 -31 -59 -59c0 -19.333 6.33301 -41.333 19 -66l520 -1052c22 -44.667 41.333 -75.167 58 -91.5s39 -27.166 67 -32.499v-32h-502v32c44 7.33301 66 28 66 62c0 14 -6.66699 34.667 -20 62zM1037 534.999l-221 486l-224 -486h445zM1042 1749
l144.999 -134l-16 -20c-19.333 6 -31.666 9 -36.999 9c-8.66699 0 -17.334 -5.66699 -26.001 -17c-44.667 -60.667 -92 -91 -142 -91c-26.667 0 -55 5.66699 -85 17l-148 57c-14.667 5.33301 -29.334 8 -44.001 8c-13.333 0 -26.333 -5.5 -39 -16.5s-19 -22.167 -19 -33.5
c0 -8 5 -18.333 15 -31l-18 -14l-149 138l14 17c16 -5.33301 27.333 -8 34 -8c14 0 26.667 7.66699 38 23c40.667 53.333 91.334 80 152.001 80c20.667 0 42.334 -4.33301 65.001 -13l149 -59c17.333 -6.66699 34.333 -10 51 -10c13.333 0 26 5.33301 38 16s18 22 18 34
c0 8.66699 -5.66699 19.667 -17 33z" />
    <glyph glyph-name="Adieresis" unicode="&#xc4;" horiz-adv-x="1666" 
d="M1123 348l-619.999 -0.00195312l-92 -192c-12.667 -26.667 -19 -47.667 -19 -63c0 -29.333 22.333 -49.666 67 -60.999v-32h-452v32c27.333 5.33301 47.666 14.333 60.999 27s29.333 39 48 79l502 1049c16 33.333 24 60 24 80c0 30.667 -19.333 52.667 -58 66v32h484v-32
c-39.333 -11.333 -59 -31 -59 -59c0 -19.333 6.33301 -41.333 19 -66l520 -1052c22 -44.667 41.333 -75.167 58 -91.5s39 -27.166 67 -32.499v-32h-502v32c44 7.33301 66 28 66 62c0 14 -6.66699 34.667 -20 62zM1037 534.998l-221 486l-224 -486h445zM625.001 1742
c38.667 0 70.333 -12.668 95 -38.001c25.333 -26 38 -58 38 -96c0 -34 -12.667 -63.667 -38 -89s-56.333 -38 -93 -38c-35.333 0 -66 12.667 -92 38c-25.333 24.667 -38 55.334 -38 92.001c0 36 12.333 66.5 37 91.5s55 38.167 91 39.5zM1024 1742
c36.667 0 67.667 -12.667 93 -38c25.333 -26 38 -56 38 -90c0 -38 -12.667 -69.667 -38 -95s-57.333 -38 -96 -38c-34.667 0 -64.5 12.833 -89.5 38.5s-37.5 56.5 -37.5 92.5s12.5 66.5 37.5 91.5s55.833 37.833 92.5 38.5z" />
    <glyph glyph-name="Aring" unicode="&#xc5;" horiz-adv-x="1666" 
d="M1123 348l-620 -0.000976562l-92 -192c-12.667 -26.667 -19 -47.667 -19 -63c0 -29.333 22.333 -49.666 67 -60.999v-32h-452v32c26.667 5.33301 47 14.666 61 27.999s30 39.333 48 78l502 1049c16 33.333 24 60 24 80c0 30.667 -19.333 52.667 -58 66v32h484v-32
c-39.333 -11.333 -59 -31 -59 -59c0 -19.333 6.33301 -41.333 19 -66l520 -1052c22 -44.667 41.333 -75.167 58 -91.5s39 -27.166 67 -32.499v-32h-502v32c44 7.33301 66 28 66 62c0 14 -6.66699 34.667 -20 62zM1037 534.999l-221 486l-224 -486h445zM826 1813
c64.667 0 118.999 -18.3359 162.999 -55.0029c44.667 -37.333 67 -82 67 -134c0 -53.333 -22.333 -97.666 -67 -132.999c-46 -36 -100 -54 -162 -54c-63.333 0 -117.333 18.333 -162 55c-44.667 37.333 -67 82 -67 134c0 52.667 21.833 96.834 65.5 132.501
s97.834 53.834 162.501 54.501zM826.999 1709c-29.333 0 -53.5 -7.83301 -72.5 -23.5s-28.5 -35.834 -28.5 -60.501c0 -23.333 9.83301 -43.166 29.5 -59.499s43.5 -24.5 71.5 -24.5c27.333 0 51 8.16699 71 24.5s30 35.833 30 58.5c0 24.667 -9.33301 45 -28 61
s-43 24 -73 24z" />
    <glyph glyph-name="AE" unicode="&#xc6;" horiz-adv-x="2381" 
d="M1013 348l-489.001 0.000976562l-112 -192c-17.333 -29.333 -26 -52 -26 -68c0 -26.667 20 -45.334 60 -56.001v-32h-472v32c28 6 49.333 15.333 64 28s33.334 38.667 56.001 78l604 1049c22 37.333 33 65.666 33 84.999c0 28 -20 48.333 -60 61v32h1493
c20.667 0 36.334 4.83301 47 14.5c10.667 9.66699 19.334 26.5 26 50.5h32v-353h-32c-6.66699 23.333 -15.334 39.666 -26 48.999c-10.667 9.33301 -26.334 14 -47 14h-853v-324h553c20 0 35.333 4.66699 46 14s19.334 26 26.001 50h32v-345h-32
c-6.66699 24 -15.334 40.667 -26.001 50s-26 14 -46 14h-553v-374h877c20.667 0 36.334 4.66699 47 14c10.667 9.33301 19.334 26 26 50h32v-353h-32c-6.66699 24 -15.334 40.667 -26 50c-10.667 9.33301 -26.334 14 -47 14h-1239v32c24 6.66699 40.667 15.334 50 26.001
s14 26.334 14 47.001v243zM1013 535.001v605h-43l-338 -605h381z" />
    <glyph glyph-name="Ccedilla" unicode="&#xc7;" horiz-adv-x="1718" 
d="M1446 469l190 -285.001l-26 -18c-18.667 17.333 -34 26 -46 26s-45.667 -16 -101 -48c-114.667 -66 -211.167 -110.5 -289.5 -133.5s-171.5 -34.5 -279.5 -34.5c-215.333 0 -392 51 -530 153c-81.333 59.333 -145.333 133 -192 221c-54 100.667 -81 211.667 -81 333
c0 165.333 48.333 309 145 431c145.333 183.333 365 275 659 275c108 0 200.667 -11.333 278 -34s174 -67.334 290 -134.001c55.333 -31.333 89 -47 101 -47s27.333 8.66699 46 26l26 -18l-190 -285l-27 18c1.33301 10.667 2 19.667 2 27c0 19.333 -8.33301 37.5 -25 54.5
s-46.334 37.5 -89.001 61.5c-118 66.667 -243 100 -375 100c-156 0 -280.333 -39 -373 -117c-109.333 -91.333 -164 -210.666 -164 -357.999s54.667 -266.666 164 -357.999c92.667 -78 217 -117 373 -117c132 0 257 33.333 375 100c42.667 24 72.334 44.5 89.001 61.5
s25 35.167 25 54.5c0 7.33301 -0.666992 16 -2 26zM712 -246.001l56.9971 109.999c8.66699 16.667 14.834 26.334 18.501 29.001s11.167 4 22.5 4c91.333 0 162 -15.333 212 -46s75 -74 75 -130c0 -53.333 -21.333 -97.333 -64 -132
c-45.333 -36.667 -110.666 -55 -195.999 -55c-88 0 -161.333 10.333 -220 31l25 52c40 -10.667 77.333 -16 112 -16c46 0 82.667 8.33301 110 25s41 39.334 41 68.001c0 21.333 -7.66699 39.666 -23 54.999s-33.666 23 -54.999 23c-32 0 -59.667 -13 -83 -39z" />
    <glyph glyph-name="Egrave" unicode="&#xc8;" horiz-adv-x="1556" 
d="M485 599v-374.003h878c20 0 35.333 4.66699 46 14s19.334 26 26.001 50h32v-353h-32c-6.66699 24 -15.334 40.667 -26.001 50s-26 14 -46 14h-1240v32c24 6.66699 40.667 15.334 50 26.001s14 26.334 14 47.001v1155c0 20.667 -4.66699 36.334 -14 47.001
s-26 19.334 -50 26.001v32h1216c20 0 35.333 4.83301 46 14.5s19.334 26.5 26.001 50.5h32v-353h-32c-6.66699 23.333 -15.334 39.666 -26.001 48.999s-26 14 -46 14h-854v-324h554c20 0 35.333 4.66699 46 14s19.334 26 26.001 50h32v-345h-32
c-6.66699 23.333 -15.334 39.833 -26.001 49.5s-26 14.5 -46 14.5h-554zM534 1765l304 0.000976562v-27c-18.667 -2 -28 -8.33301 -28 -19c0 -4 1.33301 -9 4 -15l66 -163c6 -14.667 12.333 -24.334 19 -29.001s18 -7 34 -7v-27h-217v27h5c13.333 0 20 5.33301 20 16
c0 6 -2 11.333 -6 16l-142 173c-13.333 18 -33 27.333 -59 28v27z" />
    <glyph glyph-name="Eacute" unicode="&#xc9;" horiz-adv-x="1556" 
d="M485 599v-374.003h878c20 0 35.333 4.66699 46 14s19.334 26 26.001 50h32v-353h-32c-6.66699 24 -15.334 40.667 -26.001 50s-26 14 -46 14h-1240v32c24 6.66699 40.667 15.334 50 26.001s14 26.334 14 47.001v1155c0 20.667 -4.66699 36.334 -14 47.001
s-26 19.334 -50 26.001v32h1216c20 0 35.333 4.83301 46 14.5s19.334 26.5 26.001 50.5h32v-353h-32c-6.66699 23.333 -15.334 39.666 -26.001 48.999s-26 14 -46 14h-854v-324h554c20 0 35.333 4.66699 46 14s19.334 26 26.001 50h32v-345h-32
c-6.66699 23.333 -15.334 39.833 -26.001 49.5s-26 14.5 -46 14.5h-554zM1070 1765v-27.001c-26 -0.666992 -45.667 -10 -59 -28l-142 -173c-4 -4.66699 -6 -10 -6 -16c0 -10.667 7 -16 21 -16h4v-27h-217v27c16 0 27.333 2.33301 34 7s13 14.334 19 29.001l66 163
c2.66699 6 4 11 4 15c0 10.667 -9.33301 17 -28 19v27h304z" />
    <glyph glyph-name="Ecircumflex" unicode="&#xca;" horiz-adv-x="1556" 
d="M485 599v-374.003h878c20 0 35.333 4.66699 46 14s19.334 26 26.001 50h32v-353h-32c-6.66699 24 -15.334 40.667 -26.001 50s-26 14 -46 14h-1240v32c24 6.66699 40.667 15.334 50 26.001s14 26.334 14 47.001v1155c0 20.667 -4.66699 36.334 -14 47.001
s-26 19.334 -50 26.001v32h1216c20 0 35.333 4.83301 46 14.5s19.334 26.5 26.001 50.5h32v-353h-32c-6.66699 23.333 -15.334 39.666 -26.001 48.999s-26 14 -46 14h-854v-324h554c20 0 35.333 4.66699 46 14s19.334 26 26.001 50h32v-345h-32
c-6.66699 23.333 -15.334 39.833 -26.001 49.5s-26 14.5 -46 14.5h-554zM713 1478l-250.001 -0.000976562v27c16 0.666992 26.333 2.5 31 5.5s17.334 15.167 38.001 36.5l134 149c7.33301 8 11 16.333 11 25c0 11.333 -11 17 -33 17v27h316v-27c-20 -2 -30 -8 -30 -18
c0 -7.33301 5.33301 -16.666 16 -27.999l150 -167c10.667 -12.667 25.667 -19.334 45 -20.001v-27h-287v27c20.667 1.33301 31 6.33301 31 15c0 2.66699 -5.33301 10.334 -16 23.001l-84 103l-92 -106c-6 -6 -9 -12 -9 -18c0 -10 9.66699 -15.667 29 -17v-27z" />
    <glyph glyph-name="Edieresis" unicode="&#xcb;" horiz-adv-x="1556" 
d="M485 599v-374.003h878c20 0 35.333 4.66699 46 14s19.334 26 26.001 50h32v-353h-32c-6.66699 24 -15.334 40.667 -26.001 50s-26 14 -46 14h-1240v32c24 6.66699 40.667 15.334 50 26.001s14 26.334 14 47.001v1155c0 20.667 -4.66699 36.334 -14 47.001
s-26 19.334 -50 26.001v32h1216c20 0 35.333 4.83301 46 14.5s19.334 26.5 26.001 50.5h32v-353h-32c-6.66699 23.333 -15.334 39.666 -26.001 48.999s-26 14 -46 14h-854v-324h554c20 0 35.333 4.66699 46 14s19.334 26 26.001 50h32v-345h-32
c-6.66699 23.333 -15.334 39.833 -26.001 49.5s-26 14.5 -46 14.5h-554zM601 1742c38 0 69.667 -12.668 95 -38.001c25.333 -26 38 -58 38 -96c0 -34 -12.667 -63.667 -38 -89s-56.333 -38 -93 -38c-35.333 0 -66 12.667 -92 38c-25.333 24.667 -38 55.334 -38 92.001
c0 36 12.333 66.5 37 91.5s55 38.167 91 39.5zM1000 1742c36.667 0 67.667 -12.666 93 -37.999c25.333 -26 38 -56 38 -90c0 -38 -12.667 -69.667 -38 -95s-57 -38 -95 -38c-35.333 0 -65.5 12.833 -90.5 38.5s-37.5 56.5 -37.5 92.5c0 35.333 12.5 65.666 37.5 90.999
s55.833 38.333 92.5 39z" />
    <glyph glyph-name="Igrave" unicode="&#xcc;" horiz-adv-x="672" 
d="M187 105v1156c0 20 -4.66699 35.333 -14 46s-26 19.334 -50 26.001v32h426v-32c-24 -6 -40.667 -14.5 -50 -25.5s-14 -26.5 -14 -46.5v-1156c0 -20.667 4.83301 -36.5 14.5 -47.5s26.167 -19.5 49.5 -25.5v-32h-426v32c24 6.66699 40.667 15.334 50 26.001
s14 26.334 14 47.001zM52 1765l304 0.000976562v-27c-18.667 -2 -28 -8.33301 -28 -19c0 -4 1.33301 -9 4 -15l66 -163c6 -14.667 12.333 -24.334 19 -29.001s18 -7 34 -7v-27h-217v27h5c13.333 0 20 5.33301 20 16c0 6 -2 11.333 -6 16l-142 173
c-13.333 18 -33 27.333 -59 28v27z" />
    <glyph glyph-name="Iacute" unicode="&#xcd;" horiz-adv-x="672" 
d="M187 105v1156c0 20 -4.66699 35.333 -14 46s-26 19.334 -50 26.001v32h426v-32c-24 -6 -40.667 -14.5 -50 -25.5s-14 -26.5 -14 -46.5v-1156c0 -20.667 4.83301 -36.5 14.5 -47.5s26.167 -19.5 49.5 -25.5v-32h-426v32c24 6.66699 40.667 15.334 50 26.001
s14 26.334 14 47.001zM619 1765v-27.001c-26 -0.666992 -45.667 -10 -59 -28l-142 -173c-4 -4.66699 -6 -10 -6 -16c0 -10.667 7 -16 21 -16h4v-27h-217v27c16 0 27.333 2.33301 34 7s13 14.334 19 29.001l66 163c2.66699 6 4 11 4 15c0 10.667 -9.33301 17 -28 19v27h304z
" />
    <glyph glyph-name="Icircumflex" unicode="&#xce;" horiz-adv-x="671" 
d="M187 105v1156c0 20 -4.66699 35.333 -14 46s-26 19.334 -50 26.001v32h426v-32c-24 -6 -40.667 -14.5 -50 -25.5s-14 -26.5 -14 -46.5v-1156c0 -20.667 4.83301 -36.5 14.5 -47.5s26.167 -19.5 49.5 -25.5v-32h-426v32c24 6.66699 40.667 15.334 50 26.001
s14 26.334 14 47.001zM253 1478l-250.001 -0.000976562v27c16 0.666992 26.333 2.5 31 5.5s17.334 15.167 38.001 36.5l134 149c7.33301 8 11 16.333 11 25c0 11.333 -11 17 -33 17v27h316v-27c-20 -2 -30 -8 -30 -18c0 -7.33301 5.33301 -16.666 16 -27.999l150 -167
c10.667 -12.667 25.667 -19.334 45 -20.001v-27h-287v27c20.667 1.33301 31 6.33301 31 15c0 2.66699 -5.33301 10.334 -16 23.001l-84 103l-92 -106c-6 -6 -9 -12 -9 -18c0 -10 9.66699 -15.667 29 -17v-27z" />
    <glyph glyph-name="Idieresis" unicode="&#xcf;" horiz-adv-x="671" 
d="M187 105v1156c0 20 -4.66699 35.333 -14 46s-26 19.334 -50 26.001v32h426v-32c-24 -6 -40.667 -14.5 -50 -25.5s-14 -26.5 -14 -46.5v-1156c0 -20.667 4.83301 -36.5 14.5 -47.5s26.167 -19.5 49.5 -25.5v-32h-426v32c24 6.66699 40.667 15.334 50 26.001
s14 26.334 14 47.001zM169 1742c38 0 69.667 -12.668 95 -38.001c25.333 -26 38 -58 38 -96c0 -34 -12.667 -63.667 -38 -89s-56.333 -38 -93 -38c-35.333 0 -66 12.667 -92 38c-25.333 24.667 -38 55.334 -38 92.001c0 36 12.333 66.5 37 91.5s55 38.167 91 39.5zM500 1742
c36.667 0 67.667 -12.666 93 -37.999c25.333 -26 38 -56 38 -90c0 -38 -12.667 -69.667 -38 -95s-57.333 -38 -96 -38c-34.667 0 -64.5 12.833 -89.5 38.5s-37.5 56.5 -37.5 92.5c0 35.333 12.5 65.666 37.5 90.999s55.833 38.333 92.5 39z" />
    <glyph glyph-name="Eth" unicode="&#xd0;" horiz-adv-x="1717" 
d="M188 608l-65.999 -0.00488281c-20.667 0 -36.167 -4.66699 -46.5 -14s-19.166 -26.333 -26.499 -51h-32v327h32c7.33301 -24.667 16.166 -41.5 26.499 -50.5s25.833 -13.5 46.5 -13.5h66v454c0 20.667 -4.66699 36.334 -14 47.001s-26 19.334 -50 26.001v32h760
c167.333 0 295.666 -19 384.999 -57c128 -55.333 223 -146.666 285 -273.999c48 -100 72 -217 72 -351c0 -236 -72.333 -415.333 -217 -538c-60.667 -52 -131.667 -89.167 -213 -111.5s-185.333 -33.5 -312 -33.5h-760v32c24 6.66699 40.667 15.334 50 26.001
s14 26.334 14 47.001v503zM486.001 805.995l305 0.000976562c20 0 35.333 4.83301 46 14.5s19.334 26.167 26.001 49.5h32v-327h-32c-6.66699 24 -15.334 40.833 -26.001 50.5s-26 14.5 -46 14.5h-305v-383h373c120 0 210 16.333 270 49c128.667 70 193 206.333 193 409
c0 146.667 -34.667 259 -104 337c-38.667 43.333 -85.5 74.166 -140.5 92.499s-127.833 27.5 -218.5 27.5h-373v-334z" />
    <glyph glyph-name="Ntilde" unicode="&#xd1;" horiz-adv-x="1785" 
d="M460 935v-829.999c0 -20.667 4.66699 -36.334 14 -47.001s26 -19.334 50 -26.001v-32h-401v32c24 6.66699 40.667 15.334 50 26.001s14 26.334 14 47.001v1156c0 20 -4.66699 35.333 -14 46s-26 19.334 -50 26.001v32h464v-32c-28.667 -7.33301 -43 -22.666 -43 -45.999
c0 -16 9.33301 -33.667 28 -53l753 -783v810c0 20 -4.66699 35.333 -14 46s-26 19.334 -50 26.001v32h401v-32c-24 -6.66699 -40.667 -15.334 -50 -26.001s-14 -26 -14 -46v-1156c0 -20.667 4.66699 -36.334 14 -47.001s26 -19.334 50 -26.001v-32h-430v32
c28 6 42 20.333 42 43c0 13.333 -16.333 36.666 -49 69.999zM1115 1749l144.999 -134l-16 -20c-19.333 6 -31.666 9 -36.999 9c-8.66699 0 -17.334 -5.66699 -26.001 -17c-44.667 -60.667 -92 -91 -142 -91c-26.667 0 -55 5.66699 -85 17l-148 57
c-14.667 5.33301 -29.334 8 -44.001 8c-13.333 0 -26.333 -5.5 -39 -16.5s-19 -22.167 -19 -33.5c0 -8 5 -18.333 15 -31l-18 -14l-149 138l14 17c16 -5.33301 27.333 -8 34 -8c14 0 26.667 7.66699 38 23c40.667 53.333 91.334 80 152.001 80
c20.667 0 42.334 -4.33301 65.001 -13l149 -59c17.333 -6.66699 34.333 -10 51 -10c13.333 0 26 5.33301 38 16s18 22 18 34c0 8.66699 -5.66699 19.667 -17 33z" />
    <glyph glyph-name="Ograve" unicode="&#xd2;" horiz-adv-x="1752" 
d="M873 1389c238 0 426.668 -64.333 566.001 -193c147.333 -134.667 221 -308.667 221 -522c0 -130.667 -35.333 -252.667 -106 -366c-138 -221.333 -364.333 -332 -679 -332c-236 0 -423.667 64.333 -563 193c-74.667 68.667 -131.334 151 -170.001 247
c-34 84.667 -51 173.667 -51 267c0 136.667 35 261.667 105 375c134 216.667 359.667 327 677 331zM874.001 1158c-130 0 -238.333 -38.667 -325 -116c-102.667 -91.333 -154 -211 -154 -359s51.333 -267.667 154 -359c86.667 -77.333 195.667 -116 327 -116
s240 38.667 326 116c51.333 46 90.666 102.333 117.999 169c24 59.333 36 120.666 36 183.999c0 154.667 -51.333 276.334 -154 365.001c-87.333 76 -196.666 114.667 -327.999 116zM608.001 1765l304 0.000976562v-27c-18.667 -2 -28 -8.33301 -28 -19
c0 -4 1.33301 -9 4 -15l66 -163c6 -14.667 12.333 -24.334 19 -29.001s18 -7 34 -7v-27h-217v27h5c13.333 0 20 5.33301 20 16c0 6 -2 11.333 -6 16l-142 173c-13.333 18 -33 27.333 -59 28v27z" />
    <glyph glyph-name="Oacute" unicode="&#xd3;" horiz-adv-x="1752" 
d="M873 1389c238 0 426.668 -64.333 566.001 -193c147.333 -134.667 221 -308.667 221 -522c0 -130.667 -35.333 -252.667 -106 -366c-138 -221.333 -364.333 -332 -679 -332c-236 0 -423.667 64.333 -563 193c-74.667 68.667 -131.334 151 -170.001 247
c-34 84.667 -51 173.667 -51 267c0 136.667 35 261.667 105 375c134 216.667 359.667 327 677 331zM874.001 1158c-130 0 -238.333 -38.667 -325 -116c-102.667 -91.333 -154 -211 -154 -359s51.333 -267.667 154 -359c86.667 -77.333 195.667 -116 327 -116
s240 38.667 326 116c51.333 46 90.666 102.333 117.999 169c24 59.333 36 120.666 36 183.999c0 154.667 -51.333 276.334 -154 365.001c-87.333 76 -196.666 114.667 -327.999 116zM1150 1765v-27.001c-26 -0.666992 -45.667 -10 -59 -28l-142 -173
c-4 -4.66699 -6 -10 -6 -16c0 -10.667 7 -16 21 -16h4v-27h-217v27c16 0 27.333 2.33301 34 7s13 14.334 19 29.001l66 163c2.66699 6 4 11 4 15c0 10.667 -9.33301 17 -28 19v27h304z" />
    <glyph glyph-name="Ocircumflex" unicode="&#xd4;" horiz-adv-x="1752" 
d="M873 1389c238 0 426.668 -64.333 566.001 -193c147.333 -134.667 221 -308.667 221 -522c0 -130.667 -35.333 -252.667 -106 -366c-138 -221.333 -364.333 -332 -679 -332c-236 0 -423.667 64.333 -563 193c-74.667 68.667 -131.334 151 -170.001 247
c-34 84.667 -51 173.667 -51 267c0 136.667 35 261.667 105 375c134 216.667 359.667 327 677 331zM874.001 1158c-130 0 -238.333 -38.667 -325 -116c-102.667 -91.333 -154 -211 -154 -359s51.333 -267.667 154 -359c86.667 -77.333 195.667 -116 327 -116
s240 38.667 326 116c51.333 46 90.666 102.333 117.999 169c24 59.333 36 120.666 36 183.999c0 154.667 -51.333 276.334 -154 365.001c-87.333 76 -196.666 114.667 -327.999 116zM787.001 1478l-250.001 -0.000976562v27c16 0.666992 26.333 2.5 31 5.5
s17.334 15.167 38.001 36.5l134 149c7.33301 8 11 16.333 11 25c0 11.333 -11 17 -33 17v27h316v-27c-20 -2 -30 -8 -30 -18c0 -7.33301 5.33301 -16.666 16 -27.999l150 -167c10.667 -12.667 25.667 -19.334 45 -20.001v-27h-287v27c20.667 1.33301 31 6.33301 31 15
c0 2.66699 -5.33301 10.334 -16 23.001l-84 103l-92 -106c-6 -6 -9 -12 -9 -18c0 -10 9.66699 -15.667 29 -17v-27z" />
    <glyph glyph-name="Otilde" unicode="&#xd5;" horiz-adv-x="1752" 
d="M873 1389c238 0 426.668 -64.333 566.001 -193c147.333 -134.667 221 -308.667 221 -522c0 -130.667 -35.333 -252.667 -106 -366c-138 -221.333 -364.333 -332 -679 -332c-236 0 -423.667 64.333 -563 193c-74.667 68.667 -131.334 151 -170.001 247
c-34 84.667 -51 173.667 -51 267c0 136.667 35 261.667 105 375c134 216.667 359.667 327 677 331zM874.001 1158c-130 0 -238.333 -38.667 -325 -116c-102.667 -91.333 -154 -211 -154 -359s51.333 -267.667 154 -359c86.667 -77.333 195.667 -116 327 -116
s240 38.667 326 116c51.333 46 90.666 102.333 117.999 169c24 59.333 36 120.666 36 183.999c0 154.667 -51.333 276.334 -154 365.001c-87.333 76 -196.666 114.667 -327.999 116zM1099 1749l144.999 -134l-16 -20c-19.333 6 -31.666 9 -36.999 9
c-8.66699 0 -17.334 -5.66699 -26.001 -17c-44.667 -60.667 -92 -91 -142 -91c-26.667 0 -55 5.66699 -85 17l-148 57c-14.667 5.33301 -29.334 8 -44.001 8c-13.333 0 -26.333 -5.5 -39 -16.5s-19 -22.167 -19 -33.5c0 -8 5 -18.333 15 -31l-18 -14l-149 138l14 17
c16 -5.33301 27.333 -8 34 -8c14 0 26.667 7.66699 38 23c40.667 53.333 91.334 80 152.001 80c20.667 0 42.334 -4.33301 65.001 -13l149 -59c17.333 -6.66699 34.333 -10 51 -10c13.333 0 26 5.33301 38 16s18 22 18 34c0 8.66699 -5.66699 19.667 -17 33z" />
    <glyph glyph-name="Odieresis" unicode="&#xd6;" horiz-adv-x="1752" 
d="M873 1389c238 0 426.668 -64.333 566.001 -193c147.333 -134.667 221 -308.667 221 -522c0 -130.667 -35.333 -252.667 -106 -366c-138 -221.333 -364.333 -332 -679 -332c-236 0 -423.667 64.333 -563 193c-74.667 68.667 -131.334 151 -170.001 247
c-34 84.667 -51 173.667 -51 267c0 136.667 35 261.667 105 375c134 216.667 359.667 327 677 331zM874.001 1158c-130 0 -238.333 -38.667 -325 -116c-102.667 -91.333 -154 -211 -154 -359s51.333 -267.667 154 -359c86.667 -77.333 195.667 -116 327 -116
s240 38.667 326 116c51.333 46 90.666 102.333 117.999 169c24 59.333 36 120.666 36 183.999c0 154.667 -51.333 276.334 -154 365.001c-87.333 76 -196.666 114.667 -327.999 116zM675.001 1742c38 0 69.667 -12.668 95 -38.001c25.333 -26 38 -58 38 -96
c0 -34 -12.667 -63.667 -38 -89s-56.333 -38 -93 -38c-35.333 0 -66 12.667 -92 38c-25.333 24.667 -38 55.334 -38 92.001c0 36 12.333 66.5 37 91.5s55 38.167 91 39.5zM1074 1742c36.667 0 67.667 -12.666 93 -37.999c25.333 -26 38 -56 38 -90
c0 -38 -12.667 -69.667 -38 -95s-57.333 -38 -96 -38c-34.667 0 -64.5 12.833 -89.5 38.5s-37.5 56.5 -37.5 92.5c0 35.333 12.5 65.666 37.5 90.999s55.833 38.333 92.5 39z" />
    <glyph glyph-name="multiply" unicode="&#xd7;" horiz-adv-x="1570" 
d="M785 544l-276 -276.001c-14 -14 -21 -28.333 -21 -43c0 -12 6.33301 -28.667 19 -50l-21 -21l-229 230l21 21c20.667 -12.667 37.334 -19 50.001 -19c14.667 0 28.667 6.66699 42 20l277 277l-277 276c-13.333 13.333 -27.333 20 -42 20
c-12.667 0 -29.334 -6 -50.001 -18l-21 21l229 229l21 -21c-12.667 -21.333 -19 -38 -19 -50c0 -14.667 7 -28.667 21 -42l276 -277l276 276c14 14 21 28.333 21 43c0 12 -6.33301 28.667 -19 50l21 21l229 -229l-20 -21c-21.333 12.667 -38.333 19 -51 19
c-14 0 -28 -7 -42 -21l-276 -276l276 -277c14 -13.333 28 -20 42 -20c12 0 29 6.33301 51 19l20 -21l-229 -230l-21 21c12.667 20.667 19 37.334 19 50.001c0 14.667 -7 29 -21 43z" />
    <glyph glyph-name="Oslash" unicode="&#xd8;" horiz-adv-x="1752" 
d="M1244 1502l400.003 -0.000976562v-39c-32.667 -4.66699 -58.667 -15.5 -78 -32.5s-57 -62.5 -113 -136.5l-50 -66c171.333 -142.667 257 -324.334 257 -545.001c0 -136.667 -35.333 -261.334 -106 -374.001c-138 -222 -364 -333 -678 -333
c-74.667 0 -138.5 4.83301 -191.5 14.5s-112.5 26.834 -178.5 51.501l-34 -45c-16.667 -22.667 -25 -40.334 -25 -53.001c0 -27.333 20.333 -41.333 61 -42v-39h-401v39c34.667 7.33301 64.667 21.833 90 43.5s62.333 64.834 111 129.501l45 59
c-174.667 144.667 -262 327.667 -262 549c0 136.667 35.333 261.334 106 374.001c137.333 221.333 363.666 332 678.999 332c75.333 0 139.666 -4.83301 192.999 -14.5s113.666 -27.5 180.999 -53.5l33 43c12.667 16.667 19 32.334 19 47.001c0 30 -19.333 47.333 -58 52v39
zM664.003 249.999c68 -28 138 -42 210 -42c132.667 0 242 38.667 328 116c102.667 91.333 154 211 154 359c0 120.667 -40 229 -120 325zM1093 1114c-70.667 28.667 -142.667 43 -216 43c-132.667 0 -242 -38.333 -328 -115c-102.667 -92 -154 -211.333 -154 -358
c0 -125.333 41.333 -235.333 124 -330z" />
    <glyph glyph-name="Ugrave" unicode="&#xd9;" horiz-adv-x="1671" 
d="M1512 1260l-0.000976562 -765.002c0 -144.667 -26.667 -253 -80 -325c-96 -129.333 -294.333 -194 -595 -194c-217.333 0 -383.666 35 -498.999 105c-67.333 40.667 -114 96 -140 166c-25.333 69.333 -38 152 -38 248v765c0 20.667 -4.66699 36.334 -14 47.001
s-26 19.334 -50 26.001v32h427v-32c-24 -6 -40.833 -14.5 -50.5 -25.5s-14.5 -26.833 -14.5 -47.5v-681c0 -78.667 4.33301 -136.834 13 -174.501s25 -69.167 49 -94.5c64 -68 173.333 -102 328 -102c155.333 0 265 34 329 102c23.333 25.333 39.333 56.833 48 94.5
s13 95.834 13 174.501v681c0 20.667 -4.66699 36.334 -14 47.001s-26 19.334 -50 26.001v32h402v-32c-24 -6.66699 -40.667 -15.334 -50 -26.001s-14 -26.334 -14 -47.001zM574.999 1765l304 0.000976562v-27c-18.667 -2 -28 -8.33301 -28 -19c0 -4 1.33301 -9 4 -15
l66 -163c6 -14.667 12.333 -24.334 19 -29.001s18 -7 34 -7v-27h-217v27h5c13.333 0 20 5.33301 20 16c0 6 -2 11.333 -6 16l-142 173c-13.333 18 -33 27.333 -59 28v27z" />
    <glyph glyph-name="Uacute" unicode="&#xda;" horiz-adv-x="1671" 
d="M1512 1260l-0.000976562 -765.002c0 -144.667 -26.667 -253 -80 -325c-96 -129.333 -294.333 -194 -595 -194c-217.333 0 -383.666 35 -498.999 105c-67.333 40.667 -114 96 -140 166c-25.333 69.333 -38 152 -38 248v765c0 20.667 -4.66699 36.334 -14 47.001
s-26 19.334 -50 26.001v32h427v-32c-24 -6 -40.833 -14.5 -50.5 -25.5s-14.5 -26.833 -14.5 -47.5v-681c0 -78.667 4.33301 -136.834 13 -174.501s25 -69.167 49 -94.5c64 -68 173.333 -102 328 -102c155.333 0 265 34 329 102c23.333 25.333 39.333 56.833 48 94.5
s13 95.834 13 174.501v681c0 20.667 -4.66699 36.334 -14 47.001s-26 19.334 -50 26.001v32h402v-32c-24 -6.66699 -40.667 -15.334 -50 -26.001s-14 -26.334 -14 -47.001zM1110 1765v-27.001c-26 -0.666992 -45.667 -10 -59 -28l-142 -173c-4 -4.66699 -6 -10 -6 -16
c0 -10.667 7 -16 21 -16h4v-27h-217v27c16 0 27.333 2.33301 34 7s13 14.334 19 29.001l66 163c2.66699 6 4 11 4 15c0 10.667 -9.33301 17 -28 19v27h304z" />
    <glyph glyph-name="Ucircumflex" unicode="&#xdb;" horiz-adv-x="1671" 
d="M1512 1260l-0.000976562 -765.002c0 -144.667 -26.667 -253 -80 -325c-96 -129.333 -294.333 -194 -595 -194c-217.333 0 -383.666 35 -498.999 105c-67.333 40.667 -114 96 -140 166c-25.333 69.333 -38 152 -38 248v765c0 20.667 -4.66699 36.334 -14 47.001
s-26 19.334 -50 26.001v32h427v-32c-24 -6 -40.833 -14.5 -50.5 -25.5s-14.5 -26.833 -14.5 -47.5v-681c0 -78.667 4.33301 -136.834 13 -174.501s25 -69.167 49 -94.5c64 -68 173.333 -102 328 -102c155.333 0 265 34 329 102c23.333 25.333 39.333 56.833 48 94.5
s13 95.834 13 174.501v681c0 20.667 -4.66699 36.334 -14 47.001s-26 19.334 -50 26.001v32h402v-32c-24 -6.66699 -40.667 -15.334 -50 -26.001s-14 -26.334 -14 -47.001zM753.999 1478l-250.001 -0.000976562v27c16 0.666992 26.333 2.5 31 5.5s17.334 15.167 38.001 36.5
l134 149c7.33301 8 11 16.333 11 25c0 11.333 -11 17 -33 17v27h316v-27c-20 -2 -30 -8 -30 -18c0 -7.33301 5.33301 -16.666 16 -27.999l150 -167c10.667 -12.667 25.667 -19.334 45 -20.001v-27h-287v27c20.667 1.33301 31 6.33301 31 15
c0 2.66699 -5.33301 10.334 -16 23.001l-84 103l-92 -106c-6 -6 -9 -12 -9 -18c0 -10 9.66699 -15.667 29 -17v-27z" />
    <glyph glyph-name="Udieresis" unicode="&#xdc;" horiz-adv-x="1671" 
d="M1512 1260l-0.000976562 -765.002c0 -144.667 -26.667 -253 -80 -325c-96 -129.333 -294.333 -194 -595 -194c-217.333 0 -383.666 35 -498.999 105c-67.333 40.667 -114 96 -140 166c-25.333 69.333 -38 152 -38 248v765c0 20.667 -4.66699 36.334 -14 47.001
s-26 19.334 -50 26.001v32h427v-32c-24 -6 -40.833 -14.5 -50.5 -25.5s-14.5 -26.833 -14.5 -47.5v-681c0 -78.667 4.33301 -136.834 13 -174.501s25 -69.167 49 -94.5c64 -68 173.333 -102 328 -102c155.333 0 265 34 329 102c23.333 25.333 39.333 56.833 48 94.5
s13 95.834 13 174.501v681c0 20.667 -4.66699 36.334 -14 47.001s-26 19.334 -50 26.001v32h402v-32c-24 -6.66699 -40.667 -15.334 -50 -26.001s-14 -26.334 -14 -47.001zM641.999 1742c38.667 0 70.333 -12.668 95 -38.001c25.333 -26 38 -58 38 -96
c0 -34 -12.667 -63.667 -38 -89s-56.333 -38 -93 -38c-35.333 0 -66 12.667 -92 38c-25.333 24.667 -38 55.334 -38 92.001c0 36 12.333 66.5 37 91.5s55 38.167 91 39.5zM1041 1742c36.667 0 67.667 -12.666 93 -37.999c25.333 -26 38 -56 38 -90
c0 -38 -12.667 -69.667 -38 -95s-57.333 -38 -96 -38c-34.667 0 -64.5 12.833 -89.5 38.5s-37.5 56.5 -37.5 92.5c0 35.333 12.5 65.666 37.5 90.999s55.833 38.333 92.5 39z" />
    <glyph glyph-name="Yacute" unicode="&#xdd;" horiz-adv-x="1460" 
d="M879 571v-466c0 -20.667 4.83301 -36.334 14.5 -47.001s26.5 -19.334 50.5 -26.001v-32h-429v32c24 6.66699 41 15.334 51 26.001s15 26.334 15 47.001v466l-441 621c-38 53.333 -67.833 89.166 -89.5 107.499s-47.5 29.5 -77.5 33.5v32h539v-32
c-44.667 -7.33301 -67 -28 -67 -62c0 -12 13.667 -38.333 41 -79l246 -366l253 366c27.333 39.333 41 66 41 80c0 15.333 -6 28.5 -18 39.5s-28.333 18.167 -49 21.5v32h528v-32c-30 -4 -55.833 -15.167 -77.5 -33.5s-51.5 -54.166 -89.5 -107.499zM998 1765v-27.001
c-26 -0.666992 -45.667 -10 -59 -28l-142 -173c-4 -4.66699 -6 -10 -6 -16c0 -10.667 7 -16 21 -16h4v-27h-217v27c16 0 27.333 2.33301 34 7s13 14.334 19 29.001l66 163c2.66699 6 4 11 4 15c0 10.667 -9.33301 17 -28 19v27h304z" />
    <glyph glyph-name="Thorn" unicode="&#xde;" horiz-adv-x="1465" 
d="M485 1161l388.001 -0.000976562c99.333 0 178.166 -6.66699 236.499 -20s109.5 -36.333 153.5 -69c46.667 -34 82.667 -79 108 -135c26 -56.667 39 -117.334 39 -182.001c0 -92.667 -24.667 -173.334 -74 -242.001c-42 -59.333 -98.333 -101.5 -169 -126.5
s-168.667 -37.5 -294 -37.5h-388v-244c0 -20.667 4.83301 -36.5 14.5 -47.5s26.167 -19.5 49.5 -25.5v-32h-426v32c24 6.66699 40.667 15.334 50 26.001s14 26.334 14 47.001v1156c0 20 -4.66699 35.333 -14 46s-26 19.334 -50 26.001v32h426v-32
c-24 -6 -40.667 -14.5 -50 -25.5s-14 -26.5 -14 -46.5v-100zM485.001 573.999l360 -0.00195312c90 0 153 9.66699 189 29c24 12.667 43 32.834 57 60.501s21 58.167 21 91.5s-7 63.833 -21 91.5s-33 47.834 -57 60.501c-35.333 19.333 -98.333 29 -189 29h-360v-362z" />
    <glyph glyph-name="germandbls" unicode="&#xdf;" horiz-adv-x="2522" 
d="M1175 1019l-135.001 -261.002l-24 13c0 22 -7 39.333 -21 52c-38 34 -94 62 -168 84s-149 33 -225 33c-64.667 0 -122 -9 -172 -27c-72 -26 -108 -63.667 -108 -113c0 -32.667 17.333 -55.834 52 -69.501s101.667 -24.5 201 -32.5l158 -12
c138 -10.667 243 -37.334 315 -80.001c40 -24 73 -56 99 -96c32.667 -50 49 -106.333 49 -169c0 -114 -51.333 -204 -154 -270c-98 -63.333 -230.667 -95 -398 -95c-168.667 0 -331.667 35.667 -489 107c-10.667 4.66699 -19.667 7 -27 7c-13.333 0 -25.666 -8 -36.999 -24
l-25 10l115 274l25 -10v-8c0 -17.333 6.66699 -32 20 -44c33.333 -29.333 91 -54.833 173 -76.5s163 -32.5 243 -32.5c70.667 0 134 9.33301 190 28c69.333 22.667 104 59.334 104 110.001c0 40.667 -24 69 -72 85c-32 10.667 -89.667 19.667 -173 27l-157 13
c-84.667 6.66699 -149.334 15.334 -194.001 26.001s-83.667 26.334 -117 47.001c-42.667 26.667 -76 63 -100 109s-36 96.333 -36 151c0 122.667 52.667 216.334 158 281.001c96 58.667 214.667 88 356 88c76.667 0 148.167 -8.5 214.5 -25.5s145.5 -46.833 237.5 -89.5
c27.333 -12.667 46.333 -19 57 -19s24.334 7.33301 41.001 22zM2437 1019l-136.001 -261.002l-24 13c0.666992 4.66699 1 8.33398 1 11.001c0 18 -13.333 36.667 -40 56c-44.667 31.333 -100.667 56.166 -168 74.499s-136.333 27.5 -207 27.5c-64.667 0 -122 -9 -172 -27
c-72 -26 -108 -63.667 -108 -113c0 -32.667 17.333 -55.834 52 -69.501s102 -24.5 202 -32.5l157 -12c138 -10.667 243.333 -37.334 316 -80.001c39.333 -24 72 -56 98 -96c32.667 -50 49 -106.333 49 -169c0 -114 -51 -204 -153 -270
c-98.667 -63.333 -231.334 -95 -398.001 -95c-169.333 0 -332.333 35.667 -489 107c-11.333 4.66699 -20.666 7 -27.999 7c-13.333 0 -25.666 -8 -36.999 -24l-25 10l115 274l26 -10c-0.666992 -4 -1 -6.66699 -1 -8c0 -17.333 6.66699 -32 20 -44
c33.333 -29.333 91 -54.833 173 -76.5s163 -32.5 243 -32.5c70.667 0 134 9.33301 190 28c69.333 22.667 104 59.334 104 110.001c0 40.667 -24 69 -72 85c-32 10.667 -89.667 19.667 -173 27l-157 13c-84.667 6.66699 -149.334 15.334 -194.001 26.001
s-83.667 26.334 -117 47.001c-42.667 26.667 -76 63 -100 109s-36 96.333 -36 151c0 122.667 52.667 216.334 158 281.001c96 58.667 214.667 88 356 88c76.667 0 148.167 -8.5 214.5 -25.5s145.5 -46.833 237.5 -89.5c27.333 -12.667 46.333 -19 57 -19
s24.334 7.33301 41.001 22z" />
    <glyph glyph-name="agrave" unicode="&#xe0;" horiz-adv-x="1421" 
d="M947 280l-514.997 0.00390625l-58 -122c-14 -29.333 -21 -52.333 -21 -69c0 -32 21.333 -52.333 64 -61v-28h-412v28c25.333 4 44.166 11.667 56.499 23s26.833 33.666 43.5 66.999l409 828c15.333 31.333 23 58.666 23 81.999c0 27.333 -18.667 48.666 -56 63.999v28
h435v-28c-36.667 -14.667 -55 -37.334 -55 -68.001c0 -22 8.33301 -49 25 -81l424 -803c23.333 -44 41.666 -72.5 54.999 -85.5s33.666 -22.167 60.999 -27.5v-27h-457v27c43.333 7.33301 65 27.666 65 60.999c0 20.667 -8.33301 46.334 -25 77.001zM866.003 437.004
l-183 359l-174 -359h357zM413.003 1533l304 0.000976562v-27c-18.667 -2 -28 -8.33301 -28 -19c0 -4 1.33301 -9 4 -15l66 -163c6 -14.667 12.333 -24.334 19 -29.001s18 -7 34 -7v-27h-217v27h5c13.333 0 20 5.33301 20 16c0 6 -2 11.333 -6 16l-142 174
c-13.333 17.333 -33 26.333 -59 27v27z" />
    <glyph glyph-name="aacute" unicode="&#xe1;" horiz-adv-x="1421" 
d="M947 280l-514.997 0.00390625l-58 -122c-14 -29.333 -21 -52.333 -21 -69c0 -32 21.333 -52.333 64 -61v-28h-412v28c25.333 4 44.166 11.667 56.499 23s26.833 33.666 43.5 66.999l409 828c15.333 31.333 23 58.666 23 81.999c0 27.333 -18.667 48.666 -56 63.999v28
h435v-28c-36.667 -14.667 -55 -37.334 -55 -68.001c0 -22 8.33301 -49 25 -81l424 -803c23.333 -44 41.666 -72.5 54.999 -85.5s33.666 -22.167 60.999 -27.5v-27h-457v27c43.333 7.33301 65 27.666 65 60.999c0 20.667 -8.33301 46.334 -25 77.001zM866.003 437.004
l-183 359l-174 -359h357zM980.003 1533v-27.001c-26 -0.666992 -45.667 -9.66699 -59 -27l-142 -174c-4 -4.66699 -6 -10 -6 -16c0 -10.667 7 -16 21 -16h4v-27h-217v27c16 0 27.333 2.33301 34 7s13 14.334 19 29.001l66 163c2.66699 6 4 11 4 15
c0 10.667 -9.33301 17 -28 19v27h304z" />
    <glyph glyph-name="acircumflex" unicode="&#xe2;" horiz-adv-x="1421" 
d="M947 280l-514.997 0.00390625l-58 -122c-14 -29.333 -21 -52.333 -21 -69c0 -32 21.333 -52.333 64 -61v-28h-412v28c25.333 4 44.166 11.667 56.499 23s26.833 33.666 43.5 66.999l409 828c15.333 31.333 23 58.666 23 81.999c0 27.333 -18.667 48.666 -56 63.999v28
h435v-28c-36.667 -14.667 -55 -37.334 -55 -68.001c0 -22 8.33301 -49 25 -81l424 -803c23.333 -44 41.666 -72.5 54.999 -85.5s33.666 -22.167 60.999 -27.5v-27h-457v27c43.333 7.33301 65 27.666 65 60.999c0 20.667 -8.33301 46.334 -25 77.001zM866.003 437.004
l-183 359l-174 -359h357zM609.003 1246l-250.001 -0.000976562v27c16 0.666992 26.333 2.5 31 5.5s17.334 15.167 38.001 36.5l134 149c7.33301 8 11 16.333 11 25c0 11.333 -11 17 -33 17v27h316v-27c-20 -2 -30 -8 -30 -18c0 -7.33301 5.33301 -16.666 16 -27.999
l150 -167c10.667 -12.667 25.667 -19.334 45 -20.001v-27h-287v27c20.667 2 31 7 31 15c0 2.66699 -5.33301 10.334 -16 23.001l-84 103l-92 -106c-6 -6 -9 -12 -9 -18c0 -10 9.66699 -15.667 29 -17v-27z" />
    <glyph glyph-name="atilde" unicode="&#xe3;" horiz-adv-x="1421" 
d="M947 280l-514.997 0.00390625l-58 -122c-14 -29.333 -21 -52.333 -21 -69c0 -32 21.333 -52.333 64 -61v-28h-412v28c25.333 4 44.166 11.667 56.499 23s26.833 33.666 43.5 66.999l409 828c15.333 31.333 23 58.666 23 81.999c0 27.333 -18.667 48.666 -56 63.999v28
h435v-28c-36.667 -14.667 -55 -37.334 -55 -68.001c0 -22 8.33301 -49 25 -81l424 -803c23.333 -44 41.666 -72.5 54.999 -85.5s33.666 -22.167 60.999 -27.5v-27h-457v27c43.333 7.33301 65 27.666 65 60.999c0 20.667 -8.33301 46.334 -25 77.001zM866.003 437.004
l-183 359l-174 -359h357zM918.003 1517l145.001 -134l-16 -20c-19.333 6 -31.666 9 -36.999 9c-8.66699 0 -17.334 -5.66699 -26.001 -17c-44.667 -61.333 -92 -92 -142 -92c-26 0 -54.333 6 -85 18l-148 57c-13.333 4.66699 -28 7 -44 7c-13.333 0 -26.333 -5.5 -39 -16.5
s-19 -22.167 -19 -33.5c0 -8 5 -18 15 -30l-18 -15l-149 139l14 17c15.333 -5.33301 26.666 -8 33.999 -8c14 0 26.667 7.33301 38 22c41.333 53.333 92 80 152 80c22 0 43.667 -4.33301 65 -13l149 -58c18.667 -7.33301 35.667 -11 51 -11c13.333 0 26 5.33301 38 16
s18 22 18 34c0 9.33301 -5.66699 20.333 -17 33z" />
    <glyph glyph-name="adieresis" unicode="&#xe4;" horiz-adv-x="1421" 
d="M947 280l-514.997 0.00390625l-58 -122c-14 -29.333 -21 -52.333 -21 -69c0 -32 21.333 -52.333 64 -61v-28h-412v28c25.333 4 44.166 11.667 56.499 23s26.833 33.666 43.5 66.999l409 828c15.333 31.333 23 58.666 23 81.999c0 27.333 -18.667 48.666 -56 63.999v28
h435v-28c-36.667 -14.667 -55 -37.334 -55 -68.001c0 -22 8.33301 -49 25 -81l424 -803c23.333 -44 41.666 -72.5 54.999 -85.5s33.666 -22.167 60.999 -27.5v-27h-457v27c43.333 7.33301 65 27.666 65 60.999c0 20.667 -8.33301 46.334 -25 77.001zM866.003 437.004
l-183 359l-174 -359h357zM501.003 1510c38 0 69.667 -12.668 95 -38.001c25.333 -26 38 -57.667 38 -95c0 -34.667 -12.667 -64.667 -38 -90s-56.333 -38 -93 -38c-35.333 0 -66 12.667 -92 38c-25.333 24.667 -38 55.334 -38 92.001c0 36 12.333 66.5 37 91.5
s55 38.167 91 39.5zM900.003 1510c36.667 0 67.667 -12.666 93 -37.999c25.333 -26 38 -56 38 -90c0 -38 -12.667 -69.667 -38 -95s-57 -38 -95 -38c-35.333 0 -65.5 12.833 -90.5 38.5s-37.5 56.5 -37.5 92.5c0 35.333 12.5 65.666 37.5 90.999s55.833 38.333 92.5 39z" />
    <glyph glyph-name="aring" unicode="&#xe5;" horiz-adv-x="1421" 
d="M947 280l-514.997 0.00390625l-58 -122c-14 -29.333 -21 -52.333 -21 -69c0 -32 21.333 -52.333 64 -61v-28h-412v28c25.333 4 44.166 11.667 56.499 23s26.833 33.666 43.5 66.999l409 828c15.333 31.333 23 58.666 23 81.999c0 27.333 -18.667 48.666 -56 63.999v28
h435v-28c-36.667 -14.667 -55 -37.334 -55 -68.001c0 -22 8.33301 -49 25 -81l424 -803c23.333 -44 41.666 -72.5 54.999 -85.5s33.666 -22.167 60.999 -27.5v-27h-457v27c43.333 7.33301 65 27.666 65 60.999c0 20.667 -8.33301 46.334 -25 77.001zM866.003 437.004
l-183 359l-174 -359h357zM701.003 1581c64.667 0 118.999 -18.3359 162.999 -55.0029c44.667 -37.333 67 -82 67 -134c0 -53.333 -22.333 -97.666 -67 -132.999c-46 -36 -100 -54 -162 -54c-63.333 0 -117.333 18.333 -162 55c-44.667 37.333 -67 82 -67 134
c0 52.667 21.833 96.834 65.5 132.501s97.834 53.834 162.501 54.501zM702.002 1477c-29.333 0 -53.5 -7.83301 -72.5 -23.5s-28.5 -35.834 -28.5 -60.501c0 -23.333 9.83301 -43.166 29.5 -59.499s43.5 -24.5 71.5 -24.5c27.333 0 51 8.16699 71 24.5s30 35.833 30 58.5
c0 24.667 -9.33301 45 -28 61s-43 24 -73 24z" />
    <glyph glyph-name="ae" unicode="&#xe6;" horiz-adv-x="2090" 
d="M953 280l-406 0.000976562l-77 -127c-18.667 -30.667 -28 -53.667 -28 -69c0 -29.333 19 -48.333 57 -57v-27h-441v27c26.667 4.66699 47 12.667 61 24s31 33.666 51 66.999l501 825c24 40 36 70.333 36 91c0 22.667 -18.667 42 -56 58v28h1250
c21.333 0 37.5 4.66699 48.5 14s19.833 26 26.5 50h27v-332h-28c-6 24 -14.5 40.833 -25.5 50.5s-27.167 14.5 -48.5 14.5h-680v-246h421c20.667 0 36.834 4.83301 48.501 14.5s20.5 26.167 26.5 49.5h27v-324h-27c-6.66699 24 -15.5 40.833 -26.5 50.5
s-27.167 14.5 -48.5 14.5h-421v-273h711c20.667 0 36.5 4.83301 47.5 14.5s19.833 26.5 26.5 50.5h27v-332h-27c-6.66699 23.333 -15.5 39.833 -26.5 49.5s-26.833 14.5 -47.5 14.5h-1043v28c41.333 9.33301 62.666 34 63.999 74v178zM953 437.001v480h-33l-276 -480h309z
" />
    <glyph glyph-name="ccedilla" unicode="&#xe7;" horiz-adv-x="1427" 
d="M1193 401l168.999 -245.998l-23 -17c-16 11.333 -28.667 17 -38 17c-11.333 0 -37.666 -12.333 -78.999 -37c-91.333 -53.333 -172 -90.333 -242 -111s-150.667 -31 -242 -31c-182.667 0 -331.667 43.667 -447 131c-65.333 50 -117.333 112.667 -156 188
c-41.333 81.333 -62 169.666 -62 264.999c0 131.333 38 247.333 114 348c119.333 157.333 302.333 236 549 236c91.333 0 172.5 -10.333 243.5 -31s151.833 -57.667 242.5 -111c41.333 -24.667 67.666 -37 78.999 -37c9.33301 0 22 5.66699 38 17l23 -18l-169 -245l-22 16
c0.666992 8 1.33398 13 2.00098 15c0.666992 6 1 10.333 1 13c0 32.667 -45 69.667 -135 111c-85.333 39.333 -171.333 59 -258 59c-121.333 0 -221.333 -32 -300 -96c-90 -72 -135 -164.333 -135 -277c0 -113.333 45 -206 135 -278c79.333 -63.333 179.333 -95 300 -95
c94.667 0 189 23.667 283 71c73.333 37.333 110 70 110 98c0 1.33301 -1 10.666 -3 27.999zM569.999 -223.998l53.001 99c8 14.667 13.667 23.167 17 25.5s10.333 3.5 21 3.5c84.667 0 150 -13.667 196 -41s69 -66 69 -116c0 -48 -19.667 -87.333 -59 -118
c-42 -32.667 -103 -49 -183 -49c-78.667 0 -146 9.33301 -202 28l23 47c36.667 -10.667 70.667 -16 102 -16c43.333 0 77.666 7.5 102.999 22.5s38 35.5 38 61.5c0 19.333 -7 35.833 -21 49.5s-31 20.5 -51 20.5c-30 0 -55.333 -11.667 -76 -35z" />
    <glyph glyph-name="egrave" unicode="&#xe8;" horiz-adv-x="1314" 
d="M430 476v-273.001h711c20.667 0 36.5 4.66699 47.5 14s19.833 26.333 26.5 51h28v-332h-28c-6 23.333 -14.667 39.833 -26 49.5s-27.333 14.5 -48 14.5h-1043v28c23.333 6 39.833 14.667 49.5 26s14.5 27.333 14.5 48v916c0 20.667 -4.66699 36.334 -14 47.001
s-26 19.667 -50 27v28h1012c21.333 0 37.5 4.66699 48.5 14s19.833 26 26.5 50h27v-332h-27c-6.66699 24.667 -15.5 41.667 -26.5 51s-27.167 14 -48.5 14h-680v-246h422c20.667 0 36.5 4.66699 47.5 14s20.167 26 27.5 50h27v-324h-27c-6.66699 24 -15.5 40.833 -26.5 50.5
s-27.167 14.5 -48.5 14.5h-422zM403 1533l304 0.000976562v-27c-18.667 -2 -28 -8.33301 -28 -19c0 -4 1.33301 -9 4 -15l66 -163c6 -14.667 12.333 -24.334 19 -29.001s18 -7 34 -7v-27h-217v27h5c13.333 0 20 5.33301 20 16c0 6 -2 11.333 -6 16l-142 174
c-13.333 17.333 -33 26.333 -59 27v27z" />
    <glyph glyph-name="eacute" unicode="&#xe9;" horiz-adv-x="1314" 
d="M430 476v-273.001h711c20.667 0 36.5 4.66699 47.5 14s19.833 26.333 26.5 51h28v-332h-28c-6 23.333 -14.667 39.833 -26 49.5s-27.333 14.5 -48 14.5h-1043v28c23.333 6 39.833 14.667 49.5 26s14.5 27.333 14.5 48v916c0 20.667 -4.66699 36.334 -14 47.001
s-26 19.667 -50 27v28h1012c21.333 0 37.5 4.66699 48.5 14s19.833 26 26.5 50h27v-332h-27c-6.66699 24.667 -15.5 41.667 -26.5 51s-27.167 14 -48.5 14h-680v-246h422c20.667 0 36.5 4.66699 47.5 14s20.167 26 27.5 50h27v-324h-27c-6.66699 24 -15.5 40.833 -26.5 50.5
s-27.167 14.5 -48.5 14.5h-422zM945 1533v-27.001c-26 -0.666992 -45.667 -9.66699 -59 -27l-142 -174c-4 -4.66699 -6 -10 -6 -16c0 -10.667 7 -16 21 -16h4v-27h-217v27c16 0 27.333 2.33301 34 7s13 14.334 19 29.001l66 163c2.66699 6 4 11 4 15
c0 10.667 -9.33301 17 -28 19v27h304z" />
    <glyph glyph-name="ecircumflex" unicode="&#xea;" horiz-adv-x="1314" 
d="M430 476v-273.001h711c20.667 0 36.5 4.66699 47.5 14s19.833 26.333 26.5 51h28v-332h-28c-6 23.333 -14.667 39.833 -26 49.5s-27.333 14.5 -48 14.5h-1043v28c23.333 6 39.833 14.667 49.5 26s14.5 27.333 14.5 48v916c0 20.667 -4.66699 36.334 -14 47.001
s-26 19.667 -50 27v28h1012c21.333 0 37.5 4.66699 48.5 14s19.833 26 26.5 50h27v-332h-27c-6.66699 24.667 -15.5 41.667 -26.5 51s-27.167 14 -48.5 14h-680v-246h422c20.667 0 36.5 4.66699 47.5 14s20.167 26 27.5 50h27v-324h-27c-6.66699 24 -15.5 40.833 -26.5 50.5
s-27.167 14.5 -48.5 14.5h-422zM588 1246l-250.001 -0.000976562v27c16 0.666992 26.333 2.5 31 5.5s17.334 15.167 38.001 36.5l134 149c7.33301 8 11 16.333 11 25c0 11.333 -11 17 -33 17v27h316v-27c-20 -2 -30 -8 -30 -18c0 -7.33301 5.33301 -16.666 16 -27.999
l150 -167c10.667 -12.667 25.667 -19.334 45 -20.001v-27h-287v27c20.667 2 31 7 31 15c0 2.66699 -5.33301 10.334 -16 23.001l-84 103l-92 -106c-6 -6 -9 -12 -9 -18c0 -10 9.66699 -15.667 29 -17v-27z" />
    <glyph glyph-name="edieresis" unicode="&#xeb;" horiz-adv-x="1314" 
d="M430 476v-273.001h711c20.667 0 36.5 4.66699 47.5 14s19.833 26.333 26.5 51h28v-332h-28c-6 23.333 -14.667 39.833 -26 49.5s-27.333 14.5 -48 14.5h-1043v28c23.333 6 39.833 14.667 49.5 26s14.5 27.333 14.5 48v916c0 20.667 -4.66699 36.334 -14 47.001
s-26 19.667 -50 27v28h1012c21.333 0 37.5 4.66699 48.5 14s19.833 26 26.5 50h27v-332h-27c-6.66699 24.667 -15.5 41.667 -26.5 51s-27.167 14 -48.5 14h-680v-246h422c20.667 0 36.5 4.66699 47.5 14s20.167 26 27.5 50h27v-324h-27c-6.66699 24 -15.5 40.833 -26.5 50.5
s-27.167 14.5 -48.5 14.5h-422zM476 1510c38 0 69.667 -12.668 95 -38.001c25.333 -26 38 -57.667 38 -95c0 -34.667 -12.667 -64.667 -38 -90s-56.333 -38 -93 -38c-35.333 0 -66 12.667 -92 38c-25.333 24.667 -38 55.334 -38 92.001c0 36 12.333 66.5 37 91.5
s55 38.167 91 39.5zM875 1510c36.667 0 67.667 -12.666 93 -37.999c25.333 -26 38 -56 38 -90c0 -38 -12.667 -69.667 -38 -95s-57 -38 -95 -38c-35.333 0 -65.5 12.833 -90.5 38.5s-37.5 56.5 -37.5 92.5c0 35.333 12.5 65.666 37.5 90.999s55.833 38.333 92.5 39z" />
    <glyph glyph-name="igrave" unicode="&#xec;" horiz-adv-x="593" 
d="M431 1018v-916.001c0 -20.667 4.66699 -36.5 14 -47.5s26 -20.167 50 -27.5v-27h-396v28c23.333 6 39.833 14.667 49.5 26s14.5 27.333 14.5 48v916c0 20.667 -4.66699 36.334 -14 47.001s-26 19.667 -50 27v28h396v-28c-24 -6.66699 -40.667 -15.5 -50 -26.5
s-14 -26.833 -14 -47.5zM15 1533l304 0.000976562v-27c-18.667 -2 -28 -8.33301 -28 -19c0 -4 1.33301 -9 4 -15l66 -163c6 -14.667 12.333 -24.334 19 -29.001s18 -7 34 -7v-27h-217v27h5c13.333 0 20 5.33301 20 16c0 6 -2 11.333 -6 16l-142 174
c-13.333 17.333 -33 26.333 -59 27v27z" />
    <glyph glyph-name="iacute" unicode="&#xed;" horiz-adv-x="593" 
d="M430 1018v-916.001c0 -20.667 4.66699 -36.5 14 -47.5s26 -20.167 50 -27.5v-27h-396v28c23.333 6 39.833 14.667 49.5 26s14.5 27.333 14.5 48v916c0 20.667 -4.66699 36.334 -14 47.001s-26 19.667 -50 27v28h396v-28c-24 -6.66699 -40.667 -15.5 -50 -26.5
s-14 -26.833 -14 -47.5zM577 1533v-27.001c-26 -0.666992 -45.667 -9.66699 -59 -27l-142 -174c-4 -4.66699 -6 -10 -6 -16c0 -10.667 7 -16 21 -16h4v-27h-217v27c16 0 27.333 2.33301 34 7s13 14.334 19 29.001l66 163c2.66699 6 4 11 4 15c0 10.667 -9.33301 17 -28 19
v27h304z" />
    <glyph glyph-name="icircumflex" unicode="&#xee;" horiz-adv-x="592" 
d="M431 1018v-916.001c0 -20.667 4.83301 -36.667 14.5 -48s26.167 -20.333 49.5 -27v-27h-396v28c23.333 6 39.833 14.667 49.5 26s14.5 27.333 14.5 48v916c0 20.667 -4.66699 36.334 -14 47.001s-26 19.667 -50 27v28h396v-28c-24 -6.66699 -40.667 -15.5 -50 -26.5
s-14 -26.833 -14 -47.5zM221 1246h-243v27c16 0.666992 28.333 3.66699 37 9s19.334 16.333 32.001 33l113 149c8 10 12 18.333 12 25c0 11.333 -11.333 17 -34 17v27h316v-27c-20 -2 -30 -8 -30 -18c0 -5.33301 5.33301 -14.666 16 -27.999l129 -167
c10.667 -13.333 26 -20 46 -20v-27h-280v27c21.333 2 31.666 7 30.999 15c0 4 -2.33301 8.33301 -7 13c-4.66699 5.33301 -7.66699 8.66602 -9 9.99902l-70 110l-80 -113c-5.33301 -8 -8 -14 -8 -18c0 -10 9.66699 -15.667 29 -17v-27z" />
    <glyph glyph-name="idieresis" unicode="&#xef;" horiz-adv-x="593" 
d="M430 1018v-916.001c0 -20.667 4.66699 -36.5 14 -47.5s26 -20.167 50 -27.5v-27h-396v28c23.333 6 39.833 14.667 49.5 26s14.5 27.333 14.5 48v916c0 20.667 -4.66699 36.334 -14 47.001s-26 19.667 -50 27v28h396v-28c-24 -6.66699 -40.667 -15.5 -50 -26.5
s-14 -26.833 -14 -47.5zM129 1510c38 0 69.667 -12.668 95 -38.001c25.333 -26 38 -57.667 38 -95c0 -34.667 -12.667 -64.667 -38 -90s-56.333 -38 -93 -38c-35.333 0 -66 12.667 -92 38c-25.333 24.667 -38 55.334 -38 92.001c0 36 12.333 66.5 37 91.5s55 38.167 91 39.5
zM460 1510c36.667 0 67.667 -12.666 93 -37.999c25.333 -26 38 -56 38 -90c0 -38 -12.667 -69.667 -38 -95s-57.333 -38 -96 -38c-34.667 0 -64.5 12.833 -89.5 38.5s-37.5 56.5 -37.5 92.5c0 35.333 12.5 65.666 37.5 90.999s55.833 38.333 92.5 39z" />
    <glyph glyph-name="eth" unicode="&#xf0;" horiz-adv-x="1463" 
d="M184 502l-53.002 -0.000976562c-20 0 -35.5 -4.83301 -46.5 -14.5s-19.5 -26.167 -25.5 -49.5h-32v299h32c6 -23.333 14.5 -39.833 25.5 -49.5s26.5 -14.5 46.5 -14.5h53v345c0 20.667 -4.66699 36.334 -14 47.001s-26 19.667 -50 27v28h657
c136.667 0 244.334 -17 323.001 -51c110.667 -48 190.334 -127.333 239.001 -238c34 -78 51 -168.333 51 -271c0 -191.333 -57 -336.333 -171 -435c-51.333 -44 -111.833 -75.833 -181.5 -95.5s-156.5 -29.5 -260.5 -29.5h-657v28c23.333 6 39.833 14.667 49.5 26
s14.5 27.333 14.5 48v400zM451.998 672.999l209 -0.000976562c20.667 0 36.334 4.66699 47.001 14s19.334 26 26.001 50h32v-299h-32c-6.66699 24 -15.334 40.667 -26.001 50s-26.334 14 -47.001 14h-209v-299h286c131.333 0 226.666 30 285.999 90
c62 62.667 93 151.667 93 267c0 114.667 -31 203.334 -93 266.001c-30.667 32 -68.667 55.167 -114 69.5s-102.666 21.5 -171.999 21.5h-286v-244z" />
    <glyph glyph-name="ntilde" unicode="&#xf1;" horiz-adv-x="1523" 
d="M406 738v-636.001c0 -20.667 4.83301 -36.667 14.5 -48s26.167 -20.333 49.5 -27v-27h-372v28c23.333 6 39.833 14.667 49.5 26s14.5 27.333 14.5 48v916c0 20.667 -4.66699 36.334 -14 47.001s-26 19.667 -50 27v28h430v-28c-29.333 -7.33301 -44 -20.333 -44 -39
c0 -16 10.667 -34.667 32 -56l600 -596v617c0 20.667 -4.66699 36.5 -14 47.5s-26 19.833 -50 26.5v28h372v-28c-24 -6.66699 -40.667 -15.5 -50 -26.5s-14 -26.833 -14 -47.5v-916c0 -20.667 4.66699 -36.5 14 -47.5s26 -20.167 50 -27.5v-27h-401v27
c29.333 6 44 18.333 44 37c0 9.33301 -4 19 -12 29s-26.333 29.667 -55 59zM984 1517l145.001 -134l-16 -20c-19.333 6 -31.666 9 -36.999 9c-8.66699 0 -17.334 -5.66699 -26.001 -17c-44.667 -61.333 -92 -92 -142 -92c-26 0 -54.333 6 -85 18l-148 57
c-13.333 4.66699 -28 7 -44 7c-13.333 0 -26.333 -5.5 -39 -16.5s-19 -22.167 -19 -33.5c0 -8 5 -18 15 -30l-18 -15l-149 139l14 17c15.333 -5.33301 26.666 -8 33.999 -8c14 0 26.667 7.33301 38 22c41.333 53.333 92 80 152 80c22 0 43.667 -4.33301 65 -13l149 -58
c18.667 -7.33301 35.667 -11 51 -11c13.333 0 26 5.33301 38 16s18 22 18 34c0 9.33301 -5.66699 20.333 -17 33z" />
    <glyph glyph-name="ograve" unicode="&#xf2;" horiz-adv-x="1460" 
d="M728 1144c178 0 326.333 -45.333 445 -136c142 -109.333 213 -261.666 213 -456.999c0 -183.333 -71 -329.666 -213 -438.999c-117.333 -90.667 -265 -136 -443 -136s-325.667 45.333 -443 136c-142.667 109.333 -214 258.666 -214 447.999
c0 191.333 71.333 340.666 214 447.999c118 88.667 265 134 441 136zM729 932c-115.333 0 -209.334 -37 -282.001 -111c-67.333 -69.333 -101 -156.333 -101 -261c0 -104 33.667 -190.667 101 -260c72.667 -74.667 167 -112 283 -112c115.333 0 209.333 37.333 282 112
c67.333 68.667 101 153.667 101 255c0 110 -33.667 198.667 -101 266c-73.333 72.667 -167.666 109.667 -282.999 111zM454.999 1533l304 0.000976562v-27c-18.667 -2 -28 -8.33301 -28 -19c0 -4 1.33301 -9 4 -15l66 -163c6 -14.667 12.333 -24.334 19 -29.001s18 -7 34 -7
v-27h-217v27h5c13.333 0 20 5.33301 20 16c0 6 -2 11.333 -6 16l-142 174c-13.333 17.333 -33 26.333 -59 27v27z" />
    <glyph glyph-name="oacute" unicode="&#xf3;" horiz-adv-x="1460" 
d="M728 1144c178 0 326.333 -45.333 445 -136c142 -109.333 213 -261.666 213 -456.999c0 -183.333 -71 -329.666 -213 -438.999c-117.333 -90.667 -265 -136 -443 -136s-325.667 45.333 -443 136c-142.667 109.333 -214 258.666 -214 447.999
c0 191.333 71.333 340.666 214 447.999c118 88.667 265 134 441 136zM729 932c-115.333 0 -209.334 -37 -282.001 -111c-67.333 -69.333 -101 -156.333 -101 -261c0 -104 33.667 -190.667 101 -260c72.667 -74.667 167 -112 283 -112c115.333 0 209.333 37.333 282 112
c67.333 68.667 101 153.667 101 255c0 110 -33.667 198.667 -101 266c-73.333 72.667 -167.666 109.667 -282.999 111zM1018 1533v-27.001c-26 -0.666992 -45.667 -9.66699 -59 -27l-142 -174c-4 -4.66699 -6 -10 -6 -16c0 -10.667 7 -16 21 -16h4v-27h-217v27
c16 0 27.333 2.33301 34 7s13 14.334 19 29.001l66 163c2.66699 6 4 11 4 15c0 10.667 -9.33301 17 -28 19v27h304z" />
    <glyph glyph-name="ocircumflex" unicode="&#xf4;" horiz-adv-x="1460" 
d="M728 1144c178 0 326.333 -45.333 445 -136c142 -109.333 213 -261.666 213 -456.999c0 -183.333 -71 -329.666 -213 -438.999c-117.333 -90.667 -265 -136 -443 -136s-325.667 45.333 -443 136c-142.667 109.333 -214 258.666 -214 447.999
c0 191.333 71.333 340.666 214 447.999c118 88.667 265 134 441 136zM729 932c-115.333 0 -209.334 -37 -282.001 -111c-67.333 -69.333 -101 -156.333 -101 -261c0 -104 33.667 -190.667 101 -260c72.667 -74.667 167 -112 283 -112c115.333 0 209.333 37.333 282 112
c67.333 68.667 101 153.667 101 255c0 110 -33.667 198.667 -101 266c-73.333 72.667 -167.666 109.667 -282.999 111zM646.999 1246l-250.001 -0.000976562v27c16 0.666992 26.333 2.5 31 5.5s17.334 15.167 38.001 36.5l134 149c7.33301 8 11 16.333 11 25
c0 11.333 -11 17 -33 17v27h316v-27c-20 -2 -30 -8 -30 -18c0 -7.33301 5.33301 -16.666 16 -27.999l150 -167c10.667 -12.667 25.667 -19.334 45 -20.001v-27h-287v27c20.667 2 31 7 31 15c0 2.66699 -5.33301 10.334 -16 23.001l-84 103l-92 -106c-6 -6 -9 -12 -9 -18
c0 -10 9.66699 -15.667 29 -17v-27z" />
    <glyph glyph-name="otilde" unicode="&#xf5;" horiz-adv-x="1460" 
d="M728 1144c178 0 326.333 -45.333 445 -136c142 -109.333 213 -261.666 213 -456.999c0 -183.333 -71 -329.666 -213 -438.999c-117.333 -90.667 -265 -136 -443 -136s-325.667 45.333 -443 136c-142.667 109.333 -214 258.666 -214 447.999
c0 191.333 71.333 340.666 214 447.999c118 88.667 265 134 441 136zM729 932c-115.333 0 -209.334 -37 -282.001 -111c-67.333 -69.333 -101 -156.333 -101 -261c0 -104 33.667 -190.667 101 -260c72.667 -74.667 167 -112 283 -112c115.333 0 209.333 37.333 282 112
c67.333 68.667 101 153.667 101 255c0 110 -33.667 198.667 -101 266c-73.333 72.667 -167.666 109.667 -282.999 111zM951.999 1517l145.001 -134l-16 -20c-19.333 6 -31.666 9 -36.999 9c-8.66699 0 -17.334 -5.66699 -26.001 -17c-44.667 -61.333 -92 -92 -142 -92
c-26 0 -54.333 6 -85 18l-148 57c-13.333 4.66699 -28 7 -44 7c-13.333 0 -26.333 -5.5 -39 -16.5s-19 -22.167 -19 -33.5c0 -8 5 -18 15 -30l-18 -15l-149 139l14 17c15.333 -5.33301 26.666 -8 33.999 -8c14 0 26.667 7.33301 38 22c41.333 53.333 92 80 152 80
c22 0 43.667 -4.33301 65 -13l149 -58c18.667 -7.33301 35.667 -11 51 -11c13.333 0 26 5.33301 38 16s18 22 18 34c0 9.33301 -5.66699 20.333 -17 33z" />
    <glyph glyph-name="odieresis" unicode="&#xf6;" horiz-adv-x="1460" 
d="M728 1144c178 0 326.333 -45.333 445 -136c142 -109.333 213 -261.666 213 -456.999c0 -183.333 -71 -329.666 -213 -438.999c-117.333 -90.667 -265 -136 -443 -136s-325.667 45.333 -443 136c-142.667 109.333 -214 258.666 -214 447.999
c0 191.333 71.333 340.666 214 447.999c118 88.667 265 134 441 136zM729 932c-115.333 0 -209.334 -37 -282.001 -111c-67.333 -69.333 -101 -156.333 -101 -261c0 -104 33.667 -190.667 101 -260c72.667 -74.667 167 -112 283 -112c115.333 0 209.333 37.333 282 112
c67.333 68.667 101 153.667 101 255c0 110 -33.667 198.667 -101 266c-73.333 72.667 -167.666 109.667 -282.999 111zM535.999 1510c38 0 69.667 -12.668 95 -38.001c25.333 -26 38 -57.667 38 -95c0 -34.667 -12.667 -64.667 -38 -90s-56.333 -38 -93 -38
c-35.333 0 -66 12.667 -92 38c-25.333 24.667 -38 55.334 -38 92.001c0 36 12.333 66.5 37 91.5s55 38.167 91 39.5zM934.999 1510c36.667 0 67.667 -12.666 93 -37.999c25.333 -26 38 -56 38 -90c0 -38 -12.667 -69.667 -38 -95s-57 -38 -95 -38
c-35.333 0 -65.5 12.833 -90.5 38.5s-37.5 56.5 -37.5 92.5c0 35.333 12.5 65.666 37.5 90.999s55.833 38.333 92.5 39z" />
    <glyph glyph-name="divide" unicode="&#xf7;" horiz-adv-x="1570" 
d="M234 521v324h30c5.33301 -24 13 -40.667 23 -50s24.333 -14 43 -14h910c18.667 0 32.834 4.66699 42.501 14s17.5 26 23.5 50h30v-324h-30c-6 24 -13.833 40.667 -23.5 50s-23.834 14 -42.501 14h-910c-19.333 0 -33.833 -4.66699 -43.5 -14s-17.5 -26 -23.5 -50h-29z
M785 427c46 0 84.833 -16.001 116.5 -48.001s47.5 -71 47.5 -117c0 -44.667 -16.167 -83 -48.5 -115s-70.833 -48 -115.5 -48c-45.333 0 -84 16.167 -116 48.5s-48 71.166 -48 116.499c0 44.667 15.833 82.834 47.5 114.501s70.5 47.834 116.5 48.501zM785 1267
c46 0 84.833 -16.001 116.5 -48.001s47.5 -71 47.5 -117c0 -44.667 -16.167 -83 -48.5 -115s-70.833 -48 -115.5 -48c-45.333 0 -84 16.167 -116 48.5s-48 71.166 -48 116.499c0 44.667 15.833 82.834 47.5 114.501s70.5 47.834 116.5 48.501z" />
    <glyph glyph-name="oslash" unicode="&#xf8;" horiz-adv-x="1460" 
d="M1002 1242h368v-24c-32.667 0 -58 -7.16699 -76 -21.5s-48.667 -51.5 -92 -111.5l-47 -64c154 -107.333 231 -261.333 231 -462c0 -188.667 -71 -337.667 -213 -447c-117.333 -90.667 -265.333 -136 -444 -136c-98 0 -195 17 -291 51l-16 -21
c-16 -22 -24 -39.333 -24 -52c0 -28 20 -46 60 -54v-23h-368v23c34 9.33301 61.167 22.833 81.5 40.5s49.5 51.834 87.5 102.501l42 58c-56 46 -99.333 90.333 -130 133c-65.333 90.667 -98 199 -98 325c0 189.333 71.333 339 214 449
c117.333 90.667 265.666 136 444.999 136c99.333 0 198 -18 296 -54l17 24c11.333 15.333 17 30.666 17 45.999c0 12.667 -5.66699 24.5 -17 35.5s-25.666 18.5 -42.999 22.5v24zM574 217c52.667 -19.333 103.667 -29.001 153 -29.001c118 0 213 37.333 285 112
c67.333 68.667 101 155.334 101 260.001c0 102 -33.667 189.333 -101 262zM890 901.999c-47.333 20.667 -98 31 -152 31c-121.333 0 -218.333 -37 -291 -111c-67.333 -70 -101 -157 -101 -261c0 -100.667 33.667 -187.667 101 -261z" />
    <glyph glyph-name="ugrave" unicode="&#xf9;" horiz-adv-x="1414" 
d="M1273 1018l-0.000976562 -593.002c0 -135.333 -26.667 -234.666 -80 -297.999c-86 -100.667 -248 -151 -486 -151c-159.333 0 -288 24.333 -386 73c-70.667 35.333 -119 85.666 -145 150.999c-24 60 -36 135 -36 225v593c0 20.667 -4.66699 36.334 -14 47.001
s-26 19.667 -50 27v28h397v-28c-24.667 -6.66699 -41.667 -15.5 -51 -26.5s-14 -26.833 -14 -47.5v-539c0 -62.667 5.5 -110.667 16.5 -144s30.167 -60.666 57.5 -81.999c54.667 -43.333 133.667 -65 237 -65s182.333 21.667 237 65
c26.667 21.333 45.334 48.666 56.001 81.999s16 81.333 16 144v539c0 20.667 -4.5 36.334 -13.5 47.001s-25.833 19.667 -50.5 27v28h373v-28c-24 -6.66699 -40.667 -15.5 -50 -26.5s-14 -26.833 -14 -47.5zM438.999 1533l304 0.000976562v-27
c-18.667 -2 -28 -8.33301 -28 -19c0 -4 1.33301 -9 4 -15l66 -163c6 -14.667 12.333 -24.334 19 -29.001s18 -7 34 -7v-27h-217v27h5c13.333 0 20 5.33301 20 16c0 6 -2 11.333 -6 16l-142 174c-13.333 17.333 -33 26.333 -59 27v27z" />
    <glyph glyph-name="uacute" unicode="&#xfa;" horiz-adv-x="1414" 
d="M1273 1018l-0.000976562 -593.002c0 -135.333 -26.667 -234.666 -80 -297.999c-86 -100.667 -248 -151 -486 -151c-159.333 0 -288 24.333 -386 73c-70.667 35.333 -119 85.666 -145 150.999c-24 60 -36 135 -36 225v593c0 20.667 -4.66699 36.334 -14 47.001
s-26 19.667 -50 27v28h397v-28c-24.667 -6.66699 -41.667 -15.5 -51 -26.5s-14 -26.833 -14 -47.5v-539c0 -62.667 5.5 -110.667 16.5 -144s30.167 -60.666 57.5 -81.999c54.667 -43.333 133.667 -65 237 -65s182.333 21.667 237 65
c26.667 21.333 45.334 48.666 56.001 81.999s16 81.333 16 144v539c0 20.667 -4.5 36.334 -13.5 47.001s-25.833 19.667 -50.5 27v28h373v-28c-24 -6.66699 -40.667 -15.5 -50 -26.5s-14 -26.833 -14 -47.5zM980.999 1533v-27.001c-26 -0.666992 -45.667 -9.66699 -59 -27
l-142 -174c-4 -4.66699 -6 -10 -6 -16c0 -10.667 7 -16 21 -16h4v-27h-217v27c16 0 27.333 2.33301 34 7s13 14.334 19 29.001l66 163c2.66699 6 4 11 4 15c0 10.667 -9.33301 17 -28 19v27h304z" />
    <glyph glyph-name="ucircumflex" unicode="&#xfb;" horiz-adv-x="1414" 
d="M1273 1018l-0.000976562 -593.002c0 -135.333 -26.667 -234.666 -80 -297.999c-86 -100.667 -248 -151 -486 -151c-159.333 0 -288 24.333 -386 73c-70.667 35.333 -119 85.666 -145 150.999c-24 60 -36 135 -36 225v593c0 20.667 -4.66699 36.334 -14 47.001
s-26 19.667 -50 27v28h397v-28c-24.667 -6.66699 -41.667 -15.5 -51 -26.5s-14 -26.833 -14 -47.5v-539c0 -62.667 5.5 -110.667 16.5 -144s30.167 -60.666 57.5 -81.999c54.667 -43.333 133.667 -65 237 -65s182.333 21.667 237 65
c26.667 21.333 45.334 48.666 56.001 81.999s16 81.333 16 144v539c0 20.667 -4.5 36.334 -13.5 47.001s-25.833 19.667 -50.5 27v28h373v-28c-24 -6.66699 -40.667 -15.5 -50 -26.5s-14 -26.833 -14 -47.5zM623.999 1246l-250.001 -0.000976562v27
c16 0.666992 26.333 2.5 31 5.5s17.334 15.167 38.001 36.5l134 149c7.33301 8 11 16.333 11 25c0 11.333 -11 17 -33 17v27h316v-27c-20 -2 -30 -8 -30 -18c0 -7.33301 5.33301 -16.666 16 -27.999l150 -167c10.667 -12.667 25.667 -19.334 45 -20.001v-27h-287v27
c20.667 2 31 7 31 15c0 2.66699 -5.33301 10.334 -16 23.001l-84 103l-92 -106c-6 -6 -9 -12 -9 -18c0 -10 9.66699 -15.667 29 -17v-27z" />
    <glyph glyph-name="udieresis" unicode="&#xfc;" horiz-adv-x="1414" 
d="M1273 1018l-0.000976562 -593.002c0 -135.333 -26.667 -234.666 -80 -297.999c-86 -100.667 -248 -151 -486 -151c-159.333 0 -288 24.333 -386 73c-70.667 35.333 -119 85.666 -145 150.999c-24 60 -36 135 -36 225v593c0 20.667 -4.66699 36.334 -14 47.001
s-26 19.667 -50 27v28h397v-28c-24.667 -6.66699 -41.667 -15.5 -51 -26.5s-14 -26.833 -14 -47.5v-539c0 -62.667 5.5 -110.667 16.5 -144s30.167 -60.666 57.5 -81.999c54.667 -43.333 133.667 -65 237 -65s182.333 21.667 237 65
c26.667 21.333 45.334 48.666 56.001 81.999s16 81.333 16 144v539c0 20.667 -4.5 36.334 -13.5 47.001s-25.833 19.667 -50.5 27v28h373v-28c-24 -6.66699 -40.667 -15.5 -50 -26.5s-14 -26.833 -14 -47.5zM511.999 1510c38 0 69.667 -12.668 95 -38.001
c25.333 -26 38 -57.667 38 -95c0 -34.667 -12.667 -64.667 -38 -90s-56.333 -38 -93 -38c-35.333 0 -66 12.667 -92 38c-25.333 24.667 -38 55.334 -38 92.001c0 36 12.333 66.5 37 91.5s55 38.167 91 39.5zM910.999 1510c36.667 0 67.667 -12.666 93 -37.999
c25.333 -26 38 -56 38 -90c0 -38 -12.667 -69.667 -38 -95s-57 -38 -95 -38c-35.333 0 -65.5 12.833 -90.5 38.5s-37.5 56.5 -37.5 92.5c0 35.333 12.5 65.666 37.5 90.999s55.833 38.333 92.5 39z" />
    <glyph glyph-name="yacute" unicode="&#xfd;" horiz-adv-x="1226" 
d="M747 491l-0.00195312 -389.002c0 -20.667 4.66699 -36.5 14 -47.5s26 -20.167 50 -27.5v-27h-396v27c24 6.66699 40.667 15.5 50 26.5s14 27.167 14 48.5v389l-332 457c-37.333 51.333 -67.166 86.5 -89.499 105.5s-48.833 31.833 -79.5 38.5v28h504v-28
c-43.333 -11.333 -65 -31.666 -65 -60.999c0 -14.667 15.667 -44 47 -88l163 -226l159 226c31.333 44.667 47 74.334 47 89.001c0 28 -21.333 48 -64 60l-1 28h480v-28c-30.667 -6.66699 -57.167 -19.5 -79.5 -38.5s-52.166 -54.167 -89.499 -105.5zM893.998 1533v-27.001
c-26 -0.666992 -45.667 -9.66699 -59 -27l-142 -174c-4 -4.66699 -6 -10 -6 -16c0 -10.667 7 -16 21 -16h4v-27h-217v27c16 0 27.333 2.33301 34 7s13 14.334 19 29.001l66 163c2.66699 6 4 11 4 15c0 10.667 -9.33301 17 -28 19v27h304z" />
    <glyph glyph-name="thorn" unicode="&#xfe;" horiz-adv-x="1239" 
d="M430 942l295.001 -0.00195312c145.333 0 254.666 -21.667 327.999 -65c42.667 -25.333 76 -61.333 100 -108s36 -99 36 -157c0 -111.333 -38.167 -194.166 -114.5 -248.499s-192.833 -81.5 -349.5 -81.5h-295v-180c0 -20.667 4.66699 -36.5 14 -47.5s26 -20.167 50 -27.5
v-27h-396v28c23.333 6 39.833 14.667 49.5 26s14.5 27.333 14.5 48v916c0 20.667 -4.66699 36.334 -14 47.001s-26 19.667 -50 27v28h396v-28c-24 -6.66699 -40.667 -15.5 -50 -26.5s-14 -26.833 -14 -47.5v-76zM430.001 484.998h286c70.667 0 119.667 6.66699 147 20
c40 20 60 55.667 60 107c0 52 -20 87.667 -60 107c-26.667 13.333 -75.667 20 -147 20h-286v-254z" />
    <glyph glyph-name="ydieresis" unicode="&#xff;" horiz-adv-x="1226" 
d="M747 491l-0.00195312 -389.002c0 -20.667 4.66699 -36.5 14 -47.5s26 -20.167 50 -27.5v-27h-396v27c24 6.66699 40.667 15.5 50 26.5s14 27.167 14 48.5v389l-332 457c-37.333 51.333 -67.166 86.5 -89.499 105.5s-48.833 31.833 -79.5 38.5v28h504v-28
c-43.333 -11.333 -65 -31.666 -65 -60.999c0 -14.667 15.667 -44 47 -88l163 -226l159 226c31.333 44.667 47 74.334 47 89.001c0 28 -21.333 48 -64 60l-1 28h480v-28c-30.667 -6.66699 -57.167 -19.5 -79.5 -38.5s-52.166 -54.167 -89.499 -105.5zM411.998 1510
c38 0 69.667 -12.668 95 -38.001c25.333 -26 38 -57.667 38 -95c0 -34.667 -12.667 -64.667 -38 -90s-56.333 -38 -93 -38c-35.333 0 -66 12.667 -92 38c-25.333 24.667 -38 55.334 -38 92.001c0 36 12.333 66.5 37 91.5s55 38.167 91 39.5zM810.998 1510
c36.667 0 67.667 -12.666 93 -37.999c25.333 -26 38 -56 38 -90c0 -38 -12.667 -69.667 -38 -95s-57 -38 -95 -38c-35.333 0 -65.5 12.833 -90.5 38.5s-37.5 56.5 -37.5 92.5c0 35.333 12.5 65.666 37.5 90.999s55.833 38.333 92.5 39z" />
    <glyph glyph-name="dotlessi" unicode="&#x131;" horiz-adv-x="593" 
d="M430 1018v-916.001c0 -20.667 4.66699 -36.5 14 -47.5s26 -20.167 50 -27.5v-27h-396v28c23.333 6 39.833 14.667 49.5 26s14.5 27.333 14.5 48v916c0 20.667 -4.66699 36.334 -14 47.001s-26 19.667 -50 27v28h396v-28c-24 -6.66699 -40.667 -15.5 -50 -26.5
s-14 -26.833 -14 -47.5z" />
    <glyph glyph-name="OE" unicode="&#x152;" horiz-adv-x="2435" 
d="M1364 599l0.000976562 -374.001h878c20.667 0 36.167 4.66699 46.5 14s18.833 26 25.5 50h32v-353h-32c-6.66699 24 -15.167 40.667 -25.5 50s-25.833 14 -46.5 14h-1176c-6 0 -23.667 -0.666992 -53 -2c-78 -4 -130.333 -6 -157 -6c-221.333 0 -402.666 63 -543.999 189
c-74.667 66.667 -131.334 147 -170.001 241c-34 82.667 -51 169.334 -51 260.001c0 133.333 35.333 255.666 106 366.999c80.667 126.667 198.667 217.334 354 272.001c97.333 34.667 201.666 52 312.999 52l202 -8h1152c20 0 35.333 4.66699 46 14s19.334 26.333 26 51h32
v-353h-32c-6.66699 24 -15.167 40.5 -25.5 49.5s-25.833 13.5 -46.5 13.5h-854v-324h553c20.667 0 36.334 4.66699 47.001 14s19.334 26 26.001 50h32v-345h-32c-6.66699 24 -15.334 40.667 -26.001 50s-26.334 14 -47.001 14h-553zM1066 1140
c-59.333 7.33301 -114.668 11 -166.001 11c-162.667 0 -287 -42.333 -373 -127c-88 -86.667 -132 -200.667 -132 -342s44 -255 132 -341c87.333 -84.667 210.333 -127 369 -127c48.667 0 105.334 3.66699 170.001 11v915z" />
    <glyph glyph-name="oe" unicode="&#x153;" horiz-adv-x="2007" 
d="M1138 476v-273h710c21.333 0 37.333 4.66699 48 14s19.667 26.333 27 51h27v-332h-27c-6.66699 24 -15.5 40.667 -26.5 50s-27.167 14 -48.5 14h-981c-12.667 -0 -43.334 -1.66699 -92.001 -5c-24.667 -2 -49.667 -3 -75 -3c-171.333 0 -312.666 42.333 -423.999 127
c-63.333 48 -114 107.667 -152 179c-44.667 82.667 -67 170 -67 262c0 126 39.667 239.667 119 341c65.333 84 152.333 145 261 183c82 29.333 170 44 264 44l166 -8h954c21.333 0 37.5 4.66699 48.5 14s19.833 26 26.5 50h27v-332h-27
c-7.33301 24.667 -16.333 41.667 -27 51s-26.667 14 -48 14h-683v-246h421c21.333 0 37.5 4.66699 48.5 14s19.833 26 26.5 50h27v-324h-27c-6.66699 24 -15.5 40.833 -26.5 50.5s-27.167 14.5 -48.5 14.5h-421zM870 917c-46.667 7.33301 -93.333 11.001 -140 11.001
c-119.333 0 -213.333 -31 -282 -93c-78.667 -71.333 -118 -163 -118 -275c0 -112.667 39.333 -204.334 118 -275.001c68.667 -62 162 -93 280 -93c46.667 0 94 3.66699 142 11v714z" />
    <glyph glyph-name="Scaron" unicode="&#x160;" horiz-adv-x="1475" 
d="M1393 1250l-163.001 -321l-28 16c0.666992 6.66699 1 12 1 16c0 22.667 -19.333 47 -58 73c-118.667 82.667 -258 124 -418 124c-70.667 0 -133 -8.66699 -187 -26c-39.333 -13.333 -71.166 -33.333 -95.499 -60s-36.5 -55.667 -36.5 -87c0 -51.333 31 -86.333 93 -105
c32 -9.33301 100.667 -19.333 206 -30l157 -16c93.333 -10 168.833 -23.667 226.5 -41s108.834 -41.666 153.501 -72.999c45.333 -32.667 81.166 -75.667 107.499 -129s39.5 -110.333 39.5 -171c0 -96 -31 -181.333 -93 -256c-56 -68 -143 -118.333 -261 -151
c-88 -24.667 -182.333 -37 -283 -37c-180.667 0 -359 43.333 -535 130c-37.333 17.333 -59.666 26 -66.999 26c-8.66699 0 -22.334 -7.33301 -41.001 -22l-29 15l148 335l29 -14v-13c0 -30 14.333 -57.667 43 -83c43.333 -38.667 110.333 -72 201 -100s176.667 -42 258 -42
c88.667 0 164.334 15 227.001 45c34.667 16.667 62.334 38.834 83.001 66.501s31 56.5 31 86.5c0 45.333 -24.333 77.666 -73 96.999c-34 13.333 -102.667 25.666 -206 36.999l-154 16c-103.333 10.667 -176.333 20.834 -219 30.501s-85.334 25.167 -128.001 46.5
c-60.667 30 -108.334 75 -143.001 135c-31.333 54 -47 116 -47 186c0 115.333 39.667 210.666 119 285.999c104 99.333 260 149 468 149c87.333 0 168.666 -8.83301 243.999 -26.5s169.333 -50.167 282 -97.5c38.667 -15.333 62.334 -23 71.001 -23
c14 0 30.333 7.66699 49 23zM867.999 1765h250v-27c-16 -0.666992 -26.5 -2.5 -31.5 -5.5s-17.5 -15.167 -37.5 -36.5l-134 -149c-7.33301 -8 -11 -16.333 -11 -25c0 -11.333 11 -17 33 -17v-27h-316v27c20 2 30 8 30 18c0 7.33301 -5.33301 17 -16 29l-150 166
c-10.667 12.667 -25.667 19.334 -45 20.001v27h287v-27c-20.667 -2 -31 -7 -31 -15c0 -2.66699 5.33301 -10.334 16 -23.001l84 -104l93 107c5.33301 6 8 12 8 18c0 10 -9.66699 15.667 -29 17v27z" />
    <glyph glyph-name="scaron" unicode="&#x161;" horiz-adv-x="1261" 
d="M1175 1019l-135.001 -261.002l-24 13c0 22 -7 39.333 -21 52c-38 34 -94 62 -168 84s-149 33 -225 33c-64.667 0 -122 -9 -172 -27c-72 -26 -108 -63.667 -108 -113c0 -32.667 17.333 -55.834 52 -69.501s101.667 -24.5 201 -32.5l158 -12
c138 -10.667 243 -37.334 315 -80.001c40 -24 73 -56 99 -96c32.667 -50 49 -106.333 49 -169c0 -114 -51.333 -204 -154 -270c-98 -63.333 -230.667 -95 -398 -95c-168.667 0 -331.667 35.667 -489 107c-10.667 4.66699 -19.667 7 -27 7c-13.333 0 -25.666 -8 -36.999 -24
l-25 10l115 274l25 -10v-8c0 -17.333 6.66699 -32 20 -44c33.333 -29.333 91 -54.833 173 -76.5s163 -32.5 243 -32.5c70.667 0 134 9.33301 190 28c69.333 22.667 104 59.334 104 110.001c0 40.667 -24 69 -72 85c-32 10.667 -89.667 19.667 -173 27l-157 13
c-84.667 6.66699 -149.334 15.334 -194.001 26.001s-83.667 26.334 -117 47.001c-42.667 26.667 -76 63 -100 109s-36 96.333 -36 151c0 122.667 52.667 216.334 158 281.001c96 58.667 214.667 88 356 88c76.667 0 148.167 -8.5 214.5 -25.5s145.5 -46.833 237.5 -89.5
c27.333 -12.667 46.333 -19 57 -19s24.334 7.33301 41.001 22zM733.999 1533h250v-27c-16 -0.666992 -26.5 -2.5 -31.5 -5.5s-17.5 -15.167 -37.5 -36.5l-134 -149c-7.33301 -8 -11 -16.333 -11 -25c0 -11.333 11 -17 33 -17v-27h-316v27c20 2 30 8 30 18
c0 7.33301 -5.33301 17 -16 29l-150 166c-10.667 12.667 -25.667 19.334 -45 20.001v27h287v-27c-20.667 -2 -31 -7 -31 -15c0 -2.66699 5.33301 -10.334 16 -23.001l84 -103l93 106c5.33301 6 8 12 8 18c0 10 -9.66699 15.667 -29 17v27z" />
    <glyph glyph-name="Ydieresis" unicode="&#x178;" horiz-adv-x="1460" 
d="M879 571v-466c0 -20.667 4.83301 -36.334 14.5 -47.001s26.5 -19.334 50.5 -26.001v-32h-429v32c24 6.66699 41 15.334 51 26.001s15 26.334 15 47.001v466l-441 621c-38 53.333 -67.833 89.166 -89.5 107.499s-47.5 29.5 -77.5 33.5v32h539v-32
c-44.667 -7.33301 -67 -28 -67 -62c0 -12 13.667 -38.333 41 -79l246 -366l253 366c27.333 39.333 41 66 41 80c0 15.333 -6 28.5 -18 39.5s-28.333 18.167 -49 21.5v32h528v-32c-30 -4 -55.833 -15.167 -77.5 -33.5s-51.5 -54.166 -89.5 -107.499zM529 1742
c38 0 69.332 -12.668 93.999 -38.001c25.333 -26 38 -58 38 -96c0 -34 -12.667 -63.667 -38 -89s-56.333 -38 -93 -38c-35.333 0 -66 12.667 -92 38c-25.333 24.667 -38 55.334 -38 92.001c0 36 12.333 66.5 37 91.5s55.334 38.167 92.001 39.5zM927.999 1742
c36.667 0 67.667 -12.667 93 -38c25.333 -26 38 -56 38 -90c0 -38 -12.667 -69.667 -38 -95s-57 -38 -95 -38c-35.333 0 -65.5 12.833 -90.5 38.5s-37.5 56.5 -37.5 92.5s12.5 66.5 37.5 91.5s55.833 37.833 92.5 38.5z" />
    <glyph glyph-name="florin" unicode="&#x192;" horiz-adv-x="1461" 
d="M5 -55l152.999 256.998l24 -11c-4.66699 -9.33301 -7 -16.666 -7 -21.999c0 -19.333 13.833 -37.666 41.5 -54.999s56.834 -26 87.501 -26c64.667 0 113.667 22.333 147 67c21.333 28.667 38 80.334 50 155.001l59 373h-89c-20.667 0 -37 -4.66699 -49 -14
s-23.333 -26 -34 -50h-32l55 346h32c2.66699 -24 8.66699 -40.833 18 -50.5s24 -14.5 44 -14.5h90l28 183c8 50 22.833 100.167 44.5 150.5s46.167 91.5 73.5 123.5c74.667 86 194.667 129 360 129c61.333 0 108.666 -5 141.999 -15s71.666 -30.333 114.999 -61
c7.33301 -4.66699 13.666 -7 18.999 -7c14 0 29.667 9.33301 47 28l32 -16l-153 -256l-33 15c10 26 15 42.333 15 49c0 11.333 -18 23.166 -54 35.499s-70 18.5 -102 18.5c-33.333 0 -65.833 -7 -97.5 -21s-55.834 -32 -72.501 -54c-25.333 -32.667 -43 -81.667 -53 -147
l-25 -155h185c20 0 36.167 4.83301 48.5 14.5s23.5 26.5 33.5 50.5h33l-55 -346h-32c-2.66699 24 -8.66699 40.667 -18 50s-24.333 14 -45 14h-185l-63 -400c-13.333 -82 -26.666 -140.167 -39.999 -174.5s-35.666 -67.833 -66.999 -100.5
c-82.667 -86.667 -198 -130 -346 -130c-87.333 0 -160.333 20.333 -219 61c-17.333 12 -29.666 18 -36.999 18c-13.333 0 -28.666 -7.66699 -45.999 -23z" />
    <glyph glyph-name="circumflex" unicode="&#x2c6;" 
d="M423 1246l-250.001 -0.000976562v27c16 0.666992 26.333 2.5 31 5.5s17.334 15.167 38.001 36.5l134 149c7.33301 8 11 16.333 11 25c0 11.333 -11 17 -33 17v27h316v-27c-20 -2 -30 -8 -30 -18c0 -7.33301 5.33301 -16.666 16 -27.999l150 -167
c10.667 -12.667 25.667 -19.334 45 -20.001v-27h-287v27c20.667 2 31 7 31 15c0 2.66699 -5.33301 10.334 -16 23.001l-84 103l-92 -106c-6 -6 -9 -12 -9 -18c0 -10 9.66699 -15.667 29 -17v-27z" />
    <glyph glyph-name="caron" unicode="&#x2c7;" 
d="M601 1533h250v-27c-16 -0.666992 -26.5 -2.5 -31.5 -5.5s-17.5 -15.167 -37.5 -36.5l-134 -149c-7.33301 -8 -11 -16.333 -11 -25c0 -11.333 11 -17 33 -17v-27h-316v27c20 2 30 8 30 18c0 7.33301 -5.33301 17 -16 29l-150 166
c-10.667 12.667 -25.667 19.334 -45 20.001v27h287v-27c-20.667 -2 -31 -7 -31 -15c0 -2.66699 5.33301 -10.334 16 -23.001l84 -103l93 106c5.33301 6 8 12 8 18c0 10 -9.66699 15.667 -29 17v27z" />
    <glyph glyph-name="uni02C9" unicode="&#x2c9;" 
d="M819 1503l-0.000976562 -262h-27c-7.33301 21.333 -16.166 36 -26.499 44s-25.833 12 -46.5 12h-414c-20 0 -35.167 -3.83301 -45.5 -11.5s-19.5 -22.5 -27.5 -44.5h-27v262h27c8 -20.667 17.167 -35.167 27.5 -43.5s25.5 -12.5 45.5 -12.5h414
c19.333 0 34.5 4.16699 45.5 12.5s20.167 22.833 27.5 43.5h27z" />
    <glyph glyph-name="breve" unicode="&#x2d8;" 
d="M194 1504v25h210v-25c-12.667 0 -20.667 -1 -24 -3s-5 -7 -5 -15c0 -28 13.5 -52.167 40.5 -72.5s59.167 -30.5 96.5 -30.5s69.5 10.167 96.5 30.5s40.5 44.5 40.5 72.5c0 8 -1.66699 13 -5 15s-11.333 3 -24 3v25h210v-25c-18 -0.666992 -27.333 -8 -28 -22
c-2 -44.667 -16 -85.667 -42 -123c-53.333 -78 -136 -117 -248 -117s-194.667 39 -248 117c-26 38 -40 79 -42 123c-0.666992 14 -10 21.333 -28 22z" />
    <glyph glyph-name="dotaccent" unicode="&#x2d9;" 
d="M510 1510c38 0 69.667 -12.668 95 -38.001c25.333 -26 38 -57.667 38 -95c0 -34.667 -12.667 -64.667 -38 -90s-56.333 -38 -93 -38c-35.333 0 -66 12.667 -92 38c-25.333 24.667 -38 55.334 -38 92.001c0 36 12.333 66.5 37 91.5s55 38.167 91 39.5z" />
    <glyph glyph-name="ring" unicode="&#x2da;" 
d="M511 1581c64.667 0 118.999 -18.3359 162.999 -55.0029c44.667 -37.333 67 -82 67 -134c0 -53.333 -22.333 -97.666 -67 -132.999c-46 -36 -100 -54 -162 -54c-63.333 0 -117.333 18.333 -162 55c-44.667 37.333 -67 82 -67 134c0 52.667 21.833 96.834 65.5 132.501
s97.834 53.834 162.501 54.501zM511.999 1477c-29.333 0 -53.5 -7.83301 -72.5 -23.5s-28.5 -35.834 -28.5 -60.501c0 -23.333 9.83301 -43.166 29.5 -59.499s43.5 -24.5 71.5 -24.5c27.333 0 51 8.16699 71 24.5s30 35.833 30 58.5c0 24.667 -9.33301 45 -28 61
s-43 24 -73 24z" />
    <glyph glyph-name="ogonek" unicode="&#x2db;" 
d="M927 0l128 -0.000976562c-74.667 -57.333 -112 -115 -112 -173c0 -31.333 11.667 -56.166 35 -74.499s55 -27.5 95 -27.5c16 0 40.333 3.66699 73 11l16 -42c-56 -17.333 -111 -26 -165 -26c-71.333 0 -125.333 11 -162 33c-47.333 28 -71 68.333 -71 121
c0 48 21 87.333 63 118c18 14 51.333 34 100 60z" />
    <glyph glyph-name="tilde" unicode="&#x2dc;" 
d="M721 1517l145.001 -134l-16 -20c-19.333 6 -31.666 9 -36.999 9c-8.66699 0 -17.334 -5.66699 -26.001 -17c-44.667 -61.333 -92 -92 -142 -92c-26 0 -54.333 6 -85 18l-148 57c-13.333 4.66699 -28 7 -44 7c-13.333 0 -26.333 -5.5 -39 -16.5s-19 -22.167 -19 -33.5
c0 -8 5 -18 15 -30l-18 -15l-149 139l14 17c15.333 -5.33301 26.666 -8 33.999 -8c14 0 26.667 7.33301 38 22c41.333 53.333 92 80 152 80c22 0 43.667 -4.33301 65 -13l149 -58c18.667 -7.33301 35.667 -11 51 -11c13.333 0 26 5.33301 38 16s18 22 18 34
c0 9.33301 -5.66699 20.333 -17 33z" />
    <glyph glyph-name="hungarumlaut" unicode="&#x2dd;" 
d="M622 1533v-27.001c-26 -0.666992 -45.667 -9.66699 -59 -27l-142 -174c-4 -4.66699 -6 -10 -6 -16c0 -10.667 7 -16 21 -16h4v-27h-208v27c16 0 27.333 2.33301 34 7s13 14.334 19 29.001l66 163c3.33301 6.66699 5 11.667 5 15c0.666992 10.667 -9 17 -29 19v27h295z
M997 1533v-27.001c-26 -0.666992 -45.667 -9.66699 -59 -27l-141 -174c-4 -4.66699 -6 -10 -6 -16c0 -10.667 7 -16 21 -16h4v-27h-208v27c15.333 0 26.333 2.33301 33 7s13 14.334 19 29.001l67 163c2.66699 7.33301 4 12.333 4 15c0 10.667 -9.66699 17 -29 19v27h295z
" />
    <glyph glyph-name="pi" unicode="&#x3c0;" horiz-adv-x="1252" 
d="M190 0v778h-149v204h1171v-204h-148v-778h-257v778h-360v-778h-257z" />
    <glyph glyph-name="endash" unicode="&#x2013;" horiz-adv-x="1577" 
d="M1489 730v-340h-32c-6 23.333 -14.5 39.833 -25.5 49.5s-26.5 14.5 -46.5 14.5h-1193c-20.667 0 -36.334 -4.66699 -47.001 -14s-19.334 -26 -26.001 -50h-32v340h32c6.66699 -24 15.334 -40.667 26.001 -50s26.334 -14 47.001 -14h1193c20 0 35.5 4.66699 46.5 14
s19.5 26 25.5 50h32z" />
    <glyph glyph-name="emdash" unicode="&#x2014;" horiz-adv-x="1361" 
d="M1361 730v-340h-32c-6.66699 23.333 -15.334 39.833 -26.001 49.5s-26 14.5 -46 14.5h-1152c-20.667 0 -36.334 -4.66699 -47.001 -14s-19.334 -26 -26.001 -50h-32v340h32c6.66699 -24 15.334 -40.667 26.001 -50s26.334 -14 47.001 -14h1152c20 0 35.333 4.66699 46 14
s19.334 26 26.001 50h32z" />
    <glyph glyph-name="quoteleft" unicode="&#x2018;" horiz-adv-x="628" 
d="M430 1325c-54 -36 -93.168 -71.001 -117.501 -105.001s-41.166 -78 -50.499 -132c30.667 8 54 12 70 12c44 0 79.333 -15.333 106 -46s40 -70.667 40 -120s-13.5 -88.666 -40.5 -117.999s-62.833 -44 -107.5 -44c-60 0 -106 24.667 -138 74c-28 44 -42 97.333 -42 160
c0 146 77.333 273.667 232 383z" />
    <glyph glyph-name="quoteright" unicode="&#x2019;" horiz-adv-x="628" 
d="M197 836c54.667 35.333 93.999 70.001 117.999 104.001s41 78.333 51 133c-31.333 -8 -54.666 -12 -69.999 -12c-44 0 -79.333 15.333 -106 46s-40 70.667 -40 120s13.5 88.666 40.5 117.999s62.833 44 107.5 44c54 0 97.5 -21.5 130.5 -64.5s49.5 -99.5 49.5 -169.5
c0 -146 -77.667 -274 -233 -384z" />
    <glyph glyph-name="quotesinglbase" unicode="&#x201a;" horiz-adv-x="628" 
d="M197 -250c54.667 36 94 71.001 118 105.001s41 78 51 132c-32 -7.33301 -55.333 -11 -70 -11c-44 0 -79.333 15.333 -106 46s-40 70.667 -40 120s13.5 88.666 40.5 117.999s62.833 44 107.5 44c60 0 106 -24.667 138 -74c28 -44.667 42 -98 42 -160
c0 -146.667 -77.667 -274.667 -233 -384z" />
    <glyph glyph-name="quotedblleft" unicode="&#x201c;" horiz-adv-x="1106" 
d="M430 1325c-54 -36 -93.168 -71.001 -117.501 -105.001s-41.166 -78 -50.499 -132c30.667 8 54 12 70 12c44 0 79.333 -15.333 106 -46s40 -70.667 40 -120s-13.5 -88.666 -40.5 -117.999s-62.833 -44 -107.5 -44c-60 0 -106 24.667 -138 74c-28 44 -42 97.333 -42 160
c0 146 77.333 273.667 232 383zM907.999 1325c-54 -36 -93.167 -71.001 -117.5 -105.001s-41.5 -78 -51.5 -132c31.333 8 55 12 71 12c44 0 79.333 -15.167 106 -45.5s40 -70.5 40 -120.5c0 -49.333 -13.5 -88.666 -40.5 -117.999s-62.833 -44 -107.5 -44
c-60 0 -106 24.667 -138 74c-28 44 -42 97.333 -42 160c0 146 77.333 273.667 232 383z" />
    <glyph glyph-name="quotedblright" unicode="&#x201d;" horiz-adv-x="1106" 
d="M197 836c54.667 35.333 93.999 70.001 117.999 104.001s41 78.333 51 133c-31.333 -8 -54.666 -12 -69.999 -12c-44 0 -79.333 15.333 -106 46s-40 70.667 -40 120s13.5 88.666 40.5 117.999s62.833 44 107.5 44c54 0 97.5 -21.5 130.5 -64.5s49.5 -99.5 49.5 -169.5
c0 -146 -77.667 -274 -233 -384zM674.999 836.001c54.667 35.333 93.999 70.001 117.999 104.001s41 78.333 51 133c-31.333 -8 -54.666 -12 -69.999 -12c-44 0 -79.333 15.333 -106 46s-40 70.667 -40 120s13.5 88.666 40.5 117.999s62.833 44 107.5 44
c54 0 97.5 -21.5 130.5 -64.5s49.5 -99.5 49.5 -169.5c0 -146 -77.667 -274 -233 -384z" />
    <glyph glyph-name="quotedblbase" unicode="&#x201e;" horiz-adv-x="1106" 
d="M197 -250c54.667 36 94 71.001 118 105.001s41 78 51 132c-32 -7.33301 -55.333 -11 -70 -11c-44 0 -79.333 15.333 -106 46s-40 70.667 -40 120s13.5 88.666 40.5 117.999s62.833 44 107.5 44c60 0 106 -24.667 138 -74c28 -44.667 42 -98 42 -160
c0 -146.667 -77.667 -274.667 -233 -384zM675 -249.999c54.667 36 94 71.001 118 105.001s41 78 51 132c-32 -7.33301 -55.333 -11 -70 -11c-44 0 -79.333 15.333 -106 46s-40 70.667 -40 120s13.5 88.666 40.5 117.999s62.833 44 107.5 44c60 0 106 -24.667 138 -74
c28 -44.667 42 -98 42 -160c0 -146 -77.667 -274 -233 -384z" />
    <glyph glyph-name="dagger" unicode="&#x2020;" horiz-adv-x="1104" 
d="M640 1074l263.998 -0.000976562c20.667 0 36.334 4.66699 47.001 14s19.334 26 26.001 50h32v-316h-32c-6.66699 24 -15.334 40.667 -26.001 50s-26.334 14 -47.001 14h-264l41 -918c0.666992 -22 5.33398 -37.833 14.001 -47.5s25.334 -18.167 50.001 -25.5v-32h-385v32
c24.667 8 41.334 16.833 50.001 26.5s13.334 25.167 14.001 46.5l41 918h-264c-20.667 0 -36.334 -4.66699 -47.001 -14s-19.334 -26 -26.001 -50h-32v316h32c8 -27.333 17.833 -44.833 29.5 -52.5s35.167 -11.5 70.5 -11.5h237l-41 323c-2.66699 24 -8 40.5 -16 49.5
s-24 16.833 -48 23.5v32h385v-32c-24 -6.66699 -40.167 -14.667 -48.5 -24s-13.5 -25.666 -15.5 -48.999z" />
    <glyph glyph-name="daggerdbl" unicode="&#x2021;" horiz-adv-x="1104" 
d="M640 1074l264.003 -0.000976562c20.667 0 36.334 4.66699 47.001 14s19.334 26 26.001 50h32v-316h-32c-6.66699 24 -15.334 40.667 -26.001 50s-26.334 14 -47.001 14h-264l10 -407h254c20.667 0 36.334 4.66699 47.001 14s19.334 26 26.001 50h32v-316h-32
c-6.66699 24 -15.334 40.667 -26.001 50s-26.334 14 -47.001 14h-254l31 -323c2 -23.333 7.16699 -39.666 15.5 -48.999s24.5 -17.333 48.5 -24v-32h-385v32c24 6.66699 40.167 14.667 48.5 24s13.5 25.666 15.5 48.999l32 323h-228c-35.333 0 -58.833 -3.83301 -70.5 -11.5
s-21.5 -25.167 -29.5 -52.5h-32v316h32c7.33301 -24.667 16.166 -41.5 26.499 -50.5s25.833 -13.5 46.5 -13.5h255l9 407h-264c-20.667 0 -36.334 -4.66699 -47.001 -14s-19.334 -26 -26.001 -50h-32v316h32c8 -27.333 17.833 -44.833 29.5 -52.5s35.167 -11.5 70.5 -11.5
h237l-41 323c-2.66699 24 -8 40.5 -16 49.5s-24 16.833 -48 23.5v32h385v-32c-24 -6.66699 -40.167 -14.667 -48.5 -24s-13.5 -25.666 -15.5 -48.999z" />
    <glyph glyph-name="bullet" unicode="&#x2022;" horiz-adv-x="1365" 
d="M689 978c75.333 0 140.669 -27.667 196.002 -83c56 -55.333 84 -122.333 84 -201s-28 -145.667 -84 -201c-54.667 -55.333 -121.334 -83 -200.001 -83s-145.334 27.667 -200.001 83c-56 55.333 -84 122 -84 200c0 80.667 28 148 84 202c56 55.333 124 83 204 83z" />
    <glyph glyph-name="ellipsis" unicode="&#x2026;" horiz-adv-x="1884" 
d="M314 304c46 0 84.833 -16.001 116.5 -48.001s47.5 -71 47.5 -117c0 -44.667 -16.167 -83 -48.5 -115s-70.833 -48 -115.5 -48c-45.333 0 -84 16.167 -116 48.5s-48 71.166 -48 116.499c0 44.667 15.833 82.834 47.5 114.501s70.5 47.834 116.5 48.501zM942 303.999
c46 0 84.833 -16.001 116.5 -48.001s47.5 -71 47.5 -117c0 -44.667 -16.167 -83 -48.5 -115s-70.833 -48 -115.5 -48c-45.333 0 -84 16.167 -116 48.5s-48 71.166 -48 116.499c0 44.667 15.833 82.834 47.5 114.501s70.5 47.834 116.5 48.501zM1570 303.998
c46 0 84.833 -16.001 116.5 -48.001s47.5 -71 47.5 -117c0 -44.667 -16.167 -83 -48.5 -115s-70.833 -48 -115.5 -48c-45.333 0 -84 16.167 -116 48.5s-48 71.166 -48 116.499c0 44.667 15.833 82.834 47.5 114.501s70.5 47.834 116.5 48.501z" />
    <glyph glyph-name="perthousand" unicode="&#x2030;" horiz-adv-x="2644" 
d="M416 1377c97.333 0 178 -29.333 242 -88c72 -66 108 -156 108 -270c0 -108 -36 -195 -108 -261c-64 -58.667 -144.333 -88 -241 -88s-177 29.333 -241 88c-72 66.667 -108 155.334 -108 266.001c0 112 36 200.333 108 265c64 57.333 144 86.666 240 87.999zM417 1234
c-52 0 -94.333 -19.501 -127 -58.501s-49 -89.833 -49 -152.5c0 -62 16.333 -112.5 49 -151.5s75 -58.5 127 -58.5c51.333 0 93.5 19.5 126.5 58.5s49.5 88.833 49.5 149.5c0 64 -16 115.333 -48 154s-74.667 58.334 -128 59.001zM1391 694.999
c97.333 0 178 -29.332 242 -87.999c72 -66 108 -156 108 -270c0 -108 -36 -195 -108 -261c-64 -58.667 -144.333 -88 -241 -88s-177 29.333 -241 88c-72 66 -108 154.667 -108 266c0 112 36 200.333 108 265c64 57.333 144 86.666 240 87.999zM1392 552
c-52 0 -94.333 -19.501 -127 -58.501s-49 -89.833 -49 -152.5c0 -62 16.333 -112.5 49 -151.5s75 -58.5 127 -58.5c51.333 0 93.5 19.5 126.5 58.5s49.5 88.833 49.5 149.5c0 64 -16 115.333 -48 154s-74.667 58.334 -128 59.001zM1380 1192l-804 -1040
c-24 -31.333 -36 -54 -36 -68c0 -26.667 20 -44 60 -52v-32h-356v32c34 5.33301 60.833 15.833 80.5 31.5s52.5 53.167 98.5 112.5l788 1016c29.333 37.333 44 64.333 44 81c0 29.333 -20 49.333 -60 60v32h355v-32c-34 -4.66699 -58.833 -13.5 -74.5 -26.5
s-47.5 -51.167 -95.5 -114.5zM2225 694.999c97.333 0 178 -29.332 242 -87.999c72 -66 108 -156 108 -270c0 -108 -36 -195 -108 -261c-64 -58.667 -144.333 -88 -241 -88s-177 29.333 -241 88c-72 66 -108 154.667 -108 266c0 112 36 200.333 108 265
c64 57.333 144 86.666 240 87.999zM2226 552c-52 0 -94.333 -19.501 -127 -58.501s-49 -89.833 -49 -152.5c0 -62 16.333 -112.5 49 -151.5s75 -58.5 127 -58.5c51.333 0 93.5 19.5 126.5 58.5s49.5 88.833 49.5 149.5c0 64 -16 115.333 -48 154s-74.667 58.334 -128 59.001
z" />
    <glyph glyph-name="guilsinglleft" unicode="&#x2039;" horiz-adv-x="640" 
d="M490 983l-196 -403l196 -403h-173l-194 403l194 403h173z" />
    <glyph glyph-name="guilsinglright" unicode="&#x203a;" horiz-adv-x="640" 
d="M150 983h173l194 -403l-194 -403h-173l196 403z" />
    <glyph glyph-name="Euro" unicode="&#x20ac;" horiz-adv-x="1461" 
d="M1356 96l-25.999 -18.001c-18.667 17.333 -34 26 -46 26c-10 0 -43.333 -15.333 -100 -46c-101.333 -54.667 -209.333 -82 -324 -82c-150 0 -278.667 40.667 -386 122c-102.667 77.333 -175.334 183.333 -218.001 318h-75c-37.333 0 -65.333 -21.333 -84 -64h-32l45 266
h32c4.66699 -43.333 25.334 -65 62.001 -65h22c-6 43.333 -9 86 -9 128c0 30.667 1 57.667 3 81h-39c-37.333 0 -65.333 -21.333 -84 -64h-32l45 266h32c4.66699 -43.333 25.334 -65 62.001 -65h39c37.333 148 108.333 265.667 213 353
c110.667 91.333 245.334 137 404.001 137c113.333 0 220.666 -27.333 321.999 -82c56.667 -30.667 90 -46 100 -46c12 0 27.333 8.66699 46 26l26 -18l-220 -315l-27 18c1.33301 10.667 2 19.667 2 27c0 16.667 -8.33301 35 -25 55
c-56.667 68 -131.334 102.333 -224.001 103c-146.667 1.33301 -248.667 -84.667 -306 -258h344c36.667 0 64 21.667 82 65h33l-45 -266h-32c-4.66699 42.667 -25.667 64 -63 64h-348c-3.33301 -29.333 -5 -56.333 -5 -81c0 -41.333 4 -84 12 -128h306
c36.667 0 64 21.667 82 65h33l-45 -266h-32c-4.66699 42.667 -25.667 64 -63 64h-240c61.333 -140 157 -209.333 287 -208c93.333 0.666992 168.666 35.334 225.999 104.001c16.667 20 25 38 25 54c0 7.33301 -0.666992 16.333 -2 27l27 18z" />
    <glyph glyph-name="trademark" unicode="&#x2122;" horiz-adv-x="2083" 
d="M528 1225v-573c0 -10 2.66699 -17.333 8 -22s16 -9 32 -13v-30h-278v30c16 4 26.667 8.33301 32 13s8 12 8 22v573h-256c-12 0 -20.667 -2.33301 -26 -7s-10 -14 -14 -28h-32v211h32c4 -14.667 8.66699 -24.334 14 -29.001s14 -7 26 -7h710
c11.333 0 19.666 2.33301 24.999 7s10 14.334 14 29.001h32v-211h-32c-4 14 -8.66699 23.333 -14 28s-13.666 7 -24.999 7h-256zM1454 591l-304.999 507v-446c0 -10 2.66699 -17.333 8 -22s16 -9 32 -13v-30h-263v30c16 4 26.667 8.33301 32 13s8 12 8 22v648
c0 10 -2.66699 17.5 -8 22.5s-16 9.16699 -32 12.5v30h340v-30c-19.333 -4 -29 -12.333 -29 -25c0 -6.66699 2.66699 -14.334 8 -23.001l225 -375l227 368c10 16 15 27.333 15 34c0 12.667 -10.333 19.334 -31 20.001v31h333v-30c-16 -3.33301 -26.667 -7.5 -32 -12.5
s-8 -12.5 -8 -22.5v-648c0 -10 2.66699 -17.333 8 -22s16 -9 32 -13v-30h-277v30c15.333 4 25.666 8.33301 30.999 13s8 12 8 22v447z" />
    <glyph glyph-name="Omega" unicode="&#x2126;" horiz-adv-x="1365" 
d="M56 0l0.00292969 239.002h298c-78 47.333 -142 102.333 -192 165c-74.667 93.333 -112 209.333 -112 348c0 186 64.667 343 194 471c119.333 117.333 264.666 176 435.999 176c176.667 0 325 -59.667 445 -179c126 -124.667 189 -280.334 189 -467.001
c0 -114 -24.5 -212.5 -73.5 -295.5s-125.833 -155.833 -230.5 -218.5h298v-239h-548v221c75.333 40 133.666 90 174.999 150c67.333 98.667 101 210 101 334c0 127.333 -34.333 235.666 -103 324.999c-65.333 85.333 -148 128 -248 128c-102 0 -186.667 -42.667 -254 -128
c-68 -86 -102 -195 -102 -327c0 -111.333 23.167 -207.5 69.5 -288.5s115.166 -145.5 206.499 -193.5v-221h-549z" />
    <glyph glyph-name="partialdiff" unicode="&#x2202;" 
d="M134 1146l32 213.999c127.333 -15.333 238.333 -41 333 -77c122 -46.667 225.333 -120 310 -220c117.333 -139.333 176 -318 176 -536c0 -166.667 -41.333 -298 -124 -394c-90.667 -104 -211 -156 -361 -156c-143.333 0 -258 50.667 -344 152
c-78 91.333 -117 198.333 -117 321c0 94.667 26.333 180 79 256c38 56 88 99.5 150 130.5s129.333 46.5 202 46.5c68 0 122.333 -13.333 163 -40c5.33301 -3.33301 26.333 -18.666 63 -45.999c4.66699 -4 12 -9.33301 22 -16l-12 23c-29.333 60 -52.333 100.667 -69 122
s-44.667 46 -84 74c-115.333 80 -255 128.667 -419 146zM520 678.999c-57.333 0 -106.667 -18.3311 -148 -54.998c-55.333 -48 -83 -110.333 -83 -187c0 -69.333 23.667 -128 71 -176c42.667 -43.333 94.667 -65 156 -65c62 0 114 23.667 156 71s63 105.666 63 174.999
c0 68 -20.167 124.167 -60.5 168.5s-91.833 67.166 -154.5 68.499z" />
    <glyph glyph-name="Delta" unicode="&#x2206;" horiz-adv-x="1320" 
d="M16 0l500 1365h285l503 -1365h-1288zM367 239h580l-287 835z" />
    <glyph glyph-name="product" unicode="&#x220f;" horiz-adv-x="1365" 
d="M41 1536h1283v-221h-147v-1606h147v-221h-530v221h136v1606h-494v-1606h133v-221h-528v221h150v1606h-150v221z" />
    <glyph glyph-name="summation" unicode="&#x2211;" horiz-adv-x="1365" 
d="M1265 1536v-515h-248l-30 262h-610l498 -738l-496 -804h627l17 270h261v-523h-1215v292l480 764l-480 702v290h1196z" />
    <glyph glyph-name="fraction" unicode="&#x2215;" horiz-adv-x="588" 
d="M862 1365l0.00195312 -31.998c-32.667 -4.66699 -55.334 -12.834 -68.001 -24.501s-39.667 -50.5 -81 -116.5l-618 -1040c-16.667 -28 -25 -48.333 -25 -61c0 -16 6.83301 -29.167 20.5 -39.5s32.5 -16.833 56.5 -19.5v-32h-420v32c33.333 6 58.166 16.667 74.499 32
s42.5 52.666 78.5 111.999l609 1016c20 32.667 30 57 30 73s-7.33301 30.5 -22 43.5s-33 21.167 -55 24.5v32h420z" />
    <glyph glyph-name="periodcentered" unicode="&#x2219;" horiz-adv-x="628" 
d="M314 669c46 0 84.833 -16.001 116.5 -48.001s47.5 -71 47.5 -117c0 -44.667 -16.167 -83 -48.5 -115s-70.833 -48 -115.5 -48c-45.333 0 -84 16.167 -116 48.5s-48 71.166 -48 116.499c0 44.667 15.833 82.834 47.5 114.501s70.5 47.834 116.5 48.501z" />
    <glyph glyph-name="radical" unicode="&#x221a;" horiz-adv-x="1365" 
d="M1365 1693v-227.998h-352l-386 -1465h-318l-130 535h-179v228h336l61 -229c10 -37.333 25.667 -133.333 47 -288h15c19.333 119.333 38.333 221.666 57 306.999s48 203.666 88 354.999l208 785h553z" />
    <glyph glyph-name="infinity" unicode="&#x221e;" horiz-adv-x="1365" 
d="M687 570c-32.667 -40 -62.3311 -72.666 -88.998 -97.999c-70.667 -65.333 -152 -98 -244 -98c-96 0 -174.333 32.667 -235 98c-55.333 58.667 -83 134 -83 226c0 94 29.667 170.333 89 229c60.667 60 136.667 90 228 90c118.667 0 227 -64.667 325 -194
c98 129.333 209 194 333 194c101.333 0 182.666 -35.333 243.999 -106c49.333 -57.333 74 -129 74 -215c0 -94.667 -29 -171.334 -87 -230.001c-60.667 -61.333 -137.334 -92 -230.001 -92c-62 0 -118.833 15.5 -170.5 46.5s-103.167 80.833 -154.5 149.5zM777.003 696.001
c66.667 -100.667 136.001 -151.001 208.001 -151.001c42 0 77 14.333 105 43s42 64.667 42 108c0 42.667 -14.167 78.334 -42.5 107.001s-63.5 43 -105.5 43c-56 0 -109 -28.667 -159 -86c-6.66699 -8 -16.334 -20.5 -29.001 -37.5s-19 -25.833 -19 -26.5zM587.004 695
c-66.667 100.667 -136.667 151 -210 151c-42 0 -76.5 -14.167 -103.5 -42.5s-40.5 -64.5 -40.5 -108.5c0 -43.333 13.833 -79 41.5 -107s63.167 -42 106.5 -42c57.333 0 110 28.333 158 85c6.66699 8 16.5 20.5 29.5 37.5s19.167 25.833 18.5 26.5z" />
    <glyph glyph-name="integral" unicode="&#x222b;" 
d="M110 -491l47.9971 259.999c34.667 -13.333 63 -20 85 -20c26 0 49 6 69 18s33.667 28 41 48c5.33301 14.667 8.5 31.167 9.5 49.5s1.83301 74.833 2.5 169.5v906c0 114.667 1.33301 194.834 4 240.501s8.33398 85.167 17.001 118.5c20 79.333 69 142 147 188
c56 32.667 127.333 49 214 49c38.667 0 94.667 -7 168 -21l-48 -260c-33.333 13.333 -62.666 20 -87.999 20c-49.333 0 -83 -18 -101 -54c-12 -22.667 -18 -70 -18 -142v-1071c0 -132 -6.33301 -223.333 -19 -274c-16.667 -69.333 -57.667 -127 -123 -173
c-65.333 -47.333 -159.666 -71 -282.999 -71c-33.333 0 -67 4.66699 -101 14c-8.66699 2 -16.667 3.66699 -24 5z" />
    <glyph glyph-name="approxequal" unicode="&#x2248;" 
d="M159 713l-141.998 100.001c28 66.667 56.667 118.667 86 156c59.333 78 130.666 117 213.999 117c45.333 0 118.666 -22.333 219.999 -67c88 -38.667 147.333 -58 178 -58c28.667 0 54.334 8.5 77.001 25.5s46.667 46.167 72 87.5l142 -100
c-32.667 -75.333 -64.334 -132 -95.001 -170c-58 -70 -126 -105 -204 -105c-24 0 -49.167 4 -75.5 12s-70.5 25.333 -132.5 52c-96 40.667 -160 61 -192 61c-28 0 -53 -8.33301 -75 -25s-46.333 -45.334 -73 -86.001zM159.002 281.001l-142 99.999
c28.667 66.667 57.334 118.667 86.001 156c59.333 78 131 117 215 117c45.333 0 118.333 -22 219 -66c87.333 -38.667 146.666 -58 177.999 -58c28.667 0 54.334 8.33301 77.001 25s46.667 45.334 72 86.001l142 -100c-32.667 -75.333 -64.334 -132 -95.001 -170
c-58 -70 -126 -105 -204 -105c-24 0 -48.833 4 -74.5 12s-70.167 25.333 -133.5 52c-96.667 41.333 -160.667 62 -192 62c-50.667 0 -100 -37 -148 -111z" />
    <glyph glyph-name="notequal" unicode="&#x2260;" horiz-adv-x="1570" 
d="M831 1013l92.002 196.999c4.66699 10 7 21 7 33c0 16 -12.333 34.333 -37 55l12 26l295 -136l-13 -27c-12.667 2.66699 -23.334 4 -32.001 4c-24.667 0 -42.667 -12.667 -54 -38l-54 -114h193c18.667 0 32.834 4.66699 42.501 14s17.5 26 23.5 50h30v-324h-30
c-6 24 -13.833 40.667 -23.5 50s-23.834 14 -42.501 14h-284l-125 -268h409c18.667 0 32.834 4.5 42.501 13.5s17.5 25.5 23.5 49.5h30v-324h-30c-6 24.667 -13.833 41.667 -23.5 51s-23.834 14 -42.501 14h-501l-92 -198c-4.66699 -10 -7 -21 -7 -33
c0 -16.667 12.333 -35 37 -55l-13 -26l-294 137l13 27c13.333 -2.66699 24.333 -4 33 -4c24 0 41.667 12.333 53 37l54 115h-193c-18.667 0 -32.834 -4.66699 -42.501 -14s-17.834 -26.333 -24.501 -51h-29v324h30c5.33301 -23.333 13 -39.666 23 -48.999s24.333 -14 43 -14
h284l125 268h-409c-19.333 0 -33.666 -4.66699 -42.999 -14s-17.333 -26 -24 -50h-29v324h30c5.33301 -24 13 -40.667 23 -50s24.333 -14 43 -14h501z" />
    <glyph glyph-name="lessequal" unicode="&#x2264;" 
d="M955 1307v-271l-571 -190l571 -189v-271l-887 339v244zM955 330v-254h-887v254h887z" />
    <glyph glyph-name="greaterequal" unicode="&#x2265;" 
d="M68 1307l887 -338v-244l-887 -339v271l571 189l-571 190v271zM68 330h887v-254h-887v254z" />
    <glyph glyph-name="lozenge" unicode="&#x25ca;" horiz-adv-x="1365" 
d="M683 1419l532 -736l-532 -736l-532 736zM683 1237l-404 -554l404 -555l403 555z" />
    <glyph glyph-name="fi" unicode="&#xf001;" horiz-adv-x="1841" 
d="M430 476v-374.001c0 -20.667 4.66699 -36.5 14 -47.5s26 -20.167 50 -27.5v-27h-396v28c23.333 6 39.833 14.667 49.5 26s14.5 27.333 14.5 48v916c0 20.667 -4.66699 36.334 -14 47.001s-26 19.667 -50 27v28h1004c21.333 0 37.5 4.66699 48.5 14s19.833 26 26.5 50h27
v-332h-27c-6.66699 24 -15.5 40.833 -26.5 50.5s-27.167 14.5 -48.5 14.5h-672v-246h422c21.333 0 37.333 4.66699 48 14s19.667 26 27 50h27v-324h-27c-6.66699 24 -15.5 40.833 -26.5 50.5s-27.167 14.5 -48.5 14.5h-422zM1678 1018v-916.001
c0 -20.667 4.66699 -36.667 14 -48s26 -20.333 50 -27v-27h-396v28c23.333 6 39.833 14.667 49.5 26s14.5 27.333 14.5 48v916c0 20.667 -4.5 36.334 -13.5 47.001s-25.833 19.667 -50.5 27v28h396v-28c-24 -6.66699 -40.667 -15.5 -50 -26.5s-14 -26.833 -14 -47.5z" />
    <glyph glyph-name="fl" unicode="&#xf002;" horiz-adv-x="2424" 
d="M430 476v-374.001c0 -20.667 4.66699 -36.5 14 -47.5s26 -20.167 50 -27.5v-27h-396v28c23.333 6 39.833 14.667 49.5 26s14.5 27.333 14.5 48v916c0 20.667 -4.66699 36.334 -14 47.001s-26 19.667 -50 27v28h1004c21.333 0 37.5 4.66699 48.5 14s19.833 26 26.5 50h27
v-332h-27c-7.33301 24.667 -16.333 41.667 -27 51s-26.667 14 -48 14h-672v-246h422c20.667 0 36.5 4.66699 47.5 14s20.167 26 27.5 50h27v-324h-27c-6.66699 24 -15.5 40.833 -26.5 50.5s-27.167 14.5 -48.5 14.5h-422zM1678 202.999l627 -0.000976562
c21.333 0 37.333 4.66699 48 14s19.667 26.333 27 51h27v-332h-27c-6.66699 24 -15.5 40.667 -26.5 50s-27.167 14 -48.5 14h-959v28c23.333 6 39.833 14.667 49.5 26s14.5 27.333 14.5 48v916c0 20.667 -4.5 36.334 -13.5 47.001s-25.833 19.667 -50.5 27v28h396v-28
c-24 -6.66699 -40.667 -15.5 -50 -26.5s-14 -26.833 -14 -47.5v-815z" />
    <glyph glyph-name="glyph1" horiz-adv-x="0" 
 />
    <glyph glyph-name="glyph2" horiz-adv-x="512" 
 />
    <glyph glyph-name="glyph242" 
d="M311 1742c38 0 69.667 -12.668 95 -38.001c25.333 -26 38 -58 38 -96c0 -34 -12.667 -63.667 -38 -89s-56.333 -38 -93 -38c-35.333 0 -66 12.667 -92 38c-25.333 24.667 -38 55.334 -38 92.001c0 36 12.333 66.5 37 91.5s55 38.167 91 39.5zM710 1742
c36.667 0 67.667 -12.666 93 -37.999c25.333 -26 38 -56 38 -90c0 -38 -12.667 -69.667 -38 -95s-57 -38 -95 -38c-35.333 0 -65.5 12.833 -90.5 38.5s-37.5 56.5 -37.5 92.5c0 35.333 12.5 65.666 37.5 90.999s55.833 38.333 92.5 39z" />
    <glyph glyph-name="glyph243" 
d="M511 1813c64.667 0 118.999 -18.3359 162.999 -55.0029c44.667 -37.333 67 -82 67 -134c0 -53.333 -22.333 -97.666 -67 -132.999c-46 -36 -100 -54 -162 -54c-63.333 0 -117.333 18.333 -162 55c-44.667 37.333 -67 82 -67 134c0 52.667 21.833 96.834 65.5 132.501
s97.834 53.834 162.501 54.501zM511.999 1709c-29.333 0 -53.5 -7.83301 -72.5 -23.5s-28.5 -35.834 -28.5 -60.501c0 -23.333 9.83301 -43.166 29.5 -59.499s43.5 -24.5 71.5 -24.5c27.333 0 51 8.16699 71 24.5s30 35.833 30 58.5c0 24.667 -9.33301 45 -28 61
s-43 24 -73 24z" />
    <glyph glyph-name="glyph244" 
d="M601 1765h250v-27c-16 -0.666992 -26.5 -2.5 -31.5 -5.5s-17.5 -15.167 -37.5 -36.5l-134 -149c-7.33301 -8 -11 -16.333 -11 -25c0 -11.333 11 -17 33 -17v-27h-316v27c20 2 30 8 30 18c0 7.33301 -5.33301 17 -16 29l-150 166
c-10.667 12.667 -25.667 19.334 -45 20.001v27h287v-27c-20.667 -2 -31 -7 -31 -15c0 -2.66699 5.33301 -10.334 16 -23.001l84 -104l93 107c5.33301 6 8 12 8 18c0 10 -9.66699 15.667 -29 17v27z" />
    <glyph glyph-name="glyph245" 
d="M367 -246l56.9971 109.999c8.66699 16.667 14.834 26.334 18.501 29.001s11.167 4 22.5 4c91.333 0 162 -15.333 212 -46s75 -74 75 -130c0 -53.333 -21.333 -97.333 -64 -132c-45.333 -36.667 -110.666 -55 -195.999 -55c-88 0 -161.333 10.333 -220 31l25 52
c40 -10.667 77.333 -16 112 -16c46 0 82.667 8.33301 110 25s41 39.334 41 68.001c0 21.333 -7.66699 39.666 -23 54.999s-33.666 23 -54.999 23c-32 0 -59.667 -13 -83 -39z" />
    <glyph glyph-name="glyph246" 
d="M423 1478l-250.001 -0.000976562v27c16 0.666992 26.333 2.5 31 5.5s17.334 15.167 38.001 36.5l134 149c7.33301 8 11 16.333 11 25c0 11.333 -11 17 -33 17v27h316v-27c-20 -2 -30 -8 -30 -18c0 -7.33301 5.33301 -16.666 16 -27.999l150 -167
c10.667 -12.667 25.667 -19.334 45 -20.001v-27h-287v27c20.667 1.33301 31 6.33301 31 15c0 2.66699 -5.33301 10.334 -16 23.001l-84 103l-92 -106c-6 -6 -9 -12 -9 -18c0 -10 9.66699 -15.667 29 -17v-27z" />
    <glyph glyph-name="glyph247" 
d="M778 1765v-27.001c-26 -0.666992 -45.667 -10 -59 -28l-142 -173c-4 -4.66699 -6 -10 -6 -16c0 -10.667 7 -16 21 -16h4v-27h-217v27c16 0 27.333 2.33301 34 7s13 14.334 19 29.001l66 163c2.66699 6 4 11 4 15c0 10.667 -9.33301 17 -28 19v27h304z" />
    <glyph glyph-name="glyph248" 
d="M345 1510c38 0 69.667 -12.668 95 -38.001c25.333 -26 38 -57.667 38 -95c0 -34.667 -12.667 -64.667 -38 -90s-56.333 -38 -93 -38c-35.333 0 -66 12.667 -92 38c-25.333 24.667 -38 55.334 -38 92.001c0 36 12.333 66.5 37 91.5s55 38.167 91 39.5zM676 1510
c36.667 0 67.667 -12.666 93 -37.999c25.333 -26 38 -56 38 -90c0 -38 -12.667 -69.667 -38 -95s-57.333 -38 -96 -38c-34.667 0 -64.5 12.833 -89.5 38.5s-37.5 56.5 -37.5 92.5c0 35.333 12.5 65.666 37.5 90.999s55.833 38.333 92.5 39z" />
    <glyph glyph-name="glyph249" 
d="M721 1749l144.999 -134l-16 -20c-19.333 6 -31.666 9 -36.999 9c-8.66699 0 -17.334 -5.66699 -26.001 -17c-44.667 -60.667 -92 -91 -142 -91c-26.667 0 -55 5.66699 -85 17l-148 57c-14.667 5.33301 -29.334 8 -44.001 8c-13.333 0 -26.333 -5.5 -39 -16.5
s-19 -22.167 -19 -33.5c0 -8 5 -18.333 15 -31l-18 -14l-149 138l14 17c16 -5.33301 27.333 -8 34 -8c14 0 26.667 7.66699 38 23c40.667 53.333 91.334 80 152.001 80c20.667 0 42.334 -4.33301 65.001 -13l149 -59c17.333 -6.66699 34.333 -10 51 -10
c13.333 0 26 5.33301 38 16s18 22 18 34c0 8.66699 -5.66699 19.667 -17 33z" />
    <glyph glyph-name="glyph250" 
d="M345 1742c38 0 69.667 -12.668 95 -38.001c25.333 -26 38 -58 38 -96c0 -34 -12.667 -63.667 -38 -89s-56.333 -38 -93 -38c-35.333 0 -66 12.667 -92 38c-25.333 24.667 -38 55.334 -38 92.001c0 36 12.333 66.5 37 91.5s55 38.167 91 39.5zM676 1742
c36.667 0 67.667 -12.666 93 -37.999c25.333 -26 38 -56 38 -90c0 -38 -12.667 -69.667 -38 -95s-57.333 -38 -96 -38c-34.667 0 -64.5 12.833 -89.5 38.5s-37.5 56.5 -37.5 92.5c0 35.333 12.5 65.666 37.5 90.999s55.833 38.333 92.5 39z" />
    <glyph glyph-name="glyph251" 
d="M246 1765l304 0.000976562v-27c-18.667 -2 -28 -8.33301 -28 -19c0 -4 1.33301 -9 4 -15l66 -163c6 -14.667 12.333 -24.334 19 -29.001s18 -7 34 -7v-27h-217v27h5c13.333 0 20 5.33301 20 16c0 6 -2 11.333 -6 16l-142 173c-13.333 18 -33 27.333 -59 28v27z" />
    </font>
</defs>
</svg>
